<?xml version="1.0" encoding="UTF-8" standalone="no"?><svg xmlns="http://www.w3.org/2000/svg" xmlns:xlink="http://www.w3.org/1999/xlink" contentStyleType="text/css" height="1116px" preserveAspectRatio="none" style="width:1306px;height:1116px;background:#FFFFFF;" version="1.1" viewBox="0 0 1306 1116" width="1306px" zoomAndPan="magnify"><defs/><g><!--MD5=[e9d6884d023c009175adb4285a573e02]
cluster java--><g id="cluster_java"><path d="M8.5,6 L38.5,6 A3.75,3.75 0 0 1 41,8.5 L48,27.6406 L1296.5,27.6406 A2.5,2.5 0 0 1 1299,30.1406 L1299,1106.5 A2.5,2.5 0 0 1 1296.5,1109 L8.5,1109 A2.5,2.5 0 0 1 6,1106.5 L6,8.5 A2.5,2.5 0 0 1 8.5,6 " fill="#DDDDDD" style="stroke:#000000;stroke-width:1.5;"/><line style="stroke:#000000;stroke-width:1.5;" x1="6" x2="48" y1="27.6406" y2="27.6406"/><text fill="#000000" font-family="sans-serif" font-size="14" font-weight="bold" lengthAdjust="spacing" textLength="29" x="10" y="20.6738">java</text></g><!--MD5=[66dd6d0a484290b46f8665dfa0e5de89]
cluster Company--><g id="cluster_Company"><path d="M878.5,48 L943.5,48 A3.75,3.75 0 0 1 946,50.5 L953,69.6406 L1272.5,69.6406 A2.5,2.5 0 0 1 1275,72.1406 L1275,940.5 A2.5,2.5 0 0 1 1272.5,943 L878.5,943 A2.5,2.5 0 0 1 876,940.5 L876,50.5 A2.5,2.5 0 0 1 878.5,48 " fill="#DDDDDD" style="stroke:#000000;stroke-width:1.5;"/><line style="stroke:#000000;stroke-width:1.5;" x1="876" x2="953" y1="69.6406" y2="69.6406"/><text fill="#000000" font-family="sans-serif" font-size="14" font-weight="bold" lengthAdjust="spacing" textLength="64" x="880" y="62.6738">Company</text></g><!--MD5=[1f2cfc53d9d308f53762fd0fcbaa4873]
cluster Controller--><g id="cluster_Controller"><path d="M942.5,380 L1014.5,380 A3.75,3.75 0 0 1 1017,382.5 L1024,401.6406 L1207.5,401.6406 A2.5,2.5 0 0 1 1210,404.1406 L1210,509.5 A2.5,2.5 0 0 1 1207.5,512 L942.5,512 A2.5,2.5 0 0 1 940,509.5 L940,382.5 A2.5,2.5 0 0 1 942.5,380 " fill="#DDDDDD" style="stroke:#000000;stroke-width:1.5;"/><line style="stroke:#000000;stroke-width:1.5;" x1="940" x2="1024" y1="401.6406" y2="401.6406"/><text fill="#000000" font-family="sans-serif" font-size="14" font-weight="bold" lengthAdjust="spacing" textLength="71" x="944" y="394.6738">Controller</text></g><!--MD5=[64e2e010ba86d7988e5cd73bd64f61f9]
cluster ui--><g id="cluster_ui"><path d="M997.5,90 L1011.5,90 A3.75,3.75 0 0 1 1014,92.5 L1021,111.6406 L1152.5,111.6406 A2.5,2.5 0 0 1 1155,114.1406 L1155,344.5 A2.5,2.5 0 0 1 1152.5,347 L997.5,347 A2.5,2.5 0 0 1 995,344.5 L995,92.5 A2.5,2.5 0 0 1 997.5,90 " fill="#DDDDDD" style="stroke:#000000;stroke-width:1.5;"/><line style="stroke:#000000;stroke-width:1.5;" x1="995" x2="1021" y1="111.6406" y2="111.6406"/><text fill="#000000" font-family="sans-serif" font-size="14" font-weight="bold" lengthAdjust="spacing" textLength="13" x="999" y="104.6738">ui</text></g><!--MD5=[15636c1ca4a123c16a2a1a8e90aca7a9]
cluster Model--><g id="cluster_Model"><path d="M902.5,560 L947.5,560 A3.75,3.75 0 0 1 950,562.5 L957,581.6406 L1248.5,581.6406 A2.5,2.5 0 0 1 1251,584.1406 L1251,916.5 A2.5,2.5 0 0 1 1248.5,919 L902.5,919 A2.5,2.5 0 0 1 900,916.5 L900,562.5 A2.5,2.5 0 0 1 902.5,560 " fill="#DDDDDD" style="stroke:#000000;stroke-width:1.5;"/><line style="stroke:#000000;stroke-width:1.5;" x1="900" x2="957" y1="581.6406" y2="581.6406"/><text fill="#000000" font-family="sans-serif" font-size="14" font-weight="bold" lengthAdjust="spacing" textLength="44" x="904" y="574.6738">Model</text></g><!--MD5=[7ce1723ddb6e6233854253973eae5a71]
cluster Store--><g id="cluster_Store"><path d="M348.5,567.5 L387.5,567.5 A3.75,3.75 0 0 1 390,570 L397,589.1406 L555.5,589.1406 A2.5,2.5 0 0 1 558,591.6406 L558,697 A2.5,2.5 0 0 1 555.5,699.5 L348.5,699.5 A2.5,2.5 0 0 1 346,697 L346,570 A2.5,2.5 0 0 1 348.5,567.5 " fill="#DDDDDD" style="stroke:#000000;stroke-width:1.5;"/><line style="stroke:#000000;stroke-width:1.5;" x1="346" x2="397" y1="589.1406" y2="589.1406"/><text fill="#000000" font-family="sans-serif" font-size="14" font-weight="bold" lengthAdjust="spacing" textLength="38" x="350" y="582.1738">Store</text></g><!--MD5=[c0a55fc040d4de26ef61760e050063db]
cluster Graph--><g id="cluster_Graph"><path d="M32.5,753 L76.5,753 A3.75,3.75 0 0 1 79,755.5 L86,774.6406 L849.5,774.6406 A2.5,2.5 0 0 1 852,777.1406 L852,1082.5 A2.5,2.5 0 0 1 849.5,1085 L32.5,1085 A2.5,2.5 0 0 1 30,1082.5 L30,755.5 A2.5,2.5 0 0 1 32.5,753 " fill="#DDDDDD" style="stroke:#000000;stroke-width:1.5;"/><line style="stroke:#000000;stroke-width:1.5;" x1="30" x2="86" y1="774.6406" y2="774.6406"/><text fill="#000000" font-family="sans-serif" font-size="14" font-weight="bold" lengthAdjust="spacing" textLength="43" x="34" y="767.6738">Graph</text></g><!--MD5=[c670268a59e1f2fa2e9d3e232bc65e6c]
cluster map--><g id="cluster_map"><path d="M56.5,795 L86.5,795 A3.75,3.75 0 0 1 89,797.5 L96,816.6406 L259.5,816.6406 A2.5,2.5 0 0 1 262,819.1406 L262,924.5 A2.5,2.5 0 0 1 259.5,927 L56.5,927 A2.5,2.5 0 0 1 54,924.5 L54,797.5 A2.5,2.5 0 0 1 56.5,795 " fill="#DDDDDD" style="stroke:#000000;stroke-width:1.5;"/><line style="stroke:#000000;stroke-width:1.5;" x1="54" x2="96" y1="816.6406" y2="816.6406"/><text fill="#000000" font-family="sans-serif" font-size="14" font-weight="bold" lengthAdjust="spacing" textLength="29" x="58" y="809.6738">map</text></g><!--MD5=[b792253f46c87a5be23eaae1b68e2912]
cluster Methods--><g id="cluster_Methods"><path d="M584.5,567.5 L647.5,567.5 A3.75,3.75 0 0 1 650,570 L657,589.1406 L849.5,589.1406 A2.5,2.5 0 0 1 852,591.6406 L852,697 A2.5,2.5 0 0 1 849.5,699.5 L584.5,699.5 A2.5,2.5 0 0 1 582,697 L582,570 A2.5,2.5 0 0 1 584.5,567.5 " fill="#DDDDDD" style="stroke:#000000;stroke-width:1.5;"/><line style="stroke:#000000;stroke-width:1.5;" x1="582" x2="657" y1="589.1406" y2="589.1406"/><text fill="#000000" font-family="sans-serif" font-size="14" font-weight="bold" lengthAdjust="spacing" textLength="62" x="586" y="582.1738">Methods</text></g><!--MD5=[0278646e5a3f51edb25d463fe8c5bfab]
class MainController--><g id="elem_MainController"><rect codeLine="7" fill="#F1F1F1" height="63.6406" id="MainController" rx="2.5" ry="2.5" style="stroke:#181818;stroke-width:0.5;" width="237" x="956.5" y="432"/><ellipse cx="1024.75" cy="448" fill="#ADD1B2" rx="11" ry="11" style="stroke:#181818;stroke-width:1.0;"/><path d="M1027.5156,443.875 Q1027.6719,443.6563 1027.8594,443.5469 Q1028.0469,443.4375 1028.2656,443.4375 Q1028.6406,443.4375 1028.875,443.7031 Q1029.1094,443.9531 1029.1094,444.5625 L1029.1094,446.0156 Q1029.1094,446.625 1028.875,446.8906 Q1028.6406,447.1563 1028.2656,447.1563 Q1027.9219,447.1563 1027.7188,446.9531 Q1027.5156,446.7656 1027.4063,446.25 Q1027.3594,445.8906 1027.1719,445.7031 Q1026.8438,445.3281 1026.2344,445.1094 Q1025.625,444.8906 1025,444.8906 Q1024.2344,444.8906 1023.5938,445.2188 Q1022.9688,445.5469 1022.4688,446.2969 Q1021.9844,447.0469 1021.9844,448.0781 L1021.9844,449.1719 Q1021.9844,450.4063 1022.875,451.2344 Q1023.7656,452.0469 1025.3594,452.0469 Q1026.2969,452.0469 1026.9531,451.7969 Q1027.3438,451.6406 1027.7656,451.2031 Q1028.0313,450.9375 1028.1719,450.8594 Q1028.3281,450.7813 1028.5313,450.7813 Q1028.8594,450.7813 1029.1094,451.0469 Q1029.375,451.2969 1029.375,451.6406 Q1029.375,451.9844 1029.0313,452.3906 Q1028.5313,452.9688 1027.7344,453.2969 Q1026.6563,453.75 1025.3594,453.75 Q1023.8438,453.75 1022.6406,453.125 Q1021.6563,452.625 1020.9688,451.5625 Q1020.2813,450.4844 1020.2813,449.2031 L1020.2813,448.0469 Q1020.2813,446.7188 1020.8906,445.5781 Q1021.5156,444.4219 1022.6094,443.8125 Q1023.7031,443.1875 1024.9375,443.1875 Q1025.6719,443.1875 1026.3125,443.3594 Q1026.9688,443.5156 1027.5156,443.875 Z " fill="#000000"/><text fill="#000000" font-family="sans-serif" font-size="14" lengthAdjust="spacing" textLength="92" x="1045.25" y="452.8535">MainController</text><line style="stroke:#181818;stroke-width:0.5;" x1="957.5" x2="1192.5" y1="464" y2="464"/><line style="stroke:#181818;stroke-width:0.5;" x1="957.5" x2="1192.5" y1="472" y2="472"/><ellipse cx="967.5" cy="485.3203" fill="#84BE84" rx="3" ry="3" style="stroke:#038048;stroke-width:1.0;"/><text fill="#000000" font-family="sans-serif" font-size="14" lengthAdjust="spacing" textLength="211" x="976.5" y="488.6738">findVertexWithMinimumDistance()</text></g><!--MD5=[02de039990bbea028db2518876dfca25]
class MenuUI--><g id="elem_MenuUI"><rect codeLine="14" fill="#F1F1F1" height="63.6406" id="MenuUI" rx="2.5" ry="2.5" style="stroke:#181818;stroke-width:0.5;" width="128" x="1011" y="267"/><ellipse cx="1048.05" cy="283" fill="#ADD1B2" rx="11" ry="11" style="stroke:#181818;stroke-width:1.0;"/><path d="M1050.8156,278.875 Q1050.9719,278.6563 1051.1594,278.5469 Q1051.3469,278.4375 1051.5656,278.4375 Q1051.9406,278.4375 1052.175,278.7031 Q1052.4094,278.9531 1052.4094,279.5625 L1052.4094,281.0156 Q1052.4094,281.625 1052.175,281.8906 Q1051.9406,282.1563 1051.5656,282.1563 Q1051.2219,282.1563 1051.0188,281.9531 Q1050.8156,281.7656 1050.7063,281.25 Q1050.6594,280.8906 1050.4719,280.7031 Q1050.1438,280.3281 1049.5344,280.1094 Q1048.925,279.8906 1048.3,279.8906 Q1047.5344,279.8906 1046.8938,280.2188 Q1046.2688,280.5469 1045.7688,281.2969 Q1045.2844,282.0469 1045.2844,283.0781 L1045.2844,284.1719 Q1045.2844,285.4063 1046.175,286.2344 Q1047.0656,287.0469 1048.6594,287.0469 Q1049.5969,287.0469 1050.2531,286.7969 Q1050.6438,286.6406 1051.0656,286.2031 Q1051.3313,285.9375 1051.4719,285.8594 Q1051.6281,285.7813 1051.8313,285.7813 Q1052.1594,285.7813 1052.4094,286.0469 Q1052.675,286.2969 1052.675,286.6406 Q1052.675,286.9844 1052.3313,287.3906 Q1051.8313,287.9688 1051.0344,288.2969 Q1049.9563,288.75 1048.6594,288.75 Q1047.1438,288.75 1045.9406,288.125 Q1044.9563,287.625 1044.2688,286.5625 Q1043.5813,285.4844 1043.5813,284.2031 L1043.5813,283.0469 Q1043.5813,281.7188 1044.1906,280.5781 Q1044.8156,279.4219 1045.9094,278.8125 Q1047.0031,278.1875 1048.2375,278.1875 Q1048.9719,278.1875 1049.6125,278.3594 Q1050.2688,278.5156 1050.8156,278.875 Z " fill="#000000"/><text fill="#000000" font-family="sans-serif" font-size="14" lengthAdjust="spacing" textLength="47" x="1066.95" y="287.8535">MenuUI</text><line style="stroke:#181818;stroke-width:0.5;" x1="1012" x2="1138" y1="299" y2="299"/><line style="stroke:#181818;stroke-width:0.5;" x1="1012" x2="1138" y1="307" y2="307"/><ellipse cx="1022" cy="320.3203" fill="#84BE84" rx="3" ry="3" style="stroke:#038048;stroke-width:1.0;"/><text fill="#000000" font-family="sans-serif" font-size="14" lengthAdjust="spacing" textLength="102" x="1031" y="323.6738">MainController()</text></g><!--MD5=[84718776d214be480e4c259efcb737fc]
class Main--><g id="elem_Main"><rect codeLine="18" fill="#F1F1F1" height="63.6406" id="Main" rx="2.5" ry="2.5" style="stroke:#181818;stroke-width:0.5;" width="83" x="1033.5" y="142"/><ellipse cx="1057.95" cy="158" fill="#ADD1B2" rx="11" ry="11" style="stroke:#181818;stroke-width:1.0;"/><path d="M1060.7156,153.875 Q1060.8719,153.6563 1061.0594,153.5469 Q1061.2469,153.4375 1061.4656,153.4375 Q1061.8406,153.4375 1062.075,153.7031 Q1062.3094,153.9531 1062.3094,154.5625 L1062.3094,156.0156 Q1062.3094,156.625 1062.075,156.8906 Q1061.8406,157.1563 1061.4656,157.1563 Q1061.1219,157.1563 1060.9188,156.9531 Q1060.7156,156.7656 1060.6063,156.25 Q1060.5594,155.8906 1060.3719,155.7031 Q1060.0438,155.3281 1059.4344,155.1094 Q1058.825,154.8906 1058.2,154.8906 Q1057.4344,154.8906 1056.7938,155.2188 Q1056.1688,155.5469 1055.6688,156.2969 Q1055.1844,157.0469 1055.1844,158.0781 L1055.1844,159.1719 Q1055.1844,160.4063 1056.075,161.2344 Q1056.9656,162.0469 1058.5594,162.0469 Q1059.4969,162.0469 1060.1531,161.7969 Q1060.5438,161.6406 1060.9656,161.2031 Q1061.2313,160.9375 1061.3719,160.8594 Q1061.5281,160.7813 1061.7313,160.7813 Q1062.0594,160.7813 1062.3094,161.0469 Q1062.575,161.2969 1062.575,161.6406 Q1062.575,161.9844 1062.2313,162.3906 Q1061.7313,162.9688 1060.9344,163.2969 Q1059.8563,163.75 1058.5594,163.75 Q1057.0438,163.75 1055.8406,163.125 Q1054.8563,162.625 1054.1688,161.5625 Q1053.4813,160.4844 1053.4813,159.2031 L1053.4813,158.0469 Q1053.4813,156.7188 1054.0906,155.5781 Q1054.7156,154.4219 1055.8094,153.8125 Q1056.9031,153.1875 1058.1375,153.1875 Q1058.8719,153.1875 1059.5125,153.3594 Q1060.1688,153.5156 1060.7156,153.875 Z " fill="#000000"/><text fill="#000000" font-family="sans-serif" font-size="14" lengthAdjust="spacing" textLength="30" x="1074.05" y="162.8535">Main</text><line style="stroke:#181818;stroke-width:0.5;" x1="1034.5" x2="1115.5" y1="174" y2="174"/><line style="stroke:#181818;stroke-width:0.5;" x1="1034.5" x2="1115.5" y1="182" y2="182"/><ellipse cx="1044.5" cy="195.3203" fill="#84BE84" rx="3" ry="3" style="stroke:#038048;stroke-width:1.0;"/><text fill="#000000" font-family="sans-serif" font-size="14" lengthAdjust="spacing" textLength="57" x="1053.5" y="198.6738">MenuUI()</text></g><!--MD5=[02e4b9b7573f1156f41e60aa5b4e25a4]
class Company--><g id="elem_Company"><rect codeLine="25" fill="#F1F1F1" height="79.2813" id="Company" rx="2.5" ry="2.5" style="stroke:#181818;stroke-width:0.5;" width="204" x="1031" y="612"/><ellipse cx="1098.75" cy="628" fill="#ADD1B2" rx="11" ry="11" style="stroke:#181818;stroke-width:1.0;"/><path d="M1101.5156,623.875 Q1101.6719,623.6563 1101.8594,623.5469 Q1102.0469,623.4375 1102.2656,623.4375 Q1102.6406,623.4375 1102.875,623.7031 Q1103.1094,623.9531 1103.1094,624.5625 L1103.1094,626.0156 Q1103.1094,626.625 1102.875,626.8906 Q1102.6406,627.1563 1102.2656,627.1563 Q1101.9219,627.1563 1101.7188,626.9531 Q1101.5156,626.7656 1101.4063,626.25 Q1101.3594,625.8906 1101.1719,625.7031 Q1100.8438,625.3281 1100.2344,625.1094 Q1099.625,624.8906 1099,624.8906 Q1098.2344,624.8906 1097.5938,625.2188 Q1096.9688,625.5469 1096.4688,626.2969 Q1095.9844,627.0469 1095.9844,628.0781 L1095.9844,629.1719 Q1095.9844,630.4063 1096.875,631.2344 Q1097.7656,632.0469 1099.3594,632.0469 Q1100.2969,632.0469 1100.9531,631.7969 Q1101.3438,631.6406 1101.7656,631.2031 Q1102.0313,630.9375 1102.1719,630.8594 Q1102.3281,630.7813 1102.5313,630.7813 Q1102.8594,630.7813 1103.1094,631.0469 Q1103.375,631.2969 1103.375,631.6406 Q1103.375,631.9844 1103.0313,632.3906 Q1102.5313,632.9688 1101.7344,633.2969 Q1100.6563,633.75 1099.3594,633.75 Q1097.8438,633.75 1096.6406,633.125 Q1095.6563,632.625 1094.9688,631.5625 Q1094.2813,630.4844 1094.2813,629.2031 L1094.2813,628.0469 Q1094.2813,626.7188 1094.8906,625.5781 Q1095.5156,624.4219 1096.6094,623.8125 Q1097.7031,623.1875 1098.9375,623.1875 Q1099.6719,623.1875 1100.3125,623.3594 Q1100.9688,623.5156 1101.5156,623.875 Z " fill="#000000"/><text fill="#000000" font-family="sans-serif" font-size="14" lengthAdjust="spacing" textLength="60" x="1119.25" y="632.8535">Company</text><line style="stroke:#181818;stroke-width:0.5;" x1="1032" x2="1234" y1="644" y2="644"/><line style="stroke:#181818;stroke-width:0.5;" x1="1032" x2="1234" y1="652" y2="652"/><ellipse cx="1042" cy="665.3203" fill="#84BE84" rx="3" ry="3" style="stroke:#038048;stroke-width:1.0;"/><text fill="#000000" font-family="sans-serif" font-size="14" lengthAdjust="spacing" textLength="93" x="1051" y="668.6738">getStoreLists()</text><ellipse cx="1042" cy="680.9609" fill="#84BE84" rx="3" ry="3" style="stroke:#038048;stroke-width:1.0;"/><text fill="#000000" font-family="sans-serif" font-size="14" lengthAdjust="spacing" textLength="178" x="1051" y="684.3145">getMapGraphPessoaStore()</text></g><!--MD5=[ec4e9ac521a71f7b069122f6baf1b57e]
class Pessoa--><g id="elem_Pessoa"><rect codeLine="29" fill="#F1F1F1" height="48" id="Pessoa" rx="2.5" ry="2.5" style="stroke:#181818;stroke-width:0.5;" width="79" x="916.5" y="627.5"/><ellipse cx="931.5" cy="643.5" fill="#ADD1B2" rx="11" ry="11" style="stroke:#181818;stroke-width:1.0;"/><path d="M934.2656,639.375 Q934.4219,639.1563 934.6094,639.0469 Q934.7969,638.9375 935.0156,638.9375 Q935.3906,638.9375 935.625,639.2031 Q935.8594,639.4531 935.8594,640.0625 L935.8594,641.5156 Q935.8594,642.125 935.625,642.3906 Q935.3906,642.6563 935.0156,642.6563 Q934.6719,642.6563 934.4688,642.4531 Q934.2656,642.2656 934.1563,641.75 Q934.1094,641.3906 933.9219,641.2031 Q933.5938,640.8281 932.9844,640.6094 Q932.375,640.3906 931.75,640.3906 Q930.9844,640.3906 930.3438,640.7188 Q929.7188,641.0469 929.2188,641.7969 Q928.7344,642.5469 928.7344,643.5781 L928.7344,644.6719 Q928.7344,645.9063 929.625,646.7344 Q930.5156,647.5469 932.1094,647.5469 Q933.0469,647.5469 933.7031,647.2969 Q934.0938,647.1406 934.5156,646.7031 Q934.7813,646.4375 934.9219,646.3594 Q935.0781,646.2813 935.2813,646.2813 Q935.6094,646.2813 935.8594,646.5469 Q936.125,646.7969 936.125,647.1406 Q936.125,647.4844 935.7813,647.8906 Q935.2813,648.4688 934.4844,648.7969 Q933.4063,649.25 932.1094,649.25 Q930.5938,649.25 929.3906,648.625 Q928.4063,648.125 927.7188,647.0625 Q927.0313,645.9844 927.0313,644.7031 L927.0313,643.5469 Q927.0313,642.2188 927.6406,641.0781 Q928.2656,639.9219 929.3594,639.3125 Q930.4531,638.6875 931.6875,638.6875 Q932.4219,638.6875 933.0625,638.8594 Q933.7188,639.0156 934.2656,639.375 Z " fill="#000000"/><text fill="#000000" font-family="sans-serif" font-size="14" lengthAdjust="spacing" textLength="47" x="945.5" y="648.3535">Pessoa</text><line style="stroke:#181818;stroke-width:0.5;" x1="917.5" x2="994.5" y1="659.5" y2="659.5"/><line style="stroke:#181818;stroke-width:0.5;" x1="917.5" x2="994.5" y1="667.5" y2="667.5"/></g><!--MD5=[7d0e5ddd73bd8fec86b8967827845935]
class Empresa--><g id="elem_Empresa"><rect codeLine="31" fill="#F1F1F1" height="48" id="Empresa" rx="2.5" ry="2.5" style="stroke:#181818;stroke-width:0.5;" width="88" x="916" y="855"/><ellipse cx="931" cy="871" fill="#ADD1B2" rx="11" ry="11" style="stroke:#181818;stroke-width:1.0;"/><path d="M933.7656,866.875 Q933.9219,866.6563 934.1094,866.5469 Q934.2969,866.4375 934.5156,866.4375 Q934.8906,866.4375 935.125,866.7031 Q935.3594,866.9531 935.3594,867.5625 L935.3594,869.0156 Q935.3594,869.625 935.125,869.8906 Q934.8906,870.1563 934.5156,870.1563 Q934.1719,870.1563 933.9688,869.9531 Q933.7656,869.7656 933.6563,869.25 Q933.6094,868.8906 933.4219,868.7031 Q933.0938,868.3281 932.4844,868.1094 Q931.875,867.8906 931.25,867.8906 Q930.4844,867.8906 929.8438,868.2188 Q929.2188,868.5469 928.7188,869.2969 Q928.2344,870.0469 928.2344,871.0781 L928.2344,872.1719 Q928.2344,873.4063 929.125,874.2344 Q930.0156,875.0469 931.6094,875.0469 Q932.5469,875.0469 933.2031,874.7969 Q933.5938,874.6406 934.0156,874.2031 Q934.2813,873.9375 934.4219,873.8594 Q934.5781,873.7813 934.7813,873.7813 Q935.1094,873.7813 935.3594,874.0469 Q935.625,874.2969 935.625,874.6406 Q935.625,874.9844 935.2813,875.3906 Q934.7813,875.9688 933.9844,876.2969 Q932.9063,876.75 931.6094,876.75 Q930.0938,876.75 928.8906,876.125 Q927.9063,875.625 927.2188,874.5625 Q926.5313,873.4844 926.5313,872.2031 L926.5313,871.0469 Q926.5313,869.7188 927.1406,868.5781 Q927.7656,867.4219 928.8594,866.8125 Q929.9531,866.1875 931.1875,866.1875 Q931.9219,866.1875 932.5625,866.3594 Q933.2188,866.5156 933.7656,866.875 Z " fill="#000000"/><text fill="#000000" font-family="sans-serif" font-size="14" lengthAdjust="spacing" textLength="56" x="945" y="875.8535">Empresa</text><line style="stroke:#181818;stroke-width:0.5;" x1="917" x2="1003" y1="887" y2="887"/><line style="stroke:#181818;stroke-width:0.5;" x1="917" x2="1003" y1="895" y2="895"/></g><!--MD5=[3ecf2b447fd626a808bbfa4df6084566]
class MapGraphPessoaStore--><g id="elem_MapGraphPessoaStore"><rect codeLine="39" fill="#F1F1F1" height="63.6406" id="MapGraphPessoaStore" rx="2.5" ry="2.5" style="stroke:#181818;stroke-width:0.5;" width="180" x="362" y="619.5"/><ellipse cx="377" cy="635.5" fill="#ADD1B2" rx="11" ry="11" style="stroke:#181818;stroke-width:1.0;"/><path d="M379.7656,631.375 Q379.9219,631.1563 380.1094,631.0469 Q380.2969,630.9375 380.5156,630.9375 Q380.8906,630.9375 381.125,631.2031 Q381.3594,631.4531 381.3594,632.0625 L381.3594,633.5156 Q381.3594,634.125 381.125,634.3906 Q380.8906,634.6563 380.5156,634.6563 Q380.1719,634.6563 379.9688,634.4531 Q379.7656,634.2656 379.6563,633.75 Q379.6094,633.3906 379.4219,633.2031 Q379.0938,632.8281 378.4844,632.6094 Q377.875,632.3906 377.25,632.3906 Q376.4844,632.3906 375.8438,632.7188 Q375.2188,633.0469 374.7188,633.7969 Q374.2344,634.5469 374.2344,635.5781 L374.2344,636.6719 Q374.2344,637.9063 375.125,638.7344 Q376.0156,639.5469 377.6094,639.5469 Q378.5469,639.5469 379.2031,639.2969 Q379.5938,639.1406 380.0156,638.7031 Q380.2813,638.4375 380.4219,638.3594 Q380.5781,638.2813 380.7813,638.2813 Q381.1094,638.2813 381.3594,638.5469 Q381.625,638.7969 381.625,639.1406 Q381.625,639.4844 381.2813,639.8906 Q380.7813,640.4688 379.9844,640.7969 Q378.9063,641.25 377.6094,641.25 Q376.0938,641.25 374.8906,640.625 Q373.9063,640.125 373.2188,639.0625 Q372.5313,637.9844 372.5313,636.7031 L372.5313,635.5469 Q372.5313,634.2188 373.1406,633.0781 Q373.7656,631.9219 374.8594,631.3125 Q375.9531,630.6875 377.1875,630.6875 Q377.9219,630.6875 378.5625,630.8594 Q379.2188,631.0156 379.7656,631.375 Z " fill="#000000"/><text fill="#000000" font-family="sans-serif" font-size="14" lengthAdjust="spacing" textLength="148" x="391" y="640.3535">MapGraphPessoaStore</text><line style="stroke:#181818;stroke-width:0.5;" x1="363" x2="541" y1="651.5" y2="651.5"/><line style="stroke:#181818;stroke-width:0.5;" x1="363" x2="541" y1="659.5" y2="659.5"/><ellipse cx="373" cy="672.8203" fill="#84BE84" rx="3" ry="3" style="stroke:#038048;stroke-width:1.0;"/><text fill="#000000" font-family="sans-serif" font-size="14" lengthAdjust="spacing" textLength="97" x="382" y="676.1738">getMapGraph()</text></g><!--MD5=[2e2f8c8f62c4eb3bc59a59727cfd81a5]
class Edge--><g id="elem_Edge"><rect codeLine="53" fill="#F1F1F1" height="63.6406" id="Edge" rx="2.5" ry="2.5" style="stroke:#181818;stroke-width:0.5;" width="100" x="281" y="847"/><ellipse cx="311.75" cy="863" fill="#ADD1B2" rx="11" ry="11" style="stroke:#181818;stroke-width:1.0;"/><path d="M314.5156,858.875 Q314.6719,858.6563 314.8594,858.5469 Q315.0469,858.4375 315.2656,858.4375 Q315.6406,858.4375 315.875,858.7031 Q316.1094,858.9531 316.1094,859.5625 L316.1094,861.0156 Q316.1094,861.625 315.875,861.8906 Q315.6406,862.1563 315.2656,862.1563 Q314.9219,862.1563 314.7188,861.9531 Q314.5156,861.7656 314.4063,861.25 Q314.3594,860.8906 314.1719,860.7031 Q313.8438,860.3281 313.2344,860.1094 Q312.625,859.8906 312,859.8906 Q311.2344,859.8906 310.5938,860.2188 Q309.9688,860.5469 309.4688,861.2969 Q308.9844,862.0469 308.9844,863.0781 L308.9844,864.1719 Q308.9844,865.4063 309.875,866.2344 Q310.7656,867.0469 312.3594,867.0469 Q313.2969,867.0469 313.9531,866.7969 Q314.3438,866.6406 314.7656,866.2031 Q315.0313,865.9375 315.1719,865.8594 Q315.3281,865.7813 315.5313,865.7813 Q315.8594,865.7813 316.1094,866.0469 Q316.375,866.2969 316.375,866.6406 Q316.375,866.9844 316.0313,867.3906 Q315.5313,867.9688 314.7344,868.2969 Q313.6563,868.75 312.3594,868.75 Q310.8438,868.75 309.6406,868.125 Q308.6563,867.625 307.9688,866.5625 Q307.2813,865.4844 307.2813,864.2031 L307.2813,863.0469 Q307.2813,861.7188 307.8906,860.5781 Q308.5156,859.4219 309.6094,858.8125 Q310.7031,858.1875 311.9375,858.1875 Q312.6719,858.1875 313.3125,858.3594 Q313.9688,858.5156 314.5156,858.875 Z " fill="#000000"/><text fill="#000000" font-family="sans-serif" font-size="14" lengthAdjust="spacing" textLength="33" x="329.25" y="867.8535">Edge</text><line style="stroke:#181818;stroke-width:0.5;" x1="282" x2="380" y1="879" y2="879"/><line style="stroke:#181818;stroke-width:0.5;" x1="282" x2="380" y1="887" y2="887"/><ellipse cx="292" cy="900.3203" fill="#84BE84" rx="3" ry="3" style="stroke:#038048;stroke-width:1.0;"/><text fill="#000000" font-family="sans-serif" font-size="14" lengthAdjust="spacing" textLength="74" x="301" y="903.6738">getWeight()</text></g><!--MD5=[706e73df52f3df32f52be1ce9adb217e]
class Graph--><g id="elem_Graph"><rect codeLine="56" fill="#F1F1F1" height="48" id="Graph" rx="2.5" ry="2.5" style="stroke:#181818;stroke-width:0.5;" width="72" x="84" y="1013"/><ellipse cx="99" cy="1029" fill="#B4A7E5" rx="11" ry="11" style="stroke:#181818;stroke-width:1.0;"/><path d="M99.9531,1025.6406 L99.9531,1032.2969 L101.6719,1032.2969 Q102.2813,1032.2969 102.5469,1032.5313 Q102.8125,1032.7656 102.8125,1033.1563 Q102.8125,1033.5313 102.5469,1033.7656 Q102.2813,1034 101.6719,1034 L96.5313,1034 Q95.9219,1034 95.6563,1033.7656 Q95.3906,1033.5313 95.3906,1033.1406 Q95.3906,1032.7656 95.6563,1032.5313 Q95.9219,1032.2969 96.5313,1032.2969 L98.25,1032.2969 L98.25,1025.6406 L96.5313,1025.6406 Q95.9219,1025.6406 95.6563,1025.4063 Q95.3906,1025.1719 95.3906,1024.7813 Q95.3906,1024.4063 95.6563,1024.1719 Q95.9219,1023.9375 96.5313,1023.9375 L101.6719,1023.9375 Q102.2813,1023.9375 102.5469,1024.1719 Q102.8125,1024.4063 102.8125,1024.7813 Q102.8125,1025.1719 102.5469,1025.4063 Q102.2813,1025.6406 101.6719,1025.6406 L99.9531,1025.6406 Z " fill="#000000"/><text fill="#000000" font-family="sans-serif" font-size="14" font-style="italic" lengthAdjust="spacing" textLength="40" x="113" y="1033.8535">Graph</text><line style="stroke:#181818;stroke-width:0.5;" x1="85" x2="155" y1="1045" y2="1045"/><line style="stroke:#181818;stroke-width:0.5;" x1="85" x2="155" y1="1053" y2="1053"/></g><!--MD5=[4533588fb66c6fa31a6e04bf29ae6161]
class Algorithms--><g id="elem_Algorithms"><rect codeLine="58" fill="#F1F1F1" height="63.6406" id="Algorithms" rx="2.5" ry="2.5" style="stroke:#181818;stroke-width:0.5;" width="420" x="416" y="847"/><ellipse cx="588.75" cy="863" fill="#ADD1B2" rx="11" ry="11" style="stroke:#181818;stroke-width:1.0;"/><path d="M591.5156,858.875 Q591.6719,858.6563 591.8594,858.5469 Q592.0469,858.4375 592.2656,858.4375 Q592.6406,858.4375 592.875,858.7031 Q593.1094,858.9531 593.1094,859.5625 L593.1094,861.0156 Q593.1094,861.625 592.875,861.8906 Q592.6406,862.1563 592.2656,862.1563 Q591.9219,862.1563 591.7188,861.9531 Q591.5156,861.7656 591.4063,861.25 Q591.3594,860.8906 591.1719,860.7031 Q590.8438,860.3281 590.2344,860.1094 Q589.625,859.8906 589,859.8906 Q588.2344,859.8906 587.5938,860.2188 Q586.9688,860.5469 586.4688,861.2969 Q585.9844,862.0469 585.9844,863.0781 L585.9844,864.1719 Q585.9844,865.4063 586.875,866.2344 Q587.7656,867.0469 589.3594,867.0469 Q590.2969,867.0469 590.9531,866.7969 Q591.3438,866.6406 591.7656,866.2031 Q592.0313,865.9375 592.1719,865.8594 Q592.3281,865.7813 592.5313,865.7813 Q592.8594,865.7813 593.1094,866.0469 Q593.375,866.2969 593.375,866.6406 Q593.375,866.9844 593.0313,867.3906 Q592.5313,867.9688 591.7344,868.2969 Q590.6563,868.75 589.3594,868.75 Q587.8438,868.75 586.6406,868.125 Q585.6563,867.625 584.9688,866.5625 Q584.2813,865.4844 584.2813,864.2031 L584.2813,863.0469 Q584.2813,861.7188 584.8906,860.5781 Q585.5156,859.4219 586.6094,858.8125 Q587.7031,858.1875 588.9375,858.1875 Q589.6719,858.1875 590.3125,858.3594 Q590.9688,858.5156 591.5156,858.875 Z " fill="#000000"/><text fill="#000000" font-family="sans-serif" font-size="14" lengthAdjust="spacing" textLength="66" x="609.25" y="867.8535">Algorithms</text><line style="stroke:#181818;stroke-width:0.5;" x1="417" x2="835" y1="879" y2="879"/><line style="stroke:#181818;stroke-width:0.5;" x1="417" x2="835" y1="887" y2="887"/><ellipse cx="427" cy="900.3203" fill="#84BE84" rx="3" ry="3" style="stroke:#038048;stroke-width:1.0;"/><text fill="#000000" font-family="sans-serif" font-size="14" lengthAdjust="spacing" textLength="394" x="436" y="903.6738">minDistGraph(mapGraphPessoa, comparator, binaryOperator)</text></g><!--MD5=[ef63e85e32976ed6c3ca2a05ce10893d]
class CommonGraph--><g id="elem_CommonGraph"><rect codeLine="62" fill="#F1F1F1" height="63.6406" id="CommonGraph" rx="2.5" ry="2.5" style="stroke:#181818;stroke-width:0.5;" width="128" x="191" y="1005"/><ellipse cx="206" cy="1021" fill="#ADD1B2" rx="11" ry="11" style="stroke:#181818;stroke-width:1.0;"/><path d="M208.7656,1016.875 Q208.9219,1016.6563 209.1094,1016.5469 Q209.2969,1016.4375 209.5156,1016.4375 Q209.8906,1016.4375 210.125,1016.7031 Q210.3594,1016.9531 210.3594,1017.5625 L210.3594,1019.0156 Q210.3594,1019.625 210.125,1019.8906 Q209.8906,1020.1563 209.5156,1020.1563 Q209.1719,1020.1563 208.9688,1019.9531 Q208.7656,1019.7656 208.6563,1019.25 Q208.6094,1018.8906 208.4219,1018.7031 Q208.0938,1018.3281 207.4844,1018.1094 Q206.875,1017.8906 206.25,1017.8906 Q205.4844,1017.8906 204.8438,1018.2188 Q204.2188,1018.5469 203.7188,1019.2969 Q203.2344,1020.0469 203.2344,1021.0781 L203.2344,1022.1719 Q203.2344,1023.4063 204.125,1024.2344 Q205.0156,1025.0469 206.6094,1025.0469 Q207.5469,1025.0469 208.2031,1024.7969 Q208.5938,1024.6406 209.0156,1024.2031 Q209.2813,1023.9375 209.4219,1023.8594 Q209.5781,1023.7813 209.7813,1023.7813 Q210.1094,1023.7813 210.3594,1024.0469 Q210.625,1024.2969 210.625,1024.6406 Q210.625,1024.9844 210.2813,1025.3906 Q209.7813,1025.9688 208.9844,1026.2969 Q207.9063,1026.75 206.6094,1026.75 Q205.0938,1026.75 203.8906,1026.125 Q202.9063,1025.625 202.2188,1024.5625 Q201.5313,1023.4844 201.5313,1022.2031 L201.5313,1021.0469 Q201.5313,1019.7188 202.1406,1018.5781 Q202.7656,1017.4219 203.8594,1016.8125 Q204.9531,1016.1875 206.1875,1016.1875 Q206.9219,1016.1875 207.5625,1016.3594 Q208.2188,1016.5156 208.7656,1016.875 Z " fill="#000000"/><text fill="#000000" font-family="sans-serif" font-size="14" lengthAdjust="spacing" textLength="96" x="220" y="1025.8535">CommonGraph</text><line style="stroke:#181818;stroke-width:0.5;" x1="192" x2="318" y1="1037" y2="1037"/><line style="stroke:#181818;stroke-width:0.5;" x1="192" x2="318" y1="1045" y2="1045"/><ellipse cx="202" cy="1058.3203" fill="#84BE84" rx="3" ry="3" style="stroke:#038048;stroke-width:1.0;"/><text fill="#000000" font-family="sans-serif" font-size="14" lengthAdjust="spacing" textLength="59" x="211" y="1061.6738">vertices()</text></g><!--MD5=[b122bab300f80f5d31a622e2bae54847]
class MapGraph--><g id="elem_MapGraph"><rect codeLine="48" fill="#F1F1F1" height="63.6406" id="MapGraph" rx="2.5" ry="2.5" style="stroke:#181818;stroke-width:0.5;" width="176" x="70" y="847"/><ellipse cx="120.25" cy="863" fill="#ADD1B2" rx="11" ry="11" style="stroke:#181818;stroke-width:1.0;"/><path d="M123.0156,858.875 Q123.1719,858.6563 123.3594,858.5469 Q123.5469,858.4375 123.7656,858.4375 Q124.1406,858.4375 124.375,858.7031 Q124.6094,858.9531 124.6094,859.5625 L124.6094,861.0156 Q124.6094,861.625 124.375,861.8906 Q124.1406,862.1563 123.7656,862.1563 Q123.4219,862.1563 123.2188,861.9531 Q123.0156,861.7656 122.9063,861.25 Q122.8594,860.8906 122.6719,860.7031 Q122.3438,860.3281 121.7344,860.1094 Q121.125,859.8906 120.5,859.8906 Q119.7344,859.8906 119.0938,860.2188 Q118.4688,860.5469 117.9688,861.2969 Q117.4844,862.0469 117.4844,863.0781 L117.4844,864.1719 Q117.4844,865.4063 118.375,866.2344 Q119.2656,867.0469 120.8594,867.0469 Q121.7969,867.0469 122.4531,866.7969 Q122.8438,866.6406 123.2656,866.2031 Q123.5313,865.9375 123.6719,865.8594 Q123.8281,865.7813 124.0313,865.7813 Q124.3594,865.7813 124.6094,866.0469 Q124.875,866.2969 124.875,866.6406 Q124.875,866.9844 124.5313,867.3906 Q124.0313,867.9688 123.2344,868.2969 Q122.1563,868.75 120.8594,868.75 Q119.3438,868.75 118.1406,868.125 Q117.1563,867.625 116.4688,866.5625 Q115.7813,865.4844 115.7813,864.2031 L115.7813,863.0469 Q115.7813,861.7188 116.3906,860.5781 Q117.0156,859.4219 118.1094,858.8125 Q119.2031,858.1875 120.4375,858.1875 Q121.1719,858.1875 121.8125,858.3594 Q122.4688,858.5156 123.0156,858.875 Z " fill="#000000"/><text fill="#000000" font-family="sans-serif" font-size="14" lengthAdjust="spacing" textLength="67" x="140.75" y="867.8535">MapGraph</text><line style="stroke:#181818;stroke-width:0.5;" x1="71" x2="245" y1="879" y2="879"/><line style="stroke:#181818;stroke-width:0.5;" x1="71" x2="245" y1="887" y2="887"/><ellipse cx="81" cy="900.3203" fill="#84BE84" rx="3" ry="3" style="stroke:#038048;stroke-width:1.0;"/><text fill="#000000" font-family="sans-serif" font-size="14" lengthAdjust="spacing" textLength="150" x="90" y="903.6738">edge(pessoa, pessoa1)</text></g><!--MD5=[2473181366ad82bea05d20fd8c7f64f7]
class FindMethods--><g id="elem_FindMethods"><rect codeLine="68" fill="#F1F1F1" height="63.6406" id="FindMethods" rx="2.5" ry="2.5" style="stroke:#181818;stroke-width:0.5;" width="237" x="598.5" y="619.5"/><ellipse cx="671.75" cy="635.5" fill="#ADD1B2" rx="11" ry="11" style="stroke:#181818;stroke-width:1.0;"/><path d="M674.5156,631.375 Q674.6719,631.1563 674.8594,631.0469 Q675.0469,630.9375 675.2656,630.9375 Q675.6406,630.9375 675.875,631.2031 Q676.1094,631.4531 676.1094,632.0625 L676.1094,633.5156 Q676.1094,634.125 675.875,634.3906 Q675.6406,634.6563 675.2656,634.6563 Q674.9219,634.6563 674.7188,634.4531 Q674.5156,634.2656 674.4063,633.75 Q674.3594,633.3906 674.1719,633.2031 Q673.8438,632.8281 673.2344,632.6094 Q672.625,632.3906 672,632.3906 Q671.2344,632.3906 670.5938,632.7188 Q669.9688,633.0469 669.4688,633.7969 Q668.9844,634.5469 668.9844,635.5781 L668.9844,636.6719 Q668.9844,637.9063 669.875,638.7344 Q670.7656,639.5469 672.3594,639.5469 Q673.2969,639.5469 673.9531,639.2969 Q674.3438,639.1406 674.7656,638.7031 Q675.0313,638.4375 675.1719,638.3594 Q675.3281,638.2813 675.5313,638.2813 Q675.8594,638.2813 676.1094,638.5469 Q676.375,638.7969 676.375,639.1406 Q676.375,639.4844 676.0313,639.8906 Q675.5313,640.4688 674.7344,640.7969 Q673.6563,641.25 672.3594,641.25 Q670.8438,641.25 669.6406,640.625 Q668.6563,640.125 667.9688,639.0625 Q667.2813,637.9844 667.2813,636.7031 L667.2813,635.5469 Q667.2813,634.2188 667.8906,633.0781 Q668.5156,631.9219 669.6094,631.3125 Q670.7031,630.6875 671.9375,630.6875 Q672.6719,630.6875 673.3125,630.8594 Q673.9688,631.0156 674.5156,631.375 Z " fill="#000000"/><text fill="#000000" font-family="sans-serif" font-size="14" lengthAdjust="spacing" textLength="82" x="692.25" y="640.3535">FindMethods</text><line style="stroke:#181818;stroke-width:0.5;" x1="599.5" x2="834.5" y1="651.5" y2="651.5"/><line style="stroke:#181818;stroke-width:0.5;" x1="599.5" x2="834.5" y1="659.5" y2="659.5"/><ellipse cx="609.5" cy="672.8203" fill="#84BE84" rx="3" ry="3" style="stroke:#038048;stroke-width:1.0;"/><text fill="#000000" font-family="sans-serif" font-size="14" lengthAdjust="spacing" textLength="211" x="618.5" y="676.1738">findVertexWithMinimumDistance()</text></g><!--MD5=[66db75c6a90eee27ea57be2f28d34b97]
link Main to MenuUI--><g id="link_Main_MenuUI"><path codeLine="74" d="M1075,206.04 C1075,222.94 1075,243.94 1075,261.6 " fill="none" id="Main-to-MenuUI" style="stroke:#181818;stroke-width:1.0;stroke-dasharray:7.0,7.0;"/><polygon fill="#181818" points="1075,266.97,1079,257.97,1075,261.97,1071,257.97,1075,266.97" style="stroke:#181818;stroke-width:1.0;"/></g><!--MD5=[18b2adbec2d4d81fe2abb63fe9732443]
link MenuUI to MainController--><g id="link_MenuUI_MainController"><path codeLine="75" d="M1075,331.04 C1075,358.26 1075,397.86 1075,426.57 " fill="none" id="MenuUI-to-MainController" style="stroke:#181818;stroke-width:1.0;stroke-dasharray:7.0,7.0;"/><polygon fill="#181818" points="1075,431.8,1079,422.8,1075,426.8,1071,422.8,1075,431.8" style="stroke:#181818;stroke-width:1.0;"/></g><!--MD5=[6466c02c70a565c5689553fda203fa28]
link MainController to Company--><g id="link_MainController_Company"><path codeLine="78" d="M1084.71,496.05 C1094.21,526.42 1108.76,572.96 1119.4,607.01 " fill="none" id="MainController-to-Company" style="stroke:#181818;stroke-width:1.0;stroke-dasharray:7.0,7.0;"/><polygon fill="#181818" points="1120.94,611.94,1122.0835,602.1577,1119.4535,607.1661,1114.4452,604.5361,1120.94,611.94" style="stroke:#181818;stroke-width:1.0;"/></g><!--MD5=[469f62d4ea574e5e2eb4e06a0f71e1c5]
link MainController to FindMethods--><g id="link_MainController_FindMethods"><path codeLine="79" d="M1011.16,496.12 C977.89,512.49 936.61,533.05 900,552 C859.21,573.11 813.74,597.58 778.33,616.85 " fill="none" id="MainController-to-FindMethods" style="stroke:#181818;stroke-width:1.0;stroke-dasharray:7.0,7.0;"/><polygon fill="#181818" points="773.63,619.41,783.4484,618.6365,778.0255,617.0267,779.6352,611.6038,773.63,619.41" style="stroke:#181818;stroke-width:1.0;"/></g><!--MD5=[42e5e3a5f5591e667f24dce403e7d467]
reverse link Company to MapGraphPessoaStore--><g id="link_Company_MapGraphPessoaStore"><path codeLine="81" d="M1088.35,602.88 C1067.54,583.75 1041.17,564 1013,554 C922.74,521.95 672.86,523.71 582,554 C543.33,566.89 506.89,596.29 482.49,619.46 " fill="none" id="Company-backto-MapGraphPessoaStore" style="stroke:#181818;stroke-width:1.0;"/><polygon fill="#181818" points="1097.8,611.88,1096.2159,604.845,1089.1129,603.6015,1090.6969,610.6365,1097.8,611.88" style="stroke:#181818;stroke-width:1.0;"/><text fill="#000000" font-family="sans-serif" font-size="13" lengthAdjust="spacing" textLength="30" x="687" y="540.7686">owns</text></g><!--MD5=[6dca874cf3a38b9cb94b5c2996eb0087]
link FindMethods to Algorithms--><g id="link_FindMethods_Algorithms"><path codeLine="84" d="M704.35,683.85 C686.96,726.94 655.87,803.97 638.55,846.91 " fill="none" id="FindMethods-Algorithms" style="stroke:#181818;stroke-width:1.0;"/><polygon fill="#000000" points="690.1289,733.8984,696.2391,726.6103,690.7883,724.4108,690.1289,733.8984" style="stroke:#000000;stroke-width:1.0;"/><text fill="#000000" font-family="sans-serif" font-size="13" lengthAdjust="spacing" textLength="28" x="701" y="733.7686">uses</text></g><!--MD5=[cb53682ffc491c53e3f31a908e344b75]
reverse link Pessoa to Empresa--><g id="link_Pessoa_Empresa"><path codeLine="86" d="M956.77,696.06 C957.61,743.48 958.93,817.53 959.59,854.84 " fill="none" id="Pessoa-backto-Empresa" style="stroke:#181818;stroke-width:1.0;"/><polygon fill="none" points="949.77,695.9,956.41,675.78,963.77,695.66,949.77,695.9" style="stroke:#181818;stroke-width:1.0;"/><text fill="#000000" font-family="sans-serif" font-size="13" lengthAdjust="spacing" textLength="46" x="958" y="733.7686">extends</text></g><!--MD5=[f8596010a7bf3eb0e0448ea4988d2573]
link MapGraph to Graph--><g id="link_MapGraph_Graph"><path codeLine="89" d="M148.85,911.02 C144.7,925.53 139.86,943.09 136,959 C133.33,970 130.71,981.94 128.39,993.07 " fill="none" id="MapGraph-to-Graph" style="stroke:#181818;stroke-width:1.0;stroke-dasharray:7.0,7.0;"/><polygon fill="none" points="135.19,994.78,124.36,1013,121.46,992.01,135.19,994.78" style="stroke:#181818;stroke-width:1.0;"/><text fill="#000000" font-family="sans-serif" font-size="13" lengthAdjust="spacing" textLength="67" x="137" y="971.7686">implements</text></g><!--MD5=[7e7fe92a5523e911c73a9daab762bfae]
link MapGraph to CommonGraph--><g id="link_MapGraph_CommonGraph"><path codeLine="90" d="M178.6,911.36 C187.99,925.8 199.18,943.19 209,959 C214.66,968.11 220.6,977.89 226.27,987.32 " fill="none" id="MapGraph-to-CommonGraph" style="stroke:#181818;stroke-width:1.0;"/><polygon fill="none" points="232.43,983.99,236.67,1004.75,220.41,991.17,232.43,983.99" style="stroke:#181818;stroke-width:1.0;"/><text fill="#000000" font-family="sans-serif" font-size="13" lengthAdjust="spacing" textLength="46" x="219" y="971.7686">extends</text></g><!--MD5=[3637b0d0a232e2ebc04aa56977ebd5fe]
link MapGraphPessoaStore to Edge--><g id="link_MapGraphPessoaStore_Edge"><path codeLine="92" d="M433.72,683.55 C423.33,701.41 410.2,724.33 399,745 C380.29,779.55 359.91,819.78 346.39,846.88 " fill="none" id="MapGraphPessoaStore-Edge" style="stroke:#181818;stroke-width:1.0;"/><polygon fill="#000000" points="413.6424,733.671,420.499,727.0803,415.3156,724.3088,413.6424,733.671" style="stroke:#000000;stroke-width:1.0;"/><text fill="#000000" font-family="sans-serif" font-size="13" lengthAdjust="spacing" textLength="21" x="425" y="733.7686">has</text><text fill="#000000" font-family="sans-serif" font-size="13" lengthAdjust="spacing" textLength="7" x="422.5682" y="702.8466">1</text><text fill="#000000" font-family="sans-serif" font-size="13" lengthAdjust="spacing" textLength="5" x="344.2097" y="836.1876">*</text></g><!--MD5=[01d3e379764c7ee9b515075b6bfb6132]
link MapGraphPessoaStore to Pessoa--><g id="link_MapGraphPessoaStore_Pessoa"><path codeLine="93" d="M482.49,619.46 C506.89,596.29 543.33,566.89 582,554 C638.92,535.03 796.2,531.94 852,554 C889.05,568.65 920.64,603.44 938.97,627.24 " fill="none" id="MapGraphPessoaStore-Pessoa" style="stroke:#181818;stroke-width:1.0;"/><polygon fill="#000000" points="762.9993,536.3469,754.0056,533.2543,753.9054,539.1313,762.9993,536.3469" style="stroke:#000000;stroke-width:1.0;"/><text fill="#000000" font-family="sans-serif" font-size="13" lengthAdjust="spacing" textLength="21" x="767" y="540.7686">has</text><text fill="#000000" font-family="sans-serif" font-size="13" lengthAdjust="spacing" textLength="7" x="481.3941" y="608.7851">1</text><text fill="#000000" font-family="sans-serif" font-size="13" lengthAdjust="spacing" textLength="5" x="928.7213" y="616.6778">*</text></g><!--MD5=[bdff71eec9032d6618fea466e75293d7]
link MapGraphPessoaStore to MapGraph--><g id="link_MapGraphPessoaStore_MapGraph"><path codeLine="95" d="M361.82,681.75 C324.58,696.74 282.59,717.68 250,745 C216,773.49 188.92,817.48 173.18,846.98 " fill="none" id="MapGraphPessoaStore-MapGraph" style="stroke:#181818;stroke-width:1.0;"/><polygon fill="#000000" points="281.2388,732.5562,289.9793,728.8072,286.1065,724.3857,281.2388,732.5562" style="stroke:#000000;stroke-width:1.0;"/><text fill="#000000" font-family="sans-serif" font-size="13" lengthAdjust="spacing" textLength="21" x="294" y="733.7686">has</text><text fill="#000000" font-family="sans-serif" font-size="13" lengthAdjust="spacing" textLength="7" x="347.0621" y="681.4805">1</text><text fill="#000000" font-family="sans-serif" font-size="13" lengthAdjust="spacing" textLength="22" x="152.0944" y="836.3095">0..1</text></g><!--MD5=[04e688c797f2453dc0187b3ffec756f3]
@startuml
'https://plantuml.com/class-diagram
package java <<Folder>>#DDDDDD {
package Company <<Folder>>#DDDDDD {


package Controller <<Folder>>#DDDDDD {
class MainController{
+findVertexWithMinimumDistance()
}

}

package ui <<Folder>>#DDDDDD {
class MenuUI{
+ MainController()
}

class Main{
+ MenuUI()
}

}
package Model <<Folder>>#DDDDDD {

class Company{
+getStoreLists()
+getMapGraphPessoaStore()
}
class Pessoa{
}
class Empresa{
}
}


}
package Store <<Folder>>#DDDDDD {

class MapGraphPessoaStore{
+getMapGraph()
}
}



package Graph <<Folder>>#DDDDDD {
package map <<Folder>>#DDDDDD {
class MapGraph{
+edge(pessoa, pessoa1)
}
}

class Edge{
+getWeight()
}
Interface Graph

class Algorithms{
+minDistGraph(mapGraphPessoa, comparator, binaryOperator)
}

class CommonGraph{
+vertices()
}
}

package Methods <<Folder>>#DDDDDD {
class FindMethods{
+findVertexWithMinimumDistance()
}
}


Main ..> MenuUI
MenuUI ..> MainController


MainController ..> Company
MainController ..> FindMethods

Company *- - MapGraphPessoaStore : owns


FindMethods - - Algorithms : uses >

Pessoa <|- -  Empresa: extends


MapGraph ..|> Graph : implements
MapGraph - -|> CommonGraph : extends

MapGraphPessoaStore "1" - - "*" Edge: has >
MapGraphPessoaStore "1" - - "*" Pessoa: has >

MapGraphPessoaStore "1" - - "0..1" MapGraph: has >



@enduml

@startuml
package java <<Folder>>#DDDDDD {
package Company <<Folder>>#DDDDDD {


package Controller <<Folder>>#DDDDDD {
class MainController{
+findVertexWithMinimumDistance()
}

}

package ui <<Folder>>#DDDDDD {
class MenuUI{
+ MainController()
}

class Main{
+ MenuUI()
}

}
package Model <<Folder>>#DDDDDD {

class Company{
+getStoreLists()
+getMapGraphPessoaStore()
}
class Pessoa{
}
class Empresa{
}
}


}
package Store <<Folder>>#DDDDDD {

class MapGraphPessoaStore{
+getMapGraph()
}
}



package Graph <<Folder>>#DDDDDD {
package map <<Folder>>#DDDDDD {
class MapGraph{
+edge(pessoa, pessoa1)
}
}

class Edge{
+getWeight()
}
Interface Graph

class Algorithms{
+minDistGraph(mapGraphPessoa, comparator, binaryOperator)
}

class CommonGraph{
+vertices()
}
}

package Methods <<Folder>>#DDDDDD {
class FindMethods{
+findVertexWithMinimumDistance()
}
}


Main ..> MenuUI
MenuUI ..> MainController


MainController ..> Company
MainController ..> FindMethods

Company *- - MapGraphPessoaStore : owns


FindMethods - - Algorithms : uses >

Pessoa <|- -  Empresa: extends


MapGraph ..|> Graph : implements
MapGraph - -|> CommonGraph : extends

MapGraphPessoaStore "1" - - "*" Edge: has >
MapGraphPessoaStore "1" - - "*" Pessoa: has >

MapGraphPessoaStore "1" - - "0..1" MapGraph: has >



@enduml

PlantUML version 1.2022.12(Sun Oct 23 19:12:26 WEST 2022)
(GPL source distribution)
Java Runtime: OpenJDK Runtime Environment
JVM: OpenJDK 64-Bit Server VM
Default Encoding: Cp1252
Language: pt
Country: PT
--></g></svg>