<?xml version="1.0" encoding="UTF-8" standalone="no"?><svg xmlns="http://www.w3.org/2000/svg" xmlns:xlink="http://www.w3.org/1999/xlink" contentStyleType="text/css" height="1500px" preserveAspectRatio="none" style="width:1360px;height:1500px;background:#FFFFFF;" version="1.1" viewBox="0 0 1360 1500" width="1360px" zoomAndPan="magnify"><defs/><g><!--MD5=[e9d6884d023c009175adb4285a573e02]
cluster java--><g id="cluster_java"><path d="M8.5,6 L38.5,6 A3.75,3.75 0 0 1 41,8.5 L48,27.6406 L1350.5,27.6406 A2.5,2.5 0 0 1 1353,30.1406 L1353,1490.5 A2.5,2.5 0 0 1 1350.5,1493 L8.5,1493 A2.5,2.5 0 0 1 6,1490.5 L6,8.5 A2.5,2.5 0 0 1 8.5,6 " fill="#DDDDDD" style="stroke:#000000;stroke-width:1.5;"/><line style="stroke:#000000;stroke-width:1.5;" x1="6" x2="48" y1="27.6406" y2="27.6406"/><text fill="#000000" font-family="sans-serif" font-size="14" font-weight="bold" lengthAdjust="spacing" textLength="29" x="10" y="20.6738">java</text></g><!--MD5=[66dd6d0a484290b46f8665dfa0e5de89]
cluster Company--><g id="cluster_Company"><path d="M32.5,48 L97.5,48 A3.75,3.75 0 0 1 100,50.5 L107,69.6406 L1084.5,69.6406 A2.5,2.5 0 0 1 1087,72.1406 L1087,1466.5 A2.5,2.5 0 0 1 1084.5,1469 L32.5,1469 A2.5,2.5 0 0 1 30,1466.5 L30,50.5 A2.5,2.5 0 0 1 32.5,48 " fill="#DDDDDD" style="stroke:#000000;stroke-width:1.5;"/><line style="stroke:#000000;stroke-width:1.5;" x1="30" x2="107" y1="69.6406" y2="69.6406"/><text fill="#000000" font-family="sans-serif" font-size="14" font-weight="bold" lengthAdjust="spacing" textLength="64" x="34" y="62.6738">Company</text></g><!--MD5=[b5049517b6d7dcb8cded630832036a0b]
cluster ReadFromCSV--><g id="cluster_ReadFromCSV"><path d="M149.5,556 L250.5,556 A3.75,3.75 0 0 1 253,558.5 L260,577.6406 L380.5,577.6406 A2.5,2.5 0 0 1 383,580.1406 L383,682.5 A2.5,2.5 0 0 1 380.5,685 L149.5,685 A2.5,2.5 0 0 1 147,682.5 L147,558.5 A2.5,2.5 0 0 1 149.5,556 " fill="#DDDDDD" style="stroke:#000000;stroke-width:1.5;"/><line style="stroke:#000000;stroke-width:1.5;" x1="147" x2="260" y1="577.6406" y2="577.6406"/><text fill="#000000" font-family="sans-serif" font-size="14" font-weight="bold" lengthAdjust="spacing" textLength="100" x="151" y="570.6738">ReadFromCSV</text></g><!--MD5=[1f2cfc53d9d308f53762fd0fcbaa4873]
cluster Controller--><g id="cluster_Controller"><path d="M294.5,362 L366.5,362 A3.75,3.75 0 0 1 369,364.5 L376,383.6406 L589.5,383.6406 A2.5,2.5 0 0 1 592,386.1406 L592,520.5 A2.5,2.5 0 0 1 589.5,523 L294.5,523 A2.5,2.5 0 0 1 292,520.5 L292,364.5 A2.5,2.5 0 0 1 294.5,362 " fill="#DDDDDD" style="stroke:#000000;stroke-width:1.5;"/><line style="stroke:#000000;stroke-width:1.5;" x1="292" x2="376" y1="383.6406" y2="383.6406"/><text fill="#000000" font-family="sans-serif" font-size="14" font-weight="bold" lengthAdjust="spacing" textLength="71" x="296" y="376.6738">Controller</text></g><!--MD5=[64e2e010ba86d7988e5cd73bd64f61f9]
cluster ui--><g id="cluster_ui"><path d="M364.5,90 L378.5,90 A3.75,3.75 0 0 1 381,92.5 L388,111.6406 L519.5,111.6406 A2.5,2.5 0 0 1 522,114.1406 L522,326.5 A2.5,2.5 0 0 1 519.5,329 L364.5,329 A2.5,2.5 0 0 1 362,326.5 L362,92.5 A2.5,2.5 0 0 1 364.5,90 " fill="#DDDDDD" style="stroke:#000000;stroke-width:1.5;"/><line style="stroke:#000000;stroke-width:1.5;" x1="362" x2="388" y1="111.6406" y2="111.6406"/><text fill="#000000" font-family="sans-serif" font-size="14" font-weight="bold" lengthAdjust="spacing" textLength="13" x="366" y="104.6738">ui</text></g><!--MD5=[15636c1ca4a123c16a2a1a8e90aca7a9]
cluster Model--><g id="cluster_Model"><path d="M208.5,733 L253.5,733 A3.75,3.75 0 0 1 256,735.5 L263,754.6406 L557.5,754.6406 A2.5,2.5 0 0 1 560,757.1406 L560,1050.5 A2.5,2.5 0 0 1 557.5,1053 L208.5,1053 A2.5,2.5 0 0 1 206,1050.5 L206,735.5 A2.5,2.5 0 0 1 208.5,733 " fill="#DDDDDD" style="stroke:#000000;stroke-width:1.5;"/><line style="stroke:#000000;stroke-width:1.5;" x1="206" x2="263" y1="754.6406" y2="754.6406"/><text fill="#000000" font-family="sans-serif" font-size="14" font-weight="bold" lengthAdjust="spacing" textLength="44" x="210" y="747.6738">Model</text></g><!--MD5=[7ce1723ddb6e6233854253973eae5a71]
cluster Store--><g id="cluster_Store"><path d="M586.5,908 L625.5,908 A3.75,3.75 0 0 1 628,910.5 L635,929.6406 L1060.5,929.6406 A2.5,2.5 0 0 1 1063,932.1406 L1063,1097.5 A2.5,2.5 0 0 1 1060.5,1100 L586.5,1100 A2.5,2.5 0 0 1 584,1097.5 L584,910.5 A2.5,2.5 0 0 1 586.5,908 " fill="#DDDDDD" style="stroke:#000000;stroke-width:1.5;"/><line style="stroke:#000000;stroke-width:1.5;" x1="584" x2="635" y1="929.6406" y2="929.6406"/><text fill="#000000" font-family="sans-serif" font-size="14" font-weight="bold" lengthAdjust="spacing" textLength="38" x="588" y="922.6738">Store</text></g><!--MD5=[c0a55fc040d4de26ef61760e050063db]
cluster Graph--><g id="cluster_Graph"><path d="M247.5,1148 L291.5,1148 A3.75,3.75 0 0 1 294,1150.5 L301,1169.6406 L1021.5,1169.6406 A2.5,2.5 0 0 1 1024,1172.1406 L1024,1442.5 A2.5,2.5 0 0 1 1021.5,1445 L247.5,1445 A2.5,2.5 0 0 1 245,1442.5 L245,1150.5 A2.5,2.5 0 0 1 247.5,1148 " fill="#DDDDDD" style="stroke:#000000;stroke-width:1.5;"/><line style="stroke:#000000;stroke-width:1.5;" x1="245" x2="301" y1="1169.6406" y2="1169.6406"/><text fill="#000000" font-family="sans-serif" font-size="14" font-weight="bold" lengthAdjust="spacing" textLength="43" x="249" y="1162.6738">Graph</text></g><!--MD5=[c670268a59e1f2fa2e9d3e232bc65e6c]
cluster map--><g id="cluster_map"><path d="M614.5,1190 L644.5,1190 A3.75,3.75 0 0 1 647,1192.5 L654,1211.6406 L997.5,1211.6406 A2.5,2.5 0 0 1 1000,1214.1406 L1000,1316.5 A2.5,2.5 0 0 1 997.5,1319 L614.5,1319 A2.5,2.5 0 0 1 612,1316.5 L612,1192.5 A2.5,2.5 0 0 1 614.5,1190 " fill="#DDDDDD" style="stroke:#000000;stroke-width:1.5;"/><line style="stroke:#000000;stroke-width:1.5;" x1="612" x2="654" y1="1211.6406" y2="1211.6406"/><text fill="#000000" font-family="sans-serif" font-size="14" font-weight="bold" lengthAdjust="spacing" textLength="29" x="616" y="1204.6738">map</text></g><!--MD5=[5e76f22326bcb47477de973d3b6e6f99]
cluster Constants--><g id="cluster_Constants"><path d="M56.5,748.5 L128.5,748.5 A3.75,3.75 0 0 1 131,751 L138,770.1406 L179.5,770.1406 A2.5,2.5 0 0 1 182,772.6406 L182,844 A2.5,2.5 0 0 1 179.5,846.5 L56.5,846.5 A2.5,2.5 0 0 1 54,844 L54,751 A2.5,2.5 0 0 1 56.5,748.5 " fill="#DDDDDD" style="stroke:#000000;stroke-width:1.5;"/><line style="stroke:#000000;stroke-width:1.5;" x1="54" x2="138" y1="770.1406" y2="770.1406"/><text fill="#000000" font-family="sans-serif" font-size="14" font-weight="bold" lengthAdjust="spacing" textLength="71" x="58" y="763.1738">Constants</text></g><!--MD5=[b792253f46c87a5be23eaae1b68e2912]
cluster Methods--><g id="cluster_Methods"><path d="M1113.5,556 L1176.5,556 A3.75,3.75 0 0 1 1179,558.5 L1186,577.6406 L1326.5,577.6406 A2.5,2.5 0 0 1 1329,580.1406 L1329,682.5 A2.5,2.5 0 0 1 1326.5,685 L1113.5,685 A2.5,2.5 0 0 1 1111,682.5 L1111,558.5 A2.5,2.5 0 0 1 1113.5,556 " fill="#DDDDDD" style="stroke:#000000;stroke-width:1.5;"/><line style="stroke:#000000;stroke-width:1.5;" x1="1111" x2="1186" y1="577.6406" y2="577.6406"/><text fill="#000000" font-family="sans-serif" font-size="14" font-weight="bold" lengthAdjust="spacing" textLength="62" x="1115" y="570.6738">Methods</text></g><!--MD5=[5d1cc5807216f0e8084cf9b948201fc6]
class Lists--><g id="elem_Lists"><rect fill="#F1F1F1" height="48" id="Lists" rx="2.5" ry="2.5" style="stroke:#181818;stroke-width:0.5;" width="61" x="1103.5" y="1239.5"/><ellipse cx="1118.5" cy="1255.5" fill="#ADD1B2" rx="11" ry="11" style="stroke:#181818;stroke-width:1.0;"/><path d="M1121.2656,1251.375 Q1121.4219,1251.1563 1121.6094,1251.0469 Q1121.7969,1250.9375 1122.0156,1250.9375 Q1122.3906,1250.9375 1122.625,1251.2031 Q1122.8594,1251.4531 1122.8594,1252.0625 L1122.8594,1253.5156 Q1122.8594,1254.125 1122.625,1254.3906 Q1122.3906,1254.6563 1122.0156,1254.6563 Q1121.6719,1254.6563 1121.4688,1254.4531 Q1121.2656,1254.2656 1121.1563,1253.75 Q1121.1094,1253.3906 1120.9219,1253.2031 Q1120.5938,1252.8281 1119.9844,1252.6094 Q1119.375,1252.3906 1118.75,1252.3906 Q1117.9844,1252.3906 1117.3438,1252.7188 Q1116.7188,1253.0469 1116.2188,1253.7969 Q1115.7344,1254.5469 1115.7344,1255.5781 L1115.7344,1256.6719 Q1115.7344,1257.9063 1116.625,1258.7344 Q1117.5156,1259.5469 1119.1094,1259.5469 Q1120.0469,1259.5469 1120.7031,1259.2969 Q1121.0938,1259.1406 1121.5156,1258.7031 Q1121.7813,1258.4375 1121.9219,1258.3594 Q1122.0781,1258.2813 1122.2813,1258.2813 Q1122.6094,1258.2813 1122.8594,1258.5469 Q1123.125,1258.7969 1123.125,1259.1406 Q1123.125,1259.4844 1122.7813,1259.8906 Q1122.2813,1260.4688 1121.4844,1260.7969 Q1120.4063,1261.25 1119.1094,1261.25 Q1117.5938,1261.25 1116.3906,1260.625 Q1115.4063,1260.125 1114.7188,1259.0625 Q1114.0313,1257.9844 1114.0313,1256.7031 L1114.0313,1255.5469 Q1114.0313,1254.2188 1114.6406,1253.0781 Q1115.2656,1251.9219 1116.3594,1251.3125 Q1117.4531,1250.6875 1118.6875,1250.6875 Q1119.4219,1250.6875 1120.0625,1250.8594 Q1120.7188,1251.0156 1121.2656,1251.375 Z " fill="#000000"/><text fill="#000000" font-family="sans-serif" font-size="14" lengthAdjust="spacing" textLength="29" x="1132.5" y="1260.3535">Lists</text><line style="stroke:#181818;stroke-width:0.5;" x1="1104.5" x2="1163.5" y1="1271.5" y2="1271.5"/><line style="stroke:#181818;stroke-width:0.5;" x1="1104.5" x2="1163.5" y1="1279.5" y2="1279.5"/></g><!--MD5=[d1fc9cf33382556d71f6fa515a0cba10]
class ReadFromCSV--><g id="elem_ReadFromCSV"><rect codeLine="6" fill="#F1F1F1" height="79.2813" id="ReadFromCSV" rx="2.5" ry="2.5" style="stroke:#181818;stroke-width:0.5;" width="204" x="163" y="590"/><ellipse cx="213.25" cy="606" fill="#ADD1B2" rx="11" ry="11" style="stroke:#181818;stroke-width:1.0;"/><path d="M216.0156,601.875 Q216.1719,601.6563 216.3594,601.5469 Q216.5469,601.4375 216.7656,601.4375 Q217.1406,601.4375 217.375,601.7031 Q217.6094,601.9531 217.6094,602.5625 L217.6094,604.0156 Q217.6094,604.625 217.375,604.8906 Q217.1406,605.1563 216.7656,605.1563 Q216.4219,605.1563 216.2188,604.9531 Q216.0156,604.7656 215.9063,604.25 Q215.8594,603.8906 215.6719,603.7031 Q215.3438,603.3281 214.7344,603.1094 Q214.125,602.8906 213.5,602.8906 Q212.7344,602.8906 212.0938,603.2188 Q211.4688,603.5469 210.9688,604.2969 Q210.4844,605.0469 210.4844,606.0781 L210.4844,607.1719 Q210.4844,608.4063 211.375,609.2344 Q212.2656,610.0469 213.8594,610.0469 Q214.7969,610.0469 215.4531,609.7969 Q215.8438,609.6406 216.2656,609.2031 Q216.5313,608.9375 216.6719,608.8594 Q216.8281,608.7813 217.0313,608.7813 Q217.3594,608.7813 217.6094,609.0469 Q217.875,609.2969 217.875,609.6406 Q217.875,609.9844 217.5313,610.3906 Q217.0313,610.9688 216.2344,611.2969 Q215.1563,611.75 213.8594,611.75 Q212.3438,611.75 211.1406,611.125 Q210.1563,610.625 209.4688,609.5625 Q208.7813,608.4844 208.7813,607.2031 L208.7813,606.0469 Q208.7813,604.7188 209.3906,603.5781 Q210.0156,602.4219 211.1094,601.8125 Q212.2031,601.1875 213.4375,601.1875 Q214.1719,601.1875 214.8125,601.3594 Q215.4688,601.5156 216.0156,601.875 Z " fill="#000000"/><text fill="#000000" font-family="sans-serif" font-size="14" lengthAdjust="spacing" textLength="95" x="233.75" y="610.8535">ReadFromCSV</text><line style="stroke:#181818;stroke-width:0.5;" x1="164" x2="366" y1="622" y2="622"/><line style="stroke:#181818;stroke-width:0.5;" x1="164" x2="366" y1="630" y2="630"/><ellipse cx="174" cy="643.3203" fill="#84BE84" rx="3" ry="3" style="stroke:#038048;stroke-width:1.0;"/><text fill="#000000" font-family="sans-serif" font-size="14" lengthAdjust="spacing" textLength="178" x="183" y="646.6738">lerClienteProdutor(caminho)</text><ellipse cx="174" cy="658.9609" fill="#84BE84" rx="3" ry="3" style="stroke:#038048;stroke-width:1.0;"/><text fill="#000000" font-family="sans-serif" font-size="14" lengthAdjust="spacing" textLength="144" x="183" y="662.3145">lerDistancias(caminho)</text></g><!--MD5=[0278646e5a3f51edb25d463fe8c5bfab]
class MainController--><g id="elem_MainController"><rect codeLine="13" fill="#F1F1F1" height="110.5625" id="MainController" rx="2.5" ry="2.5" style="stroke:#181818;stroke-width:0.5;" width="268" x="308" y="396"/><ellipse cx="391.75" cy="412" fill="#ADD1B2" rx="11" ry="11" style="stroke:#181818;stroke-width:1.0;"/><path d="M394.5156,407.875 Q394.6719,407.6563 394.8594,407.5469 Q395.0469,407.4375 395.2656,407.4375 Q395.6406,407.4375 395.875,407.7031 Q396.1094,407.9531 396.1094,408.5625 L396.1094,410.0156 Q396.1094,410.625 395.875,410.8906 Q395.6406,411.1563 395.2656,411.1563 Q394.9219,411.1563 394.7188,410.9531 Q394.5156,410.7656 394.4063,410.25 Q394.3594,409.8906 394.1719,409.7031 Q393.8438,409.3281 393.2344,409.1094 Q392.625,408.8906 392,408.8906 Q391.2344,408.8906 390.5938,409.2188 Q389.9688,409.5469 389.4688,410.2969 Q388.9844,411.0469 388.9844,412.0781 L388.9844,413.1719 Q388.9844,414.4063 389.875,415.2344 Q390.7656,416.0469 392.3594,416.0469 Q393.2969,416.0469 393.9531,415.7969 Q394.3438,415.6406 394.7656,415.2031 Q395.0313,414.9375 395.1719,414.8594 Q395.3281,414.7813 395.5313,414.7813 Q395.8594,414.7813 396.1094,415.0469 Q396.375,415.2969 396.375,415.6406 Q396.375,415.9844 396.0313,416.3906 Q395.5313,416.9688 394.7344,417.2969 Q393.6563,417.75 392.3594,417.75 Q390.8438,417.75 389.6406,417.125 Q388.6563,416.625 387.9688,415.5625 Q387.2813,414.4844 387.2813,413.2031 L387.2813,412.0469 Q387.2813,410.7188 387.8906,409.5781 Q388.5156,408.4219 389.6094,407.8125 Q390.7031,407.1875 391.9375,407.1875 Q392.6719,407.1875 393.3125,407.3594 Q393.9688,407.5156 394.5156,407.875 Z " fill="#000000"/><text fill="#000000" font-family="sans-serif" font-size="14" lengthAdjust="spacing" textLength="92" x="412.25" y="416.8535">MainController</text><line style="stroke:#181818;stroke-width:0.5;" x1="309" x2="575" y1="428" y2="428"/><line style="stroke:#181818;stroke-width:0.5;" x1="309" x2="575" y1="436" y2="436"/><ellipse cx="319" cy="449.3203" fill="#84BE84" rx="3" ry="3" style="stroke:#038048;stroke-width:1.0;"/><text fill="#000000" font-family="sans-serif" font-size="14" lengthAdjust="spacing" textLength="242" x="328" y="452.6738">lerClienteProdutor(fileName.getPath())</text><ellipse cx="319" cy="464.9609" fill="#84BE84" rx="3" ry="3" style="stroke:#038048;stroke-width:1.0;"/><text fill="#000000" font-family="sans-serif" font-size="14" lengthAdjust="spacing" textLength="208" x="328" y="468.3145">lerDistancias(fileName.getPath())</text><ellipse cx="319" cy="480.6016" fill="#84BE84" rx="3" ry="3" style="stroke:#038048;stroke-width:1.0;"/><text fill="#000000" font-family="sans-serif" font-size="14" lengthAdjust="spacing" textLength="90" x="328" y="483.9551">createGraph()</text><ellipse cx="319" cy="496.2422" fill="#84BE84" rx="3" ry="3" style="stroke:#038048;stroke-width:1.0;"/><text fill="#000000" font-family="sans-serif" font-size="14" lengthAdjust="spacing" textLength="163" x="328" y="499.5957">setMapGraph(MapGraph)</text></g><!--MD5=[02de039990bbea028db2518876dfca25]
class MenuUI--><g id="elem_MenuUI"><rect codeLine="23" fill="#F1F1F1" height="63.6406" id="MenuUI" rx="2.5" ry="2.5" style="stroke:#181818;stroke-width:0.5;" width="128" x="378" y="249"/><ellipse cx="415.05" cy="265" fill="#ADD1B2" rx="11" ry="11" style="stroke:#181818;stroke-width:1.0;"/><path d="M417.8156,260.875 Q417.9719,260.6563 418.1594,260.5469 Q418.3469,260.4375 418.5656,260.4375 Q418.9406,260.4375 419.175,260.7031 Q419.4094,260.9531 419.4094,261.5625 L419.4094,263.0156 Q419.4094,263.625 419.175,263.8906 Q418.9406,264.1563 418.5656,264.1563 Q418.2219,264.1563 418.0188,263.9531 Q417.8156,263.7656 417.7063,263.25 Q417.6594,262.8906 417.4719,262.7031 Q417.1438,262.3281 416.5344,262.1094 Q415.925,261.8906 415.3,261.8906 Q414.5344,261.8906 413.8938,262.2188 Q413.2688,262.5469 412.7688,263.2969 Q412.2844,264.0469 412.2844,265.0781 L412.2844,266.1719 Q412.2844,267.4063 413.175,268.2344 Q414.0656,269.0469 415.6594,269.0469 Q416.5969,269.0469 417.2531,268.7969 Q417.6438,268.6406 418.0656,268.2031 Q418.3313,267.9375 418.4719,267.8594 Q418.6281,267.7813 418.8313,267.7813 Q419.1594,267.7813 419.4094,268.0469 Q419.675,268.2969 419.675,268.6406 Q419.675,268.9844 419.3313,269.3906 Q418.8313,269.9688 418.0344,270.2969 Q416.9563,270.75 415.6594,270.75 Q414.1438,270.75 412.9406,270.125 Q411.9563,269.625 411.2688,268.5625 Q410.5813,267.4844 410.5813,266.2031 L410.5813,265.0469 Q410.5813,263.7188 411.1906,262.5781 Q411.8156,261.4219 412.9094,260.8125 Q414.0031,260.1875 415.2375,260.1875 Q415.9719,260.1875 416.6125,260.3594 Q417.2688,260.5156 417.8156,260.875 Z " fill="#000000"/><text fill="#000000" font-family="sans-serif" font-size="14" lengthAdjust="spacing" textLength="47" x="433.95" y="269.8535">MenuUI</text><line style="stroke:#181818;stroke-width:0.5;" x1="379" x2="505" y1="281" y2="281"/><line style="stroke:#181818;stroke-width:0.5;" x1="379" x2="505" y1="289" y2="289"/><ellipse cx="389" cy="302.3203" fill="#84BE84" rx="3" ry="3" style="stroke:#038048;stroke-width:1.0;"/><text fill="#000000" font-family="sans-serif" font-size="14" lengthAdjust="spacing" textLength="102" x="398" y="305.6738">MainController()</text></g><!--MD5=[84718776d214be480e4c259efcb737fc]
class Main--><g id="elem_Main"><rect codeLine="27" fill="#F1F1F1" height="63.6406" id="Main" rx="2.5" ry="2.5" style="stroke:#181818;stroke-width:0.5;" width="83" x="400.5" y="124"/><ellipse cx="424.95" cy="140" fill="#ADD1B2" rx="11" ry="11" style="stroke:#181818;stroke-width:1.0;"/><path d="M427.7156,135.875 Q427.8719,135.6563 428.0594,135.5469 Q428.2469,135.4375 428.4656,135.4375 Q428.8406,135.4375 429.075,135.7031 Q429.3094,135.9531 429.3094,136.5625 L429.3094,138.0156 Q429.3094,138.625 429.075,138.8906 Q428.8406,139.1563 428.4656,139.1563 Q428.1219,139.1563 427.9188,138.9531 Q427.7156,138.7656 427.6063,138.25 Q427.5594,137.8906 427.3719,137.7031 Q427.0438,137.3281 426.4344,137.1094 Q425.825,136.8906 425.2,136.8906 Q424.4344,136.8906 423.7938,137.2188 Q423.1688,137.5469 422.6688,138.2969 Q422.1844,139.0469 422.1844,140.0781 L422.1844,141.1719 Q422.1844,142.4063 423.075,143.2344 Q423.9656,144.0469 425.5594,144.0469 Q426.4969,144.0469 427.1531,143.7969 Q427.5438,143.6406 427.9656,143.2031 Q428.2313,142.9375 428.3719,142.8594 Q428.5281,142.7813 428.7313,142.7813 Q429.0594,142.7813 429.3094,143.0469 Q429.575,143.2969 429.575,143.6406 Q429.575,143.9844 429.2313,144.3906 Q428.7313,144.9688 427.9344,145.2969 Q426.8563,145.75 425.5594,145.75 Q424.0438,145.75 422.8406,145.125 Q421.8563,144.625 421.1688,143.5625 Q420.4813,142.4844 420.4813,141.2031 L420.4813,140.0469 Q420.4813,138.7188 421.0906,137.5781 Q421.7156,136.4219 422.8094,135.8125 Q423.9031,135.1875 425.1375,135.1875 Q425.8719,135.1875 426.5125,135.3594 Q427.1688,135.5156 427.7156,135.875 Z " fill="#000000"/><text fill="#000000" font-family="sans-serif" font-size="14" lengthAdjust="spacing" textLength="30" x="441.05" y="144.8535">Main</text><line style="stroke:#181818;stroke-width:0.5;" x1="401.5" x2="482.5" y1="156" y2="156"/><line style="stroke:#181818;stroke-width:0.5;" x1="401.5" x2="482.5" y1="164" y2="164"/><ellipse cx="411.5" cy="177.3203" fill="#84BE84" rx="3" ry="3" style="stroke:#038048;stroke-width:1.0;"/><text fill="#000000" font-family="sans-serif" font-size="14" lengthAdjust="spacing" textLength="57" x="420.5" y="180.6738">MenuUI()</text></g><!--MD5=[02e4b9b7573f1156f41e60aa5b4e25a4]
class Company--><g id="elem_Company"><rect codeLine="34" fill="#F1F1F1" height="79.2813" id="Company" rx="2.5" ry="2.5" style="stroke:#181818;stroke-width:0.5;" width="204" x="340" y="767"/><ellipse cx="407.75" cy="783" fill="#ADD1B2" rx="11" ry="11" style="stroke:#181818;stroke-width:1.0;"/><path d="M410.5156,778.875 Q410.6719,778.6563 410.8594,778.5469 Q411.0469,778.4375 411.2656,778.4375 Q411.6406,778.4375 411.875,778.7031 Q412.1094,778.9531 412.1094,779.5625 L412.1094,781.0156 Q412.1094,781.625 411.875,781.8906 Q411.6406,782.1563 411.2656,782.1563 Q410.9219,782.1563 410.7188,781.9531 Q410.5156,781.7656 410.4063,781.25 Q410.3594,780.8906 410.1719,780.7031 Q409.8438,780.3281 409.2344,780.1094 Q408.625,779.8906 408,779.8906 Q407.2344,779.8906 406.5938,780.2188 Q405.9688,780.5469 405.4688,781.2969 Q404.9844,782.0469 404.9844,783.0781 L404.9844,784.1719 Q404.9844,785.4063 405.875,786.2344 Q406.7656,787.0469 408.3594,787.0469 Q409.2969,787.0469 409.9531,786.7969 Q410.3438,786.6406 410.7656,786.2031 Q411.0313,785.9375 411.1719,785.8594 Q411.3281,785.7813 411.5313,785.7813 Q411.8594,785.7813 412.1094,786.0469 Q412.375,786.2969 412.375,786.6406 Q412.375,786.9844 412.0313,787.3906 Q411.5313,787.9688 410.7344,788.2969 Q409.6563,788.75 408.3594,788.75 Q406.8438,788.75 405.6406,788.125 Q404.6563,787.625 403.9688,786.5625 Q403.2813,785.4844 403.2813,784.2031 L403.2813,783.0469 Q403.2813,781.7188 403.8906,780.5781 Q404.5156,779.4219 405.6094,778.8125 Q406.7031,778.1875 407.9375,778.1875 Q408.6719,778.1875 409.3125,778.3594 Q409.9688,778.5156 410.5156,778.875 Z " fill="#000000"/><text fill="#000000" font-family="sans-serif" font-size="14" lengthAdjust="spacing" textLength="60" x="428.25" y="787.8535">Company</text><line style="stroke:#181818;stroke-width:0.5;" x1="341" x2="543" y1="799" y2="799"/><line style="stroke:#181818;stroke-width:0.5;" x1="341" x2="543" y1="807" y2="807"/><ellipse cx="351" cy="820.3203" fill="#84BE84" rx="3" ry="3" style="stroke:#038048;stroke-width:1.0;"/><text fill="#000000" font-family="sans-serif" font-size="14" lengthAdjust="spacing" textLength="93" x="360" y="823.6738">getStoreLists()</text><ellipse cx="351" cy="835.9609" fill="#84BE84" rx="3" ry="3" style="stroke:#038048;stroke-width:1.0;"/><text fill="#000000" font-family="sans-serif" font-size="14" lengthAdjust="spacing" textLength="178" x="360" y="839.3145">getMapGraphPessoaStore()</text></g><!--MD5=[ec4e9ac521a71f7b069122f6baf1b57e]
class Pessoa--><g id="elem_Pessoa"><rect codeLine="38" fill="#F1F1F1" height="48" id="Pessoa" rx="2.5" ry="2.5" style="stroke:#181818;stroke-width:0.5;" width="79" x="225.5" y="782.5"/><ellipse cx="240.5" cy="798.5" fill="#ADD1B2" rx="11" ry="11" style="stroke:#181818;stroke-width:1.0;"/><path d="M243.2656,794.375 Q243.4219,794.1563 243.6094,794.0469 Q243.7969,793.9375 244.0156,793.9375 Q244.3906,793.9375 244.625,794.2031 Q244.8594,794.4531 244.8594,795.0625 L244.8594,796.5156 Q244.8594,797.125 244.625,797.3906 Q244.3906,797.6563 244.0156,797.6563 Q243.6719,797.6563 243.4688,797.4531 Q243.2656,797.2656 243.1563,796.75 Q243.1094,796.3906 242.9219,796.2031 Q242.5938,795.8281 241.9844,795.6094 Q241.375,795.3906 240.75,795.3906 Q239.9844,795.3906 239.3438,795.7188 Q238.7188,796.0469 238.2188,796.7969 Q237.7344,797.5469 237.7344,798.5781 L237.7344,799.6719 Q237.7344,800.9063 238.625,801.7344 Q239.5156,802.5469 241.1094,802.5469 Q242.0469,802.5469 242.7031,802.2969 Q243.0938,802.1406 243.5156,801.7031 Q243.7813,801.4375 243.9219,801.3594 Q244.0781,801.2813 244.2813,801.2813 Q244.6094,801.2813 244.8594,801.5469 Q245.125,801.7969 245.125,802.1406 Q245.125,802.4844 244.7813,802.8906 Q244.2813,803.4688 243.4844,803.7969 Q242.4063,804.25 241.1094,804.25 Q239.5938,804.25 238.3906,803.625 Q237.4063,803.125 236.7188,802.0625 Q236.0313,800.9844 236.0313,799.7031 L236.0313,798.5469 Q236.0313,797.2188 236.6406,796.0781 Q237.2656,794.9219 238.3594,794.3125 Q239.4531,793.6875 240.6875,793.6875 Q241.4219,793.6875 242.0625,793.8594 Q242.7188,794.0156 243.2656,794.375 Z " fill="#000000"/><text fill="#000000" font-family="sans-serif" font-size="14" lengthAdjust="spacing" textLength="47" x="254.5" y="803.3535">Pessoa</text><line style="stroke:#181818;stroke-width:0.5;" x1="226.5" x2="303.5" y1="814.5" y2="814.5"/><line style="stroke:#181818;stroke-width:0.5;" x1="226.5" x2="303.5" y1="822.5" y2="822.5"/></g><!--MD5=[7d0e5ddd73bd8fec86b8967827845935]
class Empresa--><g id="elem_Empresa"><rect codeLine="40" fill="#F1F1F1" height="48" id="Empresa" rx="2.5" ry="2.5" style="stroke:#181818;stroke-width:0.5;" width="88" x="222" y="989"/><ellipse cx="237" cy="1005" fill="#ADD1B2" rx="11" ry="11" style="stroke:#181818;stroke-width:1.0;"/><path d="M239.7656,1000.875 Q239.9219,1000.6563 240.1094,1000.5469 Q240.2969,1000.4375 240.5156,1000.4375 Q240.8906,1000.4375 241.125,1000.7031 Q241.3594,1000.9531 241.3594,1001.5625 L241.3594,1003.0156 Q241.3594,1003.625 241.125,1003.8906 Q240.8906,1004.1563 240.5156,1004.1563 Q240.1719,1004.1563 239.9688,1003.9531 Q239.7656,1003.7656 239.6563,1003.25 Q239.6094,1002.8906 239.4219,1002.7031 Q239.0938,1002.3281 238.4844,1002.1094 Q237.875,1001.8906 237.25,1001.8906 Q236.4844,1001.8906 235.8438,1002.2188 Q235.2188,1002.5469 234.7188,1003.2969 Q234.2344,1004.0469 234.2344,1005.0781 L234.2344,1006.1719 Q234.2344,1007.4063 235.125,1008.2344 Q236.0156,1009.0469 237.6094,1009.0469 Q238.5469,1009.0469 239.2031,1008.7969 Q239.5938,1008.6406 240.0156,1008.2031 Q240.2813,1007.9375 240.4219,1007.8594 Q240.5781,1007.7813 240.7813,1007.7813 Q241.1094,1007.7813 241.3594,1008.0469 Q241.625,1008.2969 241.625,1008.6406 Q241.625,1008.9844 241.2813,1009.3906 Q240.7813,1009.9688 239.9844,1010.2969 Q238.9063,1010.75 237.6094,1010.75 Q236.0938,1010.75 234.8906,1010.125 Q233.9063,1009.625 233.2188,1008.5625 Q232.5313,1007.4844 232.5313,1006.2031 L232.5313,1005.0469 Q232.5313,1003.7188 233.1406,1002.5781 Q233.7656,1001.4219 234.8594,1000.8125 Q235.9531,1000.1875 237.1875,1000.1875 Q237.9219,1000.1875 238.5625,1000.3594 Q239.2188,1000.5156 239.7656,1000.875 Z " fill="#000000"/><text fill="#000000" font-family="sans-serif" font-size="14" lengthAdjust="spacing" textLength="56" x="251" y="1009.8535">Empresa</text><line style="stroke:#181818;stroke-width:0.5;" x1="223" x2="309" y1="1021" y2="1021"/><line style="stroke:#181818;stroke-width:0.5;" x1="223" x2="309" y1="1029" y2="1029"/></g><!--MD5=[20a748d5ee336a9a91751b0a3d4f0beb]
class Cliente--><g id="elem_Cliente"><rect codeLine="42" fill="#F1F1F1" height="48" id="Cliente" rx="2.5" ry="2.5" style="stroke:#181818;stroke-width:0.5;" width="76" x="345" y="989"/><ellipse cx="360" cy="1005" fill="#ADD1B2" rx="11" ry="11" style="stroke:#181818;stroke-width:1.0;"/><path d="M362.7656,1000.875 Q362.9219,1000.6563 363.1094,1000.5469 Q363.2969,1000.4375 363.5156,1000.4375 Q363.8906,1000.4375 364.125,1000.7031 Q364.3594,1000.9531 364.3594,1001.5625 L364.3594,1003.0156 Q364.3594,1003.625 364.125,1003.8906 Q363.8906,1004.1563 363.5156,1004.1563 Q363.1719,1004.1563 362.9688,1003.9531 Q362.7656,1003.7656 362.6563,1003.25 Q362.6094,1002.8906 362.4219,1002.7031 Q362.0938,1002.3281 361.4844,1002.1094 Q360.875,1001.8906 360.25,1001.8906 Q359.4844,1001.8906 358.8438,1002.2188 Q358.2188,1002.5469 357.7188,1003.2969 Q357.2344,1004.0469 357.2344,1005.0781 L357.2344,1006.1719 Q357.2344,1007.4063 358.125,1008.2344 Q359.0156,1009.0469 360.6094,1009.0469 Q361.5469,1009.0469 362.2031,1008.7969 Q362.5938,1008.6406 363.0156,1008.2031 Q363.2813,1007.9375 363.4219,1007.8594 Q363.5781,1007.7813 363.7813,1007.7813 Q364.1094,1007.7813 364.3594,1008.0469 Q364.625,1008.2969 364.625,1008.6406 Q364.625,1008.9844 364.2813,1009.3906 Q363.7813,1009.9688 362.9844,1010.2969 Q361.9063,1010.75 360.6094,1010.75 Q359.0938,1010.75 357.8906,1010.125 Q356.9063,1009.625 356.2188,1008.5625 Q355.5313,1007.4844 355.5313,1006.2031 L355.5313,1005.0469 Q355.5313,1003.7188 356.1406,1002.5781 Q356.7656,1001.4219 357.8594,1000.8125 Q358.9531,1000.1875 360.1875,1000.1875 Q360.9219,1000.1875 361.5625,1000.3594 Q362.2188,1000.5156 362.7656,1000.875 Z " fill="#000000"/><text fill="#000000" font-family="sans-serif" font-size="14" lengthAdjust="spacing" textLength="44" x="374" y="1009.8535">Cliente</text><line style="stroke:#181818;stroke-width:0.5;" x1="346" x2="420" y1="1021" y2="1021"/><line style="stroke:#181818;stroke-width:0.5;" x1="346" x2="420" y1="1029" y2="1029"/></g><!--MD5=[e66145d266c407ffaa9a1f58108bb271]
class Produtor--><g id="elem_Produtor"><rect codeLine="44" fill="#F1F1F1" height="48" id="Produtor" rx="2.5" ry="2.5" style="stroke:#181818;stroke-width:0.5;" width="87" x="456.5" y="989"/><ellipse cx="471.5" cy="1005" fill="#ADD1B2" rx="11" ry="11" style="stroke:#181818;stroke-width:1.0;"/><path d="M474.2656,1000.875 Q474.4219,1000.6563 474.6094,1000.5469 Q474.7969,1000.4375 475.0156,1000.4375 Q475.3906,1000.4375 475.625,1000.7031 Q475.8594,1000.9531 475.8594,1001.5625 L475.8594,1003.0156 Q475.8594,1003.625 475.625,1003.8906 Q475.3906,1004.1563 475.0156,1004.1563 Q474.6719,1004.1563 474.4688,1003.9531 Q474.2656,1003.7656 474.1563,1003.25 Q474.1094,1002.8906 473.9219,1002.7031 Q473.5938,1002.3281 472.9844,1002.1094 Q472.375,1001.8906 471.75,1001.8906 Q470.9844,1001.8906 470.3438,1002.2188 Q469.7188,1002.5469 469.2188,1003.2969 Q468.7344,1004.0469 468.7344,1005.0781 L468.7344,1006.1719 Q468.7344,1007.4063 469.625,1008.2344 Q470.5156,1009.0469 472.1094,1009.0469 Q473.0469,1009.0469 473.7031,1008.7969 Q474.0938,1008.6406 474.5156,1008.2031 Q474.7813,1007.9375 474.9219,1007.8594 Q475.0781,1007.7813 475.2813,1007.7813 Q475.6094,1007.7813 475.8594,1008.0469 Q476.125,1008.2969 476.125,1008.6406 Q476.125,1008.9844 475.7813,1009.3906 Q475.2813,1009.9688 474.4844,1010.2969 Q473.4063,1010.75 472.1094,1010.75 Q470.5938,1010.75 469.3906,1010.125 Q468.4063,1009.625 467.7188,1008.5625 Q467.0313,1007.4844 467.0313,1006.2031 L467.0313,1005.0469 Q467.0313,1003.7188 467.6406,1002.5781 Q468.2656,1001.4219 469.3594,1000.8125 Q470.4531,1000.1875 471.6875,1000.1875 Q472.4219,1000.1875 473.0625,1000.3594 Q473.7188,1000.5156 474.2656,1000.875 Z " fill="#000000"/><text fill="#000000" font-family="sans-serif" font-size="14" lengthAdjust="spacing" textLength="55" x="485.5" y="1009.8535">Produtor</text><line style="stroke:#181818;stroke-width:0.5;" x1="457.5" x2="542.5" y1="1021" y2="1021"/><line style="stroke:#181818;stroke-width:0.5;" x1="457.5" x2="542.5" y1="1029" y2="1029"/></g><!--MD5=[6b9139d56e329d2125bb6a66380aa54b]
class StoreLists--><g id="elem_StoreLists"><rect codeLine="52" fill="#F1F1F1" height="141.8438" id="StoreLists" rx="2.5" ry="2.5" style="stroke:#181818;stroke-width:0.5;" width="232" x="815" y="942"/><ellipse cx="895.25" cy="958" fill="#ADD1B2" rx="11" ry="11" style="stroke:#181818;stroke-width:1.0;"/><path d="M898.0156,953.875 Q898.1719,953.6563 898.3594,953.5469 Q898.5469,953.4375 898.7656,953.4375 Q899.1406,953.4375 899.375,953.7031 Q899.6094,953.9531 899.6094,954.5625 L899.6094,956.0156 Q899.6094,956.625 899.375,956.8906 Q899.1406,957.1563 898.7656,957.1563 Q898.4219,957.1563 898.2188,956.9531 Q898.0156,956.7656 897.9063,956.25 Q897.8594,955.8906 897.6719,955.7031 Q897.3438,955.3281 896.7344,955.1094 Q896.125,954.8906 895.5,954.8906 Q894.7344,954.8906 894.0938,955.2188 Q893.4688,955.5469 892.9688,956.2969 Q892.4844,957.0469 892.4844,958.0781 L892.4844,959.1719 Q892.4844,960.4063 893.375,961.2344 Q894.2656,962.0469 895.8594,962.0469 Q896.7969,962.0469 897.4531,961.7969 Q897.8438,961.6406 898.2656,961.2031 Q898.5313,960.9375 898.6719,960.8594 Q898.8281,960.7813 899.0313,960.7813 Q899.3594,960.7813 899.6094,961.0469 Q899.875,961.2969 899.875,961.6406 Q899.875,961.9844 899.5313,962.3906 Q899.0313,962.9688 898.2344,963.2969 Q897.1563,963.75 895.8594,963.75 Q894.3438,963.75 893.1406,963.125 Q892.1563,962.625 891.4688,961.5625 Q890.7813,960.4844 890.7813,959.2031 L890.7813,958.0469 Q890.7813,956.7188 891.3906,955.5781 Q892.0156,954.4219 893.1094,953.8125 Q894.2031,953.1875 895.4375,953.1875 Q896.1719,953.1875 896.8125,953.3594 Q897.4688,953.5156 898.0156,953.875 Z " fill="#000000"/><text fill="#000000" font-family="sans-serif" font-size="14" lengthAdjust="spacing" textLength="63" x="915.75" y="962.8535">StoreLists</text><line style="stroke:#181818;stroke-width:0.5;" x1="816" x2="1046" y1="974" y2="974"/><line style="stroke:#181818;stroke-width:0.5;" x1="816" x2="1046" y1="982" y2="982"/><ellipse cx="826" cy="995.3203" fill="#84BE84" rx="3" ry="3" style="stroke:#038048;stroke-width:1.0;"/><text fill="#000000" font-family="sans-serif" font-size="14" lengthAdjust="spacing" textLength="149" x="835" y="998.6738">addPessoaList(pessoa)</text><ellipse cx="826" cy="1010.9609" fill="#84BE84" rx="3" ry="3" style="stroke:#038048;stroke-width:1.0;"/><text fill="#000000" font-family="sans-serif" font-size="14" lengthAdjust="spacing" textLength="189" x="835" y="1014.3145">addLocalidadeList(localidade)</text><ellipse cx="826" cy="1026.6016" fill="#84BE84" rx="3" ry="3" style="stroke:#038048;stroke-width:1.0;"/><text fill="#000000" font-family="sans-serif" font-size="14" lengthAdjust="spacing" textLength="166" x="835" y="1029.9551">setPessoaList(pessoaList)</text><ellipse cx="826" cy="1042.2422" fill="#84BE84" rx="3" ry="3" style="stroke:#038048;stroke-width:1.0;"/><text fill="#000000" font-family="sans-serif" font-size="14" lengthAdjust="spacing" textLength="206" x="835" y="1045.5957">setLocalidadeList(localidadeList)</text><ellipse cx="826" cy="1057.8828" fill="#84BE84" rx="3" ry="3" style="stroke:#038048;stroke-width:1.0;"/><text fill="#000000" font-family="sans-serif" font-size="14" lengthAdjust="spacing" textLength="99" x="835" y="1061.2363">getPessoaList()</text><ellipse cx="826" cy="1073.5234" fill="#84BE84" rx="3" ry="3" style="stroke:#038048;stroke-width:1.0;"/><text fill="#000000" font-family="sans-serif" font-size="14" lengthAdjust="spacing" textLength="121" x="835" y="1076.877">getLocalidadeList()</text></g><!--MD5=[3ecf2b447fd626a808bbfa4df6084566]
class MapGraphPessoaStore--><g id="elem_MapGraphPessoaStore"><rect codeLine="60" fill="#F1F1F1" height="63.6406" id="MapGraphPessoaStore" rx="2.5" ry="2.5" style="stroke:#181818;stroke-width:0.5;" width="180" x="600" y="981"/><ellipse cx="615" cy="997" fill="#ADD1B2" rx="11" ry="11" style="stroke:#181818;stroke-width:1.0;"/><path d="M617.7656,992.875 Q617.9219,992.6563 618.1094,992.5469 Q618.2969,992.4375 618.5156,992.4375 Q618.8906,992.4375 619.125,992.7031 Q619.3594,992.9531 619.3594,993.5625 L619.3594,995.0156 Q619.3594,995.625 619.125,995.8906 Q618.8906,996.1563 618.5156,996.1563 Q618.1719,996.1563 617.9688,995.9531 Q617.7656,995.7656 617.6563,995.25 Q617.6094,994.8906 617.4219,994.7031 Q617.0938,994.3281 616.4844,994.1094 Q615.875,993.8906 615.25,993.8906 Q614.4844,993.8906 613.8438,994.2188 Q613.2188,994.5469 612.7188,995.2969 Q612.2344,996.0469 612.2344,997.0781 L612.2344,998.1719 Q612.2344,999.4063 613.125,1000.2344 Q614.0156,1001.0469 615.6094,1001.0469 Q616.5469,1001.0469 617.2031,1000.7969 Q617.5938,1000.6406 618.0156,1000.2031 Q618.2813,999.9375 618.4219,999.8594 Q618.5781,999.7813 618.7813,999.7813 Q619.1094,999.7813 619.3594,1000.0469 Q619.625,1000.2969 619.625,1000.6406 Q619.625,1000.9844 619.2813,1001.3906 Q618.7813,1001.9688 617.9844,1002.2969 Q616.9063,1002.75 615.6094,1002.75 Q614.0938,1002.75 612.8906,1002.125 Q611.9063,1001.625 611.2188,1000.5625 Q610.5313,999.4844 610.5313,998.2031 L610.5313,997.0469 Q610.5313,995.7188 611.1406,994.5781 Q611.7656,993.4219 612.8594,992.8125 Q613.9531,992.1875 615.1875,992.1875 Q615.9219,992.1875 616.5625,992.3594 Q617.2188,992.5156 617.7656,992.875 Z " fill="#000000"/><text fill="#000000" font-family="sans-serif" font-size="14" lengthAdjust="spacing" textLength="148" x="629" y="1001.8535">MapGraphPessoaStore</text><line style="stroke:#181818;stroke-width:0.5;" x1="601" x2="779" y1="1013" y2="1013"/><line style="stroke:#181818;stroke-width:0.5;" x1="601" x2="779" y1="1021" y2="1021"/><ellipse cx="611" cy="1034.3203" fill="#84BE84" rx="3" ry="3" style="stroke:#038048;stroke-width:1.0;"/><text fill="#000000" font-family="sans-serif" font-size="14" lengthAdjust="spacing" textLength="133" x="620" y="1037.6738">setMapGraph(graph)</text></g><!--MD5=[2e2f8c8f62c4eb3bc59a59727cfd81a5]
class Edge--><g id="elem_Edge"><rect codeLine="74" fill="#F1F1F1" height="63.6406" id="Edge" rx="2.5" ry="2.5" style="stroke:#181818;stroke-width:0.5;" width="332" x="261" y="1231.5"/><ellipse cx="406.25" cy="1247.5" fill="#ADD1B2" rx="11" ry="11" style="stroke:#181818;stroke-width:1.0;"/><path d="M409.0156,1243.375 Q409.1719,1243.1563 409.3594,1243.0469 Q409.5469,1242.9375 409.7656,1242.9375 Q410.1406,1242.9375 410.375,1243.2031 Q410.6094,1243.4531 410.6094,1244.0625 L410.6094,1245.5156 Q410.6094,1246.125 410.375,1246.3906 Q410.1406,1246.6563 409.7656,1246.6563 Q409.4219,1246.6563 409.2188,1246.4531 Q409.0156,1246.2656 408.9063,1245.75 Q408.8594,1245.3906 408.6719,1245.2031 Q408.3438,1244.8281 407.7344,1244.6094 Q407.125,1244.3906 406.5,1244.3906 Q405.7344,1244.3906 405.0938,1244.7188 Q404.4688,1245.0469 403.9688,1245.7969 Q403.4844,1246.5469 403.4844,1247.5781 L403.4844,1248.6719 Q403.4844,1249.9063 404.375,1250.7344 Q405.2656,1251.5469 406.8594,1251.5469 Q407.7969,1251.5469 408.4531,1251.2969 Q408.8438,1251.1406 409.2656,1250.7031 Q409.5313,1250.4375 409.6719,1250.3594 Q409.8281,1250.2813 410.0313,1250.2813 Q410.3594,1250.2813 410.6094,1250.5469 Q410.875,1250.7969 410.875,1251.1406 Q410.875,1251.4844 410.5313,1251.8906 Q410.0313,1252.4688 409.2344,1252.7969 Q408.1563,1253.25 406.8594,1253.25 Q405.3438,1253.25 404.1406,1252.625 Q403.1563,1252.125 402.4688,1251.0625 Q401.7813,1249.9844 401.7813,1248.7031 L401.7813,1247.5469 Q401.7813,1246.2188 402.3906,1245.0781 Q403.0156,1243.9219 404.1094,1243.3125 Q405.2031,1242.6875 406.4375,1242.6875 Q407.1719,1242.6875 407.8125,1242.8594 Q408.4688,1243.0156 409.0156,1243.375 Z " fill="#000000"/><text fill="#000000" font-family="sans-serif" font-size="14" lengthAdjust="spacing" textLength="33" x="426.75" y="1252.3535">Edge</text><line style="stroke:#181818;stroke-width:0.5;" x1="262" x2="592" y1="1263.5" y2="1263.5"/><line style="stroke:#181818;stroke-width:0.5;" x1="262" x2="592" y1="1271.5" y2="1271.5"/><ellipse cx="272" cy="1284.8203" fill="#84BE84" rx="3" ry="3" style="stroke:#038048;stroke-width:1.0;"/><text fill="#000000" font-family="sans-serif" font-size="14" lengthAdjust="spacing" textLength="306" x="281" y="1288.1738">Edge(pessoa, auxPessoa, helper.getDistancia())</text></g><!--MD5=[706e73df52f3df32f52be1ce9adb217e]
class Graph--><g id="elem_Graph"><rect codeLine="77" fill="#F1F1F1" height="48" id="Graph" rx="2.5" ry="2.5" style="stroke:#181818;stroke-width:0.5;" width="72" x="770" y="1381"/><ellipse cx="785" cy="1397" fill="#B4A7E5" rx="11" ry="11" style="stroke:#181818;stroke-width:1.0;"/><path d="M785.9531,1393.6406 L785.9531,1400.2969 L787.6719,1400.2969 Q788.2813,1400.2969 788.5469,1400.5313 Q788.8125,1400.7656 788.8125,1401.1563 Q788.8125,1401.5313 788.5469,1401.7656 Q788.2813,1402 787.6719,1402 L782.5313,1402 Q781.9219,1402 781.6563,1401.7656 Q781.3906,1401.5313 781.3906,1401.1406 Q781.3906,1400.7656 781.6563,1400.5313 Q781.9219,1400.2969 782.5313,1400.2969 L784.25,1400.2969 L784.25,1393.6406 L782.5313,1393.6406 Q781.9219,1393.6406 781.6563,1393.4063 Q781.3906,1393.1719 781.3906,1392.7813 Q781.3906,1392.4063 781.6563,1392.1719 Q781.9219,1391.9375 782.5313,1391.9375 L787.6719,1391.9375 Q788.2813,1391.9375 788.5469,1392.1719 Q788.8125,1392.4063 788.8125,1392.7813 Q788.8125,1393.1719 788.5469,1393.4063 Q788.2813,1393.6406 787.6719,1393.6406 L785.9531,1393.6406 Z " fill="#000000"/><text fill="#000000" font-family="sans-serif" font-size="14" font-style="italic" lengthAdjust="spacing" textLength="40" x="799" y="1401.8535">Graph</text><line style="stroke:#181818;stroke-width:0.5;" x1="771" x2="841" y1="1413" y2="1413"/><line style="stroke:#181818;stroke-width:0.5;" x1="771" x2="841" y1="1421" y2="1421"/></g><!--MD5=[b122bab300f80f5d31a622e2bae54847]
class MapGraph--><g id="elem_MapGraph"><rect codeLine="69" fill="#F1F1F1" height="79.2813" id="MapGraph" rx="2.5" ry="2.5" style="stroke:#181818;stroke-width:0.5;" width="356" x="628" y="1224"/><ellipse cx="768.25" cy="1240" fill="#ADD1B2" rx="11" ry="11" style="stroke:#181818;stroke-width:1.0;"/><path d="M771.0156,1235.875 Q771.1719,1235.6563 771.3594,1235.5469 Q771.5469,1235.4375 771.7656,1235.4375 Q772.1406,1235.4375 772.375,1235.7031 Q772.6094,1235.9531 772.6094,1236.5625 L772.6094,1238.0156 Q772.6094,1238.625 772.375,1238.8906 Q772.1406,1239.1563 771.7656,1239.1563 Q771.4219,1239.1563 771.2188,1238.9531 Q771.0156,1238.7656 770.9063,1238.25 Q770.8594,1237.8906 770.6719,1237.7031 Q770.3438,1237.3281 769.7344,1237.1094 Q769.125,1236.8906 768.5,1236.8906 Q767.7344,1236.8906 767.0938,1237.2188 Q766.4688,1237.5469 765.9688,1238.2969 Q765.4844,1239.0469 765.4844,1240.0781 L765.4844,1241.1719 Q765.4844,1242.4063 766.375,1243.2344 Q767.2656,1244.0469 768.8594,1244.0469 Q769.7969,1244.0469 770.4531,1243.7969 Q770.8438,1243.6406 771.2656,1243.2031 Q771.5313,1242.9375 771.6719,1242.8594 Q771.8281,1242.7813 772.0313,1242.7813 Q772.3594,1242.7813 772.6094,1243.0469 Q772.875,1243.2969 772.875,1243.6406 Q772.875,1243.9844 772.5313,1244.3906 Q772.0313,1244.9688 771.2344,1245.2969 Q770.1563,1245.75 768.8594,1245.75 Q767.3438,1245.75 766.1406,1245.125 Q765.1563,1244.625 764.4688,1243.5625 Q763.7813,1242.4844 763.7813,1241.2031 L763.7813,1240.0469 Q763.7813,1238.7188 764.3906,1237.5781 Q765.0156,1236.4219 766.1094,1235.8125 Q767.2031,1235.1875 768.4375,1235.1875 Q769.1719,1235.1875 769.8125,1235.3594 Q770.4688,1235.5156 771.0156,1235.875 Z " fill="#000000"/><text fill="#000000" font-family="sans-serif" font-size="14" lengthAdjust="spacing" textLength="67" x="788.75" y="1244.8535">MapGraph</text><line style="stroke:#181818;stroke-width:0.5;" x1="629" x2="983" y1="1256" y2="1256"/><line style="stroke:#181818;stroke-width:0.5;" x1="629" x2="983" y1="1264" y2="1264"/><ellipse cx="639" cy="1277.3203" fill="#84BE84" rx="3" ry="3" style="stroke:#038048;stroke-width:1.0;"/><text fill="#000000" font-family="sans-serif" font-size="14" lengthAdjust="spacing" textLength="161" x="648" y="1280.6738">graph.addVertex(pessoa)</text><ellipse cx="639" cy="1292.9609" fill="#84BE84" rx="3" ry="3" style="stroke:#038048;stroke-width:1.0;"/><text fill="#000000" font-family="sans-serif" font-size="14" lengthAdjust="spacing" textLength="330" x="648" y="1296.3145">addEdge(pessoa, auxPessoa, helper.getDistancia())</text></g><!--MD5=[5d909b6c20725e19f5c6863827561ff4]
class Constants--><g id="elem_Constants"><rect codeLine="82" fill="#F1F1F1" height="48" id="Constants" rx="2.5" ry="2.5" style="stroke:#181818;stroke-width:0.5;" width="96" x="70" y="782.5"/><ellipse cx="85" cy="798.5" fill="#ADD1B2" rx="11" ry="11" style="stroke:#181818;stroke-width:1.0;"/><path d="M87.7656,794.375 Q87.9219,794.1563 88.1094,794.0469 Q88.2969,793.9375 88.5156,793.9375 Q88.8906,793.9375 89.125,794.2031 Q89.3594,794.4531 89.3594,795.0625 L89.3594,796.5156 Q89.3594,797.125 89.125,797.3906 Q88.8906,797.6563 88.5156,797.6563 Q88.1719,797.6563 87.9688,797.4531 Q87.7656,797.2656 87.6563,796.75 Q87.6094,796.3906 87.4219,796.2031 Q87.0938,795.8281 86.4844,795.6094 Q85.875,795.3906 85.25,795.3906 Q84.4844,795.3906 83.8438,795.7188 Q83.2188,796.0469 82.7188,796.7969 Q82.2344,797.5469 82.2344,798.5781 L82.2344,799.6719 Q82.2344,800.9063 83.125,801.7344 Q84.0156,802.5469 85.6094,802.5469 Q86.5469,802.5469 87.2031,802.2969 Q87.5938,802.1406 88.0156,801.7031 Q88.2813,801.4375 88.4219,801.3594 Q88.5781,801.2813 88.7813,801.2813 Q89.1094,801.2813 89.3594,801.5469 Q89.625,801.7969 89.625,802.1406 Q89.625,802.4844 89.2813,802.8906 Q88.7813,803.4688 87.9844,803.7969 Q86.9063,804.25 85.6094,804.25 Q84.0938,804.25 82.8906,803.625 Q81.9063,803.125 81.2188,802.0625 Q80.5313,800.9844 80.5313,799.7031 L80.5313,798.5469 Q80.5313,797.2188 81.1406,796.0781 Q81.7656,794.9219 82.8594,794.3125 Q83.9531,793.6875 85.1875,793.6875 Q85.9219,793.6875 86.5625,793.8594 Q87.2188,794.0156 87.7656,794.375 Z " fill="#000000"/><text fill="#000000" font-family="sans-serif" font-size="14" lengthAdjust="spacing" textLength="64" x="99" y="803.3535">Constants</text><line style="stroke:#181818;stroke-width:0.5;" x1="71" x2="165" y1="814.5" y2="814.5"/><line style="stroke:#181818;stroke-width:0.5;" x1="71" x2="165" y1="822.5" y2="822.5"/></g><!--MD5=[748c3b421804d50903770778442de5e4]
class CreateGraph--><g id="elem_CreateGraph"><rect codeLine="87" fill="#F1F1F1" height="79.2813" id="CreateGraph" rx="2.5" ry="2.5" style="stroke:#181818;stroke-width:0.5;" width="185" x="1127.5" y="590"/><ellipse cx="1174.25" cy="606" fill="#ADD1B2" rx="11" ry="11" style="stroke:#181818;stroke-width:1.0;"/><path d="M1177.0156,601.875 Q1177.1719,601.6563 1177.3594,601.5469 Q1177.5469,601.4375 1177.7656,601.4375 Q1178.1406,601.4375 1178.375,601.7031 Q1178.6094,601.9531 1178.6094,602.5625 L1178.6094,604.0156 Q1178.6094,604.625 1178.375,604.8906 Q1178.1406,605.1563 1177.7656,605.1563 Q1177.4219,605.1563 1177.2188,604.9531 Q1177.0156,604.7656 1176.9063,604.25 Q1176.8594,603.8906 1176.6719,603.7031 Q1176.3438,603.3281 1175.7344,603.1094 Q1175.125,602.8906 1174.5,602.8906 Q1173.7344,602.8906 1173.0938,603.2188 Q1172.4688,603.5469 1171.9688,604.2969 Q1171.4844,605.0469 1171.4844,606.0781 L1171.4844,607.1719 Q1171.4844,608.4063 1172.375,609.2344 Q1173.2656,610.0469 1174.8594,610.0469 Q1175.7969,610.0469 1176.4531,609.7969 Q1176.8438,609.6406 1177.2656,609.2031 Q1177.5313,608.9375 1177.6719,608.8594 Q1177.8281,608.7813 1178.0313,608.7813 Q1178.3594,608.7813 1178.6094,609.0469 Q1178.875,609.2969 1178.875,609.6406 Q1178.875,609.9844 1178.5313,610.3906 Q1178.0313,610.9688 1177.2344,611.2969 Q1176.1563,611.75 1174.8594,611.75 Q1173.3438,611.75 1172.1406,611.125 Q1171.1563,610.625 1170.4688,609.5625 Q1169.7813,608.4844 1169.7813,607.2031 L1169.7813,606.0469 Q1169.7813,604.7188 1170.3906,603.5781 Q1171.0156,602.4219 1172.1094,601.8125 Q1173.2031,601.1875 1174.4375,601.1875 Q1175.1719,601.1875 1175.8125,601.3594 Q1176.4688,601.5156 1177.0156,601.875 Z " fill="#000000"/><text fill="#000000" font-family="sans-serif" font-size="14" lengthAdjust="spacing" textLength="83" x="1194.75" y="610.8535">CreateGraph</text><line style="stroke:#181818;stroke-width:0.5;" x1="1128.5" x2="1311.5" y1="622" y2="622"/><line style="stroke:#181818;stroke-width:0.5;" x1="1128.5" x2="1311.5" y1="630" y2="630"/><ellipse cx="1138.5" cy="643.3203" fill="#84BE84" rx="3" ry="3" style="stroke:#038048;stroke-width:1.0;"/><text fill="#000000" font-family="sans-serif" font-size="14" lengthAdjust="spacing" textLength="90" x="1147.5" y="646.6738">createGraph()</text><ellipse cx="1138.5" cy="658.9609" fill="#84BE84" rx="3" ry="3" style="stroke:#038048;stroke-width:1.0;"/><text fill="#000000" font-family="sans-serif" font-size="14" lengthAdjust="spacing" textLength="159" x="1147.5" y="662.3145">findPessoaByLocal(local)</text></g><!--MD5=[66db75c6a90eee27ea57be2f28d34b97]
link Main to MenuUI--><g id="link_Main_MenuUI"><path codeLine="94" d="M442,188.04 C442,204.94 442,225.94 442,243.6 " fill="none" id="Main-to-MenuUI" style="stroke:#181818;stroke-width:1.0;stroke-dasharray:7.0,7.0;"/><polygon fill="#181818" points="442,248.97,446,239.97,442,243.97,438,239.97,442,248.97" style="stroke:#181818;stroke-width:1.0;"/></g><!--MD5=[18b2adbec2d4d81fe2abb63fe9732443]
link MenuUI to MainController--><g id="link_MenuUI_MainController"><path codeLine="95" d="M442,313.3 C442,334.98 442,364.53 442,390.65 " fill="none" id="MenuUI-to-MainController" style="stroke:#181818;stroke-width:1.0;stroke-dasharray:7.0,7.0;"/><polygon fill="#181818" points="442,395.83,446,386.83,442,390.83,438,386.83,442,395.83" style="stroke:#181818;stroke-width:1.0;"/></g><!--MD5=[6466c02c70a565c5689553fda203fa28]
link MainController to Company--><g id="link_MainController_Company"><path codeLine="97" d="M442,507.27 C442,577.34 442,697.31 442,761.67 " fill="none" id="MainController-to-Company" style="stroke:#181818;stroke-width:1.0;stroke-dasharray:7.0,7.0;"/><polygon fill="#181818" points="442,766.96,446,757.96,442,761.96,438,757.96,442,766.96" style="stroke:#181818;stroke-width:1.0;"/></g><!--MD5=[f3810aef7023c68c5d6cde225d3d17f8]
link MainController to ReadFromCSV--><g id="link_MainController_ReadFromCSV"><path codeLine="98" d="M386.97,507.22 C361.44,532.61 331.56,562.32 307.76,585.98 " fill="none" id="MainController-to-ReadFromCSV" style="stroke:#181818;stroke-width:1.0;stroke-dasharray:7.0,7.0;"/><polygon fill="#181818" points="303.99,589.73,313.1895,586.213,307.5327,586.2016,307.5441,580.5448,303.99,589.73" style="stroke:#181818;stroke-width:1.0;"/></g><!--MD5=[1f57098f37791a7ecbc21883854414b8]
link MainController to CreateGraph--><g id="link_MainController_CreateGraph"><path codeLine="99" d="M576.19,482.86 C731.65,518.03 984.07,575.13 1122.13,606.36 " fill="none" id="MainController-to-CreateGraph" style="stroke:#181818;stroke-width:1.0;stroke-dasharray:7.0,7.0;"/><polygon fill="#181818" points="1127.4,607.55,1119.4984,601.6709,1122.5221,606.4518,1117.7412,609.4755,1127.4,607.55" style="stroke:#181818;stroke-width:1.0;"/></g><!--MD5=[dfc7feb03aedb5bfdeb09277bbd32635]
reverse link Company to StoreLists--><g id="link_Company_StoreLists"><path codeLine="101" d="M557.37,824.04 C629.45,837.57 722.57,861.01 798,900 C819.59,911.16 840.75,926.37 859.62,941.99 " fill="none" id="Company-backto-StoreLists" style="stroke:#181818;stroke-width:1.0;"/><polygon fill="#181818" points="544.16,821.63,549.3408,826.6459,555.9635,823.7929,550.7827,818.7769,544.16,821.63" style="stroke:#181818;stroke-width:1.0;"/><text fill="#000000" font-family="sans-serif" font-size="13" lengthAdjust="spacing" textLength="30" x="781" y="888.7686">owns</text></g><!--MD5=[42e5e3a5f5591e667f24dce403e7d467]
reverse link Company to MapGraphPessoaStore--><g id="link_Company_MapGraphPessoaStore"><path codeLine="102" d="M556.91,831.56 C584.38,841.66 611.84,855.92 633,876 C662.71,904.19 677.55,950.27 684.5,980.86 " fill="none" id="Company-backto-MapGraphPessoaStore" style="stroke:#181818;stroke-width:1.0;"/><polygon fill="#181818" points="544.31,827.21,548.6777,832.9479,555.6541,831.1231,551.2864,825.3852,544.31,827.21" style="stroke:#181818;stroke-width:1.0;"/><text fill="#000000" font-family="sans-serif" font-size="13" lengthAdjust="spacing" textLength="30" x="647" y="888.7686">owns</text></g><!--MD5=[281dce191f59542e72efaa6f82c4897e]
link ReadFromCSV to Pessoa--><g id="link_ReadFromCSV_Pessoa"><path codeLine="104" d="M265,669.34 C265,701.95 265,747.78 265,777.06 " fill="none" id="ReadFromCSV-to-Pessoa" style="stroke:#181818;stroke-width:1.0;"/><polygon fill="#181818" points="265,782.33,269,773.33,265,777.33,261,773.33,265,782.33" style="stroke:#181818;stroke-width:1.0;"/><text fill="#000000" font-family="sans-serif" font-size="13" lengthAdjust="spacing" textLength="35" x="266" y="713.7686">needs</text></g><!--MD5=[76428f0e0d83d1deae22b849835daa34]
link ReadFromCSV to Constants--><g id="link_ReadFromCSV_Constants"><path codeLine="105" d="M232.38,669.34 C204.64,702.35 165.52,748.92 140.98,778.15 " fill="none" id="ReadFromCSV-to-Constants" style="stroke:#181818;stroke-width:1.0;"/><polygon fill="#181818" points="137.46,782.33,146.3198,778.0284,140.6833,778.5077,140.2041,772.8711,137.46,782.33" style="stroke:#181818;stroke-width:1.0;"/><text fill="#000000" font-family="sans-serif" font-size="13" lengthAdjust="spacing" textLength="35" x="205" y="713.7686">needs</text></g><!--MD5=[cb53682ffc491c53e3f31a908e344b75]
reverse link Pessoa to Empresa--><g id="link_Pessoa_Empresa"><path codeLine="107" d="M265.21,850.73 C265.42,892.83 265.72,955.21 265.89,988.71 " fill="none" id="Pessoa-backto-Empresa" style="stroke:#181818;stroke-width:1.0;"/><polygon fill="none" points="258.21,850.6,265.11,830.56,272.21,850.53,258.21,850.6" style="stroke:#181818;stroke-width:1.0;"/><text fill="#000000" font-family="sans-serif" font-size="13" lengthAdjust="spacing" textLength="46" x="266" y="888.7686">extends</text></g><!--MD5=[702d5b37fca83cae27a0c5ef8ecb95d9]
reverse link Pessoa to Cliente--><g id="link_Pessoa_Cliente"><path codeLine="108" d="M299.44,846.1 C307.03,855.54 314.68,865.85 321,876 C344.3,913.46 364,961.14 374.6,988.95 " fill="none" id="Pessoa-backto-Cliente" style="stroke:#181818;stroke-width:1.0;"/><polygon fill="none" points="294.06,850.58,286.56,830.77,304.78,841.58,294.06,850.58" style="stroke:#181818;stroke-width:1.0;"/><text fill="#000000" font-family="sans-serif" font-size="13" lengthAdjust="spacing" textLength="46" x="330" y="888.7686">extends</text></g><!--MD5=[f9f51b0f3e52deb59c69e12ec6fd1ab3]
reverse link Pessoa to Produtor--><g id="link_Pessoa_Produtor"><path codeLine="109" d="M305.31,843.04 C311.04,847.22 317.02,851.17 323,854.5 C371.4,881.41 398.3,862.45 439,900 C465.85,924.77 483.43,964.14 492.53,989 " fill="none" id="Pessoa-backto-Produtor" style="stroke:#181818;stroke-width:1.0;"/><polygon fill="none" points="300.94,848.51,289.6,830.6,309.63,837.53,300.94,848.51" style="stroke:#181818;stroke-width:1.0;"/><text fill="#000000" font-family="sans-serif" font-size="13" lengthAdjust="spacing" textLength="46" x="428" y="888.7686">extends</text></g><!--MD5=[f8596010a7bf3eb0e0448ea4988d2573]
link MapGraph to Graph--><g id="link_MapGraph_Graph"><path codeLine="111" d="M806,1303.36 C806,1321.11 806,1342.2 806,1360.48 " fill="none" id="MapGraph-to-Graph" style="stroke:#181818;stroke-width:1.0;"/><polygon fill="none" points="813,1360.63,806,1380.63,799,1360.63,813,1360.63" style="stroke:#181818;stroke-width:1.0;"/><text fill="#000000" font-family="sans-serif" font-size="13" lengthAdjust="spacing" textLength="67" x="807" y="1347.7686">implements</text></g><!--MD5=[3637b0d0a232e2ebc04aa56977ebd5fe]
link MapGraphPessoaStore to Edge--><g id="link_MapGraphPessoaStore_Edge"><path codeLine="113" d="M656.96,1045.22 C606.46,1092.93 510.65,1183.46 460.11,1231.21 " fill="none" id="MapGraphPessoaStore-Edge" style="stroke:#181818;stroke-width:1.0;"/><polygon fill="#000000" points="575.3656,1127.6956,583.9586,1123.6199,579.9219,1119.3474,575.3656,1127.6956" style="stroke:#000000;stroke-width:1.0;"/><text fill="#000000" font-family="sans-serif" font-size="13" lengthAdjust="spacing" textLength="21" x="588" y="1128.7686">has</text><text fill="#000000" font-family="sans-serif" font-size="13" lengthAdjust="spacing" textLength="7" x="643.2229" y="1064.3011">1</text><text fill="#000000" font-family="sans-serif" font-size="13" lengthAdjust="spacing" textLength="5" x="461.4233" y="1220.966">*</text></g><!--MD5=[01d3e379764c7ee9b515075b6bfb6132]
link MapGraphPessoaStore to Pessoa--><g id="link_MapGraphPessoaStore_Pessoa"><path codeLine="114" d="M661.19,980.95 C636.48,955.95 598.81,921.54 560,900 C466.22,847.95 421.48,896.99 323,854.5 C310.03,848.9 297.59,839.55 287.58,830.66 " fill="none" id="MapGraphPessoaStore-Pessoa" style="stroke:#181818;stroke-width:1.0;"/><polygon fill="#000000" points="543.3612,882.3957,550.656,888.4979,552.8496,883.0448,543.3612,882.3957" style="stroke:#000000;stroke-width:1.0;"/><text fill="#000000" font-family="sans-serif" font-size="13" lengthAdjust="spacing" textLength="21" x="557" y="888.7686">has</text><text fill="#000000" font-family="sans-serif" font-size="13" lengthAdjust="spacing" textLength="7" x="647.1222" y="970.2729">1</text><text fill="#000000" font-family="sans-serif" font-size="13" lengthAdjust="spacing" textLength="5" x="287.4745" y="850.0876">*</text></g><!--MD5=[bdff71eec9032d6618fea466e75293d7]
link MapGraphPessoaStore to MapGraph--><g id="link_MapGraphPessoaStore_MapGraph"><path codeLine="116" d="M688.82,1045.21 C688.97,1069.69 691.59,1104.16 703,1132 C717.17,1166.59 743.37,1199.57 765.79,1223.73 " fill="none" id="MapGraphPessoaStore-MapGraph" style="stroke:#181818;stroke-width:1.0;"/><polygon fill="#000000" points="709.9796,1128.8531,709.0972,1119.3836,703.6997,1121.7108,709.9796,1128.8531" style="stroke:#000000;stroke-width:1.0;"/><text fill="#000000" font-family="sans-serif" font-size="13" lengthAdjust="spacing" textLength="21" x="717" y="1128.7686">has</text><text fill="#000000" font-family="sans-serif" font-size="13" lengthAdjust="spacing" textLength="7" x="680.9571" y="1064.2893">1</text><text fill="#000000" font-family="sans-serif" font-size="13" lengthAdjust="spacing" textLength="22" x="734.6682" y="1213.1892">0..1</text></g><!--MD5=[f239f0dcb8a2252325cdcf0e9b90d643]
reverse link StoreLists to Lists--><g id="link_StoreLists_Lists"><path codeLine="117" d="M996.74,1094.47 C1037.95,1144.92 1088.18,1206.41 1114.99,1239.23 " fill="none" id="StoreLists-backto-Lists" style="stroke:#181818;stroke-width:1.0;"/><polygon fill="#181818" points="988.36,1084.21,989.0586,1091.3872,995.9524,1093.5028,995.2538,1086.3256,988.36,1084.21" style="stroke:#181818;stroke-width:1.0;"/><text fill="#000000" font-family="sans-serif" font-size="13" lengthAdjust="spacing" textLength="30" x="1027" y="1128.7686">owns</text><text fill="#000000" font-family="sans-serif" font-size="13" lengthAdjust="spacing" textLength="7" x="986.6618" y="1103.7108">1</text><text fill="#000000" font-family="sans-serif" font-size="13" lengthAdjust="spacing" textLength="20" x="1087.1936" y="1228.6651">1..*</text></g><!--MD5=[361ff3c8727a0ee75ea2ac691c7df240]
@startuml
'https://plantuml.com/class-diagram
package java <<Folder>>#DDDDDD {
package Company <<Folder>>#DDDDDD {

package ReadFromCSV <<Folder>>#DDDDDD {
class ReadFromCSV{
+lerClienteProdutor(caminho)
+lerDistancias(caminho)
}
}

package Controller <<Folder>>#DDDDDD {
class MainController{
+lerClienteProdutor(fileName.getPath())
+lerDistancias(fileName.getPath())
+createGraph()
+setMapGraph(MapGraph)
}

}

package ui <<Folder>>#DDDDDD {
class MenuUI{
+ MainController()
}

class Main{
+ MenuUI()
}

}
package Model <<Folder>>#DDDDDD {

class Company{
+getStoreLists()
+getMapGraphPessoaStore()
}
class Pessoa{
}
class Empresa{
}
class Cliente{
}
class Produtor{
}



}
package Store <<Folder>>#DDDDDD {

class StoreLists{
+addPessoaList(pessoa)
+addLocalidadeList(localidade)
+setPessoaList(pessoaList)
+setLocalidadeList(localidadeList)
+getPessoaList()
+getLocalidadeList()
}
class MapGraphPessoaStore{
+setMapGraph(graph)
}
}



package Graph <<Folder>>#DDDDDD {
package map <<Folder>>#DDDDDD {
class MapGraph{
+graph.addVertex(pessoa)
+addEdge(pessoa, auxPessoa, helper.getDistancia())
}
}
class Edge{
+Edge(pessoa, auxPessoa, helper.getDistancia())
}
Interface Graph
}


package Constants <<Folder>>#DDDDDD {
class Constants
}

}
package Methods <<Folder>>#DDDDDD {
class CreateGraph{
+createGraph()
+findPessoaByLocal(local)
}
}


Main ..> MenuUI
MenuUI ..> MainController

MainController ..> Company
MainController ..> ReadFromCSV
MainController ..> CreateGraph

Company *- - StoreLists : owns
Company *- - MapGraphPessoaStore : owns

ReadFromCSV - ->  Pessoa:  needs
ReadFromCSV - ->  Constants: needs

Pessoa <|- -  Empresa: extends
Pessoa <|- - Cliente: extends
Pessoa <|- - Produtor: extends

MapGraph - -|> Graph : implements

MapGraphPessoaStore "1" - - "*" Edge: has >
MapGraphPessoaStore "1" - - "*" Pessoa: has >

MapGraphPessoaStore "1" - - "0..1" MapGraph: has >
StoreLists "1" *- - "1..*" Lists: owns


@enduml

@startuml
package java <<Folder>>#DDDDDD {
package Company <<Folder>>#DDDDDD {

package ReadFromCSV <<Folder>>#DDDDDD {
class ReadFromCSV{
+lerClienteProdutor(caminho)
+lerDistancias(caminho)
}
}

package Controller <<Folder>>#DDDDDD {
class MainController{
+lerClienteProdutor(fileName.getPath())
+lerDistancias(fileName.getPath())
+createGraph()
+setMapGraph(MapGraph)
}

}

package ui <<Folder>>#DDDDDD {
class MenuUI{
+ MainController()
}

class Main{
+ MenuUI()
}

}
package Model <<Folder>>#DDDDDD {

class Company{
+getStoreLists()
+getMapGraphPessoaStore()
}
class Pessoa{
}
class Empresa{
}
class Cliente{
}
class Produtor{
}



}
package Store <<Folder>>#DDDDDD {

class StoreLists{
+addPessoaList(pessoa)
+addLocalidadeList(localidade)
+setPessoaList(pessoaList)
+setLocalidadeList(localidadeList)
+getPessoaList()
+getLocalidadeList()
}
class MapGraphPessoaStore{
+setMapGraph(graph)
}
}



package Graph <<Folder>>#DDDDDD {
package map <<Folder>>#DDDDDD {
class MapGraph{
+graph.addVertex(pessoa)
+addEdge(pessoa, auxPessoa, helper.getDistancia())
}
}
class Edge{
+Edge(pessoa, auxPessoa, helper.getDistancia())
}
Interface Graph
}


package Constants <<Folder>>#DDDDDD {
class Constants
}

}
package Methods <<Folder>>#DDDDDD {
class CreateGraph{
+createGraph()
+findPessoaByLocal(local)
}
}


Main ..> MenuUI
MenuUI ..> MainController

MainController ..> Company
MainController ..> ReadFromCSV
MainController ..> CreateGraph

Company *- - StoreLists : owns
Company *- - MapGraphPessoaStore : owns

ReadFromCSV - ->  Pessoa:  needs
ReadFromCSV - ->  Constants: needs

Pessoa <|- -  Empresa: extends
Pessoa <|- - Cliente: extends
Pessoa <|- - Produtor: extends

MapGraph - -|> Graph : implements

MapGraphPessoaStore "1" - - "*" Edge: has >
MapGraphPessoaStore "1" - - "*" Pessoa: has >

MapGraphPessoaStore "1" - - "0..1" MapGraph: has >
StoreLists "1" *- - "1..*" Lists: owns


@enduml

PlantUML version 1.2022.12(Sun Oct 23 19:12:26 WEST 2022)
(GPL source distribution)
Java Runtime: OpenJDK Runtime Environment
JVM: OpenJDK 64-Bit Server VM
Default Encoding: Cp1252
Language: pt
Country: PT
--></g></svg>