<?xml version="1.0" encoding="UTF-8" standalone="no"?><svg xmlns="http://www.w3.org/2000/svg" xmlns:xlink="http://www.w3.org/1999/xlink" contentStyleType="text/css" height="1042px" preserveAspectRatio="none" style="width:1122px;height:1042px;background:#FFFFFF;" version="1.1" viewBox="0 0 1122 1042" width="1122px" zoomAndPan="magnify"><defs/><g><!--MD5=[e80bd461753d6c5ec111731420959425]
cluster Main--><g id="cluster_Main"><path d="M8.5,6.0137 L43.5,6.0137 A3.75,3.75 0 0 1 46,8.5137 L53,30.6348 L1112.5,30.6348 A2.5,2.5 0 0 1 1115,33.1348 L1115,1032.5137 A2.5,2.5 0 0 1 1112.5,1035.0137 L8.5,1035.0137 A2.5,2.5 0 0 1 6,1032.5137 L6,8.5137 A2.5,2.5 0 0 1 8.5,6.0137 " fill="#DDDDDD" style="stroke:#000000;stroke-width:1.5;"/><line style="stroke:#000000;stroke-width:1.5;" x1="6" x2="53" y1="30.6348" y2="30.6348"/><text fill="#000000" font-family="sans-serif" font-size="14" font-weight="bold" lengthAdjust="spacing" textLength="34" x="10" y="23.1211">Main</text></g><!--MD5=[66dd6d0a484290b46f8665dfa0e5de89]
cluster Company--><g id="cluster_Company"><path d="M454.5,51.0137 L519.5,51.0137 A3.75,3.75 0 0 1 522,53.5137 L529,75.6348 L1088.5,75.6348 A2.5,2.5 0 0 1 1091,78.1348 L1091,1008.5137 A2.5,2.5 0 0 1 1088.5,1011.0137 L454.5,1011.0137 A2.5,2.5 0 0 1 452,1008.5137 L452,53.5137 A2.5,2.5 0 0 1 454.5,51.0137 " fill="#DDDDDD" style="stroke:#000000;stroke-width:1.5;"/><line style="stroke:#000000;stroke-width:1.5;" x1="452" x2="529" y1="75.6348" y2="75.6348"/><text fill="#000000" font-family="sans-serif" font-size="14" font-weight="bold" lengthAdjust="spacing" textLength="64" x="456" y="68.1211">Company</text></g><!--MD5=[64e2e010ba86d7988e5cd73bd64f61f9]
cluster ui--><g id="cluster_ui"><path d="M624.5,96.0137 L638.5,96.0137 A3.75,3.75 0 0 1 641,98.5137 L648,120.6348 L841.5,120.6348 A2.5,2.5 0 0 1 844,123.1348 L844,322.5137 A2.5,2.5 0 0 1 841.5,325.0137 L624.5,325.0137 A2.5,2.5 0 0 1 622,322.5137 L622,98.5137 A2.5,2.5 0 0 1 624.5,96.0137 " fill="#DDDDDD" style="stroke:#000000;stroke-width:1.5;"/><line style="stroke:#000000;stroke-width:1.5;" x1="622" x2="648" y1="120.6348" y2="120.6348"/><text fill="#000000" font-family="sans-serif" font-size="14" font-weight="bold" lengthAdjust="spacing" textLength="13" x="626" y="113.1211">ui</text></g><!--MD5=[1f2cfc53d9d308f53762fd0fcbaa4873]
cluster Controller--><g id="cluster_Controller"><path d="M624.5,358.0137 L696.5,358.0137 A3.75,3.75 0 0 1 699,360.5137 L706,382.6348 L841.5,382.6348 A2.5,2.5 0 0 1 844,385.1348 L844,475.5137 A2.5,2.5 0 0 1 841.5,478.0137 L624.5,478.0137 A2.5,2.5 0 0 1 622,475.5137 L622,360.5137 A2.5,2.5 0 0 1 624.5,358.0137 " fill="#DDDDDD" style="stroke:#000000;stroke-width:1.5;"/><line style="stroke:#000000;stroke-width:1.5;" x1="622" x2="706" y1="382.6348" y2="382.6348"/><text fill="#000000" font-family="sans-serif" font-size="14" font-weight="bold" lengthAdjust="spacing" textLength="71" x="626" y="375.1211">Controller</text></g><!--MD5=[7ce1723ddb6e6233854253973eae5a71]
cluster Store--><g id="cluster_Store"><path d="M478.5,737.0137 L517.5,737.0137 A3.75,3.75 0 0 1 520,739.5137 L527,761.6348 L1064.5,761.6348 A2.5,2.5 0 0 1 1067,764.1348 L1067,984.5137 A2.5,2.5 0 0 1 1064.5,987.0137 L478.5,987.0137 A2.5,2.5 0 0 1 476,984.5137 L476,739.5137 A2.5,2.5 0 0 1 478.5,737.0137 " fill="#DDDDDD" style="stroke:#000000;stroke-width:1.5;"/><line style="stroke:#000000;stroke-width:1.5;" x1="476" x2="527" y1="761.6348" y2="761.6348"/><text fill="#000000" font-family="sans-serif" font-size="14" font-weight="bold" lengthAdjust="spacing" textLength="38" x="480" y="754.1211">Store</text></g><!--MD5=[b5049517b6d7dcb8cded630832036a0b]
cluster ReadFromCSV--><g id="cluster_ReadFromCSV"><path d="M478.5,538.5137 L579.5,538.5137 A3.75,3.75 0 0 1 582,541.0137 L589,563.1348 L725.5,563.1348 A2.5,2.5 0 0 1 728,565.6348 L728,656.0137 A2.5,2.5 0 0 1 725.5,658.5137 L478.5,658.5137 A2.5,2.5 0 0 1 476,656.0137 L476,541.0137 A2.5,2.5 0 0 1 478.5,538.5137 " fill="#DDDDDD" style="stroke:#000000;stroke-width:1.5;"/><line style="stroke:#000000;stroke-width:1.5;" x1="476" x2="589" y1="563.1348" y2="563.1348"/><text fill="#000000" font-family="sans-serif" font-size="14" font-weight="bold" lengthAdjust="spacing" textLength="100" x="480" y="555.6211">ReadFromCSV</text></g><!--MD5=[15636c1ca4a123c16a2a1a8e90aca7a9]
cluster Model--><g id="cluster_Model"><path d="M754.5,520.0137 L799.5,520.0137 A3.75,3.75 0 0 1 802,522.5137 L809,544.6348 L975.5,544.6348 A2.5,2.5 0 0 1 978,547.1348 L978,674.5137 A2.5,2.5 0 0 1 975.5,677.0137 L754.5,677.0137 A2.5,2.5 0 0 1 752,674.5137 L752,522.5137 A2.5,2.5 0 0 1 754.5,520.0137 " fill="#DDDDDD" style="stroke:#000000;stroke-width:1.5;"/><line style="stroke:#000000;stroke-width:1.5;" x1="752" x2="809" y1="544.6348" y2="544.6348"/><text fill="#000000" font-family="sans-serif" font-size="14" font-weight="bold" lengthAdjust="spacing" textLength="44" x="756" y="537.1211">Model</text></g><!--MD5=[b792253f46c87a5be23eaae1b68e2912]
cluster Methods--><g id="cluster_Methods"><path d="M32.5,511.0137 L95.5,511.0137 A3.75,3.75 0 0 1 98,513.5137 L105,535.6348 L425.5,535.6348 A2.5,2.5 0 0 1 428,538.1348 L428,683.5137 A2.5,2.5 0 0 1 425.5,686.0137 L32.5,686.0137 A2.5,2.5 0 0 1 30,683.5137 L30,513.5137 A2.5,2.5 0 0 1 32.5,511.0137 " fill="#DDDDDD" style="stroke:#000000;stroke-width:1.5;"/><line style="stroke:#000000;stroke-width:1.5;" x1="30" x2="105" y1="535.6348" y2="535.6348"/><text fill="#000000" font-family="sans-serif" font-size="14" font-weight="bold" lengthAdjust="spacing" textLength="62" x="34" y="528.1211">Methods</text></g><!--MD5=[84718776d214be480e4c259efcb737fc]
class Main--><g id="elem_Main"><rect codeLine="4" fill="#F1F1F1" height="48" id="Main" rx="2.5" ry="2.5" style="stroke:#181818;stroke-width:0.5;" width="62" x="702" y="133.0137"/><ellipse cx="717" cy="149.0137" fill="#ADD1B2" rx="11" ry="11" style="stroke:#181818;stroke-width:1.0;"/><path d="M719.7656,144.8887 Q719.9219,144.6699 720.1094,144.5605 Q720.2969,144.4512 720.5156,144.4512 Q720.8906,144.4512 721.125,144.7168 Q721.3594,144.9668 721.3594,145.5762 L721.3594,147.0293 Q721.3594,147.6387 721.125,147.9043 Q720.8906,148.1699 720.5156,148.1699 Q720.1719,148.1699 719.9688,147.9668 Q719.7656,147.7793 719.6563,147.2637 Q719.6094,146.9043 719.4219,146.7168 Q719.0938,146.3418 718.4844,146.123 Q717.875,145.9043 717.25,145.9043 Q716.4844,145.9043 715.8438,146.2324 Q715.2188,146.5605 714.7188,147.3105 Q714.2344,148.0605 714.2344,149.0918 L714.2344,150.1855 Q714.2344,151.4199 715.125,152.248 Q716.0156,153.0605 717.6094,153.0605 Q718.5469,153.0605 719.2031,152.8105 Q719.5938,152.6543 720.0156,152.2168 Q720.2813,151.9512 720.4219,151.873 Q720.5781,151.7949 720.7813,151.7949 Q721.1094,151.7949 721.3594,152.0605 Q721.625,152.3105 721.625,152.6543 Q721.625,152.998 721.2813,153.4043 Q720.7813,153.9824 719.9844,154.3105 Q718.9063,154.7637 717.6094,154.7637 Q716.0938,154.7637 714.8906,154.1387 Q713.9063,153.6387 713.2188,152.5762 Q712.5313,151.498 712.5313,150.2168 L712.5313,149.0605 Q712.5313,147.7324 713.1406,146.5918 Q713.7656,145.4355 714.8594,144.8262 Q715.9531,144.2012 717.1875,144.2012 Q717.9219,144.2012 718.5625,144.373 Q719.2188,144.5293 719.7656,144.8887 Z " fill="#000000"/><text fill="#000000" font-family="sans-serif" font-size="14" lengthAdjust="spacing" textLength="30" x="731" y="154.8105">Main</text><line style="stroke:#181818;stroke-width:0.5;" x1="703" x2="763" y1="165.0137" y2="165.0137"/><line style="stroke:#181818;stroke-width:0.5;" x1="703" x2="763" y1="173.0137" y2="173.0137"/></g><!--MD5=[02de039990bbea028db2518876dfca25]
class MenuUI--><g id="elem_MenuUI"><rect codeLine="5" fill="#F1F1F1" height="66.6211" id="MenuUI" rx="2.5" ry="2.5" style="stroke:#181818;stroke-width:0.5;" width="190" x="638" y="242.0137"/><ellipse cx="705.25" cy="258.0137" fill="#ADD1B2" rx="11" ry="11" style="stroke:#181818;stroke-width:1.0;"/><path d="M708.0156,253.8887 Q708.1719,253.6699 708.3594,253.5605 Q708.5469,253.4512 708.7656,253.4512 Q709.1406,253.4512 709.375,253.7168 Q709.6094,253.9668 709.6094,254.5762 L709.6094,256.0293 Q709.6094,256.6387 709.375,256.9043 Q709.1406,257.1699 708.7656,257.1699 Q708.4219,257.1699 708.2188,256.9668 Q708.0156,256.7793 707.9063,256.2637 Q707.8594,255.9043 707.6719,255.7168 Q707.3438,255.3418 706.7344,255.123 Q706.125,254.9043 705.5,254.9043 Q704.7344,254.9043 704.0938,255.2324 Q703.4688,255.5605 702.9688,256.3105 Q702.4844,257.0605 702.4844,258.0918 L702.4844,259.1855 Q702.4844,260.4199 703.375,261.248 Q704.2656,262.0605 705.8594,262.0605 Q706.7969,262.0605 707.4531,261.8105 Q707.8438,261.6543 708.2656,261.2168 Q708.5313,260.9512 708.6719,260.873 Q708.8281,260.7949 709.0313,260.7949 Q709.3594,260.7949 709.6094,261.0605 Q709.875,261.3105 709.875,261.6543 Q709.875,261.998 709.5313,262.4043 Q709.0313,262.9824 708.2344,263.3105 Q707.1563,263.7637 705.8594,263.7637 Q704.3438,263.7637 703.1406,263.1387 Q702.1563,262.6387 701.4688,261.5762 Q700.7813,260.498 700.7813,259.2168 L700.7813,258.0605 Q700.7813,256.7324 701.3906,255.5918 Q702.0156,254.4355 703.1094,253.8262 Q704.2031,253.2012 705.4375,253.2012 Q706.1719,253.2012 706.8125,253.373 Q707.4688,253.5293 708.0156,253.8887 Z " fill="#000000"/><text fill="#000000" font-family="sans-serif" font-size="14" lengthAdjust="spacing" textLength="47" x="725.75" y="263.8105">MenuUI</text><line style="stroke:#181818;stroke-width:0.5;" x1="639" x2="827" y1="274.0137" y2="274.0137"/><line style="stroke:#181818;stroke-width:0.5;" x1="639" x2="827" y1="282.0137" y2="282.0137"/><ellipse cx="649" cy="296.8242" fill="#84BE84" rx="3" ry="3" style="stroke:#038048;stroke-width:1.0;"/><text fill="#000000" font-family="sans-serif" font-size="14" lengthAdjust="spacing" textLength="164" x="658" y="301.1211">lerCabaz(caminho: String)</text></g><!--MD5=[0278646e5a3f51edb25d463fe8c5bfab]
class MainController--><g id="elem_MainController"><rect codeLine="11" fill="#F1F1F1" height="66.6211" id="MainController" rx="2.5" ry="2.5" style="stroke:#181818;stroke-width:0.5;" width="190" x="638" y="395.0137"/><ellipse cx="682.75" cy="411.0137" fill="#ADD1B2" rx="11" ry="11" style="stroke:#181818;stroke-width:1.0;"/><path d="M685.5156,406.8887 Q685.6719,406.6699 685.8594,406.5605 Q686.0469,406.4512 686.2656,406.4512 Q686.6406,406.4512 686.875,406.7168 Q687.1094,406.9668 687.1094,407.5762 L687.1094,409.0293 Q687.1094,409.6387 686.875,409.9043 Q686.6406,410.1699 686.2656,410.1699 Q685.9219,410.1699 685.7188,409.9668 Q685.5156,409.7793 685.4063,409.2637 Q685.3594,408.9043 685.1719,408.7168 Q684.8438,408.3418 684.2344,408.123 Q683.625,407.9043 683,407.9043 Q682.2344,407.9043 681.5938,408.2324 Q680.9688,408.5605 680.4688,409.3105 Q679.9844,410.0605 679.9844,411.0918 L679.9844,412.1855 Q679.9844,413.4199 680.875,414.248 Q681.7656,415.0605 683.3594,415.0605 Q684.2969,415.0605 684.9531,414.8105 Q685.3438,414.6543 685.7656,414.2168 Q686.0313,413.9512 686.1719,413.873 Q686.3281,413.7949 686.5313,413.7949 Q686.8594,413.7949 687.1094,414.0605 Q687.375,414.3105 687.375,414.6543 Q687.375,414.998 687.0313,415.4043 Q686.5313,415.9824 685.7344,416.3105 Q684.6563,416.7637 683.3594,416.7637 Q681.8438,416.7637 680.6406,416.1387 Q679.6563,415.6387 678.9688,414.5762 Q678.2813,413.498 678.2813,412.2168 L678.2813,411.0605 Q678.2813,409.7324 678.8906,408.5918 Q679.5156,407.4355 680.6094,406.8262 Q681.7031,406.2012 682.9375,406.2012 Q683.6719,406.2012 684.3125,406.373 Q684.9688,406.5293 685.5156,406.8887 Z " fill="#000000"/><text fill="#000000" font-family="sans-serif" font-size="14" lengthAdjust="spacing" textLength="92" x="703.25" y="416.8105">MainController</text><line style="stroke:#181818;stroke-width:0.5;" x1="639" x2="827" y1="427.0137" y2="427.0137"/><line style="stroke:#181818;stroke-width:0.5;" x1="639" x2="827" y1="435.0137" y2="435.0137"/><ellipse cx="649" cy="449.8242" fill="#84BE84" rx="3" ry="3" style="stroke:#038048;stroke-width:1.0;"/><text fill="#000000" font-family="sans-serif" font-size="14" lengthAdjust="spacing" textLength="164" x="658" y="454.1211">lerCabaz(caminho: String)</text></g><!--MD5=[6b9139d56e329d2125bb6a66380aa54b]
class StoreLists--><g id="elem_StoreLists"><rect codeLine="17" fill="#F1F1F1" height="196.9688" id="StoreLists" rx="2.5" ry="2.5" style="stroke:#181818;stroke-width:0.5;" width="353" x="492.5" y="774.0137"/><ellipse cx="633.25" cy="790.0137" fill="#ADD1B2" rx="11" ry="11" style="stroke:#181818;stroke-width:1.0;"/><path d="M636.0156,785.8887 Q636.1719,785.6699 636.3594,785.5605 Q636.5469,785.4512 636.7656,785.4512 Q637.1406,785.4512 637.375,785.7168 Q637.6094,785.9668 637.6094,786.5762 L637.6094,788.0293 Q637.6094,788.6387 637.375,788.9043 Q637.1406,789.1699 636.7656,789.1699 Q636.4219,789.1699 636.2188,788.9668 Q636.0156,788.7793 635.9063,788.2637 Q635.8594,787.9043 635.6719,787.7168 Q635.3438,787.3418 634.7344,787.123 Q634.125,786.9043 633.5,786.9043 Q632.7344,786.9043 632.0938,787.2324 Q631.4688,787.5605 630.9688,788.3105 Q630.4844,789.0605 630.4844,790.0918 L630.4844,791.1855 Q630.4844,792.4199 631.375,793.248 Q632.2656,794.0605 633.8594,794.0605 Q634.7969,794.0605 635.4531,793.8105 Q635.8438,793.6543 636.2656,793.2168 Q636.5313,792.9512 636.6719,792.873 Q636.8281,792.7949 637.0313,792.7949 Q637.3594,792.7949 637.6094,793.0605 Q637.875,793.3105 637.875,793.6543 Q637.875,793.998 637.5313,794.4043 Q637.0313,794.9824 636.2344,795.3105 Q635.1563,795.7637 633.8594,795.7637 Q632.3438,795.7637 631.1406,795.1387 Q630.1563,794.6387 629.4688,793.5762 Q628.7813,792.498 628.7813,791.2168 L628.7813,790.0605 Q628.7813,788.7324 629.3906,787.5918 Q630.0156,786.4355 631.1094,785.8262 Q632.2031,785.2012 633.4375,785.2012 Q634.1719,785.2012 634.8125,785.373 Q635.4688,785.5293 636.0156,785.8887 Z " fill="#000000"/><text fill="#000000" font-family="sans-serif" font-size="14" lengthAdjust="spacing" textLength="63" x="653.75" y="795.8105">StoreLists</text><line style="stroke:#181818;stroke-width:0.5;" x1="493.5" x2="844.5" y1="806.0137" y2="806.0137"/><rect fill="none" height="6" style="stroke:#C82930;stroke-width:1.0;" width="6" x="500.5" y="817.8242"/><text fill="#000000" font-family="sans-serif" font-size="14" lengthAdjust="spacing" textLength="161" x="512.5" y="825.1211">pessoaList: List&lt;Pessoa&gt;</text><rect fill="none" height="6" style="stroke:#C82930;stroke-width:1.0;" width="6" x="500.5" y="836.4453"/><text fill="#000000" font-family="sans-serif" font-size="14" lengthAdjust="spacing" textLength="173" x="512.5" y="843.7422">localidadeList: List&lt;Helper&gt;</text><rect fill="none" height="6" style="stroke:#C82930;stroke-width:1.0;" width="6" x="500.5" y="855.0664"/><text fill="#000000" font-family="sans-serif" font-size="14" lengthAdjust="spacing" textLength="145" x="512.5" y="862.3633">cabazList: List&lt;Cabaz&gt;</text><line style="stroke:#181818;stroke-width:0.5;" x1="493.5" x2="844.5" y1="869.877" y2="869.877"/><ellipse cx="503.5" cy="884.6875" fill="#84BE84" rx="3" ry="3" style="stroke:#038048;stroke-width:1.0;"/><text fill="#000000" font-family="sans-serif" font-size="14" lengthAdjust="spacing" textLength="192" x="512.5" y="888.9844">getPessoaList(): List&lt;Pessoa&gt;</text><ellipse cx="503.5" cy="903.3086" fill="#84BE84" rx="3" ry="3" style="stroke:#038048;stroke-width:1.0;"/><text fill="#000000" font-family="sans-serif" font-size="14" lengthAdjust="spacing" textLength="208" x="512.5" y="907.6055">getLocalidadeList(): List&lt;Helper&gt;</text><ellipse cx="503.5" cy="921.9297" fill="#84BE84" rx="3" ry="3" style="stroke:#038048;stroke-width:1.0;"/><text fill="#000000" font-family="sans-serif" font-size="14" lengthAdjust="spacing" textLength="178" x="512.5" y="926.2266">getCabazList(): List&lt;Cabaz&gt;</text><ellipse cx="503.5" cy="940.5508" fill="#84BE84" rx="3" ry="3" style="stroke:#038048;stroke-width:1.0;"/><text fill="#000000" font-family="sans-serif" font-size="14" lengthAdjust="spacing" textLength="293" x="512.5" y="944.8477">setPessoaList(pessoaList: List&lt;Pessoa&gt;): void</text><ellipse cx="503.5" cy="959.1719" fill="#84BE84" rx="3" ry="3" style="stroke:#038048;stroke-width:1.0;"/><text fill="#000000" font-family="sans-serif" font-size="14" lengthAdjust="spacing" textLength="327" x="512.5" y="963.4688">setLocalidadeList(localidadeList: List&lt;Helper&gt;): void</text></g><!--MD5=[dfcf960dcc7a983995284746c51b3f2c]
class MapStore--><g id="elem_MapStore"><rect codeLine="28" fill="#F1F1F1" height="103.8633" id="MapStore" rx="2.5" ry="2.5" style="stroke:#181818;stroke-width:0.5;" width="170" x="881" y="820.5137"/><ellipse cx="931.25" cy="836.5137" fill="#ADD1B2" rx="11" ry="11" style="stroke:#181818;stroke-width:1.0;"/><path d="M934.0156,832.3887 Q934.1719,832.1699 934.3594,832.0605 Q934.5469,831.9512 934.7656,831.9512 Q935.1406,831.9512 935.375,832.2168 Q935.6094,832.4668 935.6094,833.0762 L935.6094,834.5293 Q935.6094,835.1387 935.375,835.4043 Q935.1406,835.6699 934.7656,835.6699 Q934.4219,835.6699 934.2188,835.4668 Q934.0156,835.2793 933.9063,834.7637 Q933.8594,834.4043 933.6719,834.2168 Q933.3438,833.8418 932.7344,833.623 Q932.125,833.4043 931.5,833.4043 Q930.7344,833.4043 930.0938,833.7324 Q929.4688,834.0605 928.9688,834.8105 Q928.4844,835.5605 928.4844,836.5918 L928.4844,837.6855 Q928.4844,838.9199 929.375,839.748 Q930.2656,840.5605 931.8594,840.5605 Q932.7969,840.5605 933.4531,840.3105 Q933.8438,840.1543 934.2656,839.7168 Q934.5313,839.4512 934.6719,839.373 Q934.8281,839.2949 935.0313,839.2949 Q935.3594,839.2949 935.6094,839.5605 Q935.875,839.8105 935.875,840.1543 Q935.875,840.498 935.5313,840.9043 Q935.0313,841.4824 934.2344,841.8105 Q933.1563,842.2637 931.8594,842.2637 Q930.3438,842.2637 929.1406,841.6387 Q928.1563,841.1387 927.4688,840.0762 Q926.7813,838.998 926.7813,837.7168 L926.7813,836.5605 Q926.7813,835.2324 927.3906,834.0918 Q928.0156,832.9355 929.1094,832.3262 Q930.2031,831.7012 931.4375,831.7012 Q932.1719,831.7012 932.8125,831.873 Q933.4688,832.0293 934.0156,832.3887 Z " fill="#000000"/><text fill="#000000" font-family="sans-serif" font-size="14" lengthAdjust="spacing" textLength="61" x="951.75" y="842.3105">MapStore</text><line style="stroke:#181818;stroke-width:0.5;" x1="882" x2="1050" y1="852.5137" y2="852.5137"/><line style="stroke:#181818;stroke-width:0.5;" x1="882" x2="1050" y1="860.5137" y2="860.5137"/><ellipse cx="892" cy="875.3242" fill="#84BE84" rx="3" ry="3" style="stroke:#038048;stroke-width:1.0;"/><text fill="#000000" font-family="sans-serif" font-size="14" lengthAdjust="spacing" textLength="64" x="901" y="879.6211">getStore()</text><ellipse cx="892" cy="893.9453" fill="#84BE84" rx="3" ry="3" style="stroke:#038048;stroke-width:1.0;"/><text fill="#000000" font-family="sans-serif" font-size="14" lengthAdjust="spacing" textLength="144" x="901" y="898.2422">setstockProdutorMap()</text><ellipse cx="892" cy="912.5664" fill="#84BE84" rx="3" ry="3" style="stroke:#038048;stroke-width:1.0;"/><text fill="#000000" font-family="sans-serif" font-size="14" lengthAdjust="spacing" textLength="93" x="901" y="916.8633">setcabazMap()</text></g><!--MD5=[d1fc9cf33382556d71f6fa515a0cba10]
class ReadFromCSV--><g id="elem_ReadFromCSV"><rect codeLine="35" fill="#F1F1F1" height="66.6211" id="ReadFromCSV" rx="2.5" ry="2.5" style="stroke:#181818;stroke-width:0.5;" width="220" x="492" y="575.5137"/><ellipse cx="550.25" cy="591.5137" fill="#ADD1B2" rx="11" ry="11" style="stroke:#181818;stroke-width:1.0;"/><path d="M553.0156,587.3887 Q553.1719,587.1699 553.3594,587.0605 Q553.5469,586.9512 553.7656,586.9512 Q554.1406,586.9512 554.375,587.2168 Q554.6094,587.4668 554.6094,588.0762 L554.6094,589.5293 Q554.6094,590.1387 554.375,590.4043 Q554.1406,590.6699 553.7656,590.6699 Q553.4219,590.6699 553.2188,590.4668 Q553.0156,590.2793 552.9063,589.7637 Q552.8594,589.4043 552.6719,589.2168 Q552.3438,588.8418 551.7344,588.623 Q551.125,588.4043 550.5,588.4043 Q549.7344,588.4043 549.0938,588.7324 Q548.4688,589.0605 547.9688,589.8105 Q547.4844,590.5605 547.4844,591.5918 L547.4844,592.6855 Q547.4844,593.9199 548.375,594.748 Q549.2656,595.5605 550.8594,595.5605 Q551.7969,595.5605 552.4531,595.3105 Q552.8438,595.1543 553.2656,594.7168 Q553.5313,594.4512 553.6719,594.373 Q553.8281,594.2949 554.0313,594.2949 Q554.3594,594.2949 554.6094,594.5605 Q554.875,594.8105 554.875,595.1543 Q554.875,595.498 554.5313,595.9043 Q554.0313,596.4824 553.2344,596.8105 Q552.1563,597.2637 550.8594,597.2637 Q549.3438,597.2637 548.1406,596.6387 Q547.1563,596.1387 546.4688,595.0762 Q545.7813,593.998 545.7813,592.7168 L545.7813,591.5605 Q545.7813,590.2324 546.3906,589.0918 Q547.0156,587.9355 548.1094,587.3262 Q549.2031,586.7012 550.4375,586.7012 Q551.1719,586.7012 551.8125,586.873 Q552.4688,587.0293 553.0156,587.3887 Z " fill="#000000"/><text fill="#000000" font-family="sans-serif" font-size="14" lengthAdjust="spacing" textLength="95" x="570.75" y="597.3105">ReadFromCSV</text><line style="stroke:#181818;stroke-width:0.5;" x1="493" x2="711" y1="607.5137" y2="607.5137"/><line style="stroke:#181818;stroke-width:0.5;" x1="493" x2="711" y1="615.5137" y2="615.5137"/><ellipse cx="503" cy="630.3242" fill="#84BE84" rx="3" ry="3" style="stroke:#038048;stroke-width:1.0;"/><text fill="#000000" font-family="sans-serif" font-size="14" lengthAdjust="spacing" textLength="194" x="512" y="634.6211">lerCabaz(String caminho): void</text></g><!--MD5=[02e4b9b7573f1156f41e60aa5b4e25a4]
class Company--><g id="elem_Company"><rect codeLine="43" fill="#F1F1F1" height="103.8633" id="Company" rx="2.5" ry="2.5" style="stroke:#181818;stroke-width:0.5;" width="194" x="768" y="557.0137"/><ellipse cx="830.75" cy="573.0137" fill="#ADD1B2" rx="11" ry="11" style="stroke:#181818;stroke-width:1.0;"/><path d="M833.5156,568.8887 Q833.6719,568.6699 833.8594,568.5605 Q834.0469,568.4512 834.2656,568.4512 Q834.6406,568.4512 834.875,568.7168 Q835.1094,568.9668 835.1094,569.5762 L835.1094,571.0293 Q835.1094,571.6387 834.875,571.9043 Q834.6406,572.1699 834.2656,572.1699 Q833.9219,572.1699 833.7188,571.9668 Q833.5156,571.7793 833.4063,571.2637 Q833.3594,570.9043 833.1719,570.7168 Q832.8438,570.3418 832.2344,570.123 Q831.625,569.9043 831,569.9043 Q830.2344,569.9043 829.5938,570.2324 Q828.9688,570.5605 828.4688,571.3105 Q827.9844,572.0605 827.9844,573.0918 L827.9844,574.1855 Q827.9844,575.4199 828.875,576.248 Q829.7656,577.0605 831.3594,577.0605 Q832.2969,577.0605 832.9531,576.8105 Q833.3438,576.6543 833.7656,576.2168 Q834.0313,575.9512 834.1719,575.873 Q834.3281,575.7949 834.5313,575.7949 Q834.8594,575.7949 835.1094,576.0605 Q835.375,576.3105 835.375,576.6543 Q835.375,576.998 835.0313,577.4043 Q834.5313,577.9824 833.7344,578.3105 Q832.6563,578.7637 831.3594,578.7637 Q829.8438,578.7637 828.6406,578.1387 Q827.6563,577.6387 826.9688,576.5762 Q826.2813,575.498 826.2813,574.2168 L826.2813,573.0605 Q826.2813,571.7324 826.8906,570.5918 Q827.5156,569.4355 828.6094,568.8262 Q829.7031,568.2012 830.9375,568.2012 Q831.6719,568.2012 832.3125,568.373 Q832.9688,568.5293 833.5156,568.8887 Z " fill="#000000"/><text fill="#000000" font-family="sans-serif" font-size="14" lengthAdjust="spacing" textLength="60" x="851.25" y="578.8105">Company</text><line style="stroke:#181818;stroke-width:0.5;" x1="769" x2="961" y1="589.0137" y2="589.0137"/><ellipse cx="779" cy="603.8242" fill="none" rx="3" ry="3" style="stroke:#038048;stroke-width:1.0;"/><text fill="#000000" font-family="sans-serif" font-size="14" lengthAdjust="spacing" textLength="168" x="788" y="608.1211">getMapGraphPessoaStore</text><line style="stroke:#181818;stroke-width:0.5;" x1="769" x2="961" y1="615.6348" y2="615.6348"/><ellipse cx="779" cy="630.4453" fill="#84BE84" rx="3" ry="3" style="stroke:#038048;stroke-width:1.0;"/><text fill="#000000" font-family="sans-serif" font-size="14" lengthAdjust="spacing" textLength="93" x="788" y="634.7422">getStoreLists()</text><ellipse cx="779" cy="649.0664" fill="#84BE84" rx="3" ry="3" style="stroke:#038048;stroke-width:1.0;"/><text fill="#000000" font-family="sans-serif" font-size="14" lengthAdjust="spacing" textLength="91" x="788" y="653.3633">getMapStore()</text></g><!--MD5=[8d8420880ae268d423f3f305ae0d2144]
class CreateMap--><g id="elem_CreateMap"><rect codeLine="53" fill="#F1F1F1" height="122.4844" id="CreateMap" rx="2.5" ry="2.5" style="stroke:#181818;stroke-width:0.5;" width="366" x="46" y="548.0137"/><ellipse cx="189.75" cy="564.0137" fill="#ADD1B2" rx="11" ry="11" style="stroke:#181818;stroke-width:1.0;"/><path d="M192.5156,559.8887 Q192.6719,559.6699 192.8594,559.5605 Q193.0469,559.4512 193.2656,559.4512 Q193.6406,559.4512 193.875,559.7168 Q194.1094,559.9668 194.1094,560.5762 L194.1094,562.0293 Q194.1094,562.6387 193.875,562.9043 Q193.6406,563.1699 193.2656,563.1699 Q192.9219,563.1699 192.7188,562.9668 Q192.5156,562.7793 192.4063,562.2637 Q192.3594,561.9043 192.1719,561.7168 Q191.8438,561.3418 191.2344,561.123 Q190.625,560.9043 190,560.9043 Q189.2344,560.9043 188.5938,561.2324 Q187.9688,561.5605 187.4688,562.3105 Q186.9844,563.0605 186.9844,564.0918 L186.9844,565.1855 Q186.9844,566.4199 187.875,567.248 Q188.7656,568.0605 190.3594,568.0605 Q191.2969,568.0605 191.9531,567.8105 Q192.3438,567.6543 192.7656,567.2168 Q193.0313,566.9512 193.1719,566.873 Q193.3281,566.7949 193.5313,566.7949 Q193.8594,566.7949 194.1094,567.0605 Q194.375,567.3105 194.375,567.6543 Q194.375,567.998 194.0313,568.4043 Q193.5313,568.9824 192.7344,569.3105 Q191.6563,569.7637 190.3594,569.7637 Q188.8438,569.7637 187.6406,569.1387 Q186.6563,568.6387 185.9688,567.5762 Q185.2813,566.498 185.2813,565.2168 L185.2813,564.0605 Q185.2813,562.7324 185.8906,561.5918 Q186.5156,560.4355 187.6094,559.8262 Q188.7031,559.2012 189.9375,559.2012 Q190.6719,559.2012 191.3125,559.373 Q191.9688,559.5293 192.5156,559.8887 Z " fill="#000000"/><text fill="#000000" font-family="sans-serif" font-size="14" lengthAdjust="spacing" textLength="70" x="210.25" y="569.8105">CreateMap</text><line style="stroke:#181818;stroke-width:0.5;" x1="47" x2="411" y1="580.0137" y2="580.0137"/><rect fill="none" height="6" style="stroke:#C82930;stroke-width:1.0;" width="6" x="54" y="591.8242"/><text fill="#000000" font-family="sans-serif" font-size="14" lengthAdjust="spacing" textLength="132" x="66" y="599.1211">storeLists: StoreLists</text><rect fill="none" height="6" style="stroke:#C82930;stroke-width:1.0;" width="6" x="54" y="610.4453"/><text fill="#000000" font-family="sans-serif" font-size="14" lengthAdjust="spacing" textLength="130" x="66" y="617.7422">mapStore: MapStore</text><line style="stroke:#181818;stroke-width:0.5;" x1="47" x2="411" y1="625.2559" y2="625.2559"/><ellipse cx="57" cy="640.0664" fill="#84BE84" rx="3" ry="3" style="stroke:#038048;stroke-width:1.0;"/><text fill="#000000" font-family="sans-serif" font-size="14" lengthAdjust="spacing" textLength="340" x="66" y="644.3633">guardarProducao(String[] values, String[] headerSplit)</text><ellipse cx="57" cy="658.6875" fill="#84BE84" rx="3" ry="3" style="stroke:#038048;stroke-width:1.0;"/><text fill="#000000" font-family="sans-serif" font-size="14" lengthAdjust="spacing" textLength="330" x="66" y="662.9844">createMapFruta(String[] values, String[] headerSplit)</text></g><!--MD5=[66db75c6a90eee27ea57be2f28d34b97]
link Main to MenuUI--><g id="link_Main_MenuUI"><path codeLine="66" d="M733,181.0337 C733,196.9137 733,218.3837 733,236.7537 " fill="none" id="Main-to-MenuUI" style="stroke:#181818;stroke-width:1.0;stroke-dasharray:7.0,7.0;"/><polygon fill="#181818" points="733,241.8437,737,232.8437,733,236.8437,729,232.8437,733,241.8437" style="stroke:#181818;stroke-width:1.0;"/></g><!--MD5=[18b2adbec2d4d81fe2abb63fe9732443]
link MenuUI to MainController--><g id="link_MenuUI_MainController"><path codeLine="67" d="M733,309.2737 C733,332.9237 733,364.9137 733,389.6537 " fill="none" id="MenuUI-to-MainController" style="stroke:#181818;stroke-width:1.0;stroke-dasharray:7.0,7.0;"/><polygon fill="#181818" points="733,394.8137,737,385.8137,733,389.8137,729,385.8137,733,394.8137" style="stroke:#181818;stroke-width:1.0;"/></g><!--MD5=[dfc7feb03aedb5bfdeb09277bbd32635]
reverse link Company to StoreLists--><g id="link_Company_StoreLists"><path codeLine="68" d="M818.88,671.5437 C796,702.0737 767.81,739.6837 742.08,774.0137 " fill="none" id="Company-backto-StoreLists" style="stroke:#181818;stroke-width:1.0;"/><polygon fill="#181818" points="826.74,661.0537,819.94,663.4537,819.54,670.6537,826.34,668.2537,826.74,661.0537" style="stroke:#181818;stroke-width:1.0;"/><text fill="#000000" font-family="sans-serif" font-size="13" lengthAdjust="spacing" textLength="30" x="797" y="717.042">owns</text></g><!--MD5=[dd87a104d068555fe39a48b0ae034cc9]
reverse link Company to MapStore--><g id="link_Company_MapStore"><path codeLine="69" d="M889.46,673.3337 C906.85,718.3637 929.91,778.0837 946.16,820.1537 " fill="none" id="Company-backto-MapStore" style="stroke:#181818;stroke-width:1.0;"/><polygon fill="#181818" points="884.71,661.0537,883.141,668.092,889.0345,672.2474,890.6035,665.209,884.71,661.0537" style="stroke:#181818;stroke-width:1.0;"/><text fill="#000000" font-family="sans-serif" font-size="13" lengthAdjust="spacing" textLength="30" x="907" y="717.042">owns</text></g><!--MD5=[6466c02c70a565c5689553fda203fa28]
link MainController to Company--><g id="link_MainController_Company"><path codeLine="71" d="M757.21,462.2537 C775.87,487.4837 802.09,522.9437 824,552.5737 " fill="none" id="MainController-to-Company" style="stroke:#181818;stroke-width:1.0;stroke-dasharray:7.0,7.0;"/><polygon fill="#181818" points="827.2,556.9037,825.0768,547.2864,824.2321,552.8798,818.6386,552.0351,827.2,556.9037" style="stroke:#181818;stroke-width:1.0;"/></g><!--MD5=[f3810aef7023c68c5d6cde225d3d17f8]
link MainController to ReadFromCSV--><g id="link_MainController_ReadFromCSV"><path codeLine="72" d="M708.97,462.2537 C686.35,493.0737 652.52,539.1737 628.98,571.2537 " fill="none" id="MainController-to-ReadFromCSV" style="stroke:#181818;stroke-width:1.0;stroke-dasharray:7.0,7.0;"/><polygon fill="#181818" points="625.88,575.4837,634.4301,570.5954,628.8387,571.453,627.9811,565.8615,625.88,575.4837" style="stroke:#181818;stroke-width:1.0;"/></g><!--MD5=[02a836d4912329c49ba3e6018118ae34]
link ReadFromCSV to CreateMap--><g id="link_ReadFromCSV_CreateMap"><path codeLine="73" d="M491.91,609.0137 C467.11,609.0137 442.31,609.0137 417.51,609.0137 " fill="none" id="ReadFromCSV-to-CreateMap" style="stroke:#181818;stroke-width:1.0;stroke-dasharray:7.0,7.0;"/><polygon fill="#181818" points="412.22,609.0137,421.22,613.0137,417.22,609.0137,421.22,605.0137,412.22,609.0137" style="stroke:#181818;stroke-width:1.0;"/></g><!--MD5=[6a57f5acade4e0daf442166725519af8]
link CreateMap to StoreLists--><g id="link_CreateMap_StoreLists"><path codeLine="75" d="M330.22,670.1737 C380.67,700.1537 443.03,737.2137 500.43,771.3337 " fill="none" id="CreateMap-to-StoreLists" style="stroke:#181818;stroke-width:1.0;stroke-dasharray:7.0,7.0;"/><polygon fill="#181818" points="504.91,773.9937,499.1993,765.9695,500.6062,771.4486,495.1271,772.8555,504.91,773.9937" style="stroke:#181818;stroke-width:1.0;"/></g><!--MD5=[551daf55c705a531c2d8dd9eac84f1e9]
link CreateMap to MapStore--><g id="link_CreateMap_MapStore"><path codeLine="76" d="M387.55,670.1037 C416.64,679.3537 446.98,687.8537 476,694.0137 C476.66,694.1537 862.41,728.6837 863,729.0137 C897.39,748.5937 923.36,784.8737 940.62,815.9337 " fill="none" id="CreateMap-to-MapStore" style="stroke:#181818;stroke-width:1.0;stroke-dasharray:7.0,7.0;"/><polygon fill="#181818" points="943.1,820.4737,942.2885,810.6583,940.6997,816.0875,935.2706,814.4987,943.1,820.4737" style="stroke:#181818;stroke-width:1.0;"/></g><!--MD5=[cbfe1333ea7050884a226f2b08a81f44]
@startuml
package Main <<Folder>>#DDDDDD {
package Company <<Folder>>#DDDDDD {
package ui <<Folder>>#DDDDDD {
class Main
class MenuUI {
+lerCabaz(caminho: String)
    }
}

package Controller <<Folder>>#DDDDDD {
class MainController {
+lerCabaz(caminho: String)
}
}

package Store <<Folder>>#DDDDDD {
class StoreLists {
  -pessoaList: List<Pessoa>
  -localidadeList: List<Helper>
  -cabazList: List<Cabaz>
  +getPessoaList(): List<Pessoa>
  +getLocalidadeList(): List<Helper>
  +getCabazList(): List<Cabaz>
  +setPessoaList(pessoaList: List<Pessoa>): void
  +setLocalidadeList(localidadeList: List<Helper>): void
}

class MapStore {
 +getStore()
 +setstockProdutorMap()
 +setcabazMap()
}
}
package ReadFromCSV <<Folder>>#DDDDDD {
class ReadFromCSV {
+lerCabaz(String caminho): void
}
}



package Model <<Folder>>#DDDDDD {
class Company {
+getStoreLists()
+getMapGraphPessoaStore
+getMapStore()
}

}
}

package Methods <<Folder>>#DDDDDD {
class CreateMap {
-storeLists: StoreLists
-mapStore: MapStore
+guardarProducao(String[] values, String[] headerSplit)
+createMapFruta(String[] values, String[] headerSplit)
}




}

}
Main ..> MenuUI
MenuUI ..> MainController
Company *- - StoreLists : owns
Company *- - MapStore : owns

MainController ..> Company
MainController ..> ReadFromCSV
ReadFromCSV ..> CreateMap

CreateMap ..> StoreLists
CreateMap ..> MapStore




@enduml

PlantUML version 1.2022.13(Sat Nov 19 13:22:17 WET 2022)
(GPL source distribution)
Java Runtime: OpenJDK Runtime Environment
JVM: OpenJDK 64-Bit Server VM
Default Encoding: Cp1252
Language: pt
Country: PT
--></g></svg>