<?xml version="1.0" encoding="UTF-8" standalone="no"?><svg xmlns="http://www.w3.org/2000/svg" xmlns:xlink="http://www.w3.org/1999/xlink" contentStyleType="text/css" height="1098px" preserveAspectRatio="none" style="width:2129px;height:1098px;background:#FFFFFF;" version="1.1" viewBox="0 0 2129 1098" width="2129px" zoomAndPan="magnify"><defs/><g><!--MD5=[e80bd461753d6c5ec111731420959425]
cluster Main--><g id="cluster_Main"><path d="M8.5,6.0137 L43.5,6.0137 A3.75,3.75 0 0 1 46,8.5137 L53,30.6348 L2119.5,30.6348 A2.5,2.5 0 0 1 2122,33.1348 L2122,1088.5137 A2.5,2.5 0 0 1 2119.5,1091.0137 L8.5,1091.0137 A2.5,2.5 0 0 1 6,1088.5137 L6,8.5137 A2.5,2.5 0 0 1 8.5,6.0137 " fill="#DDDDDD" style="stroke:#000000;stroke-width:1.5;"/><line style="stroke:#000000;stroke-width:1.5;" x1="6" x2="53" y1="30.6348" y2="30.6348"/><text fill="#000000" font-family="sans-serif" font-size="14" font-weight="bold" lengthAdjust="spacing" textLength="34" x="10" y="23.1211">Main</text></g><!--MD5=[66dd6d0a484290b46f8665dfa0e5de89]
cluster Company--><g id="cluster_Company"><path d="M32.5,51.0137 L97.5,51.0137 A3.75,3.75 0 0 1 100,53.5137 L107,75.6348 L1273.5,75.6348 A2.5,2.5 0 0 1 1276,78.1348 L1276,1064.5137 A2.5,2.5 0 0 1 1273.5,1067.0137 L32.5,1067.0137 A2.5,2.5 0 0 1 30,1064.5137 L30,53.5137 A2.5,2.5 0 0 1 32.5,51.0137 " fill="#DDDDDD" style="stroke:#000000;stroke-width:1.5;"/><line style="stroke:#000000;stroke-width:1.5;" x1="30" x2="107" y1="75.6348" y2="75.6348"/><text fill="#000000" font-family="sans-serif" font-size="14" font-weight="bold" lengthAdjust="spacing" textLength="64" x="34" y="68.1211">Company</text></g><!--MD5=[64e2e010ba86d7988e5cd73bd64f61f9]
cluster ui--><g id="cluster_ui"><path d="M56.5,105.5137 L70.5,105.5137 A3.75,3.75 0 0 1 73,108.0137 L80,130.1348 L849.5,130.1348 A2.5,2.5 0 0 1 852,132.6348 L852,398.5137 A2.5,2.5 0 0 1 849.5,401.0137 L56.5,401.0137 A2.5,2.5 0 0 1 54,398.5137 L54,108.0137 A2.5,2.5 0 0 1 56.5,105.5137 " fill="#DDDDDD" style="stroke:#000000;stroke-width:1.5;"/><line style="stroke:#000000;stroke-width:1.5;" x1="54" x2="80" y1="130.1348" y2="130.1348"/><text fill="#000000" font-family="sans-serif" font-size="14" font-weight="bold" lengthAdjust="spacing" textLength="13" x="58" y="122.6211">ui</text></g><!--MD5=[c0a55fc040d4de26ef61760e050063db]
cluster Graph--><g id="cluster_Graph"><path d="M878.5,96.0137 L922.5,96.0137 A3.75,3.75 0 0 1 925,98.5137 L932,120.6348 L1249.5,120.6348 A2.5,2.5 0 0 1 1252,123.1348 L1252,213.5137 A2.5,2.5 0 0 1 1249.5,216.0137 L878.5,216.0137 A2.5,2.5 0 0 1 876,213.5137 L876,98.5137 A2.5,2.5 0 0 1 878.5,96.0137 " fill="#DDDDDD" style="stroke:#000000;stroke-width:1.5;"/><line style="stroke:#000000;stroke-width:1.5;" x1="876" x2="932" y1="120.6348" y2="120.6348"/><text fill="#000000" font-family="sans-serif" font-size="14" font-weight="bold" lengthAdjust="spacing" textLength="43" x="880" y="113.1211">Graph</text></g><!--MD5=[1f2cfc53d9d308f53762fd0fcbaa4873]
cluster Controller--><g id="cluster_Controller"><path d="M568.5,434.0137 L640.5,434.0137 A3.75,3.75 0 0 1 643,436.5137 L650,458.6348 L729.5,458.6348 A2.5,2.5 0 0 1 732,461.1348 L732,551.5137 A2.5,2.5 0 0 1 729.5,554.0137 L568.5,554.0137 A2.5,2.5 0 0 1 566,551.5137 L566,436.5137 A2.5,2.5 0 0 1 568.5,434.0137 " fill="#DDDDDD" style="stroke:#000000;stroke-width:1.5;"/><line style="stroke:#000000;stroke-width:1.5;" x1="566" x2="650" y1="458.6348" y2="458.6348"/><text fill="#000000" font-family="sans-serif" font-size="14" font-weight="bold" lengthAdjust="spacing" textLength="71" x="570" y="451.1211">Controller</text></g><!--MD5=[7ce1723ddb6e6233854253973eae5a71]
cluster Store--><g id="cluster_Store"><path d="M190.5,830.0137 L229.5,830.0137 A3.75,3.75 0 0 1 232,832.5137 L239,854.6348 L959.5,854.6348 A2.5,2.5 0 0 1 962,857.1348 L962,1040.5137 A2.5,2.5 0 0 1 959.5,1043.0137 L190.5,1043.0137 A2.5,2.5 0 0 1 188,1040.5137 L188,832.5137 A2.5,2.5 0 0 1 190.5,830.0137 " fill="#DDDDDD" style="stroke:#000000;stroke-width:1.5;"/><line style="stroke:#000000;stroke-width:1.5;" x1="188" x2="239" y1="854.6348" y2="854.6348"/><text fill="#000000" font-family="sans-serif" font-size="14" font-weight="bold" lengthAdjust="spacing" textLength="38" x="192" y="847.1211">Store</text></g><!--MD5=[15636c1ca4a123c16a2a1a8e90aca7a9]
cluster Model--><g id="cluster_Model"><path d="M538.5,605.5137 L583.5,605.5137 A3.75,3.75 0 0 1 586,608.0137 L593,630.1348 L759.5,630.1348 A2.5,2.5 0 0 1 762,632.6348 L762,760.0137 A2.5,2.5 0 0 1 759.5,762.5137 L538.5,762.5137 A2.5,2.5 0 0 1 536,760.0137 L536,608.0137 A2.5,2.5 0 0 1 538.5,605.5137 " fill="#DDDDDD" style="stroke:#000000;stroke-width:1.5;"/><line style="stroke:#000000;stroke-width:1.5;" x1="536" x2="593" y1="630.1348" y2="630.1348"/><text fill="#000000" font-family="sans-serif" font-size="14" font-weight="bold" lengthAdjust="spacing" textLength="44" x="540" y="622.6211">Model</text></g><!--MD5=[b792253f46c87a5be23eaae1b68e2912]
cluster Methods--><g id="cluster_Methods"><path d="M1302.5,587.0137 L1365.5,587.0137 A3.75,3.75 0 0 1 1368,589.5137 L1375,611.6348 L2095.5,611.6348 A2.5,2.5 0 0 1 2098,614.1348 L2098,994.0137 A2.5,2.5 0 0 1 2095.5,996.5137 L1302.5,996.5137 A2.5,2.5 0 0 1 1300,994.0137 L1300,589.5137 A2.5,2.5 0 0 1 1302.5,587.0137 " fill="#DDDDDD" style="stroke:#000000;stroke-width:1.5;"/><line style="stroke:#000000;stroke-width:1.5;" x1="1300" x2="1375" y1="611.6348" y2="611.6348"/><text fill="#000000" font-family="sans-serif" font-size="14" font-weight="bold" lengthAdjust="spacing" textLength="62" x="1304" y="604.1211">Methods</text></g><!--MD5=[84718776d214be480e4c259efcb737fc]
class Main--><g id="elem_Main"><rect codeLine="4" fill="#F1F1F1" height="48" id="Main" rx="2.5" ry="2.5" style="stroke:#181818;stroke-width:0.5;" width="62" x="422" y="142.5137"/><ellipse cx="437" cy="158.5137" fill="#ADD1B2" rx="11" ry="11" style="stroke:#181818;stroke-width:1.0;"/><path d="M439.7656,154.3887 Q439.9219,154.1699 440.1094,154.0605 Q440.2969,153.9512 440.5156,153.9512 Q440.8906,153.9512 441.125,154.2168 Q441.3594,154.4668 441.3594,155.0762 L441.3594,156.5293 Q441.3594,157.1387 441.125,157.4043 Q440.8906,157.6699 440.5156,157.6699 Q440.1719,157.6699 439.9688,157.4668 Q439.7656,157.2793 439.6563,156.7637 Q439.6094,156.4043 439.4219,156.2168 Q439.0938,155.8418 438.4844,155.623 Q437.875,155.4043 437.25,155.4043 Q436.4844,155.4043 435.8438,155.7324 Q435.2188,156.0605 434.7188,156.8105 Q434.2344,157.5605 434.2344,158.5918 L434.2344,159.6855 Q434.2344,160.9199 435.125,161.748 Q436.0156,162.5605 437.6094,162.5605 Q438.5469,162.5605 439.2031,162.3105 Q439.5938,162.1543 440.0156,161.7168 Q440.2813,161.4512 440.4219,161.373 Q440.5781,161.2949 440.7813,161.2949 Q441.1094,161.2949 441.3594,161.5605 Q441.625,161.8105 441.625,162.1543 Q441.625,162.498 441.2813,162.9043 Q440.7813,163.4824 439.9844,163.8105 Q438.9063,164.2637 437.6094,164.2637 Q436.0938,164.2637 434.8906,163.6387 Q433.9063,163.1387 433.2188,162.0762 Q432.5313,160.998 432.5313,159.7168 L432.5313,158.5605 Q432.5313,157.2324 433.1406,156.0918 Q433.7656,154.9355 434.8594,154.3262 Q435.9531,153.7012 437.1875,153.7012 Q437.9219,153.7012 438.5625,153.873 Q439.2188,154.0293 439.7656,154.3887 Z " fill="#000000"/><text fill="#000000" font-family="sans-serif" font-size="14" lengthAdjust="spacing" textLength="30" x="451" y="164.3105">Main</text><line style="stroke:#181818;stroke-width:0.5;" x1="423" x2="483" y1="174.5137" y2="174.5137"/><line style="stroke:#181818;stroke-width:0.5;" x1="423" x2="483" y1="182.5137" y2="182.5137"/></g><!--MD5=[02de039990bbea028db2518876dfca25]
class MenuUI--><g id="elem_MenuUI"><rect codeLine="5" fill="#F1F1F1" height="122.4844" id="MenuUI" rx="2.5" ry="2.5" style="stroke:#181818;stroke-width:0.5;" width="765" x="70.5" y="263.0137"/><ellipse cx="425.25" cy="279.0137" fill="#ADD1B2" rx="11" ry="11" style="stroke:#181818;stroke-width:1.0;"/><path d="M428.0156,274.8887 Q428.1719,274.6699 428.3594,274.5605 Q428.5469,274.4512 428.7656,274.4512 Q429.1406,274.4512 429.375,274.7168 Q429.6094,274.9668 429.6094,275.5762 L429.6094,277.0293 Q429.6094,277.6387 429.375,277.9043 Q429.1406,278.1699 428.7656,278.1699 Q428.4219,278.1699 428.2188,277.9668 Q428.0156,277.7793 427.9063,277.2637 Q427.8594,276.9043 427.6719,276.7168 Q427.3438,276.3418 426.7344,276.123 Q426.125,275.9043 425.5,275.9043 Q424.7344,275.9043 424.0938,276.2324 Q423.4688,276.5605 422.9688,277.3105 Q422.4844,278.0605 422.4844,279.0918 L422.4844,280.1855 Q422.4844,281.4199 423.375,282.248 Q424.2656,283.0605 425.8594,283.0605 Q426.7969,283.0605 427.4531,282.8105 Q427.8438,282.6543 428.2656,282.2168 Q428.5313,281.9512 428.6719,281.873 Q428.8281,281.7949 429.0313,281.7949 Q429.3594,281.7949 429.6094,282.0605 Q429.875,282.3105 429.875,282.6543 Q429.875,282.998 429.5313,283.4043 Q429.0313,283.9824 428.2344,284.3105 Q427.1563,284.7637 425.8594,284.7637 Q424.3438,284.7637 423.1406,284.1387 Q422.1563,283.6387 421.4688,282.5762 Q420.7813,281.498 420.7813,280.2168 L420.7813,279.0605 Q420.7813,277.7324 421.3906,276.5918 Q422.0156,275.4355 423.1094,274.8262 Q424.2031,274.2012 425.4375,274.2012 Q426.1719,274.2012 426.8125,274.373 Q427.4688,274.5293 428.0156,274.8887 Z " fill="#000000"/><text fill="#000000" font-family="sans-serif" font-size="14" lengthAdjust="spacing" textLength="47" x="445.75" y="284.8105">MenuUI</text><line style="stroke:#181818;stroke-width:0.5;" x1="71.5" x2="834.5" y1="295.0137" y2="295.0137"/><line style="stroke:#181818;stroke-width:0.5;" x1="71.5" x2="834.5" y1="303.0137" y2="303.0137"/><ellipse cx="81.5" cy="317.8242" fill="#84BE84" rx="3" ry="3" style="stroke:#038048;stroke-width:1.0;"/><text fill="#000000" font-family="sans-serif" font-size="14" lengthAdjust="spacing" textLength="277" x="90.5" y="322.1211">expedatingForDayRestrictions(int day, int n)</text><ellipse cx="81.5" cy="336.4453" fill="#84BE84" rx="3" ry="3" style="stroke:#038048;stroke-width:1.0;"/><text fill="#000000" font-family="sans-serif" font-size="14" lengthAdjust="spacing" textLength="739" x="90.5" y="340.7422">expedatingPath(List&lt;Cabaz&gt; auxList, Map&lt;Pessoa, TreeMap&lt;Integer, Map&lt;Produtos, Double&gt;&gt;&gt; clientsMap, int day)</text><ellipse cx="81.5" cy="355.0664" fill="#84BE84" rx="3" ry="3" style="stroke:#038048;stroke-width:1.0;"/><text fill="#000000" font-family="sans-serif" font-size="14" lengthAdjust="spacing" textLength="122" x="90.5" y="359.3633">getExpedatingList()</text><ellipse cx="81.5" cy="373.6875" fill="#84BE84" rx="3" ry="3" style="stroke:#038048;stroke-width:1.0;"/><text fill="#000000" font-family="sans-serif" font-size="14" lengthAdjust="spacing" textLength="94" x="90.5" y="377.9844">getcabazMap()</text></g><!--MD5=[4533588fb66c6fa31a6e04bf29ae6161]
class Algorithms--><g id="elem_Algorithms"><rect codeLine="14" fill="#F1F1F1" height="66.6211" id="Algorithms" rx="2.5" ry="2.5" style="stroke:#181818;stroke-width:0.5;" width="343" x="892.5" y="133.0137"/><ellipse cx="1026.75" cy="149.0137" fill="#ADD1B2" rx="11" ry="11" style="stroke:#181818;stroke-width:1.0;"/><path d="M1029.5156,144.8887 Q1029.6719,144.6699 1029.8594,144.5605 Q1030.0469,144.4512 1030.2656,144.4512 Q1030.6406,144.4512 1030.875,144.7168 Q1031.1094,144.9668 1031.1094,145.5762 L1031.1094,147.0293 Q1031.1094,147.6387 1030.875,147.9043 Q1030.6406,148.1699 1030.2656,148.1699 Q1029.9219,148.1699 1029.7188,147.9668 Q1029.5156,147.7793 1029.4063,147.2637 Q1029.3594,146.9043 1029.1719,146.7168 Q1028.8438,146.3418 1028.2344,146.123 Q1027.625,145.9043 1027,145.9043 Q1026.2344,145.9043 1025.5938,146.2324 Q1024.9688,146.5605 1024.4688,147.3105 Q1023.9844,148.0605 1023.9844,149.0918 L1023.9844,150.1855 Q1023.9844,151.4199 1024.875,152.248 Q1025.7656,153.0605 1027.3594,153.0605 Q1028.2969,153.0605 1028.9531,152.8105 Q1029.3438,152.6543 1029.7656,152.2168 Q1030.0313,151.9512 1030.1719,151.873 Q1030.3281,151.7949 1030.5313,151.7949 Q1030.8594,151.7949 1031.1094,152.0605 Q1031.375,152.3105 1031.375,152.6543 Q1031.375,152.998 1031.0313,153.4043 Q1030.5313,153.9824 1029.7344,154.3105 Q1028.6563,154.7637 1027.3594,154.7637 Q1025.8438,154.7637 1024.6406,154.1387 Q1023.6563,153.6387 1022.9688,152.5762 Q1022.2813,151.498 1022.2813,150.2168 L1022.2813,149.0605 Q1022.2813,147.7324 1022.8906,146.5918 Q1023.5156,145.4355 1024.6094,144.8262 Q1025.7031,144.2012 1026.9375,144.2012 Q1027.6719,144.2012 1028.3125,144.373 Q1028.9688,144.5293 1029.5156,144.8887 Z " fill="#000000"/><text fill="#000000" font-family="sans-serif" font-size="14" lengthAdjust="spacing" textLength="66" x="1047.25" y="154.8105">Algorithms</text><line style="stroke:#181818;stroke-width:0.5;" x1="893.5" x2="1234.5" y1="165.0137" y2="165.0137"/><line style="stroke:#181818;stroke-width:0.5;" x1="893.5" x2="1234.5" y1="173.0137" y2="173.0137"/><ellipse cx="903.5" cy="187.8242" fill="#84BE84" rx="3" ry="3" style="stroke:#038048;stroke-width:1.0;"/><text fill="#000000" font-family="sans-serif" font-size="14" lengthAdjust="spacing" textLength="317" x="912.5" y="192.1211">minDistGraph(graph, comparator, binaryOperator)</text></g><!--MD5=[0278646e5a3f51edb25d463fe8c5bfab]
class MainController--><g id="elem_MainController"><rect codeLine="20" fill="#F1F1F1" height="66.6211" id="MainController" rx="2.5" ry="2.5" style="stroke:#181818;stroke-width:0.5;" width="134" x="582" y="471.0137"/><ellipse cx="601.5" cy="487.0137" fill="#ADD1B2" rx="11" ry="11" style="stroke:#181818;stroke-width:1.0;"/><path d="M604.2656,482.8887 Q604.4219,482.6699 604.6094,482.5605 Q604.7969,482.4512 605.0156,482.4512 Q605.3906,482.4512 605.625,482.7168 Q605.8594,482.9668 605.8594,483.5762 L605.8594,485.0293 Q605.8594,485.6387 605.625,485.9043 Q605.3906,486.1699 605.0156,486.1699 Q604.6719,486.1699 604.4688,485.9668 Q604.2656,485.7793 604.1563,485.2637 Q604.1094,484.9043 603.9219,484.7168 Q603.5938,484.3418 602.9844,484.123 Q602.375,483.9043 601.75,483.9043 Q600.9844,483.9043 600.3438,484.2324 Q599.7188,484.5605 599.2188,485.3105 Q598.7344,486.0605 598.7344,487.0918 L598.7344,488.1855 Q598.7344,489.4199 599.625,490.248 Q600.5156,491.0605 602.1094,491.0605 Q603.0469,491.0605 603.7031,490.8105 Q604.0938,490.6543 604.5156,490.2168 Q604.7813,489.9512 604.9219,489.873 Q605.0781,489.7949 605.2813,489.7949 Q605.6094,489.7949 605.8594,490.0605 Q606.125,490.3105 606.125,490.6543 Q606.125,490.998 605.7813,491.4043 Q605.2813,491.9824 604.4844,492.3105 Q603.4063,492.7637 602.1094,492.7637 Q600.5938,492.7637 599.3906,492.1387 Q598.4063,491.6387 597.7188,490.5762 Q597.0313,489.498 597.0313,488.2168 L597.0313,487.0605 Q597.0313,485.7324 597.6406,484.5918 Q598.2656,483.4355 599.3594,482.8262 Q600.4531,482.2012 601.6875,482.2012 Q602.4219,482.2012 603.0625,482.373 Q603.7188,482.5293 604.2656,482.8887 Z " fill="#000000"/><text fill="#000000" font-family="sans-serif" font-size="14" lengthAdjust="spacing" textLength="92" x="616.5" y="492.8105">MainController</text><line style="stroke:#181818;stroke-width:0.5;" x1="583" x2="715" y1="503.0137" y2="503.0137"/><line style="stroke:#181818;stroke-width:0.5;" x1="583" x2="715" y1="511.0137" y2="511.0137"/><ellipse cx="593" cy="525.8242" fill="#84BE84" rx="3" ry="3" style="stroke:#038048;stroke-width:1.0;"/><text fill="#000000" font-family="sans-serif" font-size="14" lengthAdjust="spacing" textLength="108" x="602" y="530.1211">pathWay(int day)</text></g><!--MD5=[14dc7b858ae97e20c7f9bd91ff750642]
class ExpedatingStore--><g id="elem_ExpedatingStore"><rect codeLine="26" fill="#F1F1F1" height="159.7266" id="ExpedatingStore" rx="2.5" ry="2.5" style="stroke:#181818;stroke-width:0.5;" width="320" x="204" y="867.0137"/><ellipse cx="307.75" cy="883.0137" fill="#ADD1B2" rx="11" ry="11" style="stroke:#181818;stroke-width:1.0;"/><path d="M310.5156,878.8887 Q310.6719,878.6699 310.8594,878.5605 Q311.0469,878.4512 311.2656,878.4512 Q311.6406,878.4512 311.875,878.7168 Q312.1094,878.9668 312.1094,879.5762 L312.1094,881.0293 Q312.1094,881.6387 311.875,881.9043 Q311.6406,882.1699 311.2656,882.1699 Q310.9219,882.1699 310.7188,881.9668 Q310.5156,881.7793 310.4063,881.2637 Q310.3594,880.9043 310.1719,880.7168 Q309.8438,880.3418 309.2344,880.123 Q308.625,879.9043 308,879.9043 Q307.2344,879.9043 306.5938,880.2324 Q305.9688,880.5605 305.4688,881.3105 Q304.9844,882.0605 304.9844,883.0918 L304.9844,884.1855 Q304.9844,885.4199 305.875,886.248 Q306.7656,887.0605 308.3594,887.0605 Q309.2969,887.0605 309.9531,886.8105 Q310.3438,886.6543 310.7656,886.2168 Q311.0313,885.9512 311.1719,885.873 Q311.3281,885.7949 311.5313,885.7949 Q311.8594,885.7949 312.1094,886.0605 Q312.375,886.3105 312.375,886.6543 Q312.375,886.998 312.0313,887.4043 Q311.5313,887.9824 310.7344,888.3105 Q309.6563,888.7637 308.3594,888.7637 Q306.8438,888.7637 305.6406,888.1387 Q304.6563,887.6387 303.9688,886.5762 Q303.2813,885.498 303.2813,884.2168 L303.2813,883.0605 Q303.2813,881.7324 303.8906,880.5918 Q304.5156,879.4355 305.6094,878.8262 Q306.7031,878.2012 307.9375,878.2012 Q308.6719,878.2012 309.3125,878.373 Q309.9688,878.5293 310.5156,878.8887 Z " fill="#000000"/><text fill="#000000" font-family="sans-serif" font-size="14" lengthAdjust="spacing" textLength="104" x="328.25" y="888.8105">ExpedatingStore</text><line style="stroke:#181818;stroke-width:0.5;" x1="205" x2="523" y1="899.0137" y2="899.0137"/><line style="stroke:#181818;stroke-width:0.5;" x1="205" x2="523" y1="907.0137" y2="907.0137"/><ellipse cx="215" cy="921.8242" fill="#84BE84" rx="3" ry="3" style="stroke:#038048;stroke-width:1.0;"/><text fill="#000000" font-family="sans-serif" font-size="14" lengthAdjust="spacing" textLength="149" x="224" y="926.1211">getHubProximoCliente()</text><ellipse cx="215" cy="940.4453" fill="#84BE84" rx="3" ry="3" style="stroke:#038048;stroke-width:1.0;"/><text fill="#000000" font-family="sans-serif" font-size="14" lengthAdjust="spacing" textLength="163" x="224" y="944.7422">produtoresEachHub(int n)</text><ellipse cx="215" cy="959.0664" fill="#84BE84" rx="3" ry="3" style="stroke:#038048;stroke-width:1.0;"/><text fill="#000000" font-family="sans-serif" font-size="14" lengthAdjust="spacing" textLength="294" x="224" y="963.3633">setExpedatingList(List&lt;Cabaz&gt; expedatingList)</text><ellipse cx="215" cy="977.6875" fill="#84BE84" rx="3" ry="3" style="stroke:#038048;stroke-width:1.0;"/><text fill="#000000" font-family="sans-serif" font-size="14" lengthAdjust="spacing" textLength="229" x="224" y="981.9844">expedatingStore.getExpedatingList()</text><ellipse cx="215" cy="996.3086" fill="#84BE84" rx="3" ry="3" style="stroke:#038048;stroke-width:1.0;"/><text fill="#000000" font-family="sans-serif" font-size="14" lengthAdjust="spacing" textLength="256" x="224" y="1000.6055">expedatingStore.getHubProximoCliente()</text><ellipse cx="215" cy="1014.9297" fill="#84BE84" rx="3" ry="3" style="stroke:#038048;stroke-width:1.0;"/><text fill="#000000" font-family="sans-serif" font-size="14" lengthAdjust="spacing" textLength="256" x="224" y="1019.2266">expedatingStore.getHubProximoCliente()</text></g><!--MD5=[3ecf2b447fd626a808bbfa4df6084566]
class MapGraphPessoaStore--><g id="elem_MapGraphPessoaStore"><rect codeLine="37" fill="#F1F1F1" height="66.6211" id="MapGraphPessoaStore" rx="2.5" ry="2.5" style="stroke:#181818;stroke-width:0.5;" width="180" x="559" y="913.5137"/><ellipse cx="574" cy="929.5137" fill="#ADD1B2" rx="11" ry="11" style="stroke:#181818;stroke-width:1.0;"/><path d="M576.7656,925.3887 Q576.9219,925.1699 577.1094,925.0605 Q577.2969,924.9512 577.5156,924.9512 Q577.8906,924.9512 578.125,925.2168 Q578.3594,925.4668 578.3594,926.0762 L578.3594,927.5293 Q578.3594,928.1387 578.125,928.4043 Q577.8906,928.6699 577.5156,928.6699 Q577.1719,928.6699 576.9688,928.4668 Q576.7656,928.2793 576.6563,927.7637 Q576.6094,927.4043 576.4219,927.2168 Q576.0938,926.8418 575.4844,926.623 Q574.875,926.4043 574.25,926.4043 Q573.4844,926.4043 572.8438,926.7324 Q572.2188,927.0605 571.7188,927.8105 Q571.2344,928.5605 571.2344,929.5918 L571.2344,930.6855 Q571.2344,931.9199 572.125,932.748 Q573.0156,933.5605 574.6094,933.5605 Q575.5469,933.5605 576.2031,933.3105 Q576.5938,933.1543 577.0156,932.7168 Q577.2813,932.4512 577.4219,932.373 Q577.5781,932.2949 577.7813,932.2949 Q578.1094,932.2949 578.3594,932.5605 Q578.625,932.8105 578.625,933.1543 Q578.625,933.498 578.2813,933.9043 Q577.7813,934.4824 576.9844,934.8105 Q575.9063,935.2637 574.6094,935.2637 Q573.0938,935.2637 571.8906,934.6387 Q570.9063,934.1387 570.2188,933.0762 Q569.5313,931.998 569.5313,930.7168 L569.5313,929.5605 Q569.5313,928.2324 570.1406,927.0918 Q570.7656,925.9355 571.8594,925.3262 Q572.9531,924.7012 574.1875,924.7012 Q574.9219,924.7012 575.5625,924.873 Q576.2188,925.0293 576.7656,925.3887 Z " fill="#000000"/><text fill="#000000" font-family="sans-serif" font-size="14" lengthAdjust="spacing" textLength="148" x="588" y="935.3105">MapGraphPessoaStore</text><line style="stroke:#181818;stroke-width:0.5;" x1="560" x2="738" y1="945.5137" y2="945.5137"/><line style="stroke:#181818;stroke-width:0.5;" x1="560" x2="738" y1="953.5137" y2="953.5137"/><ellipse cx="570" cy="968.3242" fill="#84BE84" rx="3" ry="3" style="stroke:#038048;stroke-width:1.0;"/><text fill="#000000" font-family="sans-serif" font-size="14" lengthAdjust="spacing" textLength="97" x="579" y="972.6211">getMapGraph()</text></g><!--MD5=[dfcf960dcc7a983995284746c51b3f2c]
class MapStore--><g id="elem_MapStore"><rect codeLine="41" fill="#F1F1F1" height="85.2422" id="MapStore" rx="2.5" ry="2.5" style="stroke:#181818;stroke-width:0.5;" width="171" x="774.5" y="904.5137"/><ellipse cx="825.25" cy="920.5137" fill="#ADD1B2" rx="11" ry="11" style="stroke:#181818;stroke-width:1.0;"/><path d="M828.0156,916.3887 Q828.1719,916.1699 828.3594,916.0605 Q828.5469,915.9512 828.7656,915.9512 Q829.1406,915.9512 829.375,916.2168 Q829.6094,916.4668 829.6094,917.0762 L829.6094,918.5293 Q829.6094,919.1387 829.375,919.4043 Q829.1406,919.6699 828.7656,919.6699 Q828.4219,919.6699 828.2188,919.4668 Q828.0156,919.2793 827.9063,918.7637 Q827.8594,918.4043 827.6719,918.2168 Q827.3438,917.8418 826.7344,917.623 Q826.125,917.4043 825.5,917.4043 Q824.7344,917.4043 824.0938,917.7324 Q823.4688,918.0605 822.9688,918.8105 Q822.4844,919.5605 822.4844,920.5918 L822.4844,921.6855 Q822.4844,922.9199 823.375,923.748 Q824.2656,924.5605 825.8594,924.5605 Q826.7969,924.5605 827.4531,924.3105 Q827.8438,924.1543 828.2656,923.7168 Q828.5313,923.4512 828.6719,923.373 Q828.8281,923.2949 829.0313,923.2949 Q829.3594,923.2949 829.6094,923.5605 Q829.875,923.8105 829.875,924.1543 Q829.875,924.498 829.5313,924.9043 Q829.0313,925.4824 828.2344,925.8105 Q827.1563,926.2637 825.8594,926.2637 Q824.3438,926.2637 823.1406,925.6387 Q822.1563,925.1387 821.4688,924.0762 Q820.7813,922.998 820.7813,921.7168 L820.7813,920.5605 Q820.7813,919.2324 821.3906,918.0918 Q822.0156,916.9355 823.1094,916.3262 Q824.2031,915.7012 825.4375,915.7012 Q826.1719,915.7012 826.8125,915.873 Q827.4688,916.0293 828.0156,916.3887 Z " fill="#000000"/><text fill="#000000" font-family="sans-serif" font-size="14" lengthAdjust="spacing" textLength="61" x="845.75" y="926.3105">MapStore</text><line style="stroke:#181818;stroke-width:0.5;" x1="775.5" x2="944.5" y1="936.5137" y2="936.5137"/><line style="stroke:#181818;stroke-width:0.5;" x1="775.5" x2="944.5" y1="944.5137" y2="944.5137"/><ellipse cx="785.5" cy="959.3242" fill="#84BE84" rx="3" ry="3" style="stroke:#038048;stroke-width:1.0;"/><text fill="#000000" font-family="sans-serif" font-size="14" lengthAdjust="spacing" textLength="145" x="794.5" y="963.6211">getstockProdutorMap()</text><ellipse cx="785.5" cy="977.9453" fill="#84BE84" rx="3" ry="3" style="stroke:#038048;stroke-width:1.0;"/><text fill="#000000" font-family="sans-serif" font-size="14" lengthAdjust="spacing" textLength="94" x="794.5" y="982.2422">getcabazMap()</text></g><!--MD5=[02e4b9b7573f1156f41e60aa5b4e25a4]
class Company--><g id="elem_Company"><rect codeLine="47" fill="#F1F1F1" height="103.8633" id="Company" rx="2.5" ry="2.5" style="stroke:#181818;stroke-width:0.5;" width="194" x="552" y="642.5137"/><ellipse cx="614.75" cy="658.5137" fill="#ADD1B2" rx="11" ry="11" style="stroke:#181818;stroke-width:1.0;"/><path d="M617.5156,654.3887 Q617.6719,654.1699 617.8594,654.0605 Q618.0469,653.9512 618.2656,653.9512 Q618.6406,653.9512 618.875,654.2168 Q619.1094,654.4668 619.1094,655.0762 L619.1094,656.5293 Q619.1094,657.1387 618.875,657.4043 Q618.6406,657.6699 618.2656,657.6699 Q617.9219,657.6699 617.7188,657.4668 Q617.5156,657.2793 617.4063,656.7637 Q617.3594,656.4043 617.1719,656.2168 Q616.8438,655.8418 616.2344,655.623 Q615.625,655.4043 615,655.4043 Q614.2344,655.4043 613.5938,655.7324 Q612.9688,656.0605 612.4688,656.8105 Q611.9844,657.5605 611.9844,658.5918 L611.9844,659.6855 Q611.9844,660.9199 612.875,661.748 Q613.7656,662.5605 615.3594,662.5605 Q616.2969,662.5605 616.9531,662.3105 Q617.3438,662.1543 617.7656,661.7168 Q618.0313,661.4512 618.1719,661.373 Q618.3281,661.2949 618.5313,661.2949 Q618.8594,661.2949 619.1094,661.5605 Q619.375,661.8105 619.375,662.1543 Q619.375,662.498 619.0313,662.9043 Q618.5313,663.4824 617.7344,663.8105 Q616.6563,664.2637 615.3594,664.2637 Q613.8438,664.2637 612.6406,663.6387 Q611.6563,663.1387 610.9688,662.0762 Q610.2813,660.998 610.2813,659.7168 L610.2813,658.5605 Q610.2813,657.2324 610.8906,656.0918 Q611.5156,654.9355 612.6094,654.3262 Q613.7031,653.7012 614.9375,653.7012 Q615.6719,653.7012 616.3125,653.873 Q616.9688,654.0293 617.5156,654.3887 Z " fill="#000000"/><text fill="#000000" font-family="sans-serif" font-size="14" lengthAdjust="spacing" textLength="60" x="635.25" y="664.3105">Company</text><line style="stroke:#181818;stroke-width:0.5;" x1="553" x2="745" y1="674.5137" y2="674.5137"/><ellipse cx="563" cy="689.3242" fill="none" rx="3" ry="3" style="stroke:#038048;stroke-width:1.0;"/><text fill="#000000" font-family="sans-serif" font-size="14" lengthAdjust="spacing" textLength="168" x="572" y="693.6211">getMapGraphPessoaStore</text><line style="stroke:#181818;stroke-width:0.5;" x1="553" x2="745" y1="701.1348" y2="701.1348"/><ellipse cx="563" cy="715.9453" fill="#84BE84" rx="3" ry="3" style="stroke:#038048;stroke-width:1.0;"/><text fill="#000000" font-family="sans-serif" font-size="14" lengthAdjust="spacing" textLength="93" x="572" y="720.2422">getStoreLists()</text><ellipse cx="563" cy="734.5664" fill="#84BE84" rx="3" ry="3" style="stroke:#038048;stroke-width:1.0;"/><text fill="#000000" font-family="sans-serif" font-size="14" lengthAdjust="spacing" textLength="91" x="572" y="738.8633">getMapStore()</text></g><!--MD5=[159c1f05c3c2e0667fd74a9564b5f5f0]
class Expedating--><g id="elem_Expedating"><rect codeLine="56" fill="#F1F1F1" height="141.1055" id="Expedating" rx="2.5" ry="2.5" style="stroke:#181818;stroke-width:0.5;" width="765" x="1316.5" y="624.0137"/><ellipse cx="1659.75" cy="640.0137" fill="#ADD1B2" rx="11" ry="11" style="stroke:#181818;stroke-width:1.0;"/><path d="M1662.5156,635.8887 Q1662.6719,635.6699 1662.8594,635.5605 Q1663.0469,635.4512 1663.2656,635.4512 Q1663.6406,635.4512 1663.875,635.7168 Q1664.1094,635.9668 1664.1094,636.5762 L1664.1094,638.0293 Q1664.1094,638.6387 1663.875,638.9043 Q1663.6406,639.1699 1663.2656,639.1699 Q1662.9219,639.1699 1662.7188,638.9668 Q1662.5156,638.7793 1662.4063,638.2637 Q1662.3594,637.9043 1662.1719,637.7168 Q1661.8438,637.3418 1661.2344,637.123 Q1660.625,636.9043 1660,636.9043 Q1659.2344,636.9043 1658.5938,637.2324 Q1657.9688,637.5605 1657.4688,638.3105 Q1656.9844,639.0605 1656.9844,640.0918 L1656.9844,641.1855 Q1656.9844,642.4199 1657.875,643.248 Q1658.7656,644.0605 1660.3594,644.0605 Q1661.2969,644.0605 1661.9531,643.8105 Q1662.3438,643.6543 1662.7656,643.2168 Q1663.0313,642.9512 1663.1719,642.873 Q1663.3281,642.7949 1663.5313,642.7949 Q1663.8594,642.7949 1664.1094,643.0605 Q1664.375,643.3105 1664.375,643.6543 Q1664.375,643.998 1664.0313,644.4043 Q1663.5313,644.9824 1662.7344,645.3105 Q1661.6563,645.7637 1660.3594,645.7637 Q1658.8438,645.7637 1657.6406,645.1387 Q1656.6563,644.6387 1655.9688,643.5762 Q1655.2813,642.498 1655.2813,641.2168 L1655.2813,640.0605 Q1655.2813,638.7324 1655.8906,637.5918 Q1656.5156,636.4355 1657.6094,635.8262 Q1658.7031,635.2012 1659.9375,635.2012 Q1660.6719,635.2012 1661.3125,635.373 Q1661.9688,635.5293 1662.5156,635.8887 Z " fill="#000000"/><text fill="#000000" font-family="sans-serif" font-size="14" lengthAdjust="spacing" textLength="70" x="1680.25" y="645.8105">Expedating</text><line style="stroke:#181818;stroke-width:0.5;" x1="1317.5" x2="2080.5" y1="656.0137" y2="656.0137"/><line style="stroke:#181818;stroke-width:0.5;" x1="1317.5" x2="2080.5" y1="664.0137" y2="664.0137"/><ellipse cx="1327.5" cy="678.8242" fill="#84BE84" rx="3" ry="3" style="stroke:#038048;stroke-width:1.0;"/><text fill="#000000" font-family="sans-serif" font-size="14" lengthAdjust="spacing" textLength="739" x="1336.5" y="683.1211">expedatingPath(List&lt;Cabaz&gt; auxList, Map&lt;Pessoa, TreeMap&lt;Integer, Map&lt;Produtos, Double&gt;&gt;&gt; clientsMap, int day)</text><ellipse cx="1327.5" cy="697.4453" fill="#84BE84" rx="3" ry="3" style="stroke:#038048;stroke-width:1.0;"/><text fill="#000000" font-family="sans-serif" font-size="14" lengthAdjust="spacing" textLength="149" x="1336.5" y="701.7422">getHubProximoCliente()</text><ellipse cx="1327.5" cy="716.0664" fill="#84BE84" rx="3" ry="3" style="stroke:#038048;stroke-width:1.0;"/><text fill="#000000" font-family="sans-serif" font-size="14" lengthAdjust="spacing" textLength="113" x="1336.5" y="720.3633">findAllProducers()</text><ellipse cx="1327.5" cy="734.6875" fill="#84BE84" rx="3" ry="3" style="stroke:#038048;stroke-width:1.0;"/><text fill="#000000" font-family="sans-serif" font-size="14" lengthAdjust="spacing" textLength="97" x="1336.5" y="738.9844">getMapGraph()</text><ellipse cx="1327.5" cy="753.3086" fill="#84BE84" rx="3" ry="3" style="stroke:#038048;stroke-width:1.0;"/><text fill="#000000" font-family="sans-serif" font-size="14" lengthAdjust="spacing" textLength="321" x="1336.5" y="757.6055">minDistGraph(graph, comparator, binaryOperator);</text></g><!--MD5=[2473181366ad82bea05d20fd8c7f64f7]
class FindMethods--><g id="elem_FindMethods"><rect codeLine="65" fill="#F1F1F1" height="66.6211" id="FindMethods" rx="2.5" ry="2.5" style="stroke:#181818;stroke-width:0.5;" width="139" x="1629.5" y="913.5137"/><ellipse cx="1655.75" cy="929.5137" fill="#ADD1B2" rx="11" ry="11" style="stroke:#181818;stroke-width:1.0;"/><path d="M1658.5156,925.3887 Q1658.6719,925.1699 1658.8594,925.0605 Q1659.0469,924.9512 1659.2656,924.9512 Q1659.6406,924.9512 1659.875,925.2168 Q1660.1094,925.4668 1660.1094,926.0762 L1660.1094,927.5293 Q1660.1094,928.1387 1659.875,928.4043 Q1659.6406,928.6699 1659.2656,928.6699 Q1658.9219,928.6699 1658.7188,928.4668 Q1658.5156,928.2793 1658.4063,927.7637 Q1658.3594,927.4043 1658.1719,927.2168 Q1657.8438,926.8418 1657.2344,926.623 Q1656.625,926.4043 1656,926.4043 Q1655.2344,926.4043 1654.5938,926.7324 Q1653.9688,927.0605 1653.4688,927.8105 Q1652.9844,928.5605 1652.9844,929.5918 L1652.9844,930.6855 Q1652.9844,931.9199 1653.875,932.748 Q1654.7656,933.5605 1656.3594,933.5605 Q1657.2969,933.5605 1657.9531,933.3105 Q1658.3438,933.1543 1658.7656,932.7168 Q1659.0313,932.4512 1659.1719,932.373 Q1659.3281,932.2949 1659.5313,932.2949 Q1659.8594,932.2949 1660.1094,932.5605 Q1660.375,932.8105 1660.375,933.1543 Q1660.375,933.498 1660.0313,933.9043 Q1659.5313,934.4824 1658.7344,934.8105 Q1657.6563,935.2637 1656.3594,935.2637 Q1654.8438,935.2637 1653.6406,934.6387 Q1652.6563,934.1387 1651.9688,933.0762 Q1651.2813,931.998 1651.2813,930.7168 L1651.2813,929.5605 Q1651.2813,928.2324 1651.8906,927.0918 Q1652.5156,925.9355 1653.6094,925.3262 Q1654.7031,924.7012 1655.9375,924.7012 Q1656.6719,924.7012 1657.3125,924.873 Q1657.9688,925.0293 1658.5156,925.3887 Z " fill="#000000"/><text fill="#000000" font-family="sans-serif" font-size="14" lengthAdjust="spacing" textLength="82" x="1672.25" y="935.3105">FindMethods</text><line style="stroke:#181818;stroke-width:0.5;" x1="1630.5" x2="1767.5" y1="945.5137" y2="945.5137"/><line style="stroke:#181818;stroke-width:0.5;" x1="1630.5" x2="1767.5" y1="953.5137" y2="953.5137"/><ellipse cx="1640.5" cy="968.3242" fill="#84BE84" rx="3" ry="3" style="stroke:#038048;stroke-width:1.0;"/><text fill="#000000" font-family="sans-serif" font-size="14" lengthAdjust="spacing" textLength="113" x="1649.5" y="972.6211">findAllProducers()</text></g><!--MD5=[66db75c6a90eee27ea57be2f28d34b97]
link Main to MenuUI--><g id="link_Main_MenuUI"><path codeLine="73" d="M453,190.7937 C453,208.5937 453,234.0437 453,257.8637 " fill="none" id="Main-to-MenuUI" style="stroke:#181818;stroke-width:1.0;stroke-dasharray:7.0,7.0;"/><polygon fill="#181818" points="453,262.9237,457,253.9237,453,257.9237,449,253.9237,453,262.9237" style="stroke:#181818;stroke-width:1.0;"/></g><!--MD5=[18b2adbec2d4d81fe2abb63fe9732443]
link MenuUI to MainController--><g id="link_MenuUI_MainController"><path codeLine="74" d="M519.08,385.1937 C549.06,412.4937 583.51,443.8737 609.4,467.4437 " fill="none" id="MenuUI-to-MainController" style="stroke:#181818;stroke-width:1.0;stroke-dasharray:7.0,7.0;"/><polygon fill="#181818" points="613.16,470.8737,609.219,461.8477,609.4707,467.4989,603.8194,467.7506,613.16,470.8737" style="stroke:#181818;stroke-width:1.0;"/></g><!--MD5=[dd87a104d068555fe39a48b0ae034cc9]
reverse link Company to MapStore--><g id="link_Company_MapStore"><path codeLine="75" d="M700.69,756.5237 C718.27,777.2937 738.01,800.6537 756,822.0137 C779.08,849.4137 804.97,880.2837 825.14,904.3637 " fill="none" id="Company-backto-MapStore" style="stroke:#181818;stroke-width:1.0;"/><polygon fill="#181818" points="692.26,746.5637,693.0867,753.7272,700.0172,755.7193,699.1905,748.5557,692.26,746.5637" style="stroke:#181818;stroke-width:1.0;"/><text fill="#000000" font-family="sans-serif" font-size="13" lengthAdjust="spacing" textLength="30" x="749" y="810.042">owns</text></g><!--MD5=[0fa0caec5f0123cfd629c24ba9ff0a7b]
reverse link Company to ExpedatingStore--><g id="link_Company_ExpedatingStore"><path codeLine="76" d="M580.7,755.5437 C542.73,788.9237 495,830.8737 454,866.9037 " fill="none" id="Company-backto-ExpedatingStore" style="stroke:#181818;stroke-width:1.0;"/><polygon fill="#181818" points="590.64,746.8137,583.4925,747.7692,581.6254,754.7344,588.7729,753.7789,590.64,746.8137" style="stroke:#181818;stroke-width:1.0;"/><text fill="#000000" font-family="sans-serif" font-size="13" lengthAdjust="spacing" textLength="30" x="534" y="810.042">owns</text></g><!--MD5=[42e5e3a5f5591e667f24dce403e7d467]
reverse link Company to MapGraphPessoaStore--><g id="link_Company_MapGraphPessoaStore"><path codeLine="77" d="M649,759.8837 C649,809.0337 649,874.7237 649,913.4937 " fill="none" id="Company-backto-MapGraphPessoaStore" style="stroke:#181818;stroke-width:1.0;"/><polygon fill="#181818" points="649,746.8137,645,752.8137,649,758.8137,653,752.8137,649,746.8137" style="stroke:#181818;stroke-width:1.0;"/><text fill="#000000" font-family="sans-serif" font-size="13" lengthAdjust="spacing" textLength="30" x="650" y="810.042">owns</text></g><!--MD5=[6466c02c70a565c5689553fda203fa28]
link MainController to Company--><g id="link_MainController_Company"><path codeLine="79" d="M649,538.2637 C649,565.5237 649,604.9537 649,637.2637 " fill="none" id="MainController-to-Company" style="stroke:#181818;stroke-width:1.0;stroke-dasharray:7.0,7.0;"/><polygon fill="#181818" points="649,642.3837,653,633.3837,649,637.3837,645,633.3837,649,642.3837" style="stroke:#181818;stroke-width:1.0;"/></g><!--MD5=[cb69cac3c331158e6db0401577dd68f6]
link MainController to Expedating--><g id="link_MainController_Expedating"><path codeLine="80" d="M716.28,517.5637 C835.12,538.8337 1090.5,584.5637 1311.14,624.0637 " fill="none" id="MainController-to-Expedating" style="stroke:#181818;stroke-width:1.0;stroke-dasharray:7.0,7.0;"/><polygon fill="#181818" points="1316.34,625.0037,1308.1894,619.4748,1311.4188,624.1193,1306.7744,627.3487,1316.34,625.0037" style="stroke:#181818;stroke-width:1.0;"/></g><!--MD5=[a35de08421d30c1d85c44d293ec5f6f9]
link Expedating to FindMethods--><g id="link_Expedating_FindMethods"><path codeLine="82" d="M1699,765.2937 C1699,811.3737 1699,870.0237 1699,907.7837 " fill="none" id="Expedating-to-FindMethods" style="stroke:#181818;stroke-width:1.0;stroke-dasharray:7.0,7.0;"/><polygon fill="#181818" points="1699,913.2037,1703,904.2037,1699,908.2037,1695,904.2037,1699,913.2037" style="stroke:#181818;stroke-width:1.0;"/></g><!--MD5=[53efdc18c7275a1f344935e991b6043a]
link Expedating to Algorithms--><g id="link_Expedating_Algorithms"><path codeLine="83" d="M1615.09,624.0037 C1478.13,510.5537 1211.39,289.6037 1107.18,203.2837 " fill="none" id="Expedating-to-Algorithms" style="stroke:#181818;stroke-width:1.0;stroke-dasharray:7.0,7.0;"/><polygon fill="#181818" points="1103.24,200.0237,1107.6159,208.847,1107.0893,203.2147,1112.7216,202.6881,1103.24,200.0237" style="stroke:#181818;stroke-width:1.0;"/></g><!--MD5=[e858fa81e7c1d0a09bc5a125d932caf4]
@startuml
package Main <<Folder>>#DDDDDD {
package Company <<Folder>>#DDDDDD {
package ui <<Folder>>#DDDDDD {
class Main
class MenuUI {
+expedatingForDayRestrictions(int day, int n)
+expedatingPath(List<Cabaz> auxList, Map<Pessoa, TreeMap<Integer, Map<Produtos, Double>>> clientsMap, int day)
+getExpedatingList()
+getcabazMap()
}
}

package Graph <<Folder>>#DDDDDD {
class Algorithms {
+minDistGraph(graph, comparator, binaryOperator)
}
}

package Controller <<Folder>>#DDDDDD {
class MainController {
+pathWay(int day)
}
}

package Store <<Folder>>#DDDDDD {
class ExpedatingStore {
+getHubProximoCliente()
+produtoresEachHub(int n)
+setExpedatingList(List<Cabaz> expedatingList)
+expedatingStore.getExpedatingList()
+expedatingStore.getHubProximoCliente()
+expedatingStore.getHubProximoCliente()
}



class MapGraphPessoaStore {
+getMapGraph()
}

class MapStore {
+getstockProdutorMap()
+getcabazMap()
}
}
package Model <<Folder>>#DDDDDD {
class Company {
+getStoreLists()
+getMapGraphPessoaStore
+getMapStore()
}
}
}

package Methods <<Folder>>#DDDDDD {
class Expedating {
+expedatingPath(List<Cabaz> auxList, Map<Pessoa, TreeMap<Integer, Map<Produtos, Double>>> clientsMap, int day)
+getHubProximoCliente()
+findAllProducers()
+getMapGraph()
+minDistGraph(graph, comparator, binaryOperator);

}

class FindMethods {
+findAllProducers()
}

}

}

Main ..> MenuUI
MenuUI ..> MainController
Company *- - MapStore : owns
Company *- - ExpedatingStore : owns
Company *- - MapGraphPessoaStore : owns

MainController ..> Company
MainController ..> Expedating

Expedating ..> FindMethods
Expedating ..> Algorithms



@enduml

PlantUML version 1.2022.13(Sat Nov 19 13:22:17 WET 2022)
(GPL source distribution)
Java Runtime: OpenJDK Runtime Environment
JVM: OpenJDK 64-Bit Server VM
Default Encoding: Cp1252
Language: pt
Country: PT
--></g></svg>