<?xml version="1.0" encoding="UTF-8" standalone="no"?><svg xmlns="http://www.w3.org/2000/svg" xmlns:xlink="http://www.w3.org/1999/xlink" contentStyleType="text/css" height="1576px" preserveAspectRatio="none" style="width:1488px;height:1576px;background:#FFFFFF;" version="1.1" viewBox="0 0 1488 1576" width="1488px" zoomAndPan="magnify"><defs/><g><!--MD5=[e9d6884d023c009175adb4285a573e02]
cluster java--><g id="cluster_java"><path d="M8.5,6 L38.5,6 A3.75,3.75 0 0 1 41,8.5 L48,27.6406 L1478.5,27.6406 A2.5,2.5 0 0 1 1481,30.1406 L1481,1566.5 A2.5,2.5 0 0 1 1478.5,1569 L8.5,1569 A2.5,2.5 0 0 1 6,1566.5 L6,8.5 A2.5,2.5 0 0 1 8.5,6 " fill="#DDDDDD" style="stroke:#000000;stroke-width:1.5;"/><line style="stroke:#000000;stroke-width:1.5;" x1="6" x2="48" y1="27.6406" y2="27.6406"/><text fill="#000000" font-family="sans-serif" font-size="14" font-weight="bold" lengthAdjust="spacing" textLength="29" x="10" y="20.6738">java</text></g><!--MD5=[66dd6d0a484290b46f8665dfa0e5de89]
cluster Company--><g id="cluster_Company"><path d="M32.5,48 L97.5,48 A3.75,3.75 0 0 1 100,50.5 L107,69.6406 L429.5,69.6406 A2.5,2.5 0 0 1 432,72.1406 L432,1136.5 A2.5,2.5 0 0 1 429.5,1139 L32.5,1139 A2.5,2.5 0 0 1 30,1136.5 L30,50.5 A2.5,2.5 0 0 1 32.5,48 " fill="#DDDDDD" style="stroke:#000000;stroke-width:1.5;"/><line style="stroke:#000000;stroke-width:1.5;" x1="30" x2="107" y1="69.6406" y2="69.6406"/><text fill="#000000" font-family="sans-serif" font-size="14" font-weight="bold" lengthAdjust="spacing" textLength="64" x="34" y="62.6738">Company</text></g><!--MD5=[b5049517b6d7dcb8cded630832036a0b]
cluster ReadFromCSV--><g id="cluster_ReadFromCSV"><path d="M56.5,610 L157.5,610 A3.75,3.75 0 0 1 160,612.5 L167,631.6406 L287.5,631.6406 A2.5,2.5 0 0 1 290,634.1406 L290,736.5 A2.5,2.5 0 0 1 287.5,739 L56.5,739 A2.5,2.5 0 0 1 54,736.5 L54,612.5 A2.5,2.5 0 0 1 56.5,610 " fill="#DDDDDD" style="stroke:#000000;stroke-width:1.5;"/><line style="stroke:#000000;stroke-width:1.5;" x1="54" x2="167" y1="631.6406" y2="631.6406"/><text fill="#000000" font-family="sans-serif" font-size="14" font-weight="bold" lengthAdjust="spacing" textLength="100" x="58" y="624.6738">ReadFromCSV</text></g><!--MD5=[1f2cfc53d9d308f53762fd0fcbaa4873]
cluster Controller--><g id="cluster_Controller"><path d="M110.5,362 L182.5,362 A3.75,3.75 0 0 1 185,364.5 L192,383.6406 L405.5,383.6406 A2.5,2.5 0 0 1 408,386.1406 L408,566.5 A2.5,2.5 0 0 1 405.5,569 L110.5,569 A2.5,2.5 0 0 1 108,566.5 L108,364.5 A2.5,2.5 0 0 1 110.5,362 " fill="#DDDDDD" style="stroke:#000000;stroke-width:1.5;"/><line style="stroke:#000000;stroke-width:1.5;" x1="108" x2="192" y1="383.6406" y2="383.6406"/><text fill="#000000" font-family="sans-serif" font-size="14" font-weight="bold" lengthAdjust="spacing" textLength="71" x="112" y="376.6738">Controller</text></g><!--MD5=[64e2e010ba86d7988e5cd73bd64f61f9]
cluster ui--><g id="cluster_ui"><path d="M180.5,90 L194.5,90 A3.75,3.75 0 0 1 197,92.5 L204,111.6406 L335.5,111.6406 A2.5,2.5 0 0 1 338,114.1406 L338,326.5 A2.5,2.5 0 0 1 335.5,329 L180.5,329 A2.5,2.5 0 0 1 178,326.5 L178,92.5 A2.5,2.5 0 0 1 180.5,90 " fill="#DDDDDD" style="stroke:#000000;stroke-width:1.5;"/><line style="stroke:#000000;stroke-width:1.5;" x1="178" x2="204" y1="111.6406" y2="111.6406"/><text fill="#000000" font-family="sans-serif" font-size="14" font-weight="bold" lengthAdjust="spacing" textLength="13" x="182" y="104.6738">ui</text></g><!--MD5=[15636c1ca4a123c16a2a1a8e90aca7a9]
cluster Model--><g id="cluster_Model"><path d="M56.5,795 L101.5,795 A3.75,3.75 0 0 1 104,797.5 L111,816.6406 L405.5,816.6406 A2.5,2.5 0 0 1 408,819.1406 L408,1112.5 A2.5,2.5 0 0 1 405.5,1115 L56.5,1115 A2.5,2.5 0 0 1 54,1112.5 L54,797.5 A2.5,2.5 0 0 1 56.5,795 " fill="#DDDDDD" style="stroke:#000000;stroke-width:1.5;"/><line style="stroke:#000000;stroke-width:1.5;" x1="54" x2="111" y1="816.6406" y2="816.6406"/><text fill="#000000" font-family="sans-serif" font-size="14" font-weight="bold" lengthAdjust="spacing" textLength="44" x="58" y="809.6738">Model</text></g><!--MD5=[7ce1723ddb6e6233854253973eae5a71]
cluster Store--><g id="cluster_Store"><path d="M458.5,970 L497.5,970 A3.75,3.75 0 0 1 500,972.5 L507,991.6406 L932.5,991.6406 A2.5,2.5 0 0 1 935,994.1406 L935,1159.5 A2.5,2.5 0 0 1 932.5,1162 L458.5,1162 A2.5,2.5 0 0 1 456,1159.5 L456,972.5 A2.5,2.5 0 0 1 458.5,970 " fill="#DDDDDD" style="stroke:#000000;stroke-width:1.5;"/><line style="stroke:#000000;stroke-width:1.5;" x1="456" x2="507" y1="991.6406" y2="991.6406"/><text fill="#000000" font-family="sans-serif" font-size="14" font-weight="bold" lengthAdjust="spacing" textLength="38" x="460" y="984.6738">Store</text></g><!--MD5=[c0a55fc040d4de26ef61760e050063db]
cluster Graph--><g id="cluster_Graph"><path d="M97.5,1210 L141.5,1210 A3.75,3.75 0 0 1 144,1212.5 L151,1231.6406 L1454.5,1231.6406 A2.5,2.5 0 0 1 1457,1234.1406 L1457,1542.5 A2.5,2.5 0 0 1 1454.5,1545 L97.5,1545 A2.5,2.5 0 0 1 95,1542.5 L95,1212.5 A2.5,2.5 0 0 1 97.5,1210 " fill="#DDDDDD" style="stroke:#000000;stroke-width:1.5;"/><line style="stroke:#000000;stroke-width:1.5;" x1="95" x2="151" y1="1231.6406" y2="1231.6406"/><text fill="#000000" font-family="sans-serif" font-size="14" font-weight="bold" lengthAdjust="spacing" textLength="43" x="99" y="1224.6738">Graph</text></g><!--MD5=[c670268a59e1f2fa2e9d3e232bc65e6c]
cluster map--><g id="cluster_map"><path d="M464.5,1252 L494.5,1252 A3.75,3.75 0 0 1 497,1254.5 L504,1273.6406 L847.5,1273.6406 A2.5,2.5 0 0 1 850,1276.1406 L850,1394.5 A2.5,2.5 0 0 1 847.5,1397 L464.5,1397 A2.5,2.5 0 0 1 462,1394.5 L462,1254.5 A2.5,2.5 0 0 1 464.5,1252 " fill="#DDDDDD" style="stroke:#000000;stroke-width:1.5;"/><line style="stroke:#000000;stroke-width:1.5;" x1="462" x2="504" y1="1273.6406" y2="1273.6406"/><text fill="#000000" font-family="sans-serif" font-size="14" font-weight="bold" lengthAdjust="spacing" textLength="29" x="466" y="1266.6738">map</text></g><!--MD5=[5e76f22326bcb47477de973d3b6e6f99]
cluster Constants--><g id="cluster_Constants"><path d="M876.5,1275.5 L948.5,1275.5 A3.75,3.75 0 0 1 951,1278 L958,1297.1406 L999.5,1297.1406 A2.5,2.5 0 0 1 1002,1299.6406 L1002,1371 A2.5,2.5 0 0 1 999.5,1373.5 L876.5,1373.5 A2.5,2.5 0 0 1 874,1371 L874,1278 A2.5,2.5 0 0 1 876.5,1275.5 " fill="#DDDDDD" style="stroke:#000000;stroke-width:1.5;"/><line style="stroke:#000000;stroke-width:1.5;" x1="874" x2="958" y1="1297.1406" y2="1297.1406"/><text fill="#000000" font-family="sans-serif" font-size="14" font-weight="bold" lengthAdjust="spacing" textLength="71" x="878" y="1290.1738">Constants</text></g><!--MD5=[b792253f46c87a5be23eaae1b68e2912]
cluster Methods--><g id="cluster_Methods"><path d="M458.5,602 L521.5,602 A3.75,3.75 0 0 1 524,604.5 L531,623.6406 L1180.5,623.6406 A2.5,2.5 0 0 1 1183,626.1406 L1183,744.5 A2.5,2.5 0 0 1 1180.5,747 L458.5,747 A2.5,2.5 0 0 1 456,744.5 L456,604.5 A2.5,2.5 0 0 1 458.5,602 " fill="#DDDDDD" style="stroke:#000000;stroke-width:1.5;"/><line style="stroke:#000000;stroke-width:1.5;" x1="456" x2="531" y1="623.6406" y2="623.6406"/><text fill="#000000" font-family="sans-serif" font-size="14" font-weight="bold" lengthAdjust="spacing" textLength="62" x="460" y="616.6738">Methods</text></g><!--MD5=[3d4177ac58b4411586d067f34e84928f]
class List--><g id="elem_List"><rect fill="#F1F1F1" height="48" id="List" rx="2.5" ry="2.5" style="stroke:#181818;stroke-width:0.5;" width="54" x="22" y="1309.5"/><ellipse cx="37" cy="1325.5" fill="#ADD1B2" rx="11" ry="11" style="stroke:#181818;stroke-width:1.0;"/><path d="M39.7656,1321.375 Q39.9219,1321.1563 40.1094,1321.0469 Q40.2969,1320.9375 40.5156,1320.9375 Q40.8906,1320.9375 41.125,1321.2031 Q41.3594,1321.4531 41.3594,1322.0625 L41.3594,1323.5156 Q41.3594,1324.125 41.125,1324.3906 Q40.8906,1324.6563 40.5156,1324.6563 Q40.1719,1324.6563 39.9688,1324.4531 Q39.7656,1324.2656 39.6563,1323.75 Q39.6094,1323.3906 39.4219,1323.2031 Q39.0938,1322.8281 38.4844,1322.6094 Q37.875,1322.3906 37.25,1322.3906 Q36.4844,1322.3906 35.8438,1322.7188 Q35.2188,1323.0469 34.7188,1323.7969 Q34.2344,1324.5469 34.2344,1325.5781 L34.2344,1326.6719 Q34.2344,1327.9063 35.125,1328.7344 Q36.0156,1329.5469 37.6094,1329.5469 Q38.5469,1329.5469 39.2031,1329.2969 Q39.5938,1329.1406 40.0156,1328.7031 Q40.2813,1328.4375 40.4219,1328.3594 Q40.5781,1328.2813 40.7813,1328.2813 Q41.1094,1328.2813 41.3594,1328.5469 Q41.625,1328.7969 41.625,1329.1406 Q41.625,1329.4844 41.2813,1329.8906 Q40.7813,1330.4688 39.9844,1330.7969 Q38.9063,1331.25 37.6094,1331.25 Q36.0938,1331.25 34.8906,1330.625 Q33.9063,1330.125 33.2188,1329.0625 Q32.5313,1327.9844 32.5313,1326.7031 L32.5313,1325.5469 Q32.5313,1324.2188 33.1406,1323.0781 Q33.7656,1321.9219 34.8594,1321.3125 Q35.9531,1320.6875 37.1875,1320.6875 Q37.9219,1320.6875 38.5625,1320.8594 Q39.2188,1321.0156 39.7656,1321.375 Z " fill="#000000"/><text fill="#000000" font-family="sans-serif" font-size="14" lengthAdjust="spacing" textLength="22" x="51" y="1330.3535">List</text><line style="stroke:#181818;stroke-width:0.5;" x1="23" x2="75" y1="1341.5" y2="1341.5"/><line style="stroke:#181818;stroke-width:0.5;" x1="23" x2="75" y1="1349.5" y2="1349.5"/></g><!--MD5=[d1fc9cf33382556d71f6fa515a0cba10]
class ReadFromCSV--><g id="elem_ReadFromCSV"><rect codeLine="6" fill="#F1F1F1" height="79.2813" id="ReadFromCSV" rx="2.5" ry="2.5" style="stroke:#181818;stroke-width:0.5;" width="204" x="70" y="644"/><ellipse cx="120.25" cy="660" fill="#ADD1B2" rx="11" ry="11" style="stroke:#181818;stroke-width:1.0;"/><path d="M123.0156,655.875 Q123.1719,655.6563 123.3594,655.5469 Q123.5469,655.4375 123.7656,655.4375 Q124.1406,655.4375 124.375,655.7031 Q124.6094,655.9531 124.6094,656.5625 L124.6094,658.0156 Q124.6094,658.625 124.375,658.8906 Q124.1406,659.1563 123.7656,659.1563 Q123.4219,659.1563 123.2188,658.9531 Q123.0156,658.7656 122.9063,658.25 Q122.8594,657.8906 122.6719,657.7031 Q122.3438,657.3281 121.7344,657.1094 Q121.125,656.8906 120.5,656.8906 Q119.7344,656.8906 119.0938,657.2188 Q118.4688,657.5469 117.9688,658.2969 Q117.4844,659.0469 117.4844,660.0781 L117.4844,661.1719 Q117.4844,662.4063 118.375,663.2344 Q119.2656,664.0469 120.8594,664.0469 Q121.7969,664.0469 122.4531,663.7969 Q122.8438,663.6406 123.2656,663.2031 Q123.5313,662.9375 123.6719,662.8594 Q123.8281,662.7813 124.0313,662.7813 Q124.3594,662.7813 124.6094,663.0469 Q124.875,663.2969 124.875,663.6406 Q124.875,663.9844 124.5313,664.3906 Q124.0313,664.9688 123.2344,665.2969 Q122.1563,665.75 120.8594,665.75 Q119.3438,665.75 118.1406,665.125 Q117.1563,664.625 116.4688,663.5625 Q115.7813,662.4844 115.7813,661.2031 L115.7813,660.0469 Q115.7813,658.7188 116.3906,657.5781 Q117.0156,656.4219 118.1094,655.8125 Q119.2031,655.1875 120.4375,655.1875 Q121.1719,655.1875 121.8125,655.3594 Q122.4688,655.5156 123.0156,655.875 Z " fill="#000000"/><text fill="#000000" font-family="sans-serif" font-size="14" lengthAdjust="spacing" textLength="95" x="140.75" y="664.8535">ReadFromCSV</text><line style="stroke:#181818;stroke-width:0.5;" x1="71" x2="273" y1="676" y2="676"/><line style="stroke:#181818;stroke-width:0.5;" x1="71" x2="273" y1="684" y2="684"/><ellipse cx="81" cy="697.3203" fill="#84BE84" rx="3" ry="3" style="stroke:#038048;stroke-width:1.0;"/><text fill="#000000" font-family="sans-serif" font-size="14" lengthAdjust="spacing" textLength="178" x="90" y="700.6738">lerClienteProdutor(caminho)</text><ellipse cx="81" cy="712.9609" fill="#84BE84" rx="3" ry="3" style="stroke:#038048;stroke-width:1.0;"/><text fill="#000000" font-family="sans-serif" font-size="14" lengthAdjust="spacing" textLength="144" x="90" y="716.3145">lerDistancias(caminho)</text></g><!--MD5=[0278646e5a3f51edb25d463fe8c5bfab]
class MainController--><g id="elem_MainController"><rect codeLine="13" fill="#F1F1F1" height="157.4844" id="MainController" rx="2.5" ry="2.5" style="stroke:#181818;stroke-width:0.5;" width="268" x="124" y="396"/><ellipse cx="207.75" cy="412" fill="#ADD1B2" rx="11" ry="11" style="stroke:#181818;stroke-width:1.0;"/><path d="M210.5156,407.875 Q210.6719,407.6563 210.8594,407.5469 Q211.0469,407.4375 211.2656,407.4375 Q211.6406,407.4375 211.875,407.7031 Q212.1094,407.9531 212.1094,408.5625 L212.1094,410.0156 Q212.1094,410.625 211.875,410.8906 Q211.6406,411.1563 211.2656,411.1563 Q210.9219,411.1563 210.7188,410.9531 Q210.5156,410.7656 210.4063,410.25 Q210.3594,409.8906 210.1719,409.7031 Q209.8438,409.3281 209.2344,409.1094 Q208.625,408.8906 208,408.8906 Q207.2344,408.8906 206.5938,409.2188 Q205.9688,409.5469 205.4688,410.2969 Q204.9844,411.0469 204.9844,412.0781 L204.9844,413.1719 Q204.9844,414.4063 205.875,415.2344 Q206.7656,416.0469 208.3594,416.0469 Q209.2969,416.0469 209.9531,415.7969 Q210.3438,415.6406 210.7656,415.2031 Q211.0313,414.9375 211.1719,414.8594 Q211.3281,414.7813 211.5313,414.7813 Q211.8594,414.7813 212.1094,415.0469 Q212.375,415.2969 212.375,415.6406 Q212.375,415.9844 212.0313,416.3906 Q211.5313,416.9688 210.7344,417.2969 Q209.6563,417.75 208.3594,417.75 Q206.8438,417.75 205.6406,417.125 Q204.6563,416.625 203.9688,415.5625 Q203.2813,414.4844 203.2813,413.2031 L203.2813,412.0469 Q203.2813,410.7188 203.8906,409.5781 Q204.5156,408.4219 205.6094,407.8125 Q206.7031,407.1875 207.9375,407.1875 Q208.6719,407.1875 209.3125,407.3594 Q209.9688,407.5156 210.5156,407.875 Z " fill="#000000"/><text fill="#000000" font-family="sans-serif" font-size="14" lengthAdjust="spacing" textLength="92" x="228.25" y="416.8535">MainController</text><line style="stroke:#181818;stroke-width:0.5;" x1="125" x2="391" y1="428" y2="428"/><line style="stroke:#181818;stroke-width:0.5;" x1="125" x2="391" y1="436" y2="436"/><ellipse cx="135" cy="449.3203" fill="#84BE84" rx="3" ry="3" style="stroke:#038048;stroke-width:1.0;"/><text fill="#000000" font-family="sans-serif" font-size="14" lengthAdjust="spacing" textLength="242" x="144" y="452.6738">lerClienteProdutor(fileName.getPath())</text><ellipse cx="135" cy="464.9609" fill="#84BE84" rx="3" ry="3" style="stroke:#038048;stroke-width:1.0;"/><text fill="#000000" font-family="sans-serif" font-size="14" lengthAdjust="spacing" textLength="208" x="144" y="468.3145">lerDistancias(fileName.getPath())</text><ellipse cx="135" cy="480.6016" fill="#84BE84" rx="3" ry="3" style="stroke:#038048;stroke-width:1.0;"/><text fill="#000000" font-family="sans-serif" font-size="14" lengthAdjust="spacing" textLength="90" x="144" y="483.9551">createGraph()</text><ellipse cx="135" cy="496.2422" fill="#84BE84" rx="3" ry="3" style="stroke:#038048;stroke-width:1.0;"/><text fill="#000000" font-family="sans-serif" font-size="14" lengthAdjust="spacing" textLength="163" x="144" y="499.5957">setMapGraph(MapGraph)</text><ellipse cx="135" cy="511.8828" fill="#84BE84" rx="3" ry="3" style="stroke:#038048;stroke-width:1.0;"/><text fill="#000000" font-family="sans-serif" font-size="14" lengthAdjust="spacing" textLength="211" x="144" y="515.2363">findVertexWithMinimumDistance()</text><ellipse cx="135" cy="527.5234" fill="#84BE84" rx="3" ry="3" style="stroke:#038048;stroke-width:1.0;"/><text fill="#000000" font-family="sans-serif" font-size="14" lengthAdjust="spacing" textLength="175" x="144" y="530.877">findNearestHubEachClient()</text><ellipse cx="135" cy="543.1641" fill="#84BE84" rx="3" ry="3" style="stroke:#038048;stroke-width:1.0;"/><text fill="#000000" font-family="sans-serif" font-size="14" lengthAdjust="spacing" textLength="107" x="144" y="546.5176">findNearestHub()</text></g><!--MD5=[02de039990bbea028db2518876dfca25]
class MenuUI--><g id="elem_MenuUI"><rect codeLine="26" fill="#F1F1F1" height="63.6406" id="MenuUI" rx="2.5" ry="2.5" style="stroke:#181818;stroke-width:0.5;" width="128" x="194" y="249"/><ellipse cx="231.05" cy="265" fill="#ADD1B2" rx="11" ry="11" style="stroke:#181818;stroke-width:1.0;"/><path d="M233.8156,260.875 Q233.9719,260.6563 234.1594,260.5469 Q234.3469,260.4375 234.5656,260.4375 Q234.9406,260.4375 235.175,260.7031 Q235.4094,260.9531 235.4094,261.5625 L235.4094,263.0156 Q235.4094,263.625 235.175,263.8906 Q234.9406,264.1563 234.5656,264.1563 Q234.2219,264.1563 234.0188,263.9531 Q233.8156,263.7656 233.7063,263.25 Q233.6594,262.8906 233.4719,262.7031 Q233.1438,262.3281 232.5344,262.1094 Q231.925,261.8906 231.3,261.8906 Q230.5344,261.8906 229.8938,262.2188 Q229.2688,262.5469 228.7688,263.2969 Q228.2844,264.0469 228.2844,265.0781 L228.2844,266.1719 Q228.2844,267.4063 229.175,268.2344 Q230.0656,269.0469 231.6594,269.0469 Q232.5969,269.0469 233.2531,268.7969 Q233.6438,268.6406 234.0656,268.2031 Q234.3313,267.9375 234.4719,267.8594 Q234.6281,267.7813 234.8313,267.7813 Q235.1594,267.7813 235.4094,268.0469 Q235.675,268.2969 235.675,268.6406 Q235.675,268.9844 235.3313,269.3906 Q234.8313,269.9688 234.0344,270.2969 Q232.9563,270.75 231.6594,270.75 Q230.1438,270.75 228.9406,270.125 Q227.9563,269.625 227.2688,268.5625 Q226.5813,267.4844 226.5813,266.2031 L226.5813,265.0469 Q226.5813,263.7188 227.1906,262.5781 Q227.8156,261.4219 228.9094,260.8125 Q230.0031,260.1875 231.2375,260.1875 Q231.9719,260.1875 232.6125,260.3594 Q233.2688,260.5156 233.8156,260.875 Z " fill="#000000"/><text fill="#000000" font-family="sans-serif" font-size="14" lengthAdjust="spacing" textLength="47" x="249.95" y="269.8535">MenuUI</text><line style="stroke:#181818;stroke-width:0.5;" x1="195" x2="321" y1="281" y2="281"/><line style="stroke:#181818;stroke-width:0.5;" x1="195" x2="321" y1="289" y2="289"/><ellipse cx="205" cy="302.3203" fill="#84BE84" rx="3" ry="3" style="stroke:#038048;stroke-width:1.0;"/><text fill="#000000" font-family="sans-serif" font-size="14" lengthAdjust="spacing" textLength="102" x="214" y="305.6738">MainController()</text></g><!--MD5=[84718776d214be480e4c259efcb737fc]
class Main--><g id="elem_Main"><rect codeLine="30" fill="#F1F1F1" height="63.6406" id="Main" rx="2.5" ry="2.5" style="stroke:#181818;stroke-width:0.5;" width="83" x="216.5" y="124"/><ellipse cx="240.95" cy="140" fill="#ADD1B2" rx="11" ry="11" style="stroke:#181818;stroke-width:1.0;"/><path d="M243.7156,135.875 Q243.8719,135.6563 244.0594,135.5469 Q244.2469,135.4375 244.4656,135.4375 Q244.8406,135.4375 245.075,135.7031 Q245.3094,135.9531 245.3094,136.5625 L245.3094,138.0156 Q245.3094,138.625 245.075,138.8906 Q244.8406,139.1563 244.4656,139.1563 Q244.1219,139.1563 243.9188,138.9531 Q243.7156,138.7656 243.6063,138.25 Q243.5594,137.8906 243.3719,137.7031 Q243.0438,137.3281 242.4344,137.1094 Q241.825,136.8906 241.2,136.8906 Q240.4344,136.8906 239.7938,137.2188 Q239.1688,137.5469 238.6688,138.2969 Q238.1844,139.0469 238.1844,140.0781 L238.1844,141.1719 Q238.1844,142.4063 239.075,143.2344 Q239.9656,144.0469 241.5594,144.0469 Q242.4969,144.0469 243.1531,143.7969 Q243.5438,143.6406 243.9656,143.2031 Q244.2313,142.9375 244.3719,142.8594 Q244.5281,142.7813 244.7313,142.7813 Q245.0594,142.7813 245.3094,143.0469 Q245.575,143.2969 245.575,143.6406 Q245.575,143.9844 245.2313,144.3906 Q244.7313,144.9688 243.9344,145.2969 Q242.8563,145.75 241.5594,145.75 Q240.0438,145.75 238.8406,145.125 Q237.8563,144.625 237.1688,143.5625 Q236.4813,142.4844 236.4813,141.2031 L236.4813,140.0469 Q236.4813,138.7188 237.0906,137.5781 Q237.7156,136.4219 238.8094,135.8125 Q239.9031,135.1875 241.1375,135.1875 Q241.8719,135.1875 242.5125,135.3594 Q243.1688,135.5156 243.7156,135.875 Z " fill="#000000"/><text fill="#000000" font-family="sans-serif" font-size="14" lengthAdjust="spacing" textLength="30" x="257.05" y="144.8535">Main</text><line style="stroke:#181818;stroke-width:0.5;" x1="217.5" x2="298.5" y1="156" y2="156"/><line style="stroke:#181818;stroke-width:0.5;" x1="217.5" x2="298.5" y1="164" y2="164"/><ellipse cx="227.5" cy="177.3203" fill="#84BE84" rx="3" ry="3" style="stroke:#038048;stroke-width:1.0;"/><text fill="#000000" font-family="sans-serif" font-size="14" lengthAdjust="spacing" textLength="57" x="236.5" y="180.6738">MenuUI()</text></g><!--MD5=[02e4b9b7573f1156f41e60aa5b4e25a4]
class Company--><g id="elem_Company"><rect codeLine="37" fill="#F1F1F1" height="79.2813" id="Company" rx="2.5" ry="2.5" style="stroke:#181818;stroke-width:0.5;" width="204" x="188" y="829"/><ellipse cx="255.75" cy="845" fill="#ADD1B2" rx="11" ry="11" style="stroke:#181818;stroke-width:1.0;"/><path d="M258.5156,840.875 Q258.6719,840.6563 258.8594,840.5469 Q259.0469,840.4375 259.2656,840.4375 Q259.6406,840.4375 259.875,840.7031 Q260.1094,840.9531 260.1094,841.5625 L260.1094,843.0156 Q260.1094,843.625 259.875,843.8906 Q259.6406,844.1563 259.2656,844.1563 Q258.9219,844.1563 258.7188,843.9531 Q258.5156,843.7656 258.4063,843.25 Q258.3594,842.8906 258.1719,842.7031 Q257.8438,842.3281 257.2344,842.1094 Q256.625,841.8906 256,841.8906 Q255.2344,841.8906 254.5938,842.2188 Q253.9688,842.5469 253.4688,843.2969 Q252.9844,844.0469 252.9844,845.0781 L252.9844,846.1719 Q252.9844,847.4063 253.875,848.2344 Q254.7656,849.0469 256.3594,849.0469 Q257.2969,849.0469 257.9531,848.7969 Q258.3438,848.6406 258.7656,848.2031 Q259.0313,847.9375 259.1719,847.8594 Q259.3281,847.7813 259.5313,847.7813 Q259.8594,847.7813 260.1094,848.0469 Q260.375,848.2969 260.375,848.6406 Q260.375,848.9844 260.0313,849.3906 Q259.5313,849.9688 258.7344,850.2969 Q257.6563,850.75 256.3594,850.75 Q254.8438,850.75 253.6406,850.125 Q252.6563,849.625 251.9688,848.5625 Q251.2813,847.4844 251.2813,846.2031 L251.2813,845.0469 Q251.2813,843.7188 251.8906,842.5781 Q252.5156,841.4219 253.6094,840.8125 Q254.7031,840.1875 255.9375,840.1875 Q256.6719,840.1875 257.3125,840.3594 Q257.9688,840.5156 258.5156,840.875 Z " fill="#000000"/><text fill="#000000" font-family="sans-serif" font-size="14" lengthAdjust="spacing" textLength="60" x="276.25" y="849.8535">Company</text><line style="stroke:#181818;stroke-width:0.5;" x1="189" x2="391" y1="861" y2="861"/><line style="stroke:#181818;stroke-width:0.5;" x1="189" x2="391" y1="869" y2="869"/><ellipse cx="199" cy="882.3203" fill="#84BE84" rx="3" ry="3" style="stroke:#038048;stroke-width:1.0;"/><text fill="#000000" font-family="sans-serif" font-size="14" lengthAdjust="spacing" textLength="93" x="208" y="885.6738">getStoreLists()</text><ellipse cx="199" cy="897.9609" fill="#84BE84" rx="3" ry="3" style="stroke:#038048;stroke-width:1.0;"/><text fill="#000000" font-family="sans-serif" font-size="14" lengthAdjust="spacing" textLength="178" x="208" y="901.3145">getMapGraphPessoaStore()</text></g><!--MD5=[ec4e9ac521a71f7b069122f6baf1b57e]
class Pessoa--><g id="elem_Pessoa"><rect codeLine="41" fill="#F1F1F1" height="48" id="Pessoa" rx="2.5" ry="2.5" style="stroke:#181818;stroke-width:0.5;" width="79" x="73.5" y="844.5"/><ellipse cx="88.5" cy="860.5" fill="#ADD1B2" rx="11" ry="11" style="stroke:#181818;stroke-width:1.0;"/><path d="M91.2656,856.375 Q91.4219,856.1563 91.6094,856.0469 Q91.7969,855.9375 92.0156,855.9375 Q92.3906,855.9375 92.625,856.2031 Q92.8594,856.4531 92.8594,857.0625 L92.8594,858.5156 Q92.8594,859.125 92.625,859.3906 Q92.3906,859.6563 92.0156,859.6563 Q91.6719,859.6563 91.4688,859.4531 Q91.2656,859.2656 91.1563,858.75 Q91.1094,858.3906 90.9219,858.2031 Q90.5938,857.8281 89.9844,857.6094 Q89.375,857.3906 88.75,857.3906 Q87.9844,857.3906 87.3438,857.7188 Q86.7188,858.0469 86.2188,858.7969 Q85.7344,859.5469 85.7344,860.5781 L85.7344,861.6719 Q85.7344,862.9063 86.625,863.7344 Q87.5156,864.5469 89.1094,864.5469 Q90.0469,864.5469 90.7031,864.2969 Q91.0938,864.1406 91.5156,863.7031 Q91.7813,863.4375 91.9219,863.3594 Q92.0781,863.2813 92.2813,863.2813 Q92.6094,863.2813 92.8594,863.5469 Q93.125,863.7969 93.125,864.1406 Q93.125,864.4844 92.7813,864.8906 Q92.2813,865.4688 91.4844,865.7969 Q90.4063,866.25 89.1094,866.25 Q87.5938,866.25 86.3906,865.625 Q85.4063,865.125 84.7188,864.0625 Q84.0313,862.9844 84.0313,861.7031 L84.0313,860.5469 Q84.0313,859.2188 84.6406,858.0781 Q85.2656,856.9219 86.3594,856.3125 Q87.4531,855.6875 88.6875,855.6875 Q89.4219,855.6875 90.0625,855.8594 Q90.7188,856.0156 91.2656,856.375 Z " fill="#000000"/><text fill="#000000" font-family="sans-serif" font-size="14" lengthAdjust="spacing" textLength="47" x="102.5" y="865.3535">Pessoa</text><line style="stroke:#181818;stroke-width:0.5;" x1="74.5" x2="151.5" y1="876.5" y2="876.5"/><line style="stroke:#181818;stroke-width:0.5;" x1="74.5" x2="151.5" y1="884.5" y2="884.5"/></g><!--MD5=[7d0e5ddd73bd8fec86b8967827845935]
class Empresa--><g id="elem_Empresa"><rect codeLine="43" fill="#F1F1F1" height="48" id="Empresa" rx="2.5" ry="2.5" style="stroke:#181818;stroke-width:0.5;" width="88" x="70" y="1051"/><ellipse cx="85" cy="1067" fill="#ADD1B2" rx="11" ry="11" style="stroke:#181818;stroke-width:1.0;"/><path d="M87.7656,1062.875 Q87.9219,1062.6563 88.1094,1062.5469 Q88.2969,1062.4375 88.5156,1062.4375 Q88.8906,1062.4375 89.125,1062.7031 Q89.3594,1062.9531 89.3594,1063.5625 L89.3594,1065.0156 Q89.3594,1065.625 89.125,1065.8906 Q88.8906,1066.1563 88.5156,1066.1563 Q88.1719,1066.1563 87.9688,1065.9531 Q87.7656,1065.7656 87.6563,1065.25 Q87.6094,1064.8906 87.4219,1064.7031 Q87.0938,1064.3281 86.4844,1064.1094 Q85.875,1063.8906 85.25,1063.8906 Q84.4844,1063.8906 83.8438,1064.2188 Q83.2188,1064.5469 82.7188,1065.2969 Q82.2344,1066.0469 82.2344,1067.0781 L82.2344,1068.1719 Q82.2344,1069.4063 83.125,1070.2344 Q84.0156,1071.0469 85.6094,1071.0469 Q86.5469,1071.0469 87.2031,1070.7969 Q87.5938,1070.6406 88.0156,1070.2031 Q88.2813,1069.9375 88.4219,1069.8594 Q88.5781,1069.7813 88.7813,1069.7813 Q89.1094,1069.7813 89.3594,1070.0469 Q89.625,1070.2969 89.625,1070.6406 Q89.625,1070.9844 89.2813,1071.3906 Q88.7813,1071.9688 87.9844,1072.2969 Q86.9063,1072.75 85.6094,1072.75 Q84.0938,1072.75 82.8906,1072.125 Q81.9063,1071.625 81.2188,1070.5625 Q80.5313,1069.4844 80.5313,1068.2031 L80.5313,1067.0469 Q80.5313,1065.7188 81.1406,1064.5781 Q81.7656,1063.4219 82.8594,1062.8125 Q83.9531,1062.1875 85.1875,1062.1875 Q85.9219,1062.1875 86.5625,1062.3594 Q87.2188,1062.5156 87.7656,1062.875 Z " fill="#000000"/><text fill="#000000" font-family="sans-serif" font-size="14" lengthAdjust="spacing" textLength="56" x="99" y="1071.8535">Empresa</text><line style="stroke:#181818;stroke-width:0.5;" x1="71" x2="157" y1="1083" y2="1083"/><line style="stroke:#181818;stroke-width:0.5;" x1="71" x2="157" y1="1091" y2="1091"/></g><!--MD5=[20a748d5ee336a9a91751b0a3d4f0beb]
class Cliente--><g id="elem_Cliente"><rect codeLine="45" fill="#F1F1F1" height="48" id="Cliente" rx="2.5" ry="2.5" style="stroke:#181818;stroke-width:0.5;" width="76" x="193" y="1051"/><ellipse cx="208" cy="1067" fill="#ADD1B2" rx="11" ry="11" style="stroke:#181818;stroke-width:1.0;"/><path d="M210.7656,1062.875 Q210.9219,1062.6563 211.1094,1062.5469 Q211.2969,1062.4375 211.5156,1062.4375 Q211.8906,1062.4375 212.125,1062.7031 Q212.3594,1062.9531 212.3594,1063.5625 L212.3594,1065.0156 Q212.3594,1065.625 212.125,1065.8906 Q211.8906,1066.1563 211.5156,1066.1563 Q211.1719,1066.1563 210.9688,1065.9531 Q210.7656,1065.7656 210.6563,1065.25 Q210.6094,1064.8906 210.4219,1064.7031 Q210.0938,1064.3281 209.4844,1064.1094 Q208.875,1063.8906 208.25,1063.8906 Q207.4844,1063.8906 206.8438,1064.2188 Q206.2188,1064.5469 205.7188,1065.2969 Q205.2344,1066.0469 205.2344,1067.0781 L205.2344,1068.1719 Q205.2344,1069.4063 206.125,1070.2344 Q207.0156,1071.0469 208.6094,1071.0469 Q209.5469,1071.0469 210.2031,1070.7969 Q210.5938,1070.6406 211.0156,1070.2031 Q211.2813,1069.9375 211.4219,1069.8594 Q211.5781,1069.7813 211.7813,1069.7813 Q212.1094,1069.7813 212.3594,1070.0469 Q212.625,1070.2969 212.625,1070.6406 Q212.625,1070.9844 212.2813,1071.3906 Q211.7813,1071.9688 210.9844,1072.2969 Q209.9063,1072.75 208.6094,1072.75 Q207.0938,1072.75 205.8906,1072.125 Q204.9063,1071.625 204.2188,1070.5625 Q203.5313,1069.4844 203.5313,1068.2031 L203.5313,1067.0469 Q203.5313,1065.7188 204.1406,1064.5781 Q204.7656,1063.4219 205.8594,1062.8125 Q206.9531,1062.1875 208.1875,1062.1875 Q208.9219,1062.1875 209.5625,1062.3594 Q210.2188,1062.5156 210.7656,1062.875 Z " fill="#000000"/><text fill="#000000" font-family="sans-serif" font-size="14" lengthAdjust="spacing" textLength="44" x="222" y="1071.8535">Cliente</text><line style="stroke:#181818;stroke-width:0.5;" x1="194" x2="268" y1="1083" y2="1083"/><line style="stroke:#181818;stroke-width:0.5;" x1="194" x2="268" y1="1091" y2="1091"/></g><!--MD5=[e66145d266c407ffaa9a1f58108bb271]
class Produtor--><g id="elem_Produtor"><rect codeLine="47" fill="#F1F1F1" height="48" id="Produtor" rx="2.5" ry="2.5" style="stroke:#181818;stroke-width:0.5;" width="87" x="304.5" y="1051"/><ellipse cx="319.5" cy="1067" fill="#ADD1B2" rx="11" ry="11" style="stroke:#181818;stroke-width:1.0;"/><path d="M322.2656,1062.875 Q322.4219,1062.6563 322.6094,1062.5469 Q322.7969,1062.4375 323.0156,1062.4375 Q323.3906,1062.4375 323.625,1062.7031 Q323.8594,1062.9531 323.8594,1063.5625 L323.8594,1065.0156 Q323.8594,1065.625 323.625,1065.8906 Q323.3906,1066.1563 323.0156,1066.1563 Q322.6719,1066.1563 322.4688,1065.9531 Q322.2656,1065.7656 322.1563,1065.25 Q322.1094,1064.8906 321.9219,1064.7031 Q321.5938,1064.3281 320.9844,1064.1094 Q320.375,1063.8906 319.75,1063.8906 Q318.9844,1063.8906 318.3438,1064.2188 Q317.7188,1064.5469 317.2188,1065.2969 Q316.7344,1066.0469 316.7344,1067.0781 L316.7344,1068.1719 Q316.7344,1069.4063 317.625,1070.2344 Q318.5156,1071.0469 320.1094,1071.0469 Q321.0469,1071.0469 321.7031,1070.7969 Q322.0938,1070.6406 322.5156,1070.2031 Q322.7813,1069.9375 322.9219,1069.8594 Q323.0781,1069.7813 323.2813,1069.7813 Q323.6094,1069.7813 323.8594,1070.0469 Q324.125,1070.2969 324.125,1070.6406 Q324.125,1070.9844 323.7813,1071.3906 Q323.2813,1071.9688 322.4844,1072.2969 Q321.4063,1072.75 320.1094,1072.75 Q318.5938,1072.75 317.3906,1072.125 Q316.4063,1071.625 315.7188,1070.5625 Q315.0313,1069.4844 315.0313,1068.2031 L315.0313,1067.0469 Q315.0313,1065.7188 315.6406,1064.5781 Q316.2656,1063.4219 317.3594,1062.8125 Q318.4531,1062.1875 319.6875,1062.1875 Q320.4219,1062.1875 321.0625,1062.3594 Q321.7188,1062.5156 322.2656,1062.875 Z " fill="#000000"/><text fill="#000000" font-family="sans-serif" font-size="14" lengthAdjust="spacing" textLength="55" x="333.5" y="1071.8535">Produtor</text><line style="stroke:#181818;stroke-width:0.5;" x1="305.5" x2="390.5" y1="1083" y2="1083"/><line style="stroke:#181818;stroke-width:0.5;" x1="305.5" x2="390.5" y1="1091" y2="1091"/></g><!--MD5=[6b9139d56e329d2125bb6a66380aa54b]
class StoreLists--><g id="elem_StoreLists"><rect codeLine="56" fill="#F1F1F1" height="141.8438" id="StoreLists" rx="2.5" ry="2.5" style="stroke:#181818;stroke-width:0.5;" width="232" x="472" y="1004"/><ellipse cx="552.25" cy="1020" fill="#ADD1B2" rx="11" ry="11" style="stroke:#181818;stroke-width:1.0;"/><path d="M555.0156,1015.875 Q555.1719,1015.6563 555.3594,1015.5469 Q555.5469,1015.4375 555.7656,1015.4375 Q556.1406,1015.4375 556.375,1015.7031 Q556.6094,1015.9531 556.6094,1016.5625 L556.6094,1018.0156 Q556.6094,1018.625 556.375,1018.8906 Q556.1406,1019.1563 555.7656,1019.1563 Q555.4219,1019.1563 555.2188,1018.9531 Q555.0156,1018.7656 554.9063,1018.25 Q554.8594,1017.8906 554.6719,1017.7031 Q554.3438,1017.3281 553.7344,1017.1094 Q553.125,1016.8906 552.5,1016.8906 Q551.7344,1016.8906 551.0938,1017.2188 Q550.4688,1017.5469 549.9688,1018.2969 Q549.4844,1019.0469 549.4844,1020.0781 L549.4844,1021.1719 Q549.4844,1022.4063 550.375,1023.2344 Q551.2656,1024.0469 552.8594,1024.0469 Q553.7969,1024.0469 554.4531,1023.7969 Q554.8438,1023.6406 555.2656,1023.2031 Q555.5313,1022.9375 555.6719,1022.8594 Q555.8281,1022.7813 556.0313,1022.7813 Q556.3594,1022.7813 556.6094,1023.0469 Q556.875,1023.2969 556.875,1023.6406 Q556.875,1023.9844 556.5313,1024.3906 Q556.0313,1024.9688 555.2344,1025.2969 Q554.1563,1025.75 552.8594,1025.75 Q551.3438,1025.75 550.1406,1025.125 Q549.1563,1024.625 548.4688,1023.5625 Q547.7813,1022.4844 547.7813,1021.2031 L547.7813,1020.0469 Q547.7813,1018.7188 548.3906,1017.5781 Q549.0156,1016.4219 550.1094,1015.8125 Q551.2031,1015.1875 552.4375,1015.1875 Q553.1719,1015.1875 553.8125,1015.3594 Q554.4688,1015.5156 555.0156,1015.875 Z " fill="#000000"/><text fill="#000000" font-family="sans-serif" font-size="14" lengthAdjust="spacing" textLength="63" x="572.75" y="1024.8535">StoreLists</text><line style="stroke:#181818;stroke-width:0.5;" x1="473" x2="703" y1="1036" y2="1036"/><line style="stroke:#181818;stroke-width:0.5;" x1="473" x2="703" y1="1044" y2="1044"/><ellipse cx="483" cy="1057.3203" fill="#84BE84" rx="3" ry="3" style="stroke:#038048;stroke-width:1.0;"/><text fill="#000000" font-family="sans-serif" font-size="14" lengthAdjust="spacing" textLength="149" x="492" y="1060.6738">addPessoaList(pessoa)</text><ellipse cx="483" cy="1072.9609" fill="#84BE84" rx="3" ry="3" style="stroke:#038048;stroke-width:1.0;"/><text fill="#000000" font-family="sans-serif" font-size="14" lengthAdjust="spacing" textLength="189" x="492" y="1076.3145">addLocalidadeList(localidade)</text><ellipse cx="483" cy="1088.6016" fill="#84BE84" rx="3" ry="3" style="stroke:#038048;stroke-width:1.0;"/><text fill="#000000" font-family="sans-serif" font-size="14" lengthAdjust="spacing" textLength="166" x="492" y="1091.9551">setPessoaList(pessoaList)</text><ellipse cx="483" cy="1104.2422" fill="#84BE84" rx="3" ry="3" style="stroke:#038048;stroke-width:1.0;"/><text fill="#000000" font-family="sans-serif" font-size="14" lengthAdjust="spacing" textLength="206" x="492" y="1107.5957">setLocalidadeList(localidadeList)</text><ellipse cx="483" cy="1119.8828" fill="#84BE84" rx="3" ry="3" style="stroke:#038048;stroke-width:1.0;"/><text fill="#000000" font-family="sans-serif" font-size="14" lengthAdjust="spacing" textLength="99" x="492" y="1123.2363">getPessoaList()</text><ellipse cx="483" cy="1135.5234" fill="#84BE84" rx="3" ry="3" style="stroke:#038048;stroke-width:1.0;"/><text fill="#000000" font-family="sans-serif" font-size="14" lengthAdjust="spacing" textLength="121" x="492" y="1138.877">getLocalidadeList()</text></g><!--MD5=[3ecf2b447fd626a808bbfa4df6084566]
class MapGraphPessoaStore--><g id="elem_MapGraphPessoaStore"><rect codeLine="64" fill="#F1F1F1" height="79.2813" id="MapGraphPessoaStore" rx="2.5" ry="2.5" style="stroke:#181818;stroke-width:0.5;" width="180" x="739" y="1035.5"/><ellipse cx="754" cy="1051.5" fill="#ADD1B2" rx="11" ry="11" style="stroke:#181818;stroke-width:1.0;"/><path d="M756.7656,1047.375 Q756.9219,1047.1563 757.1094,1047.0469 Q757.2969,1046.9375 757.5156,1046.9375 Q757.8906,1046.9375 758.125,1047.2031 Q758.3594,1047.4531 758.3594,1048.0625 L758.3594,1049.5156 Q758.3594,1050.125 758.125,1050.3906 Q757.8906,1050.6563 757.5156,1050.6563 Q757.1719,1050.6563 756.9688,1050.4531 Q756.7656,1050.2656 756.6563,1049.75 Q756.6094,1049.3906 756.4219,1049.2031 Q756.0938,1048.8281 755.4844,1048.6094 Q754.875,1048.3906 754.25,1048.3906 Q753.4844,1048.3906 752.8438,1048.7188 Q752.2188,1049.0469 751.7188,1049.7969 Q751.2344,1050.5469 751.2344,1051.5781 L751.2344,1052.6719 Q751.2344,1053.9063 752.125,1054.7344 Q753.0156,1055.5469 754.6094,1055.5469 Q755.5469,1055.5469 756.2031,1055.2969 Q756.5938,1055.1406 757.0156,1054.7031 Q757.2813,1054.4375 757.4219,1054.3594 Q757.5781,1054.2813 757.7813,1054.2813 Q758.1094,1054.2813 758.3594,1054.5469 Q758.625,1054.7969 758.625,1055.1406 Q758.625,1055.4844 758.2813,1055.8906 Q757.7813,1056.4688 756.9844,1056.7969 Q755.9063,1057.25 754.6094,1057.25 Q753.0938,1057.25 751.8906,1056.625 Q750.9063,1056.125 750.2188,1055.0625 Q749.5313,1053.9844 749.5313,1052.7031 L749.5313,1051.5469 Q749.5313,1050.2188 750.1406,1049.0781 Q750.7656,1047.9219 751.8594,1047.3125 Q752.9531,1046.6875 754.1875,1046.6875 Q754.9219,1046.6875 755.5625,1046.8594 Q756.2188,1047.0156 756.7656,1047.375 Z " fill="#000000"/><text fill="#000000" font-family="sans-serif" font-size="14" lengthAdjust="spacing" textLength="148" x="768" y="1056.3535">MapGraphPessoaStore</text><line style="stroke:#181818;stroke-width:0.5;" x1="740" x2="918" y1="1067.5" y2="1067.5"/><line style="stroke:#181818;stroke-width:0.5;" x1="740" x2="918" y1="1075.5" y2="1075.5"/><ellipse cx="750" cy="1088.8203" fill="#84BE84" rx="3" ry="3" style="stroke:#038048;stroke-width:1.0;"/><text fill="#000000" font-family="sans-serif" font-size="14" lengthAdjust="spacing" textLength="133" x="759" y="1092.1738">setMapGraph(graph)</text><ellipse cx="750" cy="1104.4609" fill="#84BE84" rx="3" ry="3" style="stroke:#038048;stroke-width:1.0;"/><text fill="#000000" font-family="sans-serif" font-size="14" lengthAdjust="spacing" textLength="97" x="759" y="1107.8145">getMapGraph()</text></g><!--MD5=[2e2f8c8f62c4eb3bc59a59727cfd81a5]
class Edge--><g id="elem_Edge"><rect codeLine="81" fill="#F1F1F1" height="79.2813" id="Edge" rx="2.5" ry="2.5" style="stroke:#181818;stroke-width:0.5;" width="332" x="111" y="1294"/><ellipse cx="256.25" cy="1310" fill="#ADD1B2" rx="11" ry="11" style="stroke:#181818;stroke-width:1.0;"/><path d="M259.0156,1305.875 Q259.1719,1305.6563 259.3594,1305.5469 Q259.5469,1305.4375 259.7656,1305.4375 Q260.1406,1305.4375 260.375,1305.7031 Q260.6094,1305.9531 260.6094,1306.5625 L260.6094,1308.0156 Q260.6094,1308.625 260.375,1308.8906 Q260.1406,1309.1563 259.7656,1309.1563 Q259.4219,1309.1563 259.2188,1308.9531 Q259.0156,1308.7656 258.9063,1308.25 Q258.8594,1307.8906 258.6719,1307.7031 Q258.3438,1307.3281 257.7344,1307.1094 Q257.125,1306.8906 256.5,1306.8906 Q255.7344,1306.8906 255.0938,1307.2188 Q254.4688,1307.5469 253.9688,1308.2969 Q253.4844,1309.0469 253.4844,1310.0781 L253.4844,1311.1719 Q253.4844,1312.4063 254.375,1313.2344 Q255.2656,1314.0469 256.8594,1314.0469 Q257.7969,1314.0469 258.4531,1313.7969 Q258.8438,1313.6406 259.2656,1313.2031 Q259.5313,1312.9375 259.6719,1312.8594 Q259.8281,1312.7813 260.0313,1312.7813 Q260.3594,1312.7813 260.6094,1313.0469 Q260.875,1313.2969 260.875,1313.6406 Q260.875,1313.9844 260.5313,1314.3906 Q260.0313,1314.9688 259.2344,1315.2969 Q258.1563,1315.75 256.8594,1315.75 Q255.3438,1315.75 254.1406,1315.125 Q253.1563,1314.625 252.4688,1313.5625 Q251.7813,1312.4844 251.7813,1311.2031 L251.7813,1310.0469 Q251.7813,1308.7188 252.3906,1307.5781 Q253.0156,1306.4219 254.1094,1305.8125 Q255.2031,1305.1875 256.4375,1305.1875 Q257.1719,1305.1875 257.8125,1305.3594 Q258.4688,1305.5156 259.0156,1305.875 Z " fill="#000000"/><text fill="#000000" font-family="sans-serif" font-size="14" lengthAdjust="spacing" textLength="33" x="276.75" y="1314.8535">Edge</text><line style="stroke:#181818;stroke-width:0.5;" x1="112" x2="442" y1="1326" y2="1326"/><line style="stroke:#181818;stroke-width:0.5;" x1="112" x2="442" y1="1334" y2="1334"/><ellipse cx="122" cy="1347.3203" fill="#84BE84" rx="3" ry="3" style="stroke:#038048;stroke-width:1.0;"/><text fill="#000000" font-family="sans-serif" font-size="14" lengthAdjust="spacing" textLength="306" x="131" y="1350.6738">Edge(pessoa, auxPessoa, helper.getDistancia())</text><ellipse cx="122" cy="1362.9609" fill="#84BE84" rx="3" ry="3" style="stroke:#038048;stroke-width:1.0;"/><text fill="#000000" font-family="sans-serif" font-size="14" lengthAdjust="spacing" textLength="74" x="131" y="1366.3145">getWeight()</text></g><!--MD5=[706e73df52f3df32f52be1ce9adb217e]
class Graph--><g id="elem_Graph"><rect codeLine="85" fill="#F1F1F1" height="48" id="Graph" rx="2.5" ry="2.5" style="stroke:#181818;stroke-width:0.5;" width="72" x="559" y="1473"/><ellipse cx="574" cy="1489" fill="#B4A7E5" rx="11" ry="11" style="stroke:#181818;stroke-width:1.0;"/><path d="M574.9531,1485.6406 L574.9531,1492.2969 L576.6719,1492.2969 Q577.2813,1492.2969 577.5469,1492.5313 Q577.8125,1492.7656 577.8125,1493.1563 Q577.8125,1493.5313 577.5469,1493.7656 Q577.2813,1494 576.6719,1494 L571.5313,1494 Q570.9219,1494 570.6563,1493.7656 Q570.3906,1493.5313 570.3906,1493.1406 Q570.3906,1492.7656 570.6563,1492.5313 Q570.9219,1492.2969 571.5313,1492.2969 L573.25,1492.2969 L573.25,1485.6406 L571.5313,1485.6406 Q570.9219,1485.6406 570.6563,1485.4063 Q570.3906,1485.1719 570.3906,1484.7813 Q570.3906,1484.4063 570.6563,1484.1719 Q570.9219,1483.9375 571.5313,1483.9375 L576.6719,1483.9375 Q577.2813,1483.9375 577.5469,1484.1719 Q577.8125,1484.4063 577.8125,1484.7813 Q577.8125,1485.1719 577.5469,1485.4063 Q577.2813,1485.6406 576.6719,1485.6406 L574.9531,1485.6406 Z " fill="#000000"/><text fill="#000000" font-family="sans-serif" font-size="14" font-style="italic" lengthAdjust="spacing" textLength="40" x="588" y="1493.8535">Graph</text><line style="stroke:#181818;stroke-width:0.5;" x1="560" x2="630" y1="1505" y2="1505"/><line style="stroke:#181818;stroke-width:0.5;" x1="560" x2="630" y1="1513" y2="1513"/></g><!--MD5=[4533588fb66c6fa31a6e04bf29ae6161]
class Algorithms--><g id="elem_Algorithms"><rect codeLine="91" fill="#F1F1F1" height="110.5625" id="Algorithms" rx="2.5" ry="2.5" style="stroke:#181818;stroke-width:0.5;" width="420" x="1021" y="1278"/><ellipse cx="1193.75" cy="1294" fill="#ADD1B2" rx="11" ry="11" style="stroke:#181818;stroke-width:1.0;"/><path d="M1196.5156,1289.875 Q1196.6719,1289.6563 1196.8594,1289.5469 Q1197.0469,1289.4375 1197.2656,1289.4375 Q1197.6406,1289.4375 1197.875,1289.7031 Q1198.1094,1289.9531 1198.1094,1290.5625 L1198.1094,1292.0156 Q1198.1094,1292.625 1197.875,1292.8906 Q1197.6406,1293.1563 1197.2656,1293.1563 Q1196.9219,1293.1563 1196.7188,1292.9531 Q1196.5156,1292.7656 1196.4063,1292.25 Q1196.3594,1291.8906 1196.1719,1291.7031 Q1195.8438,1291.3281 1195.2344,1291.1094 Q1194.625,1290.8906 1194,1290.8906 Q1193.2344,1290.8906 1192.5938,1291.2188 Q1191.9688,1291.5469 1191.4688,1292.2969 Q1190.9844,1293.0469 1190.9844,1294.0781 L1190.9844,1295.1719 Q1190.9844,1296.4063 1191.875,1297.2344 Q1192.7656,1298.0469 1194.3594,1298.0469 Q1195.2969,1298.0469 1195.9531,1297.7969 Q1196.3438,1297.6406 1196.7656,1297.2031 Q1197.0313,1296.9375 1197.1719,1296.8594 Q1197.3281,1296.7813 1197.5313,1296.7813 Q1197.8594,1296.7813 1198.1094,1297.0469 Q1198.375,1297.2969 1198.375,1297.6406 Q1198.375,1297.9844 1198.0313,1298.3906 Q1197.5313,1298.9688 1196.7344,1299.2969 Q1195.6563,1299.75 1194.3594,1299.75 Q1192.8438,1299.75 1191.6406,1299.125 Q1190.6563,1298.625 1189.9688,1297.5625 Q1189.2813,1296.4844 1189.2813,1295.2031 L1189.2813,1294.0469 Q1189.2813,1292.7188 1189.8906,1291.5781 Q1190.5156,1290.4219 1191.6094,1289.8125 Q1192.7031,1289.1875 1193.9375,1289.1875 Q1194.6719,1289.1875 1195.3125,1289.3594 Q1195.9688,1289.5156 1196.5156,1289.875 Z " fill="#000000"/><text fill="#000000" font-family="sans-serif" font-size="14" lengthAdjust="spacing" textLength="66" x="1214.25" y="1298.8535">Algorithms</text><line style="stroke:#181818;stroke-width:0.5;" x1="1022" x2="1440" y1="1310" y2="1310"/><line style="stroke:#181818;stroke-width:0.5;" x1="1022" x2="1440" y1="1318" y2="1318"/><ellipse cx="1032" cy="1331.3203" fill="#84BE84" rx="3" ry="3" style="stroke:#038048;stroke-width:1.0;"/><text fill="#000000" font-family="sans-serif" font-size="14" lengthAdjust="spacing" textLength="340" x="1041" y="1334.6738">BreadthFirstSearch(mapGraphPessoaap, pessoaAux)</text><ellipse cx="1032" cy="1346.9609" fill="#84BE84" rx="3" ry="3" style="stroke:#038048;stroke-width:1.0;"/><text fill="#000000" font-family="sans-serif" font-size="14" lengthAdjust="spacing" textLength="277" x="1041" y="1350.3145">vertCycles(mapGraph, pessoa,comparator )</text><ellipse cx="1032" cy="1362.6016" fill="#84BE84" rx="3" ry="3" style="stroke:#038048;stroke-width:1.0;"/><text fill="#000000" font-family="sans-serif" font-size="14" lengthAdjust="spacing" textLength="394" x="1041" y="1365.9551">minDistGraph(mapGraphPessoa, comparator, binaryOperator)</text><ellipse cx="1032" cy="1378.2422" fill="#84BE84" rx="3" ry="3" style="stroke:#038048;stroke-width:1.0;"/><text fill="#000000" font-family="sans-serif" font-size="14" lengthAdjust="spacing" textLength="394" x="1041" y="1381.5957">minDistGraph(mapGraphPessoa, comparator, binaryOperator)</text></g><!--MD5=[ef63e85e32976ed6c3ca2a05ce10893d]
class CommonGraph--><g id="elem_CommonGraph"><rect codeLine="98" fill="#F1F1F1" height="63.6406" id="CommonGraph" rx="2.5" ry="2.5" style="stroke:#181818;stroke-width:0.5;" width="128" x="666" y="1465"/><ellipse cx="681" cy="1481" fill="#ADD1B2" rx="11" ry="11" style="stroke:#181818;stroke-width:1.0;"/><path d="M683.7656,1476.875 Q683.9219,1476.6563 684.1094,1476.5469 Q684.2969,1476.4375 684.5156,1476.4375 Q684.8906,1476.4375 685.125,1476.7031 Q685.3594,1476.9531 685.3594,1477.5625 L685.3594,1479.0156 Q685.3594,1479.625 685.125,1479.8906 Q684.8906,1480.1563 684.5156,1480.1563 Q684.1719,1480.1563 683.9688,1479.9531 Q683.7656,1479.7656 683.6563,1479.25 Q683.6094,1478.8906 683.4219,1478.7031 Q683.0938,1478.3281 682.4844,1478.1094 Q681.875,1477.8906 681.25,1477.8906 Q680.4844,1477.8906 679.8438,1478.2188 Q679.2188,1478.5469 678.7188,1479.2969 Q678.2344,1480.0469 678.2344,1481.0781 L678.2344,1482.1719 Q678.2344,1483.4063 679.125,1484.2344 Q680.0156,1485.0469 681.6094,1485.0469 Q682.5469,1485.0469 683.2031,1484.7969 Q683.5938,1484.6406 684.0156,1484.2031 Q684.2813,1483.9375 684.4219,1483.8594 Q684.5781,1483.7813 684.7813,1483.7813 Q685.1094,1483.7813 685.3594,1484.0469 Q685.625,1484.2969 685.625,1484.6406 Q685.625,1484.9844 685.2813,1485.3906 Q684.7813,1485.9688 683.9844,1486.2969 Q682.9063,1486.75 681.6094,1486.75 Q680.0938,1486.75 678.8906,1486.125 Q677.9063,1485.625 677.2188,1484.5625 Q676.5313,1483.4844 676.5313,1482.2031 L676.5313,1481.0469 Q676.5313,1479.7188 677.1406,1478.5781 Q677.7656,1477.4219 678.8594,1476.8125 Q679.9531,1476.1875 681.1875,1476.1875 Q681.9219,1476.1875 682.5625,1476.3594 Q683.2188,1476.5156 683.7656,1476.875 Z " fill="#000000"/><text fill="#000000" font-family="sans-serif" font-size="14" lengthAdjust="spacing" textLength="96" x="695" y="1485.8535">CommonGraph</text><line style="stroke:#181818;stroke-width:0.5;" x1="667" x2="793" y1="1497" y2="1497"/><line style="stroke:#181818;stroke-width:0.5;" x1="667" x2="793" y1="1505" y2="1505"/><ellipse cx="677" cy="1518.3203" fill="#84BE84" rx="3" ry="3" style="stroke:#038048;stroke-width:1.0;"/><text fill="#000000" font-family="sans-serif" font-size="14" lengthAdjust="spacing" textLength="59" x="686" y="1521.6738">vertices()</text></g><!--MD5=[b122bab300f80f5d31a622e2bae54847]
class MapGraph--><g id="elem_MapGraph"><rect codeLine="74" fill="#F1F1F1" height="94.9219" id="MapGraph" rx="2.5" ry="2.5" style="stroke:#181818;stroke-width:0.5;" width="356" x="478" y="1286"/><ellipse cx="618.25" cy="1302" fill="#ADD1B2" rx="11" ry="11" style="stroke:#181818;stroke-width:1.0;"/><path d="M621.0156,1297.875 Q621.1719,1297.6563 621.3594,1297.5469 Q621.5469,1297.4375 621.7656,1297.4375 Q622.1406,1297.4375 622.375,1297.7031 Q622.6094,1297.9531 622.6094,1298.5625 L622.6094,1300.0156 Q622.6094,1300.625 622.375,1300.8906 Q622.1406,1301.1563 621.7656,1301.1563 Q621.4219,1301.1563 621.2188,1300.9531 Q621.0156,1300.7656 620.9063,1300.25 Q620.8594,1299.8906 620.6719,1299.7031 Q620.3438,1299.3281 619.7344,1299.1094 Q619.125,1298.8906 618.5,1298.8906 Q617.7344,1298.8906 617.0938,1299.2188 Q616.4688,1299.5469 615.9688,1300.2969 Q615.4844,1301.0469 615.4844,1302.0781 L615.4844,1303.1719 Q615.4844,1304.4063 616.375,1305.2344 Q617.2656,1306.0469 618.8594,1306.0469 Q619.7969,1306.0469 620.4531,1305.7969 Q620.8438,1305.6406 621.2656,1305.2031 Q621.5313,1304.9375 621.6719,1304.8594 Q621.8281,1304.7813 622.0313,1304.7813 Q622.3594,1304.7813 622.6094,1305.0469 Q622.875,1305.2969 622.875,1305.6406 Q622.875,1305.9844 622.5313,1306.3906 Q622.0313,1306.9688 621.2344,1307.2969 Q620.1563,1307.75 618.8594,1307.75 Q617.3438,1307.75 616.1406,1307.125 Q615.1563,1306.625 614.4688,1305.5625 Q613.7813,1304.4844 613.7813,1303.2031 L613.7813,1302.0469 Q613.7813,1300.7188 614.3906,1299.5781 Q615.0156,1298.4219 616.1094,1297.8125 Q617.2031,1297.1875 618.4375,1297.1875 Q619.1719,1297.1875 619.8125,1297.3594 Q620.4688,1297.5156 621.0156,1297.875 Z " fill="#000000"/><text fill="#000000" font-family="sans-serif" font-size="14" lengthAdjust="spacing" textLength="67" x="638.75" y="1306.8535">MapGraph</text><line style="stroke:#181818;stroke-width:0.5;" x1="479" x2="833" y1="1318" y2="1318"/><line style="stroke:#181818;stroke-width:0.5;" x1="479" x2="833" y1="1326" y2="1326"/><ellipse cx="489" cy="1339.3203" fill="#84BE84" rx="3" ry="3" style="stroke:#038048;stroke-width:1.0;"/><text fill="#000000" font-family="sans-serif" font-size="14" lengthAdjust="spacing" textLength="161" x="498" y="1342.6738">graph.addVertex(pessoa)</text><ellipse cx="489" cy="1354.9609" fill="#84BE84" rx="3" ry="3" style="stroke:#038048;stroke-width:1.0;"/><text fill="#000000" font-family="sans-serif" font-size="14" lengthAdjust="spacing" textLength="330" x="498" y="1358.3145">addEdge(pessoa, auxPessoa, helper.getDistancia())</text><ellipse cx="489" cy="1370.6016" fill="#84BE84" rx="3" ry="3" style="stroke:#038048;stroke-width:1.0;"/><text fill="#000000" font-family="sans-serif" font-size="14" lengthAdjust="spacing" textLength="150" x="498" y="1373.9551">edge(pessoa, pessoa1)</text></g><!--MD5=[5d909b6c20725e19f5c6863827561ff4]
class Constants--><g id="elem_Constants"><rect codeLine="88" fill="#F1F1F1" height="48" id="Constants" rx="2.5" ry="2.5" style="stroke:#181818;stroke-width:0.5;" width="96" x="890" y="1309.5"/><ellipse cx="905" cy="1325.5" fill="#ADD1B2" rx="11" ry="11" style="stroke:#181818;stroke-width:1.0;"/><path d="M907.7656,1321.375 Q907.9219,1321.1563 908.1094,1321.0469 Q908.2969,1320.9375 908.5156,1320.9375 Q908.8906,1320.9375 909.125,1321.2031 Q909.3594,1321.4531 909.3594,1322.0625 L909.3594,1323.5156 Q909.3594,1324.125 909.125,1324.3906 Q908.8906,1324.6563 908.5156,1324.6563 Q908.1719,1324.6563 907.9688,1324.4531 Q907.7656,1324.2656 907.6563,1323.75 Q907.6094,1323.3906 907.4219,1323.2031 Q907.0938,1322.8281 906.4844,1322.6094 Q905.875,1322.3906 905.25,1322.3906 Q904.4844,1322.3906 903.8438,1322.7188 Q903.2188,1323.0469 902.7188,1323.7969 Q902.2344,1324.5469 902.2344,1325.5781 L902.2344,1326.6719 Q902.2344,1327.9063 903.125,1328.7344 Q904.0156,1329.5469 905.6094,1329.5469 Q906.5469,1329.5469 907.2031,1329.2969 Q907.5938,1329.1406 908.0156,1328.7031 Q908.2813,1328.4375 908.4219,1328.3594 Q908.5781,1328.2813 908.7813,1328.2813 Q909.1094,1328.2813 909.3594,1328.5469 Q909.625,1328.7969 909.625,1329.1406 Q909.625,1329.4844 909.2813,1329.8906 Q908.7813,1330.4688 907.9844,1330.7969 Q906.9063,1331.25 905.6094,1331.25 Q904.0938,1331.25 902.8906,1330.625 Q901.9063,1330.125 901.2188,1329.0625 Q900.5313,1327.9844 900.5313,1326.7031 L900.5313,1325.5469 Q900.5313,1324.2188 901.1406,1323.0781 Q901.7656,1321.9219 902.8594,1321.3125 Q903.9531,1320.6875 905.1875,1320.6875 Q905.9219,1320.6875 906.5625,1320.8594 Q907.2188,1321.0156 907.7656,1321.375 Z " fill="#000000"/><text fill="#000000" font-family="sans-serif" font-size="14" lengthAdjust="spacing" textLength="64" x="919" y="1330.3535">Constants</text><line style="stroke:#181818;stroke-width:0.5;" x1="891" x2="985" y1="1341.5" y2="1341.5"/><line style="stroke:#181818;stroke-width:0.5;" x1="891" x2="985" y1="1349.5" y2="1349.5"/></g><!--MD5=[8c5251db47d946c5f77a37047b25d0d3]
class GraphConexo--><g id="elem_GraphConexo"><rect codeLine="104" fill="#F1F1F1" height="94.9219" id="GraphConexo" rx="2.5" ry="2.5" style="stroke:#181818;stroke-width:0.5;" width="202" x="472" y="636"/><ellipse cx="524.75" cy="652" fill="#ADD1B2" rx="11" ry="11" style="stroke:#181818;stroke-width:1.0;"/><path d="M527.5156,647.875 Q527.6719,647.6563 527.8594,647.5469 Q528.0469,647.4375 528.2656,647.4375 Q528.6406,647.4375 528.875,647.7031 Q529.1094,647.9531 529.1094,648.5625 L529.1094,650.0156 Q529.1094,650.625 528.875,650.8906 Q528.6406,651.1563 528.2656,651.1563 Q527.9219,651.1563 527.7188,650.9531 Q527.5156,650.7656 527.4063,650.25 Q527.3594,649.8906 527.1719,649.7031 Q526.8438,649.3281 526.2344,649.1094 Q525.625,648.8906 525,648.8906 Q524.2344,648.8906 523.5938,649.2188 Q522.9688,649.5469 522.4688,650.2969 Q521.9844,651.0469 521.9844,652.0781 L521.9844,653.1719 Q521.9844,654.4063 522.875,655.2344 Q523.7656,656.0469 525.3594,656.0469 Q526.2969,656.0469 526.9531,655.7969 Q527.3438,655.6406 527.7656,655.2031 Q528.0313,654.9375 528.1719,654.8594 Q528.3281,654.7813 528.5313,654.7813 Q528.8594,654.7813 529.1094,655.0469 Q529.375,655.2969 529.375,655.6406 Q529.375,655.9844 529.0313,656.3906 Q528.5313,656.9688 527.7344,657.2969 Q526.6563,657.75 525.3594,657.75 Q523.8438,657.75 522.6406,657.125 Q521.6563,656.625 520.9688,655.5625 Q520.2813,654.4844 520.2813,653.2031 L520.2813,652.0469 Q520.2813,650.7188 520.8906,649.5781 Q521.5156,648.4219 522.6094,647.8125 Q523.7031,647.1875 524.9375,647.1875 Q525.6719,647.1875 526.3125,647.3594 Q526.9688,647.5156 527.5156,647.875 Z " fill="#000000"/><text fill="#000000" font-family="sans-serif" font-size="14" lengthAdjust="spacing" textLength="88" x="545.25" y="656.8535">GraphConexo</text><line style="stroke:#181818;stroke-width:0.5;" x1="473" x2="673" y1="668" y2="668"/><line style="stroke:#181818;stroke-width:0.5;" x1="473" x2="673" y1="676" y2="676"/><ellipse cx="483" cy="689.3203" fill="#84BE84" rx="3" ry="3" style="stroke:#038048;stroke-width:1.0;"/><text fill="#000000" font-family="sans-serif" font-size="14" lengthAdjust="spacing" textLength="148" x="492" y="692.6738">verificarGraphConexo()</text><ellipse cx="483" cy="704.9609" fill="#84BE84" rx="3" ry="3" style="stroke:#038048;stroke-width:1.0;"/><text fill="#000000" font-family="sans-serif" font-size="14" lengthAdjust="spacing" textLength="176" x="492" y="708.3145">numeroLigacoesDiam(local)</text><ellipse cx="483" cy="720.6016" fill="#84BE84" rx="3" ry="3" style="stroke:#038048;stroke-width:1.0;"/><text fill="#000000" font-family="sans-serif" font-size="14" lengthAdjust="spacing" textLength="122" x="492" y="723.9551">biggestSize(listAux)</text></g><!--MD5=[748c3b421804d50903770778442de5e4]
class CreateGraph--><g id="elem_CreateGraph"><rect codeLine="110" fill="#F1F1F1" height="79.2813" id="CreateGraph" rx="2.5" ry="2.5" style="stroke:#181818;stroke-width:0.5;" width="185" x="709.5" y="644"/><ellipse cx="756.25" cy="660" fill="#ADD1B2" rx="11" ry="11" style="stroke:#181818;stroke-width:1.0;"/><path d="M759.0156,655.875 Q759.1719,655.6563 759.3594,655.5469 Q759.5469,655.4375 759.7656,655.4375 Q760.1406,655.4375 760.375,655.7031 Q760.6094,655.9531 760.6094,656.5625 L760.6094,658.0156 Q760.6094,658.625 760.375,658.8906 Q760.1406,659.1563 759.7656,659.1563 Q759.4219,659.1563 759.2188,658.9531 Q759.0156,658.7656 758.9063,658.25 Q758.8594,657.8906 758.6719,657.7031 Q758.3438,657.3281 757.7344,657.1094 Q757.125,656.8906 756.5,656.8906 Q755.7344,656.8906 755.0938,657.2188 Q754.4688,657.5469 753.9688,658.2969 Q753.4844,659.0469 753.4844,660.0781 L753.4844,661.1719 Q753.4844,662.4063 754.375,663.2344 Q755.2656,664.0469 756.8594,664.0469 Q757.7969,664.0469 758.4531,663.7969 Q758.8438,663.6406 759.2656,663.2031 Q759.5313,662.9375 759.6719,662.8594 Q759.8281,662.7813 760.0313,662.7813 Q760.3594,662.7813 760.6094,663.0469 Q760.875,663.2969 760.875,663.6406 Q760.875,663.9844 760.5313,664.3906 Q760.0313,664.9688 759.2344,665.2969 Q758.1563,665.75 756.8594,665.75 Q755.3438,665.75 754.1406,665.125 Q753.1563,664.625 752.4688,663.5625 Q751.7813,662.4844 751.7813,661.2031 L751.7813,660.0469 Q751.7813,658.7188 752.3906,657.5781 Q753.0156,656.4219 754.1094,655.8125 Q755.2031,655.1875 756.4375,655.1875 Q757.1719,655.1875 757.8125,655.3594 Q758.4688,655.5156 759.0156,655.875 Z " fill="#000000"/><text fill="#000000" font-family="sans-serif" font-size="14" lengthAdjust="spacing" textLength="83" x="776.75" y="664.8535">CreateGraph</text><line style="stroke:#181818;stroke-width:0.5;" x1="710.5" x2="893.5" y1="676" y2="676"/><line style="stroke:#181818;stroke-width:0.5;" x1="710.5" x2="893.5" y1="684" y2="684"/><ellipse cx="720.5" cy="697.3203" fill="#84BE84" rx="3" ry="3" style="stroke:#038048;stroke-width:1.0;"/><text fill="#000000" font-family="sans-serif" font-size="14" lengthAdjust="spacing" textLength="90" x="729.5" y="700.6738">createGraph()</text><ellipse cx="720.5" cy="712.9609" fill="#84BE84" rx="3" ry="3" style="stroke:#038048;stroke-width:1.0;"/><text fill="#000000" font-family="sans-serif" font-size="14" lengthAdjust="spacing" textLength="159" x="729.5" y="716.3145">findPessoaByLocal(local)</text></g><!--MD5=[2473181366ad82bea05d20fd8c7f64f7]
class FindMethods--><g id="elem_FindMethods"><rect codeLine="115" fill="#F1F1F1" height="94.9219" id="FindMethods" rx="2.5" ry="2.5" style="stroke:#181818;stroke-width:0.5;" width="237" x="929.5" y="636"/><ellipse cx="1002.75" cy="652" fill="#ADD1B2" rx="11" ry="11" style="stroke:#181818;stroke-width:1.0;"/><path d="M1005.5156,647.875 Q1005.6719,647.6563 1005.8594,647.5469 Q1006.0469,647.4375 1006.2656,647.4375 Q1006.6406,647.4375 1006.875,647.7031 Q1007.1094,647.9531 1007.1094,648.5625 L1007.1094,650.0156 Q1007.1094,650.625 1006.875,650.8906 Q1006.6406,651.1563 1006.2656,651.1563 Q1005.9219,651.1563 1005.7188,650.9531 Q1005.5156,650.7656 1005.4063,650.25 Q1005.3594,649.8906 1005.1719,649.7031 Q1004.8438,649.3281 1004.2344,649.1094 Q1003.625,648.8906 1003,648.8906 Q1002.2344,648.8906 1001.5938,649.2188 Q1000.9688,649.5469 1000.4688,650.2969 Q999.9844,651.0469 999.9844,652.0781 L999.9844,653.1719 Q999.9844,654.4063 1000.875,655.2344 Q1001.7656,656.0469 1003.3594,656.0469 Q1004.2969,656.0469 1004.9531,655.7969 Q1005.3438,655.6406 1005.7656,655.2031 Q1006.0313,654.9375 1006.1719,654.8594 Q1006.3281,654.7813 1006.5313,654.7813 Q1006.8594,654.7813 1007.1094,655.0469 Q1007.375,655.2969 1007.375,655.6406 Q1007.375,655.9844 1007.0313,656.3906 Q1006.5313,656.9688 1005.7344,657.2969 Q1004.6563,657.75 1003.3594,657.75 Q1001.8438,657.75 1000.6406,657.125 Q999.6563,656.625 998.9688,655.5625 Q998.2813,654.4844 998.2813,653.2031 L998.2813,652.0469 Q998.2813,650.7188 998.8906,649.5781 Q999.5156,648.4219 1000.6094,647.8125 Q1001.7031,647.1875 1002.9375,647.1875 Q1003.6719,647.1875 1004.3125,647.3594 Q1004.9688,647.5156 1005.5156,647.875 Z " fill="#000000"/><text fill="#000000" font-family="sans-serif" font-size="14" lengthAdjust="spacing" textLength="82" x="1023.25" y="656.8535">FindMethods</text><line style="stroke:#181818;stroke-width:0.5;" x1="930.5" x2="1165.5" y1="668" y2="668"/><line style="stroke:#181818;stroke-width:0.5;" x1="930.5" x2="1165.5" y1="676" y2="676"/><ellipse cx="940.5" cy="689.3203" fill="#84BE84" rx="3" ry="3" style="stroke:#038048;stroke-width:1.0;"/><text fill="#000000" font-family="sans-serif" font-size="14" lengthAdjust="spacing" textLength="211" x="949.5" y="692.6738">findVertexWithMinimumDistance()</text><ellipse cx="940.5" cy="704.9609" fill="#84BE84" rx="3" ry="3" style="stroke:#038048;stroke-width:1.0;"/><text fill="#000000" font-family="sans-serif" font-size="14" lengthAdjust="spacing" textLength="175" x="949.5" y="708.3145">findNearestHubEachClient()</text><ellipse cx="940.5" cy="720.6016" fill="#84BE84" rx="3" ry="3" style="stroke:#038048;stroke-width:1.0;"/><text fill="#000000" font-family="sans-serif" font-size="14" lengthAdjust="spacing" textLength="107" x="949.5" y="723.9551">findNearestHub()</text></g><!--MD5=[66db75c6a90eee27ea57be2f28d34b97]
link Main to MenuUI--><g id="link_Main_MenuUI"><path codeLine="124" d="M258,188.04 C258,204.94 258,225.94 258,243.6 " fill="none" id="Main-to-MenuUI" style="stroke:#181818;stroke-width:1.0;stroke-dasharray:7.0,7.0;"/><polygon fill="#181818" points="258,248.97,262,239.97,258,243.97,254,239.97,258,248.97" style="stroke:#181818;stroke-width:1.0;"/></g><!--MD5=[18b2adbec2d4d81fe2abb63fe9732443]
link MenuUI to MainController--><g id="link_MenuUI_MainController"><path codeLine="125" d="M258,313.19 C258,334.25 258,363.09 258,390.52 " fill="none" id="MenuUI-to-MainController" style="stroke:#181818;stroke-width:1.0;stroke-dasharray:7.0,7.0;"/><polygon fill="#181818" points="258,395.62,262,386.62,258,390.62,254,386.62,258,395.62" style="stroke:#181818;stroke-width:1.0;"/></g><!--MD5=[6466c02c70a565c5689553fda203fa28]
link MainController to Company--><g id="link_MainController_Company"><path codeLine="128" d="M282.13,553.31 C285.4,566.76 288.23,580.69 290,594 C300.68,674.48 297.09,769.46 293.53,823.67 " fill="none" id="MainController-to-Company" style="stroke:#181818;stroke-width:1.0;stroke-dasharray:7.0,7.0;"/><polygon fill="#181818" points="293.19,828.79,297.798,820.0856,293.533,823.8018,289.8169,819.5368,293.19,828.79" style="stroke:#181818;stroke-width:1.0;"/></g><!--MD5=[362389272f2feb66c6bcc5a8cdc10345]
link MainController to GraphConexo--><g id="link_MainController_GraphConexo"><path codeLine="129" d="M376.19,553.17 C416.96,579.96 461.47,609.21 497.84,633.11 " fill="none" id="MainController-to-GraphConexo" style="stroke:#181818;stroke-width:1.0;stroke-dasharray:7.0,7.0;"/><polygon fill="#181818" points="502.24,636,496.9176,627.7131,498.0622,633.253,492.5224,634.3976,502.24,636" style="stroke:#181818;stroke-width:1.0;"/></g><!--MD5=[f3810aef7023c68c5d6cde225d3d17f8]
link MainController to ReadFromCSV--><g id="link_MainController_ReadFromCSV"><path codeLine="130" d="M225.73,553.17 C213.67,582.21 200.4,614.14 190.07,639.02 " fill="none" id="MainController-to-ReadFromCSV" style="stroke:#181818;stroke-width:1.0;stroke-dasharray:7.0,7.0;"/><polygon fill="#181818" points="188.04,643.89,195.2013,637.1286,189.9681,639.2767,187.82,634.0436,188.04,643.89" style="stroke:#181818;stroke-width:1.0;"/></g><!--MD5=[1f57098f37791a7ecbc21883854414b8]
link MainController to CreateGraph--><g id="link_MainController_CreateGraph"><path codeLine="131" d="M392.32,497.36 C480.82,515.28 597.39,545.7 692,594 C715.64,606.07 738.97,623.77 758.02,640.17 " fill="none" id="MainController-to-CreateGraph" style="stroke:#181818;stroke-width:1.0;stroke-dasharray:7.0,7.0;"/><polygon fill="#181818" points="762.26,643.87,758.1016,634.9421,758.49,640.5856,752.8465,640.974,762.26,643.87" style="stroke:#181818;stroke-width:1.0;"/></g><!--MD5=[469f62d4ea574e5e2eb4e06a0f71e1c5]
link MainController to FindMethods--><g id="link_MainController_FindMethods"><path codeLine="132" d="M392.22,484.21 C527.51,496.55 740.28,525.8 912,594 C936.67,603.8 961.6,618.37 983.26,632.88 " fill="none" id="MainController-to-FindMethods" style="stroke:#181818;stroke-width:1.0;stroke-dasharray:7.0,7.0;"/><polygon fill="#181818" points="987.55,635.78,982.353,627.414,983.414,632.9704,977.8576,634.0315,987.55,635.78" style="stroke:#181818;stroke-width:1.0;"/></g><!--MD5=[281dce191f59542e72efaa6f82c4897e]
link ReadFromCSV to Pessoa--><g id="link_ReadFromCSV_Pessoa"><path codeLine="134" d="M159.49,723.31 C148.25,758.17 132.02,808.5 122.01,839.55 " fill="none" id="ReadFromCSV-to-Pessoa" style="stroke:#181818;stroke-width:1.0;"/><polygon fill="#181818" points="120.46,844.36,127.0414,837.033,122.0025,839.6039,119.4317,834.565,120.46,844.36" style="stroke:#181818;stroke-width:1.0;"/><text fill="#000000" font-family="sans-serif" font-size="13" lengthAdjust="spacing" textLength="35" x="147" y="775.7686">needs</text></g><!--MD5=[76428f0e0d83d1deae22b849835daa34]
link ReadFromCSV to Constants--><g id="link_ReadFromCSV_Constants"><path codeLine="135" d="M274.18,714.58 C472.86,774.08 895.33,905.84 935,962 C1010.06,1068.25 968.4,1237.84 947.59,1304.39 " fill="none" id="ReadFromCSV-to-Constants" style="stroke:#181818;stroke-width:1.0;"/><polygon fill="#181818" points="946.01,1309.38,952.5451,1302.0116,947.5225,1304.6142,944.9199,1299.5917,946.01,1309.38" style="stroke:#181818;stroke-width:1.0;"/><text fill="#000000" font-family="sans-serif" font-size="13" lengthAdjust="spacing" textLength="35" x="927" y="950.7686">needs</text></g><!--MD5=[cb53682ffc491c53e3f31a908e344b75]
reverse link Pessoa to Empresa--><g id="link_Pessoa_Empresa"><path codeLine="138" d="M113.21,912.73 C113.42,954.83 113.72,1017.21 113.89,1050.71 " fill="none" id="Pessoa-backto-Empresa" style="stroke:#181818;stroke-width:1.0;"/><polygon fill="none" points="106.21,912.6,113.11,892.56,120.21,912.53,106.21,912.6" style="stroke:#181818;stroke-width:1.0;"/><text fill="#000000" font-family="sans-serif" font-size="13" lengthAdjust="spacing" textLength="46" x="114" y="950.7686">extends</text></g><!--MD5=[702d5b37fca83cae27a0c5ef8ecb95d9]
reverse link Pessoa to Cliente--><g id="link_Pessoa_Cliente"><path codeLine="139" d="M147.44,908.1 C155.03,917.54 162.68,927.85 169,938 C192.3,975.46 212,1023.14 222.6,1050.95 " fill="none" id="Pessoa-backto-Cliente" style="stroke:#181818;stroke-width:1.0;"/><polygon fill="none" points="142.06,912.58,134.56,892.77,152.78,903.58,142.06,912.58" style="stroke:#181818;stroke-width:1.0;"/><text fill="#000000" font-family="sans-serif" font-size="13" lengthAdjust="spacing" textLength="46" x="178" y="950.7686">extends</text></g><!--MD5=[f9f51b0f3e52deb59c69e12ec6fd1ab3]
reverse link Pessoa to Produtor--><g id="link_Pessoa_Produtor"><path codeLine="140" d="M163.11,903.42 C165.76,905.01 168.4,906.54 171,908 C220.61,935.8 245.54,923.08 287,962 C313.47,986.85 331.06,1025.83 340.28,1050.63 " fill="none" id="Pessoa-backto-Produtor" style="stroke:#181818;stroke-width:1.0;"/><polygon fill="none" points="159.08,909.16,145.89,892.57,166.55,897.31,159.08,909.16" style="stroke:#181818;stroke-width:1.0;"/><text fill="#000000" font-family="sans-serif" font-size="13" lengthAdjust="spacing" textLength="46" x="278" y="950.7686">extends</text></g><!--MD5=[3637b0d0a232e2ebc04aa56977ebd5fe]
link MapGraphPessoaStore to Edge--><g id="link_MapGraphPessoaStore_Edge"><path codeLine="142" d="M795.77,1114.72 C776.37,1134.64 750.2,1157.35 722,1170 C615.77,1217.65 570.62,1160.07 462,1202 C407.55,1223.02 354.02,1263.57 318.66,1293.91 " fill="none" id="MapGraphPessoaStore-Edge" style="stroke:#181818;stroke-width:1.0;"/><polygon fill="#000000" points="697.3192,1188.0197,706.8201,1187.5908,704.7535,1182.0882,697.3192,1188.0197" style="stroke:#000000;stroke-width:1.0;"/><text fill="#000000" font-family="sans-serif" font-size="13" lengthAdjust="spacing" textLength="21" x="711" y="1190.7686">has</text><text fill="#000000" font-family="sans-serif" font-size="13" lengthAdjust="spacing" textLength="7" x="782.457" y="1134.5394">1</text><text fill="#000000" font-family="sans-serif" font-size="13" lengthAdjust="spacing" textLength="5" x="320.8801" y="1283.1109">*</text></g><!--MD5=[01d3e379764c7ee9b515075b6bfb6132]
link MapGraphPessoaStore to Pessoa--><g id="link_MapGraphPessoaStore_Pessoa"><path codeLine="143" d="M803.44,1035.45 C784.27,1009.97 755.61,978.35 722,962 C705.54,953.99 658.22,955.78 640,954 C613.94,951.45 195.67,916.78 171,908 C160.87,904.39 150.77,898.64 141.91,892.67 " fill="none" id="MapGraphPessoaStore-Pessoa" style="stroke:#181818;stroke-width:1.0;"/><polygon fill="#000000" points="640.1125,945.2068,648.334,949.9879,649.5741,944.2424,640.1125,945.2068" style="stroke:#000000;stroke-width:1.0;"/><text fill="#000000" font-family="sans-serif" font-size="13" lengthAdjust="spacing" textLength="21" x="654" y="950.7686">has</text><text fill="#000000" font-family="sans-serif" font-size="13" lengthAdjust="spacing" textLength="7" x="791.0821" y="1024.6582">1</text><text fill="#000000" font-family="sans-serif" font-size="13" lengthAdjust="spacing" textLength="5" x="143.3474" y="912.1">*</text></g><!--MD5=[bdff71eec9032d6618fea466e75293d7]
link MapGraphPessoaStore to MapGraph--><g id="link_MapGraphPessoaStore_MapGraph"><path codeLine="144" d="M802.91,1114.68 C772.05,1160.44 720.68,1236.6 687.59,1285.66 " fill="none" id="MapGraphPessoaStore-MapGraph" style="stroke:#181818;stroke-width:1.0;"/><polygon fill="#000000" points="759.2042,1190.407,766.6984,1184.5515,761.8254,1181.2648,759.2042,1190.407" style="stroke:#000000;stroke-width:1.0;"/><text fill="#000000" font-family="sans-serif" font-size="13" lengthAdjust="spacing" textLength="21" x="771" y="1190.7686">has</text><text fill="#000000" font-family="sans-serif" font-size="13" lengthAdjust="spacing" textLength="7" x="790.8242" y="1134.4925">1</text><text fill="#000000" font-family="sans-serif" font-size="13" lengthAdjust="spacing" textLength="22" x="668.7428" y="1275.0772">0..1</text></g><!--MD5=[bffef29e04e187d26438f820241703db]
reverse link StoreLists to List--><g id="link_StoreLists_List"><path codeLine="146" d="M459.41,1150.49 C442.52,1158.07 425.12,1164.86 408,1170 C341.03,1190.1 149.94,1158.75 95,1202 C61.97,1228 52.6,1279.44 49.98,1309.38 " fill="none" id="StoreLists-backto-List" style="stroke:#181818;stroke-width:1.0;"/><polygon fill="#181818" points="471.61,1144.84,464.4841,1143.7351,460.7234,1149.8879,467.8493,1150.9928,471.61,1144.84" style="stroke:#181818;stroke-width:1.0;"/><text fill="#000000" font-family="sans-serif" font-size="13" lengthAdjust="spacing" textLength="21" x="203" y="1190.7686">has</text><text fill="#000000" font-family="sans-serif" font-size="13" lengthAdjust="spacing" textLength="7" x="456.9295" y="1146.656">1</text><text fill="#000000" font-family="sans-serif" font-size="13" lengthAdjust="spacing" textLength="20" x="27.5559" y="1298.8554">1..*</text></g><!--MD5=[f8596010a7bf3eb0e0448ea4988d2573]
link MapGraph to Graph--><g id="link_MapGraph_Graph"><path codeLine="148" d="M623.24,1381.05 C616.2,1392.95 609.52,1406.06 605,1419 C601.29,1429.62 598.93,1441.51 597.45,1452.7 " fill="none" id="MapGraph-to-Graph" style="stroke:#181818;stroke-width:1.0;stroke-dasharray:7.0,7.0;"/><polygon fill="none" points="604.39,1453.61,595.53,1472.86,590.45,1452.28,604.39,1453.61" style="stroke:#181818;stroke-width:1.0;"/><text fill="#000000" font-family="sans-serif" font-size="13" lengthAdjust="spacing" textLength="67" x="606" y="1431.7686">implements</text></g><!--MD5=[7e7fe92a5523e911c73a9daab762bfae]
link MapGraph to CommonGraph--><g id="link_MapGraph_CommonGraph"><path codeLine="149" d="M677.4,1381.21 C686.77,1401.65 697.76,1425.65 707.27,1446.4 " fill="none" id="MapGraph-to-CommonGraph" style="stroke:#181818;stroke-width:1.0;"/><polygon fill="none" points="713.7,1443.62,715.67,1464.72,700.97,1449.45,713.7,1443.62" style="stroke:#181818;stroke-width:1.0;"/><text fill="#000000" font-family="sans-serif" font-size="13" lengthAdjust="spacing" textLength="46" x="702" y="1431.7686">extends</text></g><!--MD5=[dfc7feb03aedb5bfdeb09277bbd32635]
reverse link Company to StoreLists--><g id="link_Company_StoreLists"><path codeLine="151" d="M357.33,915.7 C395.29,941.75 443.48,974.82 485.99,1004 " fill="none" id="Company-backto-StoreLists" style="stroke:#181818;stroke-width:1.0;"/><polygon fill="#181818" points="346.4,908.21,349.0819,914.9038,356.2923,915.0027,353.6104,908.3089,346.4,908.21" style="stroke:#181818;stroke-width:1.0;"/><text fill="#000000" font-family="sans-serif" font-size="13" lengthAdjust="spacing" textLength="30" x="413" y="950.7686">owns</text></g><!--MD5=[42e5e3a5f5591e667f24dce403e7d467]
reverse link Company to MapGraphPessoaStore--><g id="link_Company_MapGraphPessoaStore"><path codeLine="152" d="M405.22,877.6 C485.51,886.09 593.94,903.3 684,938 C733.44,957.05 775.72,1002.15 801.65,1035.21 " fill="none" id="Company-backto-MapGraphPessoaStore" style="stroke:#181818;stroke-width:1.0;"/><polygon fill="#181818" points="392.08,876.27,397.6447,880.8563,404.0185,877.4836,398.4538,872.8973,392.08,876.27" style="stroke:#181818;stroke-width:1.0;"/><text fill="#000000" font-family="sans-serif" font-size="13" lengthAdjust="spacing" textLength="30" x="713" y="950.7686">owns</text></g><!--MD5=[e0dfcc0cdf0967993662659c021bd8c3]
link GraphConexo to Algorithms--><g id="link_GraphConexo_Algorithms"><path codeLine="154" d="M638.24,731.07 C655.01,740.76 673.55,749.65 692,755 C721.04,763.42 938.72,746.41 964,763 C975.79,770.74 1142.49,1136.99 1206.35,1277.98 " fill="none" id="GraphConexo-Algorithms" style="stroke:#181818;stroke-width:1.0;"/><polygon fill="#000000" points="1063.6021,949.7294,1059.1241,941.339,1055.0476,945.5736,1063.6021,949.7294" style="stroke:#000000;stroke-width:1.0;"/><text fill="#000000" font-family="sans-serif" font-size="13" lengthAdjust="spacing" textLength="28" x="1069" y="950.7686">uses</text></g><!--MD5=[6dca874cf3a38b9cb94b5c2996eb0087]
link FindMethods to Algorithms--><g id="link_FindMethods_Algorithms"><path codeLine="155" d="M1082.01,731.2 C1088.32,741.34 1094.38,752.25 1099,763 C1176.13,942.5 1211.9,1174.06 1224.9,1277.9 " fill="none" id="FindMethods-Algorithms" style="stroke:#181818;stroke-width:1.0;"/><polygon fill="#000000" points="1168.2644,951.0992,1168.8205,941.6049,1163.1337,943.0913,1168.2644,951.0992" style="stroke:#000000;stroke-width:1.0;"/><text fill="#000000" font-family="sans-serif" font-size="13" lengthAdjust="spacing" textLength="28" x="1176" y="950.7686">uses</text></g><!--MD5=[d590b60398e5c3dd403c2dd303c38dc2]
@startuml
'https://plantuml.com/class-diagram
package java <<Folder>>#DDDDDD {
package Company <<Folder>>#DDDDDD {

package ReadFromCSV <<Folder>>#DDDDDD {
class ReadFromCSV{
+lerClienteProdutor(caminho)
+lerDistancias(caminho)
}
}

package Controller <<Folder>>#DDDDDD {
class MainController{
+lerClienteProdutor(fileName.getPath())
+lerDistancias(fileName.getPath())
+createGraph()
+setMapGraph(MapGraph)
+findVertexWithMinimumDistance()
+findNearestHubEachClient()
+findNearestHub()
}

}

package ui <<Folder>>#DDDDDD {
class MenuUI{
+ MainController()
}

class Main{
+ MenuUI()
}

}
package Model <<Folder>>#DDDDDD {

class Company{
+getStoreLists()
+getMapGraphPessoaStore()
}
class Pessoa{
}
class Empresa{
}
class Cliente{
}
class Produtor{
}

}


}
package Store <<Folder>>#DDDDDD {

class StoreLists{
+addPessoaList(pessoa)
+addLocalidadeList(localidade)
+setPessoaList(pessoaList)
+setLocalidadeList(localidadeList)
+getPessoaList()
+getLocalidadeList()
}
class MapGraphPessoaStore{
+setMapGraph(graph)
+getMapGraph()
}
}



package Graph <<Folder>>#DDDDDD {
package map <<Folder>>#DDDDDD {
class MapGraph{
+graph.addVertex(pessoa)
+addEdge(pessoa, auxPessoa, helper.getDistancia())
+edge(pessoa, pessoa1)
}
}

class Edge{
+Edge(pessoa, auxPessoa, helper.getDistancia())
+getWeight()
}
Interface Graph

package Constants <<Folder>>#DDDDDD {
class Constants
}

class Algorithms{
+BreadthFirstSearch(mapGraphPessoaap, pessoaAux)
+vertCycles(mapGraph, pessoa,comparator )
+minDistGraph(mapGraphPessoa, comparator, binaryOperator)
+minDistGraph(mapGraphPessoa, comparator, binaryOperator)
}

class CommonGraph{
+vertices()
}
}

package Methods <<Folder>>#DDDDDD {
class GraphConexo{
+verificarGraphConexo()
+numeroLigacoesDiam(local)
+biggestSize(listAux)
}

class CreateGraph{
+createGraph()
+findPessoaByLocal(local)
}

class FindMethods{
+findVertexWithMinimumDistance()
+findNearestHubEachClient()
+findNearestHub()
}

}


Main ..> MenuUI
MenuUI ..> MainController


MainController ..> Company
MainController ..> GraphConexo
MainController ..> ReadFromCSV
MainController ..> CreateGraph
MainController ..> FindMethods

ReadFromCSV - ->  Pessoa:  needs
ReadFromCSV - ->  Constants: needs


Pessoa <|- -  Empresa: extends
Pessoa <|- - Cliente: extends
Pessoa <|- - Produtor: extends

MapGraphPessoaStore "1" - - "*" Edge: has >
MapGraphPessoaStore "1" - - "*" Pessoa: has >
MapGraphPessoaStore "1" - - "0..1" MapGraph: has >

StoreLists "1" *- - "1..*" List : has

MapGraph ..|> Graph : implements
MapGraph - -|> CommonGraph : extends

Company *- - StoreLists : owns
Company *- - MapGraphPessoaStore : owns

GraphConexo - - Algorithms : uses >
FindMethods - - Algorithms : uses >

@enduml

@startuml
package java <<Folder>>#DDDDDD {
package Company <<Folder>>#DDDDDD {

package ReadFromCSV <<Folder>>#DDDDDD {
class ReadFromCSV{
+lerClienteProdutor(caminho)
+lerDistancias(caminho)
}
}

package Controller <<Folder>>#DDDDDD {
class MainController{
+lerClienteProdutor(fileName.getPath())
+lerDistancias(fileName.getPath())
+createGraph()
+setMapGraph(MapGraph)
+findVertexWithMinimumDistance()
+findNearestHubEachClient()
+findNearestHub()
}

}

package ui <<Folder>>#DDDDDD {
class MenuUI{
+ MainController()
}

class Main{
+ MenuUI()
}

}
package Model <<Folder>>#DDDDDD {

class Company{
+getStoreLists()
+getMapGraphPessoaStore()
}
class Pessoa{
}
class Empresa{
}
class Cliente{
}
class Produtor{
}

}


}
package Store <<Folder>>#DDDDDD {

class StoreLists{
+addPessoaList(pessoa)
+addLocalidadeList(localidade)
+setPessoaList(pessoaList)
+setLocalidadeList(localidadeList)
+getPessoaList()
+getLocalidadeList()
}
class MapGraphPessoaStore{
+setMapGraph(graph)
+getMapGraph()
}
}



package Graph <<Folder>>#DDDDDD {
package map <<Folder>>#DDDDDD {
class MapGraph{
+graph.addVertex(pessoa)
+addEdge(pessoa, auxPessoa, helper.getDistancia())
+edge(pessoa, pessoa1)
}
}

class Edge{
+Edge(pessoa, auxPessoa, helper.getDistancia())
+getWeight()
}
Interface Graph

package Constants <<Folder>>#DDDDDD {
class Constants
}

class Algorithms{
+BreadthFirstSearch(mapGraphPessoaap, pessoaAux)
+vertCycles(mapGraph, pessoa,comparator )
+minDistGraph(mapGraphPessoa, comparator, binaryOperator)
+minDistGraph(mapGraphPessoa, comparator, binaryOperator)
}

class CommonGraph{
+vertices()
}
}

package Methods <<Folder>>#DDDDDD {
class GraphConexo{
+verificarGraphConexo()
+numeroLigacoesDiam(local)
+biggestSize(listAux)
}

class CreateGraph{
+createGraph()
+findPessoaByLocal(local)
}

class FindMethods{
+findVertexWithMinimumDistance()
+findNearestHubEachClient()
+findNearestHub()
}

}


Main ..> MenuUI
MenuUI ..> MainController


MainController ..> Company
MainController ..> GraphConexo
MainController ..> ReadFromCSV
MainController ..> CreateGraph
MainController ..> FindMethods

ReadFromCSV - ->  Pessoa:  needs
ReadFromCSV - ->  Constants: needs


Pessoa <|- -  Empresa: extends
Pessoa <|- - Cliente: extends
Pessoa <|- - Produtor: extends

MapGraphPessoaStore "1" - - "*" Edge: has >
MapGraphPessoaStore "1" - - "*" Pessoa: has >
MapGraphPessoaStore "1" - - "0..1" MapGraph: has >

StoreLists "1" *- - "1..*" List : has

MapGraph ..|> Graph : implements
MapGraph - -|> CommonGraph : extends

Company *- - StoreLists : owns
Company *- - MapGraphPessoaStore : owns

GraphConexo - - Algorithms : uses >
FindMethods - - Algorithms : uses >

@enduml

PlantUML version 1.2022.12(Sun Oct 23 19:12:26 WEST 2022)
(GPL source distribution)
Java Runtime: OpenJDK Runtime Environment
JVM: OpenJDK 64-Bit Server VM
Default Encoding: Cp1252
Language: pt
Country: PT
--></g></svg>