<?xml version="1.0" encoding="UTF-8" standalone="no"?><svg xmlns="http://www.w3.org/2000/svg" xmlns:xlink="http://www.w3.org/1999/xlink" contentStyleType="text/css" height="1040px" preserveAspectRatio="none" style="width:1405px;height:1040px;background:#FFFFFF;" version="1.1" viewBox="0 0 1405 1040" width="1405px" zoomAndPan="magnify"><defs/><g><!--MD5=[e80bd461753d6c5ec111731420959425]
cluster Main--><g id="cluster_Main"><path d="M8.5,6.0137 L43.5,6.0137 A3.75,3.75 0 0 1 46,8.5137 L53,30.6348 L1395.5,30.6348 A2.5,2.5 0 0 1 1398,33.1348 L1398,1030.5137 A2.5,2.5 0 0 1 1395.5,1033.0137 L8.5,1033.0137 A2.5,2.5 0 0 1 6,1030.5137 L6,8.5137 A2.5,2.5 0 0 1 8.5,6.0137 " fill="#DDDDDD" style="stroke:#000000;stroke-width:1.5;"/><line style="stroke:#000000;stroke-width:1.5;" x1="6" x2="53" y1="30.6348" y2="30.6348"/><text fill="#000000" font-family="sans-serif" font-size="14" font-weight="bold" lengthAdjust="spacing" textLength="34" x="10" y="23.1211">Main</text></g><!--MD5=[66dd6d0a484290b46f8665dfa0e5de89]
cluster Company--><g id="cluster_Company"><path d="M32.5,51.0137 L97.5,51.0137 A3.75,3.75 0 0 1 100,53.5137 L107,75.6348 L541.5,75.6348 A2.5,2.5 0 0 1 544,78.1348 L544,1006.5137 A2.5,2.5 0 0 1 541.5,1009.0137 L32.5,1009.0137 A2.5,2.5 0 0 1 30,1006.5137 L30,53.5137 A2.5,2.5 0 0 1 32.5,51.0137 " fill="#DDDDDD" style="stroke:#000000;stroke-width:1.5;"/><line style="stroke:#000000;stroke-width:1.5;" x1="30" x2="107" y1="75.6348" y2="75.6348"/><text fill="#000000" font-family="sans-serif" font-size="14" font-weight="bold" lengthAdjust="spacing" textLength="64" x="34" y="68.1211">Company</text></g><!--MD5=[64e2e010ba86d7988e5cd73bd64f61f9]
cluster ui--><g id="cluster_ui"><path d="M322.5,96.0137 L336.5,96.0137 A3.75,3.75 0 0 1 339,98.5137 L346,120.6348 L499.5,120.6348 A2.5,2.5 0 0 1 502,123.1348 L502,322.5137 A2.5,2.5 0 0 1 499.5,325.0137 L322.5,325.0137 A2.5,2.5 0 0 1 320,322.5137 L320,98.5137 A2.5,2.5 0 0 1 322.5,96.0137 " fill="#DDDDDD" style="stroke:#000000;stroke-width:1.5;"/><line style="stroke:#000000;stroke-width:1.5;" x1="320" x2="346" y1="120.6348" y2="120.6348"/><text fill="#000000" font-family="sans-serif" font-size="14" font-weight="bold" lengthAdjust="spacing" textLength="13" x="324" y="113.1211">ui</text></g><!--MD5=[1f2cfc53d9d308f53762fd0fcbaa4873]
cluster Controller--><g id="cluster_Controller"><path d="M322.5,358.0137 L394.5,358.0137 A3.75,3.75 0 0 1 397,360.5137 L404,382.6348 L499.5,382.6348 A2.5,2.5 0 0 1 502,385.1348 L502,475.5137 A2.5,2.5 0 0 1 499.5,478.0137 L322.5,478.0137 A2.5,2.5 0 0 1 320,475.5137 L320,360.5137 A2.5,2.5 0 0 1 322.5,358.0137 " fill="#DDDDDD" style="stroke:#000000;stroke-width:1.5;"/><line style="stroke:#000000;stroke-width:1.5;" x1="320" x2="404" y1="382.6348" y2="382.6348"/><text fill="#000000" font-family="sans-serif" font-size="14" font-weight="bold" lengthAdjust="spacing" textLength="71" x="324" y="375.1211">Controller</text></g><!--MD5=[7ce1723ddb6e6233854253973eae5a71]
cluster Store--><g id="cluster_Store"><path d="M56.5,847.0137 L95.5,847.0137 A3.75,3.75 0 0 1 98,849.5137 L105,871.6348 L517.5,871.6348 A2.5,2.5 0 0 1 520,874.1348 L520,982.5137 A2.5,2.5 0 0 1 517.5,985.0137 L56.5,985.0137 A2.5,2.5 0 0 1 54,982.5137 L54,849.5137 A2.5,2.5 0 0 1 56.5,847.0137 " fill="#DDDDDD" style="stroke:#000000;stroke-width:1.5;"/><line style="stroke:#000000;stroke-width:1.5;" x1="54" x2="105" y1="871.6348" y2="871.6348"/><text fill="#000000" font-family="sans-serif" font-size="14" font-weight="bold" lengthAdjust="spacing" textLength="38" x="58" y="864.1211">Store</text></g><!--MD5=[15636c1ca4a123c16a2a1a8e90aca7a9]
cluster Model--><g id="cluster_Model"><path d="M235.5,576.0137 L280.5,576.0137 A3.75,3.75 0 0 1 283,578.5137 L290,600.6348 L466.5,600.6348 A2.5,2.5 0 0 1 469,603.1348 L469,730.5137 A2.5,2.5 0 0 1 466.5,733.0137 L235.5,733.0137 A2.5,2.5 0 0 1 233,730.5137 L233,578.5137 A2.5,2.5 0 0 1 235.5,576.0137 " fill="#DDDDDD" style="stroke:#000000;stroke-width:1.5;"/><line style="stroke:#000000;stroke-width:1.5;" x1="233" x2="290" y1="600.6348" y2="600.6348"/><text fill="#000000" font-family="sans-serif" font-size="14" font-weight="bold" lengthAdjust="spacing" textLength="44" x="237" y="593.1211">Model</text></g><!--MD5=[b792253f46c87a5be23eaae1b68e2912]
cluster Methods--><g id="cluster_Methods"><path d="M570.5,511.0137 L633.5,511.0137 A3.75,3.75 0 0 1 636,513.5137 L643,535.6348 L1371.5,535.6348 A2.5,2.5 0 0 1 1374,538.1348 L1374,982.5137 A2.5,2.5 0 0 1 1371.5,985.0137 L570.5,985.0137 A2.5,2.5 0 0 1 568,982.5137 L568,513.5137 A2.5,2.5 0 0 1 570.5,511.0137 " fill="#DDDDDD" style="stroke:#000000;stroke-width:1.5;"/><line style="stroke:#000000;stroke-width:1.5;" x1="568" x2="643" y1="535.6348" y2="535.6348"/><text fill="#000000" font-family="sans-serif" font-size="14" font-weight="bold" lengthAdjust="spacing" textLength="62" x="572" y="528.1211">Methods</text></g><!--MD5=[84718776d214be480e4c259efcb737fc]
class Main--><g id="elem_Main"><rect codeLine="4" fill="#F1F1F1" height="48" id="Main" rx="2.5" ry="2.5" style="stroke:#181818;stroke-width:0.5;" width="62" x="380" y="133.0137"/><ellipse cx="395" cy="149.0137" fill="#ADD1B2" rx="11" ry="11" style="stroke:#181818;stroke-width:1.0;"/><path d="M397.7656,144.8887 Q397.9219,144.6699 398.1094,144.5605 Q398.2969,144.4512 398.5156,144.4512 Q398.8906,144.4512 399.125,144.7168 Q399.3594,144.9668 399.3594,145.5762 L399.3594,147.0293 Q399.3594,147.6387 399.125,147.9043 Q398.8906,148.1699 398.5156,148.1699 Q398.1719,148.1699 397.9688,147.9668 Q397.7656,147.7793 397.6563,147.2637 Q397.6094,146.9043 397.4219,146.7168 Q397.0938,146.3418 396.4844,146.123 Q395.875,145.9043 395.25,145.9043 Q394.4844,145.9043 393.8438,146.2324 Q393.2188,146.5605 392.7188,147.3105 Q392.2344,148.0605 392.2344,149.0918 L392.2344,150.1855 Q392.2344,151.4199 393.125,152.248 Q394.0156,153.0605 395.6094,153.0605 Q396.5469,153.0605 397.2031,152.8105 Q397.5938,152.6543 398.0156,152.2168 Q398.2813,151.9512 398.4219,151.873 Q398.5781,151.7949 398.7813,151.7949 Q399.1094,151.7949 399.3594,152.0605 Q399.625,152.3105 399.625,152.6543 Q399.625,152.998 399.2813,153.4043 Q398.7813,153.9824 397.9844,154.3105 Q396.9063,154.7637 395.6094,154.7637 Q394.0938,154.7637 392.8906,154.1387 Q391.9063,153.6387 391.2188,152.5762 Q390.5313,151.498 390.5313,150.2168 L390.5313,149.0605 Q390.5313,147.7324 391.1406,146.5918 Q391.7656,145.4355 392.8594,144.8262 Q393.9531,144.2012 395.1875,144.2012 Q395.9219,144.2012 396.5625,144.373 Q397.2188,144.5293 397.7656,144.8887 Z " fill="#000000"/><text fill="#000000" font-family="sans-serif" font-size="14" lengthAdjust="spacing" textLength="30" x="409" y="154.8105">Main</text><line style="stroke:#181818;stroke-width:0.5;" x1="381" x2="441" y1="165.0137" y2="165.0137"/><line style="stroke:#181818;stroke-width:0.5;" x1="381" x2="441" y1="173.0137" y2="173.0137"/></g><!--MD5=[02de039990bbea028db2518876dfca25]
class MenuUI--><g id="elem_MenuUI"><rect codeLine="5" fill="#F1F1F1" height="66.6211" id="MenuUI" rx="2.5" ry="2.5" style="stroke:#181818;stroke-width:0.5;" width="150" x="336" y="242.0137"/><ellipse cx="383.25" cy="258.0137" fill="#ADD1B2" rx="11" ry="11" style="stroke:#181818;stroke-width:1.0;"/><path d="M386.0156,253.8887 Q386.1719,253.6699 386.3594,253.5605 Q386.5469,253.4512 386.7656,253.4512 Q387.1406,253.4512 387.375,253.7168 Q387.6094,253.9668 387.6094,254.5762 L387.6094,256.0293 Q387.6094,256.6387 387.375,256.9043 Q387.1406,257.1699 386.7656,257.1699 Q386.4219,257.1699 386.2188,256.9668 Q386.0156,256.7793 385.9063,256.2637 Q385.8594,255.9043 385.6719,255.7168 Q385.3438,255.3418 384.7344,255.123 Q384.125,254.9043 383.5,254.9043 Q382.7344,254.9043 382.0938,255.2324 Q381.4688,255.5605 380.9688,256.3105 Q380.4844,257.0605 380.4844,258.0918 L380.4844,259.1855 Q380.4844,260.4199 381.375,261.248 Q382.2656,262.0605 383.8594,262.0605 Q384.7969,262.0605 385.4531,261.8105 Q385.8438,261.6543 386.2656,261.2168 Q386.5313,260.9512 386.6719,260.873 Q386.8281,260.7949 387.0313,260.7949 Q387.3594,260.7949 387.6094,261.0605 Q387.875,261.3105 387.875,261.6543 Q387.875,261.998 387.5313,262.4043 Q387.0313,262.9824 386.2344,263.3105 Q385.1563,263.7637 383.8594,263.7637 Q382.3438,263.7637 381.1406,263.1387 Q380.1563,262.6387 379.4688,261.5762 Q378.7813,260.498 378.7813,259.2168 L378.7813,258.0605 Q378.7813,256.7324 379.3906,255.5918 Q380.0156,254.4355 381.1094,253.8262 Q382.2031,253.2012 383.4375,253.2012 Q384.1719,253.2012 384.8125,253.373 Q385.4688,253.5293 386.0156,253.8887 Z " fill="#000000"/><text fill="#000000" font-family="sans-serif" font-size="14" lengthAdjust="spacing" textLength="47" x="403.75" y="263.8105">MenuUI</text><line style="stroke:#181818;stroke-width:0.5;" x1="337" x2="485" y1="274.0137" y2="274.0137"/><line style="stroke:#181818;stroke-width:0.5;" x1="337" x2="485" y1="282.0137" y2="282.0137"/><ellipse cx="347" cy="296.8242" fill="#84BE84" rx="3" ry="3" style="stroke:#038048;stroke-width:1.0;"/><text fill="#000000" font-family="sans-serif" font-size="14" lengthAdjust="spacing" textLength="124" x="356" y="301.1211">printMainStatistics()</text></g><!--MD5=[0278646e5a3f51edb25d463fe8c5bfab]
class MainController--><g id="elem_MainController"><rect codeLine="11" fill="#F1F1F1" height="66.6211" id="MainController" rx="2.5" ry="2.5" style="stroke:#181818;stroke-width:0.5;" width="150" x="336" y="395.0137"/><ellipse cx="362.7" cy="411.0137" fill="#ADD1B2" rx="11" ry="11" style="stroke:#181818;stroke-width:1.0;"/><path d="M365.4656,406.8887 Q365.6219,406.6699 365.8094,406.5605 Q365.9969,406.4512 366.2156,406.4512 Q366.5906,406.4512 366.825,406.7168 Q367.0594,406.9668 367.0594,407.5762 L367.0594,409.0293 Q367.0594,409.6387 366.825,409.9043 Q366.5906,410.1699 366.2156,410.1699 Q365.8719,410.1699 365.6688,409.9668 Q365.4656,409.7793 365.3563,409.2637 Q365.3094,408.9043 365.1219,408.7168 Q364.7938,408.3418 364.1844,408.123 Q363.575,407.9043 362.95,407.9043 Q362.1844,407.9043 361.5438,408.2324 Q360.9188,408.5605 360.4188,409.3105 Q359.9344,410.0605 359.9344,411.0918 L359.9344,412.1855 Q359.9344,413.4199 360.825,414.248 Q361.7156,415.0605 363.3094,415.0605 Q364.2469,415.0605 364.9031,414.8105 Q365.2938,414.6543 365.7156,414.2168 Q365.9813,413.9512 366.1219,413.873 Q366.2781,413.7949 366.4813,413.7949 Q366.8094,413.7949 367.0594,414.0605 Q367.325,414.3105 367.325,414.6543 Q367.325,414.998 366.9813,415.4043 Q366.4813,415.9824 365.6844,416.3105 Q364.6063,416.7637 363.3094,416.7637 Q361.7938,416.7637 360.5906,416.1387 Q359.6063,415.6387 358.9188,414.5762 Q358.2313,413.498 358.2313,412.2168 L358.2313,411.0605 Q358.2313,409.7324 358.8406,408.5918 Q359.4656,407.4355 360.5594,406.8262 Q361.6531,406.2012 362.8875,406.2012 Q363.6219,406.2012 364.2625,406.373 Q364.9188,406.5293 365.4656,406.8887 Z " fill="#000000"/><text fill="#000000" font-family="sans-serif" font-size="14" lengthAdjust="spacing" textLength="92" x="379.3" y="416.8105">MainController</text><line style="stroke:#181818;stroke-width:0.5;" x1="337" x2="485" y1="427.0137" y2="427.0137"/><line style="stroke:#181818;stroke-width:0.5;" x1="337" x2="485" y1="435.0137" y2="435.0137"/><ellipse cx="347" cy="449.8242" fill="#84BE84" rx="3" ry="3" style="stroke:#038048;stroke-width:1.0;"/><text fill="#000000" font-family="sans-serif" font-size="14" lengthAdjust="spacing" textLength="124" x="356" y="454.1211">printMainStatistics()</text></g><!--MD5=[14dc7b858ae97e20c7f9bd91ff750642]
class ExpedatingStore--><g id="elem_ExpedatingStore"><rect codeLine="17" fill="#F1F1F1" height="85.2422" id="ExpedatingStore" rx="2.5" ry="2.5" style="stroke:#181818;stroke-width:0.5;" width="175" x="200.5" y="884.0137"/><ellipse cx="233.05" cy="900.0137" fill="#ADD1B2" rx="11" ry="11" style="stroke:#181818;stroke-width:1.0;"/><path d="M235.8156,895.8887 Q235.9719,895.6699 236.1594,895.5605 Q236.3469,895.4512 236.5656,895.4512 Q236.9406,895.4512 237.175,895.7168 Q237.4094,895.9668 237.4094,896.5762 L237.4094,898.0293 Q237.4094,898.6387 237.175,898.9043 Q236.9406,899.1699 236.5656,899.1699 Q236.2219,899.1699 236.0188,898.9668 Q235.8156,898.7793 235.7063,898.2637 Q235.6594,897.9043 235.4719,897.7168 Q235.1438,897.3418 234.5344,897.123 Q233.925,896.9043 233.3,896.9043 Q232.5344,896.9043 231.8938,897.2324 Q231.2688,897.5605 230.7688,898.3105 Q230.2844,899.0605 230.2844,900.0918 L230.2844,901.1855 Q230.2844,902.4199 231.175,903.248 Q232.0656,904.0605 233.6594,904.0605 Q234.5969,904.0605 235.2531,903.8105 Q235.6438,903.6543 236.0656,903.2168 Q236.3313,902.9512 236.4719,902.873 Q236.6281,902.7949 236.8313,902.7949 Q237.1594,902.7949 237.4094,903.0605 Q237.675,903.3105 237.675,903.6543 Q237.675,903.998 237.3313,904.4043 Q236.8313,904.9824 236.0344,905.3105 Q234.9563,905.7637 233.6594,905.7637 Q232.1438,905.7637 230.9406,905.1387 Q229.9563,904.6387 229.2688,903.5762 Q228.5813,902.498 228.5813,901.2168 L228.5813,900.0605 Q228.5813,898.7324 229.1906,897.5918 Q229.8156,896.4355 230.9094,895.8262 Q232.0031,895.2012 233.2375,895.2012 Q233.9719,895.2012 234.6125,895.373 Q235.2688,895.5293 235.8156,895.8887 Z " fill="#000000"/><text fill="#000000" font-family="sans-serif" font-size="14" lengthAdjust="spacing" textLength="104" x="250.95" y="905.8105">ExpedatingStore</text><line style="stroke:#181818;stroke-width:0.5;" x1="201.5" x2="374.5" y1="916.0137" y2="916.0137"/><line style="stroke:#181818;stroke-width:0.5;" x1="201.5" x2="374.5" y1="924.0137" y2="924.0137"/><ellipse cx="211.5" cy="938.8242" fill="#84BE84" rx="3" ry="3" style="stroke:#038048;stroke-width:1.0;"/><text fill="#000000" font-family="sans-serif" font-size="14" lengthAdjust="spacing" textLength="149" x="220.5" y="943.1211">getHubProximoCliente()</text><ellipse cx="211.5" cy="957.4453" fill="#84BE84" rx="3" ry="3" style="stroke:#038048;stroke-width:1.0;"/><text fill="#000000" font-family="sans-serif" font-size="14" lengthAdjust="spacing" textLength="126" x="220.5" y="961.7422">getExpedatingList();</text></g><!--MD5=[6b9139d56e329d2125bb6a66380aa54b]
class StoreLists--><g id="elem_StoreLists"><rect codeLine="21" fill="#F1F1F1" height="48" id="StoreLists" rx="2.5" ry="2.5" style="stroke:#181818;stroke-width:0.5;" width="95" x="70.5" y="902.5137"/><ellipse cx="85.5" cy="918.5137" fill="#ADD1B2" rx="11" ry="11" style="stroke:#181818;stroke-width:1.0;"/><path d="M88.2656,914.3887 Q88.4219,914.1699 88.6094,914.0605 Q88.7969,913.9512 89.0156,913.9512 Q89.3906,913.9512 89.625,914.2168 Q89.8594,914.4668 89.8594,915.0762 L89.8594,916.5293 Q89.8594,917.1387 89.625,917.4043 Q89.3906,917.6699 89.0156,917.6699 Q88.6719,917.6699 88.4688,917.4668 Q88.2656,917.2793 88.1563,916.7637 Q88.1094,916.4043 87.9219,916.2168 Q87.5938,915.8418 86.9844,915.623 Q86.375,915.4043 85.75,915.4043 Q84.9844,915.4043 84.3438,915.7324 Q83.7188,916.0605 83.2188,916.8105 Q82.7344,917.5605 82.7344,918.5918 L82.7344,919.6855 Q82.7344,920.9199 83.625,921.748 Q84.5156,922.5605 86.1094,922.5605 Q87.0469,922.5605 87.7031,922.3105 Q88.0938,922.1543 88.5156,921.7168 Q88.7813,921.4512 88.9219,921.373 Q89.0781,921.2949 89.2813,921.2949 Q89.6094,921.2949 89.8594,921.5605 Q90.125,921.8105 90.125,922.1543 Q90.125,922.498 89.7813,922.9043 Q89.2813,923.4824 88.4844,923.8105 Q87.4063,924.2637 86.1094,924.2637 Q84.5938,924.2637 83.3906,923.6387 Q82.4063,923.1387 81.7188,922.0762 Q81.0313,920.998 81.0313,919.7168 L81.0313,918.5605 Q81.0313,917.2324 81.6406,916.0918 Q82.2656,914.9355 83.3594,914.3262 Q84.4531,913.7012 85.6875,913.7012 Q86.4219,913.7012 87.0625,913.873 Q87.7188,914.0293 88.2656,914.3887 Z " fill="#000000"/><text fill="#000000" font-family="sans-serif" font-size="14" lengthAdjust="spacing" textLength="63" x="99.5" y="924.3105">StoreLists</text><line style="stroke:#181818;stroke-width:0.5;" x1="71.5" x2="164.5" y1="934.5137" y2="934.5137"/><line style="stroke:#181818;stroke-width:0.5;" x1="71.5" x2="164.5" y1="942.5137" y2="942.5137"/></g><!--MD5=[dfcf960dcc7a983995284746c51b3f2c]
class MapStore--><g id="elem_MapStore"><rect codeLine="22" fill="#F1F1F1" height="48" id="MapStore" rx="2.5" ry="2.5" style="stroke:#181818;stroke-width:0.5;" width="93" x="410.5" y="902.5137"/><ellipse cx="425.5" cy="918.5137" fill="#ADD1B2" rx="11" ry="11" style="stroke:#181818;stroke-width:1.0;"/><path d="M428.2656,914.3887 Q428.4219,914.1699 428.6094,914.0605 Q428.7969,913.9512 429.0156,913.9512 Q429.3906,913.9512 429.625,914.2168 Q429.8594,914.4668 429.8594,915.0762 L429.8594,916.5293 Q429.8594,917.1387 429.625,917.4043 Q429.3906,917.6699 429.0156,917.6699 Q428.6719,917.6699 428.4688,917.4668 Q428.2656,917.2793 428.1563,916.7637 Q428.1094,916.4043 427.9219,916.2168 Q427.5938,915.8418 426.9844,915.623 Q426.375,915.4043 425.75,915.4043 Q424.9844,915.4043 424.3438,915.7324 Q423.7188,916.0605 423.2188,916.8105 Q422.7344,917.5605 422.7344,918.5918 L422.7344,919.6855 Q422.7344,920.9199 423.625,921.748 Q424.5156,922.5605 426.1094,922.5605 Q427.0469,922.5605 427.7031,922.3105 Q428.0938,922.1543 428.5156,921.7168 Q428.7813,921.4512 428.9219,921.373 Q429.0781,921.2949 429.2813,921.2949 Q429.6094,921.2949 429.8594,921.5605 Q430.125,921.8105 430.125,922.1543 Q430.125,922.498 429.7813,922.9043 Q429.2813,923.4824 428.4844,923.8105 Q427.4063,924.2637 426.1094,924.2637 Q424.5938,924.2637 423.3906,923.6387 Q422.4063,923.1387 421.7188,922.0762 Q421.0313,920.998 421.0313,919.7168 L421.0313,918.5605 Q421.0313,917.2324 421.6406,916.0918 Q422.2656,914.9355 423.3594,914.3262 Q424.4531,913.7012 425.6875,913.7012 Q426.4219,913.7012 427.0625,913.873 Q427.7188,914.0293 428.2656,914.3887 Z " fill="#000000"/><text fill="#000000" font-family="sans-serif" font-size="14" lengthAdjust="spacing" textLength="61" x="439.5" y="924.3105">MapStore</text><line style="stroke:#181818;stroke-width:0.5;" x1="411.5" x2="502.5" y1="934.5137" y2="934.5137"/><line style="stroke:#181818;stroke-width:0.5;" x1="411.5" x2="502.5" y1="942.5137" y2="942.5137"/></g><!--MD5=[02e4b9b7573f1156f41e60aa5b4e25a4]
class Company--><g id="elem_Company"><rect codeLine="25" fill="#F1F1F1" height="103.8633" id="Company" rx="2.5" ry="2.5" style="stroke:#181818;stroke-width:0.5;" width="204" x="249" y="613.0137"/><ellipse cx="316.75" cy="629.0137" fill="#ADD1B2" rx="11" ry="11" style="stroke:#181818;stroke-width:1.0;"/><path d="M319.5156,624.8887 Q319.6719,624.6699 319.8594,624.5605 Q320.0469,624.4512 320.2656,624.4512 Q320.6406,624.4512 320.875,624.7168 Q321.1094,624.9668 321.1094,625.5762 L321.1094,627.0293 Q321.1094,627.6387 320.875,627.9043 Q320.6406,628.1699 320.2656,628.1699 Q319.9219,628.1699 319.7188,627.9668 Q319.5156,627.7793 319.4063,627.2637 Q319.3594,626.9043 319.1719,626.7168 Q318.8438,626.3418 318.2344,626.123 Q317.625,625.9043 317,625.9043 Q316.2344,625.9043 315.5938,626.2324 Q314.9688,626.5605 314.4688,627.3105 Q313.9844,628.0605 313.9844,629.0918 L313.9844,630.1855 Q313.9844,631.4199 314.875,632.248 Q315.7656,633.0605 317.3594,633.0605 Q318.2969,633.0605 318.9531,632.8105 Q319.3438,632.6543 319.7656,632.2168 Q320.0313,631.9512 320.1719,631.873 Q320.3281,631.7949 320.5313,631.7949 Q320.8594,631.7949 321.1094,632.0605 Q321.375,632.3105 321.375,632.6543 Q321.375,632.998 321.0313,633.4043 Q320.5313,633.9824 319.7344,634.3105 Q318.6563,634.7637 317.3594,634.7637 Q315.8438,634.7637 314.6406,634.1387 Q313.6563,633.6387 312.9688,632.5762 Q312.2813,631.498 312.2813,630.2168 L312.2813,629.0605 Q312.2813,627.7324 312.8906,626.5918 Q313.5156,625.4355 314.6094,624.8262 Q315.7031,624.2012 316.9375,624.2012 Q317.6719,624.2012 318.3125,624.373 Q318.9688,624.5293 319.5156,624.8887 Z " fill="#000000"/><text fill="#000000" font-family="sans-serif" font-size="14" lengthAdjust="spacing" textLength="60" x="337.25" y="634.8105">Company</text><line style="stroke:#181818;stroke-width:0.5;" x1="250" x2="452" y1="645.0137" y2="645.0137"/><line style="stroke:#181818;stroke-width:0.5;" x1="250" x2="452" y1="653.0137" y2="653.0137"/><ellipse cx="260" cy="667.8242" fill="#84BE84" rx="3" ry="3" style="stroke:#038048;stroke-width:1.0;"/><text fill="#000000" font-family="sans-serif" font-size="14" lengthAdjust="spacing" textLength="93" x="269" y="672.1211">getStoreLists()</text><ellipse cx="260" cy="686.4453" fill="#84BE84" rx="3" ry="3" style="stroke:#038048;stroke-width:1.0;"/><text fill="#000000" font-family="sans-serif" font-size="14" lengthAdjust="spacing" textLength="178" x="269" y="690.7422">getMapGraphPessoaStore()</text><ellipse cx="260" cy="705.0664" fill="#84BE84" rx="3" ry="3" style="stroke:#038048;stroke-width:1.0;"/><text fill="#000000" font-family="sans-serif" font-size="14" lengthAdjust="spacing" textLength="91" x="269" y="709.3633">getMapStore()</text></g><!--MD5=[40d2668bbcd459976779c45dfe17221f]
class Statistics--><g id="elem_Statistics"><rect codeLine="34" fill="#F1F1F1" height="234.2109" id="Statistics" rx="2.5" ry="2.5" style="stroke:#181818;stroke-width:0.5;" width="774" x="584" y="548.0137"/><ellipse cx="938.75" cy="564.0137" fill="#ADD1B2" rx="11" ry="11" style="stroke:#181818;stroke-width:1.0;"/><path d="M941.5156,559.8887 Q941.6719,559.6699 941.8594,559.5605 Q942.0469,559.4512 942.2656,559.4512 Q942.6406,559.4512 942.875,559.7168 Q943.1094,559.9668 943.1094,560.5762 L943.1094,562.0293 Q943.1094,562.6387 942.875,562.9043 Q942.6406,563.1699 942.2656,563.1699 Q941.9219,563.1699 941.7188,562.9668 Q941.5156,562.7793 941.4063,562.2637 Q941.3594,561.9043 941.1719,561.7168 Q940.8438,561.3418 940.2344,561.123 Q939.625,560.9043 939,560.9043 Q938.2344,560.9043 937.5938,561.2324 Q936.9688,561.5605 936.4688,562.3105 Q935.9844,563.0605 935.9844,564.0918 L935.9844,565.1855 Q935.9844,566.4199 936.875,567.248 Q937.7656,568.0605 939.3594,568.0605 Q940.2969,568.0605 940.9531,567.8105 Q941.3438,567.6543 941.7656,567.2168 Q942.0313,566.9512 942.1719,566.873 Q942.3281,566.7949 942.5313,566.7949 Q942.8594,566.7949 943.1094,567.0605 Q943.375,567.3105 943.375,567.6543 Q943.375,567.998 943.0313,568.4043 Q942.5313,568.9824 941.7344,569.3105 Q940.6563,569.7637 939.3594,569.7637 Q937.8438,569.7637 936.6406,569.1387 Q935.6563,568.6387 934.9688,567.5762 Q934.2813,566.498 934.2813,565.2168 L934.2813,564.0605 Q934.2813,562.7324 934.8906,561.5918 Q935.5156,560.4355 936.6094,559.8262 Q937.7031,559.2012 938.9375,559.2012 Q939.6719,559.2012 940.3125,559.373 Q940.9688,559.5293 941.5156,559.8887 Z " fill="#000000"/><text fill="#000000" font-family="sans-serif" font-size="14" lengthAdjust="spacing" textLength="56" x="959.25" y="569.8105">Statistics</text><line style="stroke:#181818;stroke-width:0.5;" x1="585" x2="1357" y1="580.0137" y2="580.0137"/><line style="stroke:#181818;stroke-width:0.5;" x1="585" x2="1357" y1="588.0137" y2="588.0137"/><ellipse cx="595" cy="602.8242" fill="#84BE84" rx="3" ry="3" style="stroke:#038048;stroke-width:1.0;"/><text fill="#000000" font-family="sans-serif" font-size="14" lengthAdjust="spacing" textLength="103" x="604" y="607.1211">cabazStatistics()</text><ellipse cx="595" cy="621.4453" fill="#84BE84" rx="3" ry="3" style="stroke:#038048;stroke-width:1.0;"/><text fill="#000000" font-family="sans-serif" font-size="14" lengthAdjust="spacing" textLength="416" x="604" y="625.7422">expeditionStatistics(List&lt;StatisticsByCabaz&gt; statisticsByCabazList)</text><ellipse cx="595" cy="640.0664" fill="#84BE84" rx="3" ry="3" style="stroke:#038048;stroke-width:1.0;"/><text fill="#000000" font-family="sans-serif" font-size="14" lengthAdjust="spacing" textLength="699" x="604" y="644.3633">produtorStatistics(List&lt;StatisticsByCabaz&gt; statisticsbyCabazList, ExpeditionStatistics expeditionStatisticsObject)</text><ellipse cx="595" cy="658.6875" fill="#84BE84" rx="3" ry="3" style="stroke:#038048;stroke-width:1.0;"/><text fill="#000000" font-family="sans-serif" font-size="14" lengthAdjust="spacing" textLength="91" x="604" y="662.9844">findAllClients()</text><ellipse cx="595" cy="677.3086" fill="#84BE84" rx="3" ry="3" style="stroke:#038048;stroke-width:1.0;"/><text fill="#000000" font-family="sans-serif" font-size="14" lengthAdjust="spacing" textLength="113" x="604" y="681.6055">findAllProducers()</text><ellipse cx="595" cy="695.9297" fill="#84BE84" rx="3" ry="3" style="stroke:#038048;stroke-width:1.0;"/><text fill="#000000" font-family="sans-serif" font-size="14" lengthAdjust="spacing" textLength="303" x="604" y="700.2266">findProdutorObjectList(listProducer, produtores)</text><ellipse cx="595" cy="714.5508" fill="#84BE84" rx="3" ry="3" style="stroke:#038048;stroke-width:1.0;"/><text fill="#000000" font-family="sans-serif" font-size="14" lengthAdjust="spacing" textLength="559" x="604" y="718.8477">hubsExistentes(Map&lt;Pessoa, Map&lt;Pessoa, Integer&gt;&gt; hubClient, List&lt;Pessoa&gt; listClient)</text><ellipse cx="595" cy="733.1719" fill="#84BE84" rx="3" ry="3" style="stroke:#038048;stroke-width:1.0;"/><text fill="#000000" font-family="sans-serif" font-size="14" lengthAdjust="spacing" textLength="748" x="604" y="737.4688">produtosEsgotados(Produtor produtor, Map&lt;Produtor, TreeMap&lt;Integer, Map&lt;Produtos, Double&gt;&gt;&gt; stockMap, int dia)</text><ellipse cx="595" cy="751.793" fill="#84BE84" rx="3" ry="3" style="stroke:#038048;stroke-width:1.0;"/><text fill="#000000" font-family="sans-serif" font-size="14" lengthAdjust="spacing" textLength="409" x="604" y="756.0898">findClientObjectList(List&lt;Pessoa&gt; listClient, List&lt;String&gt; clientes)</text><ellipse cx="595" cy="770.4141" fill="#84BE84" rx="3" ry="3" style="stroke:#038048;stroke-width:1.0;"/><text fill="#000000" font-family="sans-serif" font-size="14" lengthAdjust="spacing" textLength="256" x="604" y="774.7109">expedatingStore.getHubProximoCliente()</text></g><!--MD5=[2473181366ad82bea05d20fd8c7f64f7]
class FindMethods--><g id="elem_FindMethods"><rect codeLine="47" fill="#F1F1F1" height="85.2422" id="FindMethods" rx="2.5" ry="2.5" style="stroke:#181818;stroke-width:0.5;" width="139" x="901.5" y="884.0137"/><ellipse cx="927.75" cy="900.0137" fill="#ADD1B2" rx="11" ry="11" style="stroke:#181818;stroke-width:1.0;"/><path d="M930.5156,895.8887 Q930.6719,895.6699 930.8594,895.5605 Q931.0469,895.4512 931.2656,895.4512 Q931.6406,895.4512 931.875,895.7168 Q932.1094,895.9668 932.1094,896.5762 L932.1094,898.0293 Q932.1094,898.6387 931.875,898.9043 Q931.6406,899.1699 931.2656,899.1699 Q930.9219,899.1699 930.7188,898.9668 Q930.5156,898.7793 930.4063,898.2637 Q930.3594,897.9043 930.1719,897.7168 Q929.8438,897.3418 929.2344,897.123 Q928.625,896.9043 928,896.9043 Q927.2344,896.9043 926.5938,897.2324 Q925.9688,897.5605 925.4688,898.3105 Q924.9844,899.0605 924.9844,900.0918 L924.9844,901.1855 Q924.9844,902.4199 925.875,903.248 Q926.7656,904.0605 928.3594,904.0605 Q929.2969,904.0605 929.9531,903.8105 Q930.3438,903.6543 930.7656,903.2168 Q931.0313,902.9512 931.1719,902.873 Q931.3281,902.7949 931.5313,902.7949 Q931.8594,902.7949 932.1094,903.0605 Q932.375,903.3105 932.375,903.6543 Q932.375,903.998 932.0313,904.4043 Q931.5313,904.9824 930.7344,905.3105 Q929.6563,905.7637 928.3594,905.7637 Q926.8438,905.7637 925.6406,905.1387 Q924.6563,904.6387 923.9688,903.5762 Q923.2813,902.498 923.2813,901.2168 L923.2813,900.0605 Q923.2813,898.7324 923.8906,897.5918 Q924.5156,896.4355 925.6094,895.8262 Q926.7031,895.2012 927.9375,895.2012 Q928.6719,895.2012 929.3125,895.373 Q929.9688,895.5293 930.5156,895.8887 Z " fill="#000000"/><text fill="#000000" font-family="sans-serif" font-size="14" lengthAdjust="spacing" textLength="82" x="944.25" y="905.8105">FindMethods</text><line style="stroke:#181818;stroke-width:0.5;" x1="902.5" x2="1039.5" y1="916.0137" y2="916.0137"/><line style="stroke:#181818;stroke-width:0.5;" x1="902.5" x2="1039.5" y1="924.0137" y2="924.0137"/><ellipse cx="912.5" cy="938.8242" fill="#84BE84" rx="3" ry="3" style="stroke:#038048;stroke-width:1.0;"/><text fill="#000000" font-family="sans-serif" font-size="14" lengthAdjust="spacing" textLength="113" x="921.5" y="943.1211">findAllProducers()</text><ellipse cx="912.5" cy="957.4453" fill="#84BE84" rx="3" ry="3" style="stroke:#038048;stroke-width:1.0;"/><text fill="#000000" font-family="sans-serif" font-size="14" lengthAdjust="spacing" textLength="91" x="921.5" y="961.7422">findAllClients()</text></g><!--MD5=[66db75c6a90eee27ea57be2f28d34b97]
link Main to MenuUI--><g id="link_Main_MenuUI"><path codeLine="55" d="M411,181.0337 C411,196.9137 411,218.3837 411,236.7537 " fill="none" id="Main-to-MenuUI" style="stroke:#181818;stroke-width:1.0;stroke-dasharray:7.0,7.0;"/><polygon fill="#181818" points="411,241.8437,415,232.8437,411,236.8437,407,232.8437,411,241.8437" style="stroke:#181818;stroke-width:1.0;"/></g><!--MD5=[18b2adbec2d4d81fe2abb63fe9732443]
link MenuUI to MainController--><g id="link_MenuUI_MainController"><path codeLine="56" d="M411,309.2737 C411,332.9237 411,364.9137 411,389.6537 " fill="none" id="MenuUI-to-MainController" style="stroke:#181818;stroke-width:1.0;stroke-dasharray:7.0,7.0;"/><polygon fill="#181818" points="411,394.8137,415,385.8137,411,389.8137,407,385.8137,411,394.8137" style="stroke:#181818;stroke-width:1.0;"/></g><!--MD5=[dfc7feb03aedb5bfdeb09277bbd32635]
reverse link Company to StoreLists--><g id="link_Company_StoreLists"><path codeLine="57" d="M288.36,726.7137 C255.89,759.1137 216.19,800.2137 183,839.0137 C165.3,859.7137 146.79,884.7137 134.08,902.5037 " fill="none" id="Company-backto-StoreLists" style="stroke:#181818;stroke-width:1.0;"/><polygon fill="#181818" points="297.75,717.3937,290.6746,718.7859,289.2384,725.8525,296.3138,724.4603,297.75,717.3937" style="stroke:#181818;stroke-width:1.0;"/><text fill="#000000" font-family="sans-serif" font-size="13" lengthAdjust="spacing" textLength="30" x="205" y="827.042">owns</text></g><!--MD5=[dd87a104d068555fe39a48b0ae034cc9]
reverse link Company to MapStore--><g id="link_Company_MapStore"><path codeLine="58" d="M376.96,729.5637 C399.8,785.4937 431.81,863.8337 447.53,902.3237 " fill="none" id="Company-backto-MapStore" style="stroke:#181818;stroke-width:1.0;"/><polygon fill="#181818" points="371.94,717.2837,370.5063,724.3508,376.4785,728.3923,377.9121,721.3252,371.94,717.2837" style="stroke:#181818;stroke-width:1.0;"/><text fill="#000000" font-family="sans-serif" font-size="13" lengthAdjust="spacing" textLength="30" x="417" y="827.042">owns</text></g><!--MD5=[0fa0caec5f0123cfd629c24ba9ff0a7b]
reverse link Company to ExpedatingStore--><g id="link_Company_ExpedatingStore"><path codeLine="59" d="M335.46,730.0337 C323.81,777.9937 308.22,842.2437 298.14,883.7637 " fill="none" id="Company-backto-ExpedatingStore" style="stroke:#181818;stroke-width:1.0;"/><polygon fill="#181818" points="338.55,717.2837,333.2466,722.1698,335.7171,728.9445,341.0205,724.0584,338.55,717.2837" style="stroke:#181818;stroke-width:1.0;"/><text fill="#000000" font-family="sans-serif" font-size="13" lengthAdjust="spacing" textLength="30" x="314" y="827.042">owns</text></g><!--MD5=[6466c02c70a565c5689553fda203fa28]
link MainController to Company--><g id="link_MainController_Company"><path codeLine="61" d="M402.66,462.1237 C393.03,499.7637 377.02,562.3237 365.37,607.8437 " fill="none" id="MainController-to-Company" style="stroke:#181818;stroke-width:1.0;stroke-dasharray:7.0,7.0;"/><polygon fill="#181818" points="364.12,612.7537,370.2317,605.0305,365.3629,607.9106,362.4828,603.0418,364.12,612.7537" style="stroke:#181818;stroke-width:1.0;"/></g><!--MD5=[215fb86b8d984c259bedb2228e3b82d4]
link MainController to Statistics--><g id="link_MainController_Statistics"><path codeLine="62" d="M486.23,461.0137 C539.28,483.2337 613.97,514.5037 688.86,545.8637 " fill="none" id="MainController-to-Statistics" style="stroke:#181818;stroke-width:1.0;stroke-dasharray:7.0,7.0;"/><polygon fill="#181818" points="693.79,547.9337,687.0286,540.7724,689.1767,546.0055,683.9436,548.1536,693.79,547.9337" style="stroke:#181818;stroke-width:1.0;"/></g><!--MD5=[7884d23e4444121a37fc33e3b916e27f]
link Statistics to FindMethods--><g id="link_Statistics_FindMethods"><path codeLine="63" d="M971,782.1037 C971,816.1337 971,851.4337 971,878.4937 " fill="none" id="Statistics-to-FindMethods" style="stroke:#181818;stroke-width:1.0;stroke-dasharray:7.0,7.0;"/><polygon fill="#181818" points="971,883.7937,975,874.7937,971,878.7937,967,874.7937,971,883.7937" style="stroke:#181818;stroke-width:1.0;"/></g><!--MD5=[93408ce83c85d4c254b0a30bd73498f5]
link Statistics to ExpedatingStore--><g id="link_Statistics_ExpedatingStore"><path codeLine="64" d="M639.63,782.0237 C579.07,800.4037 516.04,817.7037 456,831.0137 C428.44,837.1237 418.91,827.8237 393,839.0137 C368.93,849.4037 346,867.0537 327.73,883.7037 " fill="none" id="Statistics-ExpedatingStore" style="stroke:#181818;stroke-width:1.0;"/></g><!--MD5=[51d1e1ffa086487444e79b840a156728]
link Statistics to MapStore--><g id="link_Statistics_MapStore"><path codeLine="66" d="M676.06,782.1237 C638.95,799.7737 602.09,818.8737 568,839.0137 C536.87,857.4137 504.64,883.4437 482.98,902.1437 " fill="none" id="Statistics-MapStore" style="stroke:#181818;stroke-width:1.0;"/></g><!--MD5=[9ef115c508b02cca74d43a97f24b46f3]
@startuml
package Main <<Folder>>#DDDDDD {
package Company <<Folder>>#DDDDDD {
package ui <<Folder>>#DDDDDD {
class Main
class MenuUI {
+printMainStatistics()
    }
}

package Controller <<Folder>>#DDDDDD {
class MainController {
+printMainStatistics()
    }
}

package Store <<Folder>>#DDDDDD {
class ExpedatingStore {
+getHubProximoCliente()
+getExpedatingList();
}
class StoreLists
class MapStore
}
package Model <<Folder>>#DDDDDD {
class Company {
+getStoreLists()
+getMapGraphPessoaStore()
+getMapStore()
}
}
}

package Methods <<Folder>>#DDDDDD {
class Statistics {
+cabazStatistics()
+expeditionStatistics(List<StatisticsByCabaz> statisticsByCabazList)
+produtorStatistics(List<StatisticsByCabaz> statisticsbyCabazList, ExpeditionStatistics expeditionStatisticsObject)
+findAllClients()
+findAllProducers()
+findProdutorObjectList(listProducer, produtores)
+hubsExistentes(Map<Pessoa, Map<Pessoa, Integer>> hubClient, List<Pessoa> listClient)
+produtosEsgotados(Produtor produtor, Map<Produtor, TreeMap<Integer, Map<Produtos, Double>>> stockMap, int dia)
+findClientObjectList(List<Pessoa> listClient, List<String> clientes)
+expedatingStore.getHubProximoCliente()
}

class FindMethods {
+findAllProducers()
+findAllClients()
}

}

}
Main ..> MenuUI
MenuUI ..> MainController
Company *- - StoreLists : owns
Company *- - MapStore : owns
Company *- - ExpedatingStore : owns

MainController ..> Company
MainController ..> Statistics
Statistics ..> FindMethods
Statistics - - ExpedatingStore

Statistics - - MapStore



@enduml

PlantUML version 1.2022.13(Sat Nov 19 13:22:17 WET 2022)
(GPL source distribution)
Java Runtime: OpenJDK Runtime Environment
JVM: OpenJDK 64-Bit Server VM
Default Encoding: Cp1252
Language: pt
Country: PT
--></g></svg>