<?xml version="1.0" encoding="UTF-8" standalone="no"?><svg xmlns="http://www.w3.org/2000/svg" xmlns:xlink="http://www.w3.org/1999/xlink" contentStyleType="text/css" height="1040px" preserveAspectRatio="none" style="width:2759px;height:1040px;background:#FFFFFF;" version="1.1" viewBox="0 0 2759 1040" width="2759px" zoomAndPan="magnify"><defs/><g><!--MD5=[e80bd461753d6c5ec111731420959425]
cluster Main--><g id="cluster_Main"><path d="M8.5,6.0137 L43.5,6.0137 A3.75,3.75 0 0 1 46,8.5137 L53,30.6348 L2749.5,30.6348 A2.5,2.5 0 0 1 2752,33.1348 L2752,1030.5137 A2.5,2.5 0 0 1 2749.5,1033.0137 L8.5,1033.0137 A2.5,2.5 0 0 1 6,1030.5137 L6,8.5137 A2.5,2.5 0 0 1 8.5,6.0137 " fill="#DDDDDD" style="stroke:#000000;stroke-width:1.5;"/><line style="stroke:#000000;stroke-width:1.5;" x1="6" x2="53" y1="30.6348" y2="30.6348"/><text fill="#000000" font-family="sans-serif" font-size="14" font-weight="bold" lengthAdjust="spacing" textLength="34" x="10" y="23.1211">Main</text></g><!--MD5=[66dd6d0a484290b46f8665dfa0e5de89]
cluster Company--><g id="cluster_Company"><path d="M32.5,51.0137 L97.5,51.0137 A3.75,3.75 0 0 1 100,53.5137 L107,75.6348 L1333.5,75.6348 A2.5,2.5 0 0 1 1336,78.1348 L1336,1006.5137 A2.5,2.5 0 0 1 1333.5,1009.0137 L32.5,1009.0137 A2.5,2.5 0 0 1 30,1006.5137 L30,53.5137 A2.5,2.5 0 0 1 32.5,51.0137 " fill="#DDDDDD" style="stroke:#000000;stroke-width:1.5;"/><line style="stroke:#000000;stroke-width:1.5;" x1="30" x2="107" y1="75.6348" y2="75.6348"/><text fill="#000000" font-family="sans-serif" font-size="14" font-weight="bold" lengthAdjust="spacing" textLength="64" x="34" y="68.1211">Company</text></g><!--MD5=[64e2e010ba86d7988e5cd73bd64f61f9]
cluster ui--><g id="cluster_ui"><path d="M517.5,96.0137 L531.5,96.0137 A3.75,3.75 0 0 1 534,98.5137 L541,120.6348 L848.5,120.6348 A2.5,2.5 0 0 1 851,123.1348 L851,322.5137 A2.5,2.5 0 0 1 848.5,325.0137 L517.5,325.0137 A2.5,2.5 0 0 1 515,322.5137 L515,98.5137 A2.5,2.5 0 0 1 517.5,96.0137 " fill="#DDDDDD" style="stroke:#000000;stroke-width:1.5;"/><line style="stroke:#000000;stroke-width:1.5;" x1="515" x2="541" y1="120.6348" y2="120.6348"/><text fill="#000000" font-family="sans-serif" font-size="14" font-weight="bold" lengthAdjust="spacing" textLength="13" x="519" y="113.1211">ui</text></g><!--MD5=[1f2cfc53d9d308f53762fd0fcbaa4873]
cluster Controller--><g id="cluster_Controller"><path d="M56.5,358.0137 L128.5,358.0137 A3.75,3.75 0 0 1 131,360.5137 L138,382.6348 L1309.5,382.6348 A2.5,2.5 0 0 1 1312,385.1348 L1312,530.5137 A2.5,2.5 0 0 1 1309.5,533.0137 L56.5,533.0137 A2.5,2.5 0 0 1 54,530.5137 L54,360.5137 A2.5,2.5 0 0 1 56.5,358.0137 " fill="#DDDDDD" style="stroke:#000000;stroke-width:1.5;"/><line style="stroke:#000000;stroke-width:1.5;" x1="54" x2="138" y1="382.6348" y2="382.6348"/><text fill="#000000" font-family="sans-serif" font-size="14" font-weight="bold" lengthAdjust="spacing" textLength="71" x="58" y="375.1211">Controller</text></g><!--MD5=[7ce1723ddb6e6233854253973eae5a71]
cluster Store--><g id="cluster_Store"><path d="M224.5,828.0137 L263.5,828.0137 A3.75,3.75 0 0 1 266,830.5137 L273,852.6348 L993.5,852.6348 A2.5,2.5 0 0 1 996,855.1348 L996,982.5137 A2.5,2.5 0 0 1 993.5,985.0137 L224.5,985.0137 A2.5,2.5 0 0 1 222,982.5137 L222,830.5137 A2.5,2.5 0 0 1 224.5,828.0137 " fill="#DDDDDD" style="stroke:#000000;stroke-width:1.5;"/><line style="stroke:#000000;stroke-width:1.5;" x1="222" x2="273" y1="852.6348" y2="852.6348"/><text fill="#000000" font-family="sans-serif" font-size="14" font-weight="bold" lengthAdjust="spacing" textLength="38" x="226" y="845.1211">Store</text></g><!--MD5=[15636c1ca4a123c16a2a1a8e90aca7a9]
cluster Model--><g id="cluster_Model"><path d="M572.5,594.0137 L617.5,594.0137 A3.75,3.75 0 0 1 620,596.5137 L627,618.6348 L793.5,618.6348 A2.5,2.5 0 0 1 796,621.1348 L796,748.5137 A2.5,2.5 0 0 1 793.5,751.0137 L572.5,751.0137 A2.5,2.5 0 0 1 570,748.5137 L570,596.5137 A2.5,2.5 0 0 1 572.5,594.0137 " fill="#DDDDDD" style="stroke:#000000;stroke-width:1.5;"/><line style="stroke:#000000;stroke-width:1.5;" x1="570" x2="627" y1="618.6348" y2="618.6348"/><text fill="#000000" font-family="sans-serif" font-size="14" font-weight="bold" lengthAdjust="spacing" textLength="44" x="574" y="611.1211">Model</text></g><!--MD5=[b792253f46c87a5be23eaae1b68e2912]
cluster Methods--><g id="cluster_Methods"><path d="M1362.5,566.0137 L1425.5,566.0137 A3.75,3.75 0 0 1 1428,568.5137 L1435,590.6348 L2725.5,590.6348 A2.5,2.5 0 0 1 2728,593.1348 L2728,964.0137 A2.5,2.5 0 0 1 2725.5,966.5137 L1362.5,966.5137 A2.5,2.5 0 0 1 1360,964.0137 L1360,568.5137 A2.5,2.5 0 0 1 1362.5,566.0137 " fill="#DDDDDD" style="stroke:#000000;stroke-width:1.5;"/><line style="stroke:#000000;stroke-width:1.5;" x1="1360" x2="1435" y1="590.6348" y2="590.6348"/><text fill="#000000" font-family="sans-serif" font-size="14" font-weight="bold" lengthAdjust="spacing" textLength="62" x="1364" y="583.1211">Methods</text></g><!--MD5=[84718776d214be480e4c259efcb737fc]
class Main--><g id="elem_Main"><rect codeLine="4" fill="#F1F1F1" height="48" id="Main" rx="2.5" ry="2.5" style="stroke:#181818;stroke-width:0.5;" width="62" x="652" y="133.0137"/><ellipse cx="667" cy="149.0137" fill="#ADD1B2" rx="11" ry="11" style="stroke:#181818;stroke-width:1.0;"/><path d="M669.7656,144.8887 Q669.9219,144.6699 670.1094,144.5605 Q670.2969,144.4512 670.5156,144.4512 Q670.8906,144.4512 671.125,144.7168 Q671.3594,144.9668 671.3594,145.5762 L671.3594,147.0293 Q671.3594,147.6387 671.125,147.9043 Q670.8906,148.1699 670.5156,148.1699 Q670.1719,148.1699 669.9688,147.9668 Q669.7656,147.7793 669.6563,147.2637 Q669.6094,146.9043 669.4219,146.7168 Q669.0938,146.3418 668.4844,146.123 Q667.875,145.9043 667.25,145.9043 Q666.4844,145.9043 665.8438,146.2324 Q665.2188,146.5605 664.7188,147.3105 Q664.2344,148.0605 664.2344,149.0918 L664.2344,150.1855 Q664.2344,151.4199 665.125,152.248 Q666.0156,153.0605 667.6094,153.0605 Q668.5469,153.0605 669.2031,152.8105 Q669.5938,152.6543 670.0156,152.2168 Q670.2813,151.9512 670.4219,151.873 Q670.5781,151.7949 670.7813,151.7949 Q671.1094,151.7949 671.3594,152.0605 Q671.625,152.3105 671.625,152.6543 Q671.625,152.998 671.2813,153.4043 Q670.7813,153.9824 669.9844,154.3105 Q668.9063,154.7637 667.6094,154.7637 Q666.0938,154.7637 664.8906,154.1387 Q663.9063,153.6387 663.2188,152.5762 Q662.5313,151.498 662.5313,150.2168 L662.5313,149.0605 Q662.5313,147.7324 663.1406,146.5918 Q663.7656,145.4355 664.8594,144.8262 Q665.9531,144.2012 667.1875,144.2012 Q667.9219,144.2012 668.5625,144.373 Q669.2188,144.5293 669.7656,144.8887 Z " fill="#000000"/><text fill="#000000" font-family="sans-serif" font-size="14" lengthAdjust="spacing" textLength="30" x="681" y="154.8105">Main</text><line style="stroke:#181818;stroke-width:0.5;" x1="653" x2="713" y1="165.0137" y2="165.0137"/><line style="stroke:#181818;stroke-width:0.5;" x1="653" x2="713" y1="173.0137" y2="173.0137"/></g><!--MD5=[02de039990bbea028db2518876dfca25]
class MenuUI--><g id="elem_MenuUI"><rect codeLine="5" fill="#F1F1F1" height="66.6211" id="MenuUI" rx="2.5" ry="2.5" style="stroke:#181818;stroke-width:0.5;" width="303" x="531.5" y="242.0137"/><ellipse cx="655.25" cy="258.0137" fill="#ADD1B2" rx="11" ry="11" style="stroke:#181818;stroke-width:1.0;"/><path d="M658.0156,253.8887 Q658.1719,253.6699 658.3594,253.5605 Q658.5469,253.4512 658.7656,253.4512 Q659.1406,253.4512 659.375,253.7168 Q659.6094,253.9668 659.6094,254.5762 L659.6094,256.0293 Q659.6094,256.6387 659.375,256.9043 Q659.1406,257.1699 658.7656,257.1699 Q658.4219,257.1699 658.2188,256.9668 Q658.0156,256.7793 657.9063,256.2637 Q657.8594,255.9043 657.6719,255.7168 Q657.3438,255.3418 656.7344,255.123 Q656.125,254.9043 655.5,254.9043 Q654.7344,254.9043 654.0938,255.2324 Q653.4688,255.5605 652.9688,256.3105 Q652.4844,257.0605 652.4844,258.0918 L652.4844,259.1855 Q652.4844,260.4199 653.375,261.248 Q654.2656,262.0605 655.8594,262.0605 Q656.7969,262.0605 657.4531,261.8105 Q657.8438,261.6543 658.2656,261.2168 Q658.5313,260.9512 658.6719,260.873 Q658.8281,260.7949 659.0313,260.7949 Q659.3594,260.7949 659.6094,261.0605 Q659.875,261.3105 659.875,261.6543 Q659.875,261.998 659.5313,262.4043 Q659.0313,262.9824 658.2344,263.3105 Q657.1563,263.7637 655.8594,263.7637 Q654.3438,263.7637 653.1406,263.1387 Q652.1563,262.6387 651.4688,261.5762 Q650.7813,260.498 650.7813,259.2168 L650.7813,258.0605 Q650.7813,256.7324 651.3906,255.5918 Q652.0156,254.4355 653.1094,253.8262 Q654.2031,253.2012 655.4375,253.2012 Q656.1719,253.2012 656.8125,253.373 Q657.4688,253.5293 658.0156,253.8887 Z " fill="#000000"/><text fill="#000000" font-family="sans-serif" font-size="14" lengthAdjust="spacing" textLength="47" x="675.75" y="263.8105">MenuUI</text><line style="stroke:#181818;stroke-width:0.5;" x1="532.5" x2="833.5" y1="274.0137" y2="274.0137"/><line style="stroke:#181818;stroke-width:0.5;" x1="532.5" x2="833.5" y1="282.0137" y2="282.0137"/><ellipse cx="542.5" cy="296.8242" fill="#84BE84" rx="3" ry="3" style="stroke:#038048;stroke-width:1.0;"/><text fill="#000000" font-family="sans-serif" font-size="14" lengthAdjust="spacing" textLength="277" x="551.5" y="301.1211">expedatingForDayRestrictions(int day, int n)</text></g><!--MD5=[0278646e5a3f51edb25d463fe8c5bfab]
class MainController--><g id="elem_MainController"><rect codeLine="12" fill="#F1F1F1" height="122.4844" id="MainController" rx="2.5" ry="2.5" style="stroke:#181818;stroke-width:0.5;" width="1225" x="70.5" y="395.0137"/><ellipse cx="632.75" cy="411.0137" fill="#ADD1B2" rx="11" ry="11" style="stroke:#181818;stroke-width:1.0;"/><path d="M635.5156,406.8887 Q635.6719,406.6699 635.8594,406.5605 Q636.0469,406.4512 636.2656,406.4512 Q636.6406,406.4512 636.875,406.7168 Q637.1094,406.9668 637.1094,407.5762 L637.1094,409.0293 Q637.1094,409.6387 636.875,409.9043 Q636.6406,410.1699 636.2656,410.1699 Q635.9219,410.1699 635.7188,409.9668 Q635.5156,409.7793 635.4063,409.2637 Q635.3594,408.9043 635.1719,408.7168 Q634.8438,408.3418 634.2344,408.123 Q633.625,407.9043 633,407.9043 Q632.2344,407.9043 631.5938,408.2324 Q630.9688,408.5605 630.4688,409.3105 Q629.9844,410.0605 629.9844,411.0918 L629.9844,412.1855 Q629.9844,413.4199 630.875,414.248 Q631.7656,415.0605 633.3594,415.0605 Q634.2969,415.0605 634.9531,414.8105 Q635.3438,414.6543 635.7656,414.2168 Q636.0313,413.9512 636.1719,413.873 Q636.3281,413.7949 636.5313,413.7949 Q636.8594,413.7949 637.1094,414.0605 Q637.375,414.3105 637.375,414.6543 Q637.375,414.998 637.0313,415.4043 Q636.5313,415.9824 635.7344,416.3105 Q634.6563,416.7637 633.3594,416.7637 Q631.8438,416.7637 630.6406,416.1387 Q629.6563,415.6387 628.9688,414.5762 Q628.2813,413.498 628.2813,412.2168 L628.2813,411.0605 Q628.2813,409.7324 628.8906,408.5918 Q629.5156,407.4355 630.6094,406.8262 Q631.7031,406.2012 632.9375,406.2012 Q633.6719,406.2012 634.3125,406.373 Q634.9688,406.5293 635.5156,406.8887 Z " fill="#000000"/><text fill="#000000" font-family="sans-serif" font-size="14" lengthAdjust="spacing" textLength="92" x="653.25" y="416.8105">MainController</text><line style="stroke:#181818;stroke-width:0.5;" x1="71.5" x2="1294.5" y1="427.0137" y2="427.0137"/><line style="stroke:#181818;stroke-width:0.5;" x1="71.5" x2="1294.5" y1="435.0137" y2="435.0137"/><ellipse cx="81.5" cy="449.8242" fill="#84BE84" rx="3" ry="3" style="stroke:#038048;stroke-width:1.0;"/><text fill="#000000" font-family="sans-serif" font-size="14" lengthAdjust="spacing" textLength="277" x="90.5" y="454.1211">expedatingForDayRestrictions(int day, int n)</text><ellipse cx="81.5" cy="468.4453" fill="#84BE84" rx="3" ry="3" style="stroke:#038048;stroke-width:1.0;"/><text fill="#000000" font-family="sans-serif" font-size="14" lengthAdjust="spacing" textLength="1199" x="90.5" y="472.7422">expedatingForDay(int day, int restriction, int n, Map&lt;Produtor, TreeMap&lt;Integer, Map&lt;Produtos, Double&gt;&gt;&gt; stockMap,Map&lt;Pessoa, TreeMap&lt;Integer, Map&lt;Produtos, Double&gt;&gt;&gt; clientsMap)</text><text fill="#000000" font-family="sans-serif" font-size="14" lengthAdjust="spacing" textLength="145" x="90.5" y="491.3633">getstockProdutorMap()</text><text fill="#000000" font-family="sans-serif" font-size="14" lengthAdjust="spacing" textLength="94" x="90.5" y="509.9844">getcabazMap()</text></g><!--MD5=[14dc7b858ae97e20c7f9bd91ff750642]
class ExpedatingStore--><g id="elem_ExpedatingStore"><rect codeLine="21" fill="#F1F1F1" height="103.8633" id="ExpedatingStore" rx="2.5" ry="2.5" style="stroke:#181818;stroke-width:0.5;" width="320" x="238" y="865.0137"/><ellipse cx="341.75" cy="881.0137" fill="#ADD1B2" rx="11" ry="11" style="stroke:#181818;stroke-width:1.0;"/><path d="M344.5156,876.8887 Q344.6719,876.6699 344.8594,876.5605 Q345.0469,876.4512 345.2656,876.4512 Q345.6406,876.4512 345.875,876.7168 Q346.1094,876.9668 346.1094,877.5762 L346.1094,879.0293 Q346.1094,879.6387 345.875,879.9043 Q345.6406,880.1699 345.2656,880.1699 Q344.9219,880.1699 344.7188,879.9668 Q344.5156,879.7793 344.4063,879.2637 Q344.3594,878.9043 344.1719,878.7168 Q343.8438,878.3418 343.2344,878.123 Q342.625,877.9043 342,877.9043 Q341.2344,877.9043 340.5938,878.2324 Q339.9688,878.5605 339.4688,879.3105 Q338.9844,880.0605 338.9844,881.0918 L338.9844,882.1855 Q338.9844,883.4199 339.875,884.248 Q340.7656,885.0605 342.3594,885.0605 Q343.2969,885.0605 343.9531,884.8105 Q344.3438,884.6543 344.7656,884.2168 Q345.0313,883.9512 345.1719,883.873 Q345.3281,883.7949 345.5313,883.7949 Q345.8594,883.7949 346.1094,884.0605 Q346.375,884.3105 346.375,884.6543 Q346.375,884.998 346.0313,885.4043 Q345.5313,885.9824 344.7344,886.3105 Q343.6563,886.7637 342.3594,886.7637 Q340.8438,886.7637 339.6406,886.1387 Q338.6563,885.6387 337.9688,884.5762 Q337.2813,883.498 337.2813,882.2168 L337.2813,881.0605 Q337.2813,879.7324 337.8906,878.5918 Q338.5156,877.4355 339.6094,876.8262 Q340.7031,876.2012 341.9375,876.2012 Q342.6719,876.2012 343.3125,876.373 Q343.9688,876.5293 344.5156,876.8887 Z " fill="#000000"/><text fill="#000000" font-family="sans-serif" font-size="14" lengthAdjust="spacing" textLength="104" x="362.25" y="886.8105">ExpedatingStore</text><line style="stroke:#181818;stroke-width:0.5;" x1="239" x2="557" y1="897.0137" y2="897.0137"/><line style="stroke:#181818;stroke-width:0.5;" x1="239" x2="557" y1="905.0137" y2="905.0137"/><ellipse cx="249" cy="919.8242" fill="#84BE84" rx="3" ry="3" style="stroke:#038048;stroke-width:1.0;"/><text fill="#000000" font-family="sans-serif" font-size="14" lengthAdjust="spacing" textLength="149" x="258" y="924.1211">getHubProximoCliente()</text><ellipse cx="249" cy="938.4453" fill="#84BE84" rx="3" ry="3" style="stroke:#038048;stroke-width:1.0;"/><text fill="#000000" font-family="sans-serif" font-size="14" lengthAdjust="spacing" textLength="163" x="258" y="942.7422">produtoresEachHub(int n)</text><ellipse cx="249" cy="957.0664" fill="#84BE84" rx="3" ry="3" style="stroke:#038048;stroke-width:1.0;"/><text fill="#000000" font-family="sans-serif" font-size="14" lengthAdjust="spacing" textLength="294" x="258" y="961.3633">setExpedatingList(List&lt;Cabaz&gt; expedatingList)</text></g><!--MD5=[3ecf2b447fd626a808bbfa4df6084566]
class MapGraphPessoaStore--><g id="elem_MapGraphPessoaStore"><rect codeLine="28" fill="#F1F1F1" height="66.6211" id="MapGraphPessoaStore" rx="2.5" ry="2.5" style="stroke:#181818;stroke-width:0.5;" width="180" x="593" y="883.5137"/><ellipse cx="608" cy="899.5137" fill="#ADD1B2" rx="11" ry="11" style="stroke:#181818;stroke-width:1.0;"/><path d="M610.7656,895.3887 Q610.9219,895.1699 611.1094,895.0605 Q611.2969,894.9512 611.5156,894.9512 Q611.8906,894.9512 612.125,895.2168 Q612.3594,895.4668 612.3594,896.0762 L612.3594,897.5293 Q612.3594,898.1387 612.125,898.4043 Q611.8906,898.6699 611.5156,898.6699 Q611.1719,898.6699 610.9688,898.4668 Q610.7656,898.2793 610.6563,897.7637 Q610.6094,897.4043 610.4219,897.2168 Q610.0938,896.8418 609.4844,896.623 Q608.875,896.4043 608.25,896.4043 Q607.4844,896.4043 606.8438,896.7324 Q606.2188,897.0605 605.7188,897.8105 Q605.2344,898.5605 605.2344,899.5918 L605.2344,900.6855 Q605.2344,901.9199 606.125,902.748 Q607.0156,903.5605 608.6094,903.5605 Q609.5469,903.5605 610.2031,903.3105 Q610.5938,903.1543 611.0156,902.7168 Q611.2813,902.4512 611.4219,902.373 Q611.5781,902.2949 611.7813,902.2949 Q612.1094,902.2949 612.3594,902.5605 Q612.625,902.8105 612.625,903.1543 Q612.625,903.498 612.2813,903.9043 Q611.7813,904.4824 610.9844,904.8105 Q609.9063,905.2637 608.6094,905.2637 Q607.0938,905.2637 605.8906,904.6387 Q604.9063,904.1387 604.2188,903.0762 Q603.5313,901.998 603.5313,900.7168 L603.5313,899.5605 Q603.5313,898.2324 604.1406,897.0918 Q604.7656,895.9355 605.8594,895.3262 Q606.9531,894.7012 608.1875,894.7012 Q608.9219,894.7012 609.5625,894.873 Q610.2188,895.0293 610.7656,895.3887 Z " fill="#000000"/><text fill="#000000" font-family="sans-serif" font-size="14" lengthAdjust="spacing" textLength="148" x="622" y="905.3105">MapGraphPessoaStore</text><line style="stroke:#181818;stroke-width:0.5;" x1="594" x2="772" y1="915.5137" y2="915.5137"/><line style="stroke:#181818;stroke-width:0.5;" x1="594" x2="772" y1="923.5137" y2="923.5137"/><ellipse cx="604" cy="938.3242" fill="#84BE84" rx="3" ry="3" style="stroke:#038048;stroke-width:1.0;"/><text fill="#000000" font-family="sans-serif" font-size="14" lengthAdjust="spacing" textLength="97" x="613" y="942.6211">getMapGraph()</text></g><!--MD5=[dfcf960dcc7a983995284746c51b3f2c]
class MapStore--><g id="elem_MapStore"><rect codeLine="32" fill="#F1F1F1" height="85.2422" id="MapStore" rx="2.5" ry="2.5" style="stroke:#181818;stroke-width:0.5;" width="171" x="808.5" y="874.5137"/><ellipse cx="859.25" cy="890.5137" fill="#ADD1B2" rx="11" ry="11" style="stroke:#181818;stroke-width:1.0;"/><path d="M862.0156,886.3887 Q862.1719,886.1699 862.3594,886.0605 Q862.5469,885.9512 862.7656,885.9512 Q863.1406,885.9512 863.375,886.2168 Q863.6094,886.4668 863.6094,887.0762 L863.6094,888.5293 Q863.6094,889.1387 863.375,889.4043 Q863.1406,889.6699 862.7656,889.6699 Q862.4219,889.6699 862.2188,889.4668 Q862.0156,889.2793 861.9063,888.7637 Q861.8594,888.4043 861.6719,888.2168 Q861.3438,887.8418 860.7344,887.623 Q860.125,887.4043 859.5,887.4043 Q858.7344,887.4043 858.0938,887.7324 Q857.4688,888.0605 856.9688,888.8105 Q856.4844,889.5605 856.4844,890.5918 L856.4844,891.6855 Q856.4844,892.9199 857.375,893.748 Q858.2656,894.5605 859.8594,894.5605 Q860.7969,894.5605 861.4531,894.3105 Q861.8438,894.1543 862.2656,893.7168 Q862.5313,893.4512 862.6719,893.373 Q862.8281,893.2949 863.0313,893.2949 Q863.3594,893.2949 863.6094,893.5605 Q863.875,893.8105 863.875,894.1543 Q863.875,894.498 863.5313,894.9043 Q863.0313,895.4824 862.2344,895.8105 Q861.1563,896.2637 859.8594,896.2637 Q858.3438,896.2637 857.1406,895.6387 Q856.1563,895.1387 855.4688,894.0762 Q854.7813,892.998 854.7813,891.7168 L854.7813,890.5605 Q854.7813,889.2324 855.3906,888.0918 Q856.0156,886.9355 857.1094,886.3262 Q858.2031,885.7012 859.4375,885.7012 Q860.1719,885.7012 860.8125,885.873 Q861.4688,886.0293 862.0156,886.3887 Z " fill="#000000"/><text fill="#000000" font-family="sans-serif" font-size="14" lengthAdjust="spacing" textLength="61" x="879.75" y="896.3105">MapStore</text><line style="stroke:#181818;stroke-width:0.5;" x1="809.5" x2="978.5" y1="906.5137" y2="906.5137"/><line style="stroke:#181818;stroke-width:0.5;" x1="809.5" x2="978.5" y1="914.5137" y2="914.5137"/><ellipse cx="819.5" cy="929.3242" fill="#84BE84" rx="3" ry="3" style="stroke:#038048;stroke-width:1.0;"/><text fill="#000000" font-family="sans-serif" font-size="14" lengthAdjust="spacing" textLength="145" x="828.5" y="933.6211">getstockProdutorMap()</text><ellipse cx="819.5" cy="947.9453" fill="#84BE84" rx="3" ry="3" style="stroke:#038048;stroke-width:1.0;"/><text fill="#000000" font-family="sans-serif" font-size="14" lengthAdjust="spacing" textLength="94" x="828.5" y="952.2422">getcabazMap()</text></g><!--MD5=[02e4b9b7573f1156f41e60aa5b4e25a4]
class Company--><g id="elem_Company"><rect codeLine="38" fill="#F1F1F1" height="103.8633" id="Company" rx="2.5" ry="2.5" style="stroke:#181818;stroke-width:0.5;" width="194" x="586" y="631.0137"/><ellipse cx="648.75" cy="647.0137" fill="#ADD1B2" rx="11" ry="11" style="stroke:#181818;stroke-width:1.0;"/><path d="M651.5156,642.8887 Q651.6719,642.6699 651.8594,642.5605 Q652.0469,642.4512 652.2656,642.4512 Q652.6406,642.4512 652.875,642.7168 Q653.1094,642.9668 653.1094,643.5762 L653.1094,645.0293 Q653.1094,645.6387 652.875,645.9043 Q652.6406,646.1699 652.2656,646.1699 Q651.9219,646.1699 651.7188,645.9668 Q651.5156,645.7793 651.4063,645.2637 Q651.3594,644.9043 651.1719,644.7168 Q650.8438,644.3418 650.2344,644.123 Q649.625,643.9043 649,643.9043 Q648.2344,643.9043 647.5938,644.2324 Q646.9688,644.5605 646.4688,645.3105 Q645.9844,646.0605 645.9844,647.0918 L645.9844,648.1855 Q645.9844,649.4199 646.875,650.248 Q647.7656,651.0605 649.3594,651.0605 Q650.2969,651.0605 650.9531,650.8105 Q651.3438,650.6543 651.7656,650.2168 Q652.0313,649.9512 652.1719,649.873 Q652.3281,649.7949 652.5313,649.7949 Q652.8594,649.7949 653.1094,650.0605 Q653.375,650.3105 653.375,650.6543 Q653.375,650.998 653.0313,651.4043 Q652.5313,651.9824 651.7344,652.3105 Q650.6563,652.7637 649.3594,652.7637 Q647.8438,652.7637 646.6406,652.1387 Q645.6563,651.6387 644.9688,650.5762 Q644.2813,649.498 644.2813,648.2168 L644.2813,647.0605 Q644.2813,645.7324 644.8906,644.5918 Q645.5156,643.4355 646.6094,642.8262 Q647.7031,642.2012 648.9375,642.2012 Q649.6719,642.2012 650.3125,642.373 Q650.9688,642.5293 651.5156,642.8887 Z " fill="#000000"/><text fill="#000000" font-family="sans-serif" font-size="14" lengthAdjust="spacing" textLength="60" x="669.25" y="652.8105">Company</text><line style="stroke:#181818;stroke-width:0.5;" x1="587" x2="779" y1="663.0137" y2="663.0137"/><ellipse cx="597" cy="677.8242" fill="none" rx="3" ry="3" style="stroke:#038048;stroke-width:1.0;"/><text fill="#000000" font-family="sans-serif" font-size="14" lengthAdjust="spacing" textLength="168" x="606" y="682.1211">getMapGraphPessoaStore</text><line style="stroke:#181818;stroke-width:0.5;" x1="587" x2="779" y1="689.6348" y2="689.6348"/><ellipse cx="597" cy="704.4453" fill="#84BE84" rx="3" ry="3" style="stroke:#038048;stroke-width:1.0;"/><text fill="#000000" font-family="sans-serif" font-size="14" lengthAdjust="spacing" textLength="93" x="606" y="708.7422">getStoreLists()</text><ellipse cx="597" cy="723.0664" fill="#84BE84" rx="3" ry="3" style="stroke:#038048;stroke-width:1.0;"/><text fill="#000000" font-family="sans-serif" font-size="14" lengthAdjust="spacing" textLength="91" x="606" y="727.3633">getMapStore()</text></g><!--MD5=[159c1f05c3c2e0667fd74a9564b5f5f0]
class Expedating--><g id="elem_Expedating"><rect codeLine="47" fill="#F1F1F1" height="159.7266" id="Expedating" rx="2.5" ry="2.5" style="stroke:#181818;stroke-width:0.5;" width="1335" x="1376.5" y="603.0137"/><ellipse cx="2004.75" cy="619.0137" fill="#ADD1B2" rx="11" ry="11" style="stroke:#181818;stroke-width:1.0;"/><path d="M2007.5156,614.8887 Q2007.6719,614.6699 2007.8594,614.5605 Q2008.0469,614.4512 2008.2656,614.4512 Q2008.6406,614.4512 2008.875,614.7168 Q2009.1094,614.9668 2009.1094,615.5762 L2009.1094,617.0293 Q2009.1094,617.6387 2008.875,617.9043 Q2008.6406,618.1699 2008.2656,618.1699 Q2007.9219,618.1699 2007.7188,617.9668 Q2007.5156,617.7793 2007.4063,617.2637 Q2007.3594,616.9043 2007.1719,616.7168 Q2006.8438,616.3418 2006.2344,616.123 Q2005.625,615.9043 2005,615.9043 Q2004.2344,615.9043 2003.5938,616.2324 Q2002.9688,616.5605 2002.4688,617.3105 Q2001.9844,618.0605 2001.9844,619.0918 L2001.9844,620.1855 Q2001.9844,621.4199 2002.875,622.248 Q2003.7656,623.0605 2005.3594,623.0605 Q2006.2969,623.0605 2006.9531,622.8105 Q2007.3438,622.6543 2007.7656,622.2168 Q2008.0313,621.9512 2008.1719,621.873 Q2008.3281,621.7949 2008.5313,621.7949 Q2008.8594,621.7949 2009.1094,622.0605 Q2009.375,622.3105 2009.375,622.6543 Q2009.375,622.998 2009.0313,623.4043 Q2008.5313,623.9824 2007.7344,624.3105 Q2006.6563,624.7637 2005.3594,624.7637 Q2003.8438,624.7637 2002.6406,624.1387 Q2001.6563,623.6387 2000.9688,622.5762 Q2000.2813,621.498 2000.2813,620.2168 L2000.2813,619.0605 Q2000.2813,617.7324 2000.8906,616.5918 Q2001.5156,615.4355 2002.6094,614.8262 Q2003.7031,614.2012 2004.9375,614.2012 Q2005.6719,614.2012 2006.3125,614.373 Q2006.9688,614.5293 2007.5156,614.8887 Z " fill="#000000"/><text fill="#000000" font-family="sans-serif" font-size="14" lengthAdjust="spacing" textLength="70" x="2025.25" y="624.8105">Expedating</text><line style="stroke:#181818;stroke-width:0.5;" x1="1377.5" x2="2710.5" y1="635.0137" y2="635.0137"/><line style="stroke:#181818;stroke-width:0.5;" x1="1377.5" x2="2710.5" y1="643.0137" y2="643.0137"/><ellipse cx="1387.5" cy="657.8242" fill="#84BE84" rx="3" ry="3" style="stroke:#038048;stroke-width:1.0;"/><text fill="#000000" font-family="sans-serif" font-size="14" lengthAdjust="spacing" textLength="1309" x="1396.5" y="662.1211">expedatingForDay(day: int, restriction: int, n: int, stockMap: Map&lt;Produtor, TreeMap&lt;Integer, Map&lt;Produtos, Double&gt;&gt;&gt;, clientsMap: Map&lt;Pessoa, TreeMap&lt;Integer, Map&lt;Produtos, Double&gt;&gt;&gt;): List&lt;Cabaz&gt;</text><ellipse cx="1387.5" cy="676.4453" fill="#84BE84" rx="3" ry="3" style="stroke:#038048;stroke-width:1.0;"/><text fill="#000000" font-family="sans-serif" font-size="14" lengthAdjust="spacing" textLength="1151" x="1396.5" y="680.7422">findObtainedValueNoRestriction(day: int, produtoCriarObjeto: Produtos, valorExpectado: Double, stockMap: Map&lt;Produtor, TreeMap&lt;Integer, Map&lt;Produtos, Double&gt;&gt;&gt;): InfoProduto</text><ellipse cx="1387.5" cy="695.0664" fill="#84BE84" rx="3" ry="3" style="stroke:#038048;stroke-width:1.0;"/><text fill="#000000" font-family="sans-serif" font-size="14" lengthAdjust="spacing" textLength="1108" x="1396.5" y="699.3633">updateStockQuantities(Map.Entry&lt;Produtor, TreeMap&lt;Integer, Map&lt;Produtos, Double&gt;&gt;&gt; producer,int startDay, int endDay, Produtos produtoFind, double quantityToSubtract)</text><ellipse cx="1387.5" cy="713.6875" fill="#84BE84" rx="3" ry="3" style="stroke:#038048;stroke-width:1.0;"/><text fill="#000000" font-family="sans-serif" font-size="14" lengthAdjust="spacing" textLength="1109" x="1396.5" y="717.9844">getQuantityOrDefault(Map.Entry&lt;Produtor, TreeMap&lt;Integer, Map&lt;Produtos, Double&gt;&gt;&gt; producer,int day, Produtos produtoFind, double defaultValue)+getHubProximoCliente()</text><ellipse cx="1387.5" cy="732.3086" fill="#84BE84" rx="3" ry="3" style="stroke:#038048;stroke-width:1.0;"/><text fill="#000000" font-family="sans-serif" font-size="14" lengthAdjust="spacing" textLength="163" x="1396.5" y="736.6055">produtoresEachHub(int n)</text><ellipse cx="1387.5" cy="750.9297" fill="#84BE84" rx="3" ry="3" style="stroke:#038048;stroke-width:1.0;"/><text fill="#000000" font-family="sans-serif" font-size="14" lengthAdjust="spacing" textLength="294" x="1396.5" y="755.2266">setExpedatingList(List&lt;Cabaz&gt; expedatingList)</text></g><!--MD5=[2473181366ad82bea05d20fd8c7f64f7]
class FindMethods--><g id="elem_FindMethods"><rect codeLine="56" fill="#F1F1F1" height="66.6211" id="FindMethods" rx="2.5" ry="2.5" style="stroke:#181818;stroke-width:0.5;" width="139" x="1974.5" y="883.5137"/><ellipse cx="2000.75" cy="899.5137" fill="#ADD1B2" rx="11" ry="11" style="stroke:#181818;stroke-width:1.0;"/><path d="M2003.5156,895.3887 Q2003.6719,895.1699 2003.8594,895.0605 Q2004.0469,894.9512 2004.2656,894.9512 Q2004.6406,894.9512 2004.875,895.2168 Q2005.1094,895.4668 2005.1094,896.0762 L2005.1094,897.5293 Q2005.1094,898.1387 2004.875,898.4043 Q2004.6406,898.6699 2004.2656,898.6699 Q2003.9219,898.6699 2003.7188,898.4668 Q2003.5156,898.2793 2003.4063,897.7637 Q2003.3594,897.4043 2003.1719,897.2168 Q2002.8438,896.8418 2002.2344,896.623 Q2001.625,896.4043 2001,896.4043 Q2000.2344,896.4043 1999.5938,896.7324 Q1998.9688,897.0605 1998.4688,897.8105 Q1997.9844,898.5605 1997.9844,899.5918 L1997.9844,900.6855 Q1997.9844,901.9199 1998.875,902.748 Q1999.7656,903.5605 2001.3594,903.5605 Q2002.2969,903.5605 2002.9531,903.3105 Q2003.3438,903.1543 2003.7656,902.7168 Q2004.0313,902.4512 2004.1719,902.373 Q2004.3281,902.2949 2004.5313,902.2949 Q2004.8594,902.2949 2005.1094,902.5605 Q2005.375,902.8105 2005.375,903.1543 Q2005.375,903.498 2005.0313,903.9043 Q2004.5313,904.4824 2003.7344,904.8105 Q2002.6563,905.2637 2001.3594,905.2637 Q1999.8438,905.2637 1998.6406,904.6387 Q1997.6563,904.1387 1996.9688,903.0762 Q1996.2813,901.998 1996.2813,900.7168 L1996.2813,899.5605 Q1996.2813,898.2324 1996.8906,897.0918 Q1997.5156,895.9355 1998.6094,895.3262 Q1999.7031,894.7012 2000.9375,894.7012 Q2001.6719,894.7012 2002.3125,894.873 Q2002.9688,895.0293 2003.5156,895.3887 Z " fill="#000000"/><text fill="#000000" font-family="sans-serif" font-size="14" lengthAdjust="spacing" textLength="82" x="2017.25" y="905.3105">FindMethods</text><line style="stroke:#181818;stroke-width:0.5;" x1="1975.5" x2="2112.5" y1="915.5137" y2="915.5137"/><line style="stroke:#181818;stroke-width:0.5;" x1="1975.5" x2="2112.5" y1="923.5137" y2="923.5137"/><ellipse cx="1985.5" cy="938.3242" fill="#84BE84" rx="3" ry="3" style="stroke:#038048;stroke-width:1.0;"/><text fill="#000000" font-family="sans-serif" font-size="14" lengthAdjust="spacing" textLength="113" x="1994.5" y="942.6211">findAllProducers()</text></g><!--MD5=[66db75c6a90eee27ea57be2f28d34b97]
link Main to MenuUI--><g id="link_Main_MenuUI"><path codeLine="64" d="M683,181.0337 C683,196.9137 683,218.3837 683,236.7537 " fill="none" id="Main-to-MenuUI" style="stroke:#181818;stroke-width:1.0;stroke-dasharray:7.0,7.0;"/><polygon fill="#181818" points="683,241.8437,687,232.8437,683,236.8437,679,232.8437,683,241.8437" style="stroke:#181818;stroke-width:1.0;"/></g><!--MD5=[18b2adbec2d4d81fe2abb63fe9732443]
link MenuUI to MainController--><g id="link_MenuUI_MainController"><path codeLine="65" d="M683,309.2537 C683,331.7137 683,362.2737 683,389.6137 " fill="none" id="MenuUI-to-MainController" style="stroke:#181818;stroke-width:1.0;stroke-dasharray:7.0,7.0;"/><polygon fill="#181818" points="683,394.6837,687,385.6837,683,389.6837,679,385.6837,683,394.6837" style="stroke:#181818;stroke-width:1.0;"/></g><!--MD5=[dd87a104d068555fe39a48b0ae034cc9]
reverse link Company to MapStore--><g id="link_Company_MapStore"><path codeLine="66" d="M738.49,745.0337 C775.52,785.7437 823.25,838.2237 856,874.2337 " fill="none" id="Company-backto-MapStore" style="stroke:#181818;stroke-width:1.0;"/><polygon fill="#181818" points="729.57,735.2137,730.6473,742.3438,737.6434,744.0918,736.5661,736.9616,729.57,735.2137" style="stroke:#181818;stroke-width:1.0;"/><text fill="#000000" font-family="sans-serif" font-size="13" lengthAdjust="spacing" textLength="30" x="795" y="808.042">owns</text></g><!--MD5=[42e5e3a5f5591e667f24dce403e7d467]
reverse link Company to MapGraphPessoaStore--><g id="link_Company_MapGraphPessoaStore"><path codeLine="67" d="M683,748.3737 C683,792.1537 683,848.2737 683,883.1937 " fill="none" id="Company-backto-MapGraphPessoaStore" style="stroke:#181818;stroke-width:1.0;"/><polygon fill="#181818" points="683,735.2137,679,741.2137,683,747.2137,687,741.2137,683,735.2137" style="stroke:#181818;stroke-width:1.0;"/><text fill="#000000" font-family="sans-serif" font-size="13" lengthAdjust="spacing" textLength="30" x="684" y="808.042">owns</text></g><!--MD5=[0fa0caec5f0123cfd629c24ba9ff0a7b]
reverse link Company to ExpedatingStore--><g id="link_Company_ExpedatingStore"><path codeLine="68" d="M609.87,743.5437 C563.72,781.1137 504.74,829.1237 460.74,864.9437 " fill="none" id="Company-backto-ExpedatingStore" style="stroke:#181818;stroke-width:1.0;"/><polygon fill="#181818" points="620.1,735.2137,612.9212,735.8951,610.7891,742.7838,617.9679,742.1024,620.1,735.2137" style="stroke:#181818;stroke-width:1.0;"/><text fill="#000000" font-family="sans-serif" font-size="13" lengthAdjust="spacing" textLength="30" x="550" y="808.042">owns</text></g><!--MD5=[6466c02c70a565c5689553fda203fa28]
link MainController to Company--><g id="link_MainController_Company"><path codeLine="70" d="M683,517.0137 C683,550.7537 683,592.6037 683,625.7137 " fill="none" id="MainController-to-Company" style="stroke:#181818;stroke-width:1.0;stroke-dasharray:7.0,7.0;"/><polygon fill="#181818" points="683,630.9537,687,621.9537,683,625.9537,679,621.9537,683,630.9537" style="stroke:#181818;stroke-width:1.0;"/></g><!--MD5=[cb69cac3c331158e6db0401577dd68f6]
link MainController to Expedating--><g id="link_MainController_Expedating"><path codeLine="71" d="M1045.94,517.0137 C1203.93,543.1337 1391.38,574.1237 1560.92,602.1537 " fill="none" id="MainController-to-Expedating" style="stroke:#181818;stroke-width:1.0;stroke-dasharray:7.0,7.0;"/><polygon fill="#181818" points="1565.93,602.9837,1557.6999,597.5739,1560.9965,602.1709,1556.3995,605.4675,1565.93,602.9837" style="stroke:#181818;stroke-width:1.0;"/></g><!--MD5=[a35de08421d30c1d85c44d293ec5f6f9]
link Expedating to FindMethods--><g id="link_Expedating_FindMethods"><path codeLine="72" d="M2044,763.2037 C2044,802.0437 2044,847.0237 2044,878.0837 " fill="none" id="Expedating-to-FindMethods" style="stroke:#181818;stroke-width:1.0;stroke-dasharray:7.0,7.0;"/><polygon fill="#181818" points="2044,883.3237,2048,874.3237,2044,878.3237,2040,874.3237,2044,883.3237" style="stroke:#181818;stroke-width:1.0;"/></g><!--MD5=[57fa1295828b1db89c5650bab5dc537e]
@startuml
package Main <<Folder>>#DDDDDD {
package Company <<Folder>>#DDDDDD {
package ui <<Folder>>#DDDDDD {
class Main
class MenuUI {
+expedatingForDayRestrictions(int day, int n)
}
}


package Controller <<Folder>>#DDDDDD {
class MainController {
+expedatingForDayRestrictions(int day, int n)
+expedatingForDay(int day, int restriction, int n, Map<Produtor, TreeMap<Integer, Map<Produtos, Double>>> stockMap,Map<Pessoa, TreeMap<Integer, Map<Produtos, Double>>> clientsMap)
getstockProdutorMap()
getcabazMap()
}
}

package Store <<Folder>>#DDDDDD {
class ExpedatingStore {
+getHubProximoCliente()
+produtoresEachHub(int n)
+setExpedatingList(List<Cabaz> expedatingList)
}


class MapGraphPessoaStore {
+getMapGraph()
}

class MapStore {
+getstockProdutorMap()
+getcabazMap()
}
}
package Model <<Folder>>#DDDDDD {
class Company {
+getStoreLists()
+getMapGraphPessoaStore
+getMapStore()
}
}
}

package Methods <<Folder>>#DDDDDD {
class Expedating {
+expedatingForDay(day: int, restriction: int, n: int, stockMap: Map<Produtor, TreeMap<Integer, Map<Produtos, Double>>>, clientsMap: Map<Pessoa, TreeMap<Integer, Map<Produtos, Double>>>): List<Cabaz>
+findObtainedValueNoRestriction(day: int, produtoCriarObjeto: Produtos, valorExpectado: Double, stockMap: Map<Produtor, TreeMap<Integer, Map<Produtos, Double>>>): InfoProduto
+updateStockQuantities(Map.Entry<Produtor, TreeMap<Integer, Map<Produtos, Double>>> producer,int startDay, int endDay, Produtos produtoFind, double quantityToSubtract)
+getQuantityOrDefault(Map.Entry<Produtor, TreeMap<Integer, Map<Produtos, Double>>> producer,int day, Produtos produtoFind, double defaultValue)+getHubProximoCliente()
+produtoresEachHub(int n)
+setExpedatingList(List<Cabaz> expedatingList)
}

class FindMethods {
+findAllProducers()
}

}

}

Main ..> MenuUI
MenuUI ..> MainController
Company *- - MapStore : owns
Company *- - MapGraphPessoaStore : owns
Company *- - ExpedatingStore : owns

MainController ..> Company
MainController ..> Expedating
Expedating ..> FindMethods







@enduml

PlantUML version 1.2022.13(Sat Nov 19 13:22:17 WET 2022)
(GPL source distribution)
Java Runtime: OpenJDK Runtime Environment
JVM: OpenJDK 64-Bit Server VM
Default Encoding: Cp1252
Language: pt
Country: PT
--></g></svg>