<?xml version="1.0" encoding="UTF-8" standalone="no"?><svg xmlns="http://www.w3.org/2000/svg" xmlns:xlink="http://www.w3.org/1999/xlink" contentStyleType="text/css" height="1116px" preserveAspectRatio="none" style="width:1405px;height:1116px;background:#FFFFFF;" version="1.1" viewBox="0 0 1405 1116" width="1405px" zoomAndPan="magnify"><defs/><g><!--MD5=[e9d6884d023c009175adb4285a573e02]
cluster java--><g id="cluster_java"><path d="M8.5,6 L38.5,6 A3.75,3.75 0 0 1 41,8.5 L48,27.6406 L1395.5,27.6406 A2.5,2.5 0 0 1 1398,30.1406 L1398,1106.5 A2.5,2.5 0 0 1 1395.5,1109 L8.5,1109 A2.5,2.5 0 0 1 6,1106.5 L6,8.5 A2.5,2.5 0 0 1 8.5,6 " fill="#DDDDDD" style="stroke:#000000;stroke-width:1.5;"/><line style="stroke:#000000;stroke-width:1.5;" x1="6" x2="48" y1="27.6406" y2="27.6406"/><text fill="#000000" font-family="sans-serif" font-size="14" font-weight="bold" lengthAdjust="spacing" textLength="29" x="10" y="20.6738">java</text></g><!--MD5=[66dd6d0a484290b46f8665dfa0e5de89]
cluster Company--><g id="cluster_Company"><path d="M977.5,48 L1042.5,48 A3.75,3.75 0 0 1 1045,50.5 L1052,69.6406 L1371.5,69.6406 A2.5,2.5 0 0 1 1374,72.1406 L1374,940.5 A2.5,2.5 0 0 1 1371.5,943 L977.5,943 A2.5,2.5 0 0 1 975,940.5 L975,50.5 A2.5,2.5 0 0 1 977.5,48 " fill="#DDDDDD" style="stroke:#000000;stroke-width:1.5;"/><line style="stroke:#000000;stroke-width:1.5;" x1="975" x2="1052" y1="69.6406" y2="69.6406"/><text fill="#000000" font-family="sans-serif" font-size="14" font-weight="bold" lengthAdjust="spacing" textLength="64" x="979" y="62.6738">Company</text></g><!--MD5=[1f2cfc53d9d308f53762fd0fcbaa4873]
cluster Controller--><g id="cluster_Controller"><path d="M1059.5,380 L1131.5,380 A3.75,3.75 0 0 1 1134,382.5 L1141,401.6406 L1288.5,401.6406 A2.5,2.5 0 0 1 1291,404.1406 L1291,509.5 A2.5,2.5 0 0 1 1288.5,512 L1059.5,512 A2.5,2.5 0 0 1 1057,509.5 L1057,382.5 A2.5,2.5 0 0 1 1059.5,380 " fill="#DDDDDD" style="stroke:#000000;stroke-width:1.5;"/><line style="stroke:#000000;stroke-width:1.5;" x1="1057" x2="1141" y1="401.6406" y2="401.6406"/><text fill="#000000" font-family="sans-serif" font-size="14" font-weight="bold" lengthAdjust="spacing" textLength="71" x="1061" y="394.6738">Controller</text></g><!--MD5=[64e2e010ba86d7988e5cd73bd64f61f9]
cluster ui--><g id="cluster_ui"><path d="M1096.5,90 L1110.5,90 A3.75,3.75 0 0 1 1113,92.5 L1120,111.6406 L1251.5,111.6406 A2.5,2.5 0 0 1 1254,114.1406 L1254,344.5 A2.5,2.5 0 0 1 1251.5,347 L1096.5,347 A2.5,2.5 0 0 1 1094,344.5 L1094,92.5 A2.5,2.5 0 0 1 1096.5,90 " fill="#DDDDDD" style="stroke:#000000;stroke-width:1.5;"/><line style="stroke:#000000;stroke-width:1.5;" x1="1094" x2="1120" y1="111.6406" y2="111.6406"/><text fill="#000000" font-family="sans-serif" font-size="14" font-weight="bold" lengthAdjust="spacing" textLength="13" x="1098" y="104.6738">ui</text></g><!--MD5=[15636c1ca4a123c16a2a1a8e90aca7a9]
cluster Model--><g id="cluster_Model"><path d="M1001.5,560 L1046.5,560 A3.75,3.75 0 0 1 1049,562.5 L1056,581.6406 L1347.5,581.6406 A2.5,2.5 0 0 1 1350,584.1406 L1350,916.5 A2.5,2.5 0 0 1 1347.5,919 L1001.5,919 A2.5,2.5 0 0 1 999,916.5 L999,562.5 A2.5,2.5 0 0 1 1001.5,560 " fill="#DDDDDD" style="stroke:#000000;stroke-width:1.5;"/><line style="stroke:#000000;stroke-width:1.5;" x1="999" x2="1056" y1="581.6406" y2="581.6406"/><text fill="#000000" font-family="sans-serif" font-size="14" font-weight="bold" lengthAdjust="spacing" textLength="44" x="1003" y="574.6738">Model</text></g><!--MD5=[7ce1723ddb6e6233854253973eae5a71]
cluster Store--><g id="cluster_Store"><path d="M483.5,567.5 L522.5,567.5 A3.75,3.75 0 0 1 525,570 L532,589.1406 L690.5,589.1406 A2.5,2.5 0 0 1 693,591.6406 L693,697 A2.5,2.5 0 0 1 690.5,699.5 L483.5,699.5 A2.5,2.5 0 0 1 481,697 L481,570 A2.5,2.5 0 0 1 483.5,567.5 " fill="#DDDDDD" style="stroke:#000000;stroke-width:1.5;"/><line style="stroke:#000000;stroke-width:1.5;" x1="481" x2="532" y1="589.1406" y2="589.1406"/><text fill="#000000" font-family="sans-serif" font-size="14" font-weight="bold" lengthAdjust="spacing" textLength="38" x="485" y="582.1738">Store</text></g><!--MD5=[c0a55fc040d4de26ef61760e050063db]
cluster Graph--><g id="cluster_Graph"><path d="M32.5,753 L76.5,753 A3.75,3.75 0 0 1 79,755.5 L86,774.6406 L849.5,774.6406 A2.5,2.5 0 0 1 852,777.1406 L852,1082.5 A2.5,2.5 0 0 1 849.5,1085 L32.5,1085 A2.5,2.5 0 0 1 30,1082.5 L30,755.5 A2.5,2.5 0 0 1 32.5,753 " fill="#DDDDDD" style="stroke:#000000;stroke-width:1.5;"/><line style="stroke:#000000;stroke-width:1.5;" x1="30" x2="86" y1="774.6406" y2="774.6406"/><text fill="#000000" font-family="sans-serif" font-size="14" font-weight="bold" lengthAdjust="spacing" textLength="43" x="34" y="767.6738">Graph</text></g><!--MD5=[c670268a59e1f2fa2e9d3e232bc65e6c]
cluster map--><g id="cluster_map"><path d="M56.5,795 L86.5,795 A3.75,3.75 0 0 1 89,797.5 L96,816.6406 L259.5,816.6406 A2.5,2.5 0 0 1 262,819.1406 L262,924.5 A2.5,2.5 0 0 1 259.5,927 L56.5,927 A2.5,2.5 0 0 1 54,924.5 L54,797.5 A2.5,2.5 0 0 1 56.5,795 " fill="#DDDDDD" style="stroke:#000000;stroke-width:1.5;"/><line style="stroke:#000000;stroke-width:1.5;" x1="54" x2="96" y1="816.6406" y2="816.6406"/><text fill="#000000" font-family="sans-serif" font-size="14" font-weight="bold" lengthAdjust="spacing" textLength="29" x="58" y="809.6738">map</text></g><!--MD5=[b792253f46c87a5be23eaae1b68e2912]
cluster Methods--><g id="cluster_Methods"><path d="M719.5,567.5 L782.5,567.5 A3.75,3.75 0 0 1 785,570 L792,589.1406 L948.5,589.1406 A2.5,2.5 0 0 1 951,591.6406 L951,697 A2.5,2.5 0 0 1 948.5,699.5 L719.5,699.5 A2.5,2.5 0 0 1 717,697 L717,570 A2.5,2.5 0 0 1 719.5,567.5 " fill="#DDDDDD" style="stroke:#000000;stroke-width:1.5;"/><line style="stroke:#000000;stroke-width:1.5;" x1="717" x2="792" y1="589.1406" y2="589.1406"/><text fill="#000000" font-family="sans-serif" font-size="14" font-weight="bold" lengthAdjust="spacing" textLength="62" x="721" y="582.1738">Methods</text></g><!--MD5=[e66145d266c407ffaa9a1f58108bb271]
class Produtor--><g id="elem_Produtor"><rect fill="#F1F1F1" height="48" id="Produtor" rx="2.5" ry="2.5" style="stroke:#181818;stroke-width:0.5;" width="87" x="871.5" y="855"/><ellipse cx="886.5" cy="871" fill="#ADD1B2" rx="11" ry="11" style="stroke:#181818;stroke-width:1.0;"/><path d="M889.2656,866.875 Q889.4219,866.6563 889.6094,866.5469 Q889.7969,866.4375 890.0156,866.4375 Q890.3906,866.4375 890.625,866.7031 Q890.8594,866.9531 890.8594,867.5625 L890.8594,869.0156 Q890.8594,869.625 890.625,869.8906 Q890.3906,870.1563 890.0156,870.1563 Q889.6719,870.1563 889.4688,869.9531 Q889.2656,869.7656 889.1563,869.25 Q889.1094,868.8906 888.9219,868.7031 Q888.5938,868.3281 887.9844,868.1094 Q887.375,867.8906 886.75,867.8906 Q885.9844,867.8906 885.3438,868.2188 Q884.7188,868.5469 884.2188,869.2969 Q883.7344,870.0469 883.7344,871.0781 L883.7344,872.1719 Q883.7344,873.4063 884.625,874.2344 Q885.5156,875.0469 887.1094,875.0469 Q888.0469,875.0469 888.7031,874.7969 Q889.0938,874.6406 889.5156,874.2031 Q889.7813,873.9375 889.9219,873.8594 Q890.0781,873.7813 890.2813,873.7813 Q890.6094,873.7813 890.8594,874.0469 Q891.125,874.2969 891.125,874.6406 Q891.125,874.9844 890.7813,875.3906 Q890.2813,875.9688 889.4844,876.2969 Q888.4063,876.75 887.1094,876.75 Q885.5938,876.75 884.3906,876.125 Q883.4063,875.625 882.7188,874.5625 Q882.0313,873.4844 882.0313,872.2031 L882.0313,871.0469 Q882.0313,869.7188 882.6406,868.5781 Q883.2656,867.4219 884.3594,866.8125 Q885.4531,866.1875 886.6875,866.1875 Q887.4219,866.1875 888.0625,866.3594 Q888.7188,866.5156 889.2656,866.875 Z " fill="#000000"/><text fill="#000000" font-family="sans-serif" font-size="14" lengthAdjust="spacing" textLength="55" x="900.5" y="875.8535">Produtor</text><line style="stroke:#181818;stroke-width:0.5;" x1="872.5" x2="957.5" y1="887" y2="887"/><line style="stroke:#181818;stroke-width:0.5;" x1="872.5" x2="957.5" y1="895" y2="895"/></g><!--MD5=[0278646e5a3f51edb25d463fe8c5bfab]
class MainController--><g id="elem_MainController"><rect codeLine="7" fill="#F1F1F1" height="63.6406" id="MainController" rx="2.5" ry="2.5" style="stroke:#181818;stroke-width:0.5;" width="201" x="1073.5" y="432"/><ellipse cx="1123.75" cy="448" fill="#ADD1B2" rx="11" ry="11" style="stroke:#181818;stroke-width:1.0;"/><path d="M1126.5156,443.875 Q1126.6719,443.6563 1126.8594,443.5469 Q1127.0469,443.4375 1127.2656,443.4375 Q1127.6406,443.4375 1127.875,443.7031 Q1128.1094,443.9531 1128.1094,444.5625 L1128.1094,446.0156 Q1128.1094,446.625 1127.875,446.8906 Q1127.6406,447.1563 1127.2656,447.1563 Q1126.9219,447.1563 1126.7188,446.9531 Q1126.5156,446.7656 1126.4063,446.25 Q1126.3594,445.8906 1126.1719,445.7031 Q1125.8438,445.3281 1125.2344,445.1094 Q1124.625,444.8906 1124,444.8906 Q1123.2344,444.8906 1122.5938,445.2188 Q1121.9688,445.5469 1121.4688,446.2969 Q1120.9844,447.0469 1120.9844,448.0781 L1120.9844,449.1719 Q1120.9844,450.4063 1121.875,451.2344 Q1122.7656,452.0469 1124.3594,452.0469 Q1125.2969,452.0469 1125.9531,451.7969 Q1126.3438,451.6406 1126.7656,451.2031 Q1127.0313,450.9375 1127.1719,450.8594 Q1127.3281,450.7813 1127.5313,450.7813 Q1127.8594,450.7813 1128.1094,451.0469 Q1128.375,451.2969 1128.375,451.6406 Q1128.375,451.9844 1128.0313,452.3906 Q1127.5313,452.9688 1126.7344,453.2969 Q1125.6563,453.75 1124.3594,453.75 Q1122.8438,453.75 1121.6406,453.125 Q1120.6563,452.625 1119.9688,451.5625 Q1119.2813,450.4844 1119.2813,449.2031 L1119.2813,448.0469 Q1119.2813,446.7188 1119.8906,445.5781 Q1120.5156,444.4219 1121.6094,443.8125 Q1122.7031,443.1875 1123.9375,443.1875 Q1124.6719,443.1875 1125.3125,443.3594 Q1125.9688,443.5156 1126.5156,443.875 Z " fill="#000000"/><text fill="#000000" font-family="sans-serif" font-size="14" lengthAdjust="spacing" textLength="92" x="1144.25" y="452.8535">MainController</text><line style="stroke:#181818;stroke-width:0.5;" x1="1074.5" x2="1273.5" y1="464" y2="464"/><line style="stroke:#181818;stroke-width:0.5;" x1="1074.5" x2="1273.5" y1="472" y2="472"/><ellipse cx="1084.5" cy="485.3203" fill="#84BE84" rx="3" ry="3" style="stroke:#038048;stroke-width:1.0;"/><text fill="#000000" font-family="sans-serif" font-size="14" lengthAdjust="spacing" textLength="175" x="1093.5" y="488.6738">findNearestHubEachClient()</text></g><!--MD5=[02de039990bbea028db2518876dfca25]
class MenuUI--><g id="elem_MenuUI"><rect codeLine="14" fill="#F1F1F1" height="63.6406" id="MenuUI" rx="2.5" ry="2.5" style="stroke:#181818;stroke-width:0.5;" width="128" x="1110" y="267"/><ellipse cx="1147.05" cy="283" fill="#ADD1B2" rx="11" ry="11" style="stroke:#181818;stroke-width:1.0;"/><path d="M1149.8156,278.875 Q1149.9719,278.6563 1150.1594,278.5469 Q1150.3469,278.4375 1150.5656,278.4375 Q1150.9406,278.4375 1151.175,278.7031 Q1151.4094,278.9531 1151.4094,279.5625 L1151.4094,281.0156 Q1151.4094,281.625 1151.175,281.8906 Q1150.9406,282.1563 1150.5656,282.1563 Q1150.2219,282.1563 1150.0188,281.9531 Q1149.8156,281.7656 1149.7063,281.25 Q1149.6594,280.8906 1149.4719,280.7031 Q1149.1438,280.3281 1148.5344,280.1094 Q1147.925,279.8906 1147.3,279.8906 Q1146.5344,279.8906 1145.8938,280.2188 Q1145.2688,280.5469 1144.7688,281.2969 Q1144.2844,282.0469 1144.2844,283.0781 L1144.2844,284.1719 Q1144.2844,285.4063 1145.175,286.2344 Q1146.0656,287.0469 1147.6594,287.0469 Q1148.5969,287.0469 1149.2531,286.7969 Q1149.6438,286.6406 1150.0656,286.2031 Q1150.3313,285.9375 1150.4719,285.8594 Q1150.6281,285.7813 1150.8313,285.7813 Q1151.1594,285.7813 1151.4094,286.0469 Q1151.675,286.2969 1151.675,286.6406 Q1151.675,286.9844 1151.3313,287.3906 Q1150.8313,287.9688 1150.0344,288.2969 Q1148.9563,288.75 1147.6594,288.75 Q1146.1438,288.75 1144.9406,288.125 Q1143.9563,287.625 1143.2688,286.5625 Q1142.5813,285.4844 1142.5813,284.2031 L1142.5813,283.0469 Q1142.5813,281.7188 1143.1906,280.5781 Q1143.8156,279.4219 1144.9094,278.8125 Q1146.0031,278.1875 1147.2375,278.1875 Q1147.9719,278.1875 1148.6125,278.3594 Q1149.2688,278.5156 1149.8156,278.875 Z " fill="#000000"/><text fill="#000000" font-family="sans-serif" font-size="14" lengthAdjust="spacing" textLength="47" x="1165.95" y="287.8535">MenuUI</text><line style="stroke:#181818;stroke-width:0.5;" x1="1111" x2="1237" y1="299" y2="299"/><line style="stroke:#181818;stroke-width:0.5;" x1="1111" x2="1237" y1="307" y2="307"/><ellipse cx="1121" cy="320.3203" fill="#84BE84" rx="3" ry="3" style="stroke:#038048;stroke-width:1.0;"/><text fill="#000000" font-family="sans-serif" font-size="14" lengthAdjust="spacing" textLength="102" x="1130" y="323.6738">MainController()</text></g><!--MD5=[84718776d214be480e4c259efcb737fc]
class Main--><g id="elem_Main"><rect codeLine="18" fill="#F1F1F1" height="63.6406" id="Main" rx="2.5" ry="2.5" style="stroke:#181818;stroke-width:0.5;" width="83" x="1132.5" y="142"/><ellipse cx="1156.95" cy="158" fill="#ADD1B2" rx="11" ry="11" style="stroke:#181818;stroke-width:1.0;"/><path d="M1159.7156,153.875 Q1159.8719,153.6563 1160.0594,153.5469 Q1160.2469,153.4375 1160.4656,153.4375 Q1160.8406,153.4375 1161.075,153.7031 Q1161.3094,153.9531 1161.3094,154.5625 L1161.3094,156.0156 Q1161.3094,156.625 1161.075,156.8906 Q1160.8406,157.1563 1160.4656,157.1563 Q1160.1219,157.1563 1159.9188,156.9531 Q1159.7156,156.7656 1159.6063,156.25 Q1159.5594,155.8906 1159.3719,155.7031 Q1159.0438,155.3281 1158.4344,155.1094 Q1157.825,154.8906 1157.2,154.8906 Q1156.4344,154.8906 1155.7938,155.2188 Q1155.1688,155.5469 1154.6688,156.2969 Q1154.1844,157.0469 1154.1844,158.0781 L1154.1844,159.1719 Q1154.1844,160.4063 1155.075,161.2344 Q1155.9656,162.0469 1157.5594,162.0469 Q1158.4969,162.0469 1159.1531,161.7969 Q1159.5438,161.6406 1159.9656,161.2031 Q1160.2313,160.9375 1160.3719,160.8594 Q1160.5281,160.7813 1160.7313,160.7813 Q1161.0594,160.7813 1161.3094,161.0469 Q1161.575,161.2969 1161.575,161.6406 Q1161.575,161.9844 1161.2313,162.3906 Q1160.7313,162.9688 1159.9344,163.2969 Q1158.8563,163.75 1157.5594,163.75 Q1156.0438,163.75 1154.8406,163.125 Q1153.8563,162.625 1153.1688,161.5625 Q1152.4813,160.4844 1152.4813,159.2031 L1152.4813,158.0469 Q1152.4813,156.7188 1153.0906,155.5781 Q1153.7156,154.4219 1154.8094,153.8125 Q1155.9031,153.1875 1157.1375,153.1875 Q1157.8719,153.1875 1158.5125,153.3594 Q1159.1688,153.5156 1159.7156,153.875 Z " fill="#000000"/><text fill="#000000" font-family="sans-serif" font-size="14" lengthAdjust="spacing" textLength="30" x="1173.05" y="162.8535">Main</text><line style="stroke:#181818;stroke-width:0.5;" x1="1133.5" x2="1214.5" y1="174" y2="174"/><line style="stroke:#181818;stroke-width:0.5;" x1="1133.5" x2="1214.5" y1="182" y2="182"/><ellipse cx="1143.5" cy="195.3203" fill="#84BE84" rx="3" ry="3" style="stroke:#038048;stroke-width:1.0;"/><text fill="#000000" font-family="sans-serif" font-size="14" lengthAdjust="spacing" textLength="57" x="1152.5" y="198.6738">MenuUI()</text></g><!--MD5=[02e4b9b7573f1156f41e60aa5b4e25a4]
class Company--><g id="elem_Company"><rect codeLine="25" fill="#F1F1F1" height="79.2813" id="Company" rx="2.5" ry="2.5" style="stroke:#181818;stroke-width:0.5;" width="204" x="1130" y="612"/><ellipse cx="1197.75" cy="628" fill="#ADD1B2" rx="11" ry="11" style="stroke:#181818;stroke-width:1.0;"/><path d="M1200.5156,623.875 Q1200.6719,623.6563 1200.8594,623.5469 Q1201.0469,623.4375 1201.2656,623.4375 Q1201.6406,623.4375 1201.875,623.7031 Q1202.1094,623.9531 1202.1094,624.5625 L1202.1094,626.0156 Q1202.1094,626.625 1201.875,626.8906 Q1201.6406,627.1563 1201.2656,627.1563 Q1200.9219,627.1563 1200.7188,626.9531 Q1200.5156,626.7656 1200.4063,626.25 Q1200.3594,625.8906 1200.1719,625.7031 Q1199.8438,625.3281 1199.2344,625.1094 Q1198.625,624.8906 1198,624.8906 Q1197.2344,624.8906 1196.5938,625.2188 Q1195.9688,625.5469 1195.4688,626.2969 Q1194.9844,627.0469 1194.9844,628.0781 L1194.9844,629.1719 Q1194.9844,630.4063 1195.875,631.2344 Q1196.7656,632.0469 1198.3594,632.0469 Q1199.2969,632.0469 1199.9531,631.7969 Q1200.3438,631.6406 1200.7656,631.2031 Q1201.0313,630.9375 1201.1719,630.8594 Q1201.3281,630.7813 1201.5313,630.7813 Q1201.8594,630.7813 1202.1094,631.0469 Q1202.375,631.2969 1202.375,631.6406 Q1202.375,631.9844 1202.0313,632.3906 Q1201.5313,632.9688 1200.7344,633.2969 Q1199.6563,633.75 1198.3594,633.75 Q1196.8438,633.75 1195.6406,633.125 Q1194.6563,632.625 1193.9688,631.5625 Q1193.2813,630.4844 1193.2813,629.2031 L1193.2813,628.0469 Q1193.2813,626.7188 1193.8906,625.5781 Q1194.5156,624.4219 1195.6094,623.8125 Q1196.7031,623.1875 1197.9375,623.1875 Q1198.6719,623.1875 1199.3125,623.3594 Q1199.9688,623.5156 1200.5156,623.875 Z " fill="#000000"/><text fill="#000000" font-family="sans-serif" font-size="14" lengthAdjust="spacing" textLength="60" x="1218.25" y="632.8535">Company</text><line style="stroke:#181818;stroke-width:0.5;" x1="1131" x2="1333" y1="644" y2="644"/><line style="stroke:#181818;stroke-width:0.5;" x1="1131" x2="1333" y1="652" y2="652"/><ellipse cx="1141" cy="665.3203" fill="#84BE84" rx="3" ry="3" style="stroke:#038048;stroke-width:1.0;"/><text fill="#000000" font-family="sans-serif" font-size="14" lengthAdjust="spacing" textLength="93" x="1150" y="668.6738">getStoreLists()</text><ellipse cx="1141" cy="680.9609" fill="#84BE84" rx="3" ry="3" style="stroke:#038048;stroke-width:1.0;"/><text fill="#000000" font-family="sans-serif" font-size="14" lengthAdjust="spacing" textLength="178" x="1150" y="684.3145">getMapGraphPessoaStore()</text></g><!--MD5=[ec4e9ac521a71f7b069122f6baf1b57e]
class Pessoa--><g id="elem_Pessoa"><rect codeLine="29" fill="#F1F1F1" height="48" id="Pessoa" rx="2.5" ry="2.5" style="stroke:#181818;stroke-width:0.5;" width="79" x="1015.5" y="627.5"/><ellipse cx="1030.5" cy="643.5" fill="#ADD1B2" rx="11" ry="11" style="stroke:#181818;stroke-width:1.0;"/><path d="M1033.2656,639.375 Q1033.4219,639.1563 1033.6094,639.0469 Q1033.7969,638.9375 1034.0156,638.9375 Q1034.3906,638.9375 1034.625,639.2031 Q1034.8594,639.4531 1034.8594,640.0625 L1034.8594,641.5156 Q1034.8594,642.125 1034.625,642.3906 Q1034.3906,642.6563 1034.0156,642.6563 Q1033.6719,642.6563 1033.4688,642.4531 Q1033.2656,642.2656 1033.1563,641.75 Q1033.1094,641.3906 1032.9219,641.2031 Q1032.5938,640.8281 1031.9844,640.6094 Q1031.375,640.3906 1030.75,640.3906 Q1029.9844,640.3906 1029.3438,640.7188 Q1028.7188,641.0469 1028.2188,641.7969 Q1027.7344,642.5469 1027.7344,643.5781 L1027.7344,644.6719 Q1027.7344,645.9063 1028.625,646.7344 Q1029.5156,647.5469 1031.1094,647.5469 Q1032.0469,647.5469 1032.7031,647.2969 Q1033.0938,647.1406 1033.5156,646.7031 Q1033.7813,646.4375 1033.9219,646.3594 Q1034.0781,646.2813 1034.2813,646.2813 Q1034.6094,646.2813 1034.8594,646.5469 Q1035.125,646.7969 1035.125,647.1406 Q1035.125,647.4844 1034.7813,647.8906 Q1034.2813,648.4688 1033.4844,648.7969 Q1032.4063,649.25 1031.1094,649.25 Q1029.5938,649.25 1028.3906,648.625 Q1027.4063,648.125 1026.7188,647.0625 Q1026.0313,645.9844 1026.0313,644.7031 L1026.0313,643.5469 Q1026.0313,642.2188 1026.6406,641.0781 Q1027.2656,639.9219 1028.3594,639.3125 Q1029.4531,638.6875 1030.6875,638.6875 Q1031.4219,638.6875 1032.0625,638.8594 Q1032.7188,639.0156 1033.2656,639.375 Z " fill="#000000"/><text fill="#000000" font-family="sans-serif" font-size="14" lengthAdjust="spacing" textLength="47" x="1044.5" y="648.3535">Pessoa</text><line style="stroke:#181818;stroke-width:0.5;" x1="1016.5" x2="1093.5" y1="659.5" y2="659.5"/><line style="stroke:#181818;stroke-width:0.5;" x1="1016.5" x2="1093.5" y1="667.5" y2="667.5"/></g><!--MD5=[7d0e5ddd73bd8fec86b8967827845935]
class Empresa--><g id="elem_Empresa"><rect codeLine="31" fill="#F1F1F1" height="48" id="Empresa" rx="2.5" ry="2.5" style="stroke:#181818;stroke-width:0.5;" width="88" x="1015" y="855"/><ellipse cx="1030" cy="871" fill="#ADD1B2" rx="11" ry="11" style="stroke:#181818;stroke-width:1.0;"/><path d="M1032.7656,866.875 Q1032.9219,866.6563 1033.1094,866.5469 Q1033.2969,866.4375 1033.5156,866.4375 Q1033.8906,866.4375 1034.125,866.7031 Q1034.3594,866.9531 1034.3594,867.5625 L1034.3594,869.0156 Q1034.3594,869.625 1034.125,869.8906 Q1033.8906,870.1563 1033.5156,870.1563 Q1033.1719,870.1563 1032.9688,869.9531 Q1032.7656,869.7656 1032.6563,869.25 Q1032.6094,868.8906 1032.4219,868.7031 Q1032.0938,868.3281 1031.4844,868.1094 Q1030.875,867.8906 1030.25,867.8906 Q1029.4844,867.8906 1028.8438,868.2188 Q1028.2188,868.5469 1027.7188,869.2969 Q1027.2344,870.0469 1027.2344,871.0781 L1027.2344,872.1719 Q1027.2344,873.4063 1028.125,874.2344 Q1029.0156,875.0469 1030.6094,875.0469 Q1031.5469,875.0469 1032.2031,874.7969 Q1032.5938,874.6406 1033.0156,874.2031 Q1033.2813,873.9375 1033.4219,873.8594 Q1033.5781,873.7813 1033.7813,873.7813 Q1034.1094,873.7813 1034.3594,874.0469 Q1034.625,874.2969 1034.625,874.6406 Q1034.625,874.9844 1034.2813,875.3906 Q1033.7813,875.9688 1032.9844,876.2969 Q1031.9063,876.75 1030.6094,876.75 Q1029.0938,876.75 1027.8906,876.125 Q1026.9063,875.625 1026.2188,874.5625 Q1025.5313,873.4844 1025.5313,872.2031 L1025.5313,871.0469 Q1025.5313,869.7188 1026.1406,868.5781 Q1026.7656,867.4219 1027.8594,866.8125 Q1028.9531,866.1875 1030.1875,866.1875 Q1030.9219,866.1875 1031.5625,866.3594 Q1032.2188,866.5156 1032.7656,866.875 Z " fill="#000000"/><text fill="#000000" font-family="sans-serif" font-size="14" lengthAdjust="spacing" textLength="56" x="1044" y="875.8535">Empresa</text><line style="stroke:#181818;stroke-width:0.5;" x1="1016" x2="1102" y1="887" y2="887"/><line style="stroke:#181818;stroke-width:0.5;" x1="1016" x2="1102" y1="895" y2="895"/></g><!--MD5=[20a748d5ee336a9a91751b0a3d4f0beb]
class Cliente--><g id="elem_Cliente"><rect codeLine="33" fill="#F1F1F1" height="48" id="Cliente" rx="2.5" ry="2.5" style="stroke:#181818;stroke-width:0.5;" width="76" x="1138" y="855"/><ellipse cx="1153" cy="871" fill="#ADD1B2" rx="11" ry="11" style="stroke:#181818;stroke-width:1.0;"/><path d="M1155.7656,866.875 Q1155.9219,866.6563 1156.1094,866.5469 Q1156.2969,866.4375 1156.5156,866.4375 Q1156.8906,866.4375 1157.125,866.7031 Q1157.3594,866.9531 1157.3594,867.5625 L1157.3594,869.0156 Q1157.3594,869.625 1157.125,869.8906 Q1156.8906,870.1563 1156.5156,870.1563 Q1156.1719,870.1563 1155.9688,869.9531 Q1155.7656,869.7656 1155.6563,869.25 Q1155.6094,868.8906 1155.4219,868.7031 Q1155.0938,868.3281 1154.4844,868.1094 Q1153.875,867.8906 1153.25,867.8906 Q1152.4844,867.8906 1151.8438,868.2188 Q1151.2188,868.5469 1150.7188,869.2969 Q1150.2344,870.0469 1150.2344,871.0781 L1150.2344,872.1719 Q1150.2344,873.4063 1151.125,874.2344 Q1152.0156,875.0469 1153.6094,875.0469 Q1154.5469,875.0469 1155.2031,874.7969 Q1155.5938,874.6406 1156.0156,874.2031 Q1156.2813,873.9375 1156.4219,873.8594 Q1156.5781,873.7813 1156.7813,873.7813 Q1157.1094,873.7813 1157.3594,874.0469 Q1157.625,874.2969 1157.625,874.6406 Q1157.625,874.9844 1157.2813,875.3906 Q1156.7813,875.9688 1155.9844,876.2969 Q1154.9063,876.75 1153.6094,876.75 Q1152.0938,876.75 1150.8906,876.125 Q1149.9063,875.625 1149.2188,874.5625 Q1148.5313,873.4844 1148.5313,872.2031 L1148.5313,871.0469 Q1148.5313,869.7188 1149.1406,868.5781 Q1149.7656,867.4219 1150.8594,866.8125 Q1151.9531,866.1875 1153.1875,866.1875 Q1153.9219,866.1875 1154.5625,866.3594 Q1155.2188,866.5156 1155.7656,866.875 Z " fill="#000000"/><text fill="#000000" font-family="sans-serif" font-size="14" lengthAdjust="spacing" textLength="44" x="1167" y="875.8535">Cliente</text><line style="stroke:#181818;stroke-width:0.5;" x1="1139" x2="1213" y1="887" y2="887"/><line style="stroke:#181818;stroke-width:0.5;" x1="1139" x2="1213" y1="895" y2="895"/></g><!--MD5=[3ecf2b447fd626a808bbfa4df6084566]
class MapGraphPessoaStore--><g id="elem_MapGraphPessoaStore"><rect codeLine="41" fill="#F1F1F1" height="63.6406" id="MapGraphPessoaStore" rx="2.5" ry="2.5" style="stroke:#181818;stroke-width:0.5;" width="180" x="497" y="619.5"/><ellipse cx="512" cy="635.5" fill="#ADD1B2" rx="11" ry="11" style="stroke:#181818;stroke-width:1.0;"/><path d="M514.7656,631.375 Q514.9219,631.1563 515.1094,631.0469 Q515.2969,630.9375 515.5156,630.9375 Q515.8906,630.9375 516.125,631.2031 Q516.3594,631.4531 516.3594,632.0625 L516.3594,633.5156 Q516.3594,634.125 516.125,634.3906 Q515.8906,634.6563 515.5156,634.6563 Q515.1719,634.6563 514.9688,634.4531 Q514.7656,634.2656 514.6563,633.75 Q514.6094,633.3906 514.4219,633.2031 Q514.0938,632.8281 513.4844,632.6094 Q512.875,632.3906 512.25,632.3906 Q511.4844,632.3906 510.8438,632.7188 Q510.2188,633.0469 509.7188,633.7969 Q509.2344,634.5469 509.2344,635.5781 L509.2344,636.6719 Q509.2344,637.9063 510.125,638.7344 Q511.0156,639.5469 512.6094,639.5469 Q513.5469,639.5469 514.2031,639.2969 Q514.5938,639.1406 515.0156,638.7031 Q515.2813,638.4375 515.4219,638.3594 Q515.5781,638.2813 515.7813,638.2813 Q516.1094,638.2813 516.3594,638.5469 Q516.625,638.7969 516.625,639.1406 Q516.625,639.4844 516.2813,639.8906 Q515.7813,640.4688 514.9844,640.7969 Q513.9063,641.25 512.6094,641.25 Q511.0938,641.25 509.8906,640.625 Q508.9063,640.125 508.2188,639.0625 Q507.5313,637.9844 507.5313,636.7031 L507.5313,635.5469 Q507.5313,634.2188 508.1406,633.0781 Q508.7656,631.9219 509.8594,631.3125 Q510.9531,630.6875 512.1875,630.6875 Q512.9219,630.6875 513.5625,630.8594 Q514.2188,631.0156 514.7656,631.375 Z " fill="#000000"/><text fill="#000000" font-family="sans-serif" font-size="14" lengthAdjust="spacing" textLength="148" x="526" y="640.3535">MapGraphPessoaStore</text><line style="stroke:#181818;stroke-width:0.5;" x1="498" x2="676" y1="651.5" y2="651.5"/><line style="stroke:#181818;stroke-width:0.5;" x1="498" x2="676" y1="659.5" y2="659.5"/><ellipse cx="508" cy="672.8203" fill="#84BE84" rx="3" ry="3" style="stroke:#038048;stroke-width:1.0;"/><text fill="#000000" font-family="sans-serif" font-size="14" lengthAdjust="spacing" textLength="97" x="517" y="676.1738">getMapGraph()</text></g><!--MD5=[2e2f8c8f62c4eb3bc59a59727cfd81a5]
class Edge--><g id="elem_Edge"><rect codeLine="55" fill="#F1F1F1" height="63.6406" id="Edge" rx="2.5" ry="2.5" style="stroke:#181818;stroke-width:0.5;" width="100" x="281" y="847"/><ellipse cx="311.75" cy="863" fill="#ADD1B2" rx="11" ry="11" style="stroke:#181818;stroke-width:1.0;"/><path d="M314.5156,858.875 Q314.6719,858.6563 314.8594,858.5469 Q315.0469,858.4375 315.2656,858.4375 Q315.6406,858.4375 315.875,858.7031 Q316.1094,858.9531 316.1094,859.5625 L316.1094,861.0156 Q316.1094,861.625 315.875,861.8906 Q315.6406,862.1563 315.2656,862.1563 Q314.9219,862.1563 314.7188,861.9531 Q314.5156,861.7656 314.4063,861.25 Q314.3594,860.8906 314.1719,860.7031 Q313.8438,860.3281 313.2344,860.1094 Q312.625,859.8906 312,859.8906 Q311.2344,859.8906 310.5938,860.2188 Q309.9688,860.5469 309.4688,861.2969 Q308.9844,862.0469 308.9844,863.0781 L308.9844,864.1719 Q308.9844,865.4063 309.875,866.2344 Q310.7656,867.0469 312.3594,867.0469 Q313.2969,867.0469 313.9531,866.7969 Q314.3438,866.6406 314.7656,866.2031 Q315.0313,865.9375 315.1719,865.8594 Q315.3281,865.7813 315.5313,865.7813 Q315.8594,865.7813 316.1094,866.0469 Q316.375,866.2969 316.375,866.6406 Q316.375,866.9844 316.0313,867.3906 Q315.5313,867.9688 314.7344,868.2969 Q313.6563,868.75 312.3594,868.75 Q310.8438,868.75 309.6406,868.125 Q308.6563,867.625 307.9688,866.5625 Q307.2813,865.4844 307.2813,864.2031 L307.2813,863.0469 Q307.2813,861.7188 307.8906,860.5781 Q308.5156,859.4219 309.6094,858.8125 Q310.7031,858.1875 311.9375,858.1875 Q312.6719,858.1875 313.3125,858.3594 Q313.9688,858.5156 314.5156,858.875 Z " fill="#000000"/><text fill="#000000" font-family="sans-serif" font-size="14" lengthAdjust="spacing" textLength="33" x="329.25" y="867.8535">Edge</text><line style="stroke:#181818;stroke-width:0.5;" x1="282" x2="380" y1="879" y2="879"/><line style="stroke:#181818;stroke-width:0.5;" x1="282" x2="380" y1="887" y2="887"/><ellipse cx="292" cy="900.3203" fill="#84BE84" rx="3" ry="3" style="stroke:#038048;stroke-width:1.0;"/><text fill="#000000" font-family="sans-serif" font-size="14" lengthAdjust="spacing" textLength="74" x="301" y="903.6738">getWeight()</text></g><!--MD5=[706e73df52f3df32f52be1ce9adb217e]
class Graph--><g id="elem_Graph"><rect codeLine="58" fill="#F1F1F1" height="48" id="Graph" rx="2.5" ry="2.5" style="stroke:#181818;stroke-width:0.5;" width="72" x="84" y="1013"/><ellipse cx="99" cy="1029" fill="#B4A7E5" rx="11" ry="11" style="stroke:#181818;stroke-width:1.0;"/><path d="M99.9531,1025.6406 L99.9531,1032.2969 L101.6719,1032.2969 Q102.2813,1032.2969 102.5469,1032.5313 Q102.8125,1032.7656 102.8125,1033.1563 Q102.8125,1033.5313 102.5469,1033.7656 Q102.2813,1034 101.6719,1034 L96.5313,1034 Q95.9219,1034 95.6563,1033.7656 Q95.3906,1033.5313 95.3906,1033.1406 Q95.3906,1032.7656 95.6563,1032.5313 Q95.9219,1032.2969 96.5313,1032.2969 L98.25,1032.2969 L98.25,1025.6406 L96.5313,1025.6406 Q95.9219,1025.6406 95.6563,1025.4063 Q95.3906,1025.1719 95.3906,1024.7813 Q95.3906,1024.4063 95.6563,1024.1719 Q95.9219,1023.9375 96.5313,1023.9375 L101.6719,1023.9375 Q102.2813,1023.9375 102.5469,1024.1719 Q102.8125,1024.4063 102.8125,1024.7813 Q102.8125,1025.1719 102.5469,1025.4063 Q102.2813,1025.6406 101.6719,1025.6406 L99.9531,1025.6406 Z " fill="#000000"/><text fill="#000000" font-family="sans-serif" font-size="14" font-style="italic" lengthAdjust="spacing" textLength="40" x="113" y="1033.8535">Graph</text><line style="stroke:#181818;stroke-width:0.5;" x1="85" x2="155" y1="1045" y2="1045"/><line style="stroke:#181818;stroke-width:0.5;" x1="85" x2="155" y1="1053" y2="1053"/></g><!--MD5=[4533588fb66c6fa31a6e04bf29ae6161]
class Algorithms--><g id="elem_Algorithms"><rect codeLine="60" fill="#F1F1F1" height="63.6406" id="Algorithms" rx="2.5" ry="2.5" style="stroke:#181818;stroke-width:0.5;" width="420" x="416" y="847"/><ellipse cx="588.75" cy="863" fill="#ADD1B2" rx="11" ry="11" style="stroke:#181818;stroke-width:1.0;"/><path d="M591.5156,858.875 Q591.6719,858.6563 591.8594,858.5469 Q592.0469,858.4375 592.2656,858.4375 Q592.6406,858.4375 592.875,858.7031 Q593.1094,858.9531 593.1094,859.5625 L593.1094,861.0156 Q593.1094,861.625 592.875,861.8906 Q592.6406,862.1563 592.2656,862.1563 Q591.9219,862.1563 591.7188,861.9531 Q591.5156,861.7656 591.4063,861.25 Q591.3594,860.8906 591.1719,860.7031 Q590.8438,860.3281 590.2344,860.1094 Q589.625,859.8906 589,859.8906 Q588.2344,859.8906 587.5938,860.2188 Q586.9688,860.5469 586.4688,861.2969 Q585.9844,862.0469 585.9844,863.0781 L585.9844,864.1719 Q585.9844,865.4063 586.875,866.2344 Q587.7656,867.0469 589.3594,867.0469 Q590.2969,867.0469 590.9531,866.7969 Q591.3438,866.6406 591.7656,866.2031 Q592.0313,865.9375 592.1719,865.8594 Q592.3281,865.7813 592.5313,865.7813 Q592.8594,865.7813 593.1094,866.0469 Q593.375,866.2969 593.375,866.6406 Q593.375,866.9844 593.0313,867.3906 Q592.5313,867.9688 591.7344,868.2969 Q590.6563,868.75 589.3594,868.75 Q587.8438,868.75 586.6406,868.125 Q585.6563,867.625 584.9688,866.5625 Q584.2813,865.4844 584.2813,864.2031 L584.2813,863.0469 Q584.2813,861.7188 584.8906,860.5781 Q585.5156,859.4219 586.6094,858.8125 Q587.7031,858.1875 588.9375,858.1875 Q589.6719,858.1875 590.3125,858.3594 Q590.9688,858.5156 591.5156,858.875 Z " fill="#000000"/><text fill="#000000" font-family="sans-serif" font-size="14" lengthAdjust="spacing" textLength="66" x="609.25" y="867.8535">Algorithms</text><line style="stroke:#181818;stroke-width:0.5;" x1="417" x2="835" y1="879" y2="879"/><line style="stroke:#181818;stroke-width:0.5;" x1="417" x2="835" y1="887" y2="887"/><ellipse cx="427" cy="900.3203" fill="#84BE84" rx="3" ry="3" style="stroke:#038048;stroke-width:1.0;"/><text fill="#000000" font-family="sans-serif" font-size="14" lengthAdjust="spacing" textLength="394" x="436" y="903.6738">minDistGraph(mapGraphPessoa, comparator, binaryOperator)</text></g><!--MD5=[ef63e85e32976ed6c3ca2a05ce10893d]
class CommonGraph--><g id="elem_CommonGraph"><rect codeLine="64" fill="#F1F1F1" height="63.6406" id="CommonGraph" rx="2.5" ry="2.5" style="stroke:#181818;stroke-width:0.5;" width="128" x="191" y="1005"/><ellipse cx="206" cy="1021" fill="#ADD1B2" rx="11" ry="11" style="stroke:#181818;stroke-width:1.0;"/><path d="M208.7656,1016.875 Q208.9219,1016.6563 209.1094,1016.5469 Q209.2969,1016.4375 209.5156,1016.4375 Q209.8906,1016.4375 210.125,1016.7031 Q210.3594,1016.9531 210.3594,1017.5625 L210.3594,1019.0156 Q210.3594,1019.625 210.125,1019.8906 Q209.8906,1020.1563 209.5156,1020.1563 Q209.1719,1020.1563 208.9688,1019.9531 Q208.7656,1019.7656 208.6563,1019.25 Q208.6094,1018.8906 208.4219,1018.7031 Q208.0938,1018.3281 207.4844,1018.1094 Q206.875,1017.8906 206.25,1017.8906 Q205.4844,1017.8906 204.8438,1018.2188 Q204.2188,1018.5469 203.7188,1019.2969 Q203.2344,1020.0469 203.2344,1021.0781 L203.2344,1022.1719 Q203.2344,1023.4063 204.125,1024.2344 Q205.0156,1025.0469 206.6094,1025.0469 Q207.5469,1025.0469 208.2031,1024.7969 Q208.5938,1024.6406 209.0156,1024.2031 Q209.2813,1023.9375 209.4219,1023.8594 Q209.5781,1023.7813 209.7813,1023.7813 Q210.1094,1023.7813 210.3594,1024.0469 Q210.625,1024.2969 210.625,1024.6406 Q210.625,1024.9844 210.2813,1025.3906 Q209.7813,1025.9688 208.9844,1026.2969 Q207.9063,1026.75 206.6094,1026.75 Q205.0938,1026.75 203.8906,1026.125 Q202.9063,1025.625 202.2188,1024.5625 Q201.5313,1023.4844 201.5313,1022.2031 L201.5313,1021.0469 Q201.5313,1019.7188 202.1406,1018.5781 Q202.7656,1017.4219 203.8594,1016.8125 Q204.9531,1016.1875 206.1875,1016.1875 Q206.9219,1016.1875 207.5625,1016.3594 Q208.2188,1016.5156 208.7656,1016.875 Z " fill="#000000"/><text fill="#000000" font-family="sans-serif" font-size="14" lengthAdjust="spacing" textLength="96" x="220" y="1025.8535">CommonGraph</text><line style="stroke:#181818;stroke-width:0.5;" x1="192" x2="318" y1="1037" y2="1037"/><line style="stroke:#181818;stroke-width:0.5;" x1="192" x2="318" y1="1045" y2="1045"/><ellipse cx="202" cy="1058.3203" fill="#84BE84" rx="3" ry="3" style="stroke:#038048;stroke-width:1.0;"/><text fill="#000000" font-family="sans-serif" font-size="14" lengthAdjust="spacing" textLength="59" x="211" y="1061.6738">vertices()</text></g><!--MD5=[b122bab300f80f5d31a622e2bae54847]
class MapGraph--><g id="elem_MapGraph"><rect codeLine="50" fill="#F1F1F1" height="63.6406" id="MapGraph" rx="2.5" ry="2.5" style="stroke:#181818;stroke-width:0.5;" width="176" x="70" y="847"/><ellipse cx="120.25" cy="863" fill="#ADD1B2" rx="11" ry="11" style="stroke:#181818;stroke-width:1.0;"/><path d="M123.0156,858.875 Q123.1719,858.6563 123.3594,858.5469 Q123.5469,858.4375 123.7656,858.4375 Q124.1406,858.4375 124.375,858.7031 Q124.6094,858.9531 124.6094,859.5625 L124.6094,861.0156 Q124.6094,861.625 124.375,861.8906 Q124.1406,862.1563 123.7656,862.1563 Q123.4219,862.1563 123.2188,861.9531 Q123.0156,861.7656 122.9063,861.25 Q122.8594,860.8906 122.6719,860.7031 Q122.3438,860.3281 121.7344,860.1094 Q121.125,859.8906 120.5,859.8906 Q119.7344,859.8906 119.0938,860.2188 Q118.4688,860.5469 117.9688,861.2969 Q117.4844,862.0469 117.4844,863.0781 L117.4844,864.1719 Q117.4844,865.4063 118.375,866.2344 Q119.2656,867.0469 120.8594,867.0469 Q121.7969,867.0469 122.4531,866.7969 Q122.8438,866.6406 123.2656,866.2031 Q123.5313,865.9375 123.6719,865.8594 Q123.8281,865.7813 124.0313,865.7813 Q124.3594,865.7813 124.6094,866.0469 Q124.875,866.2969 124.875,866.6406 Q124.875,866.9844 124.5313,867.3906 Q124.0313,867.9688 123.2344,868.2969 Q122.1563,868.75 120.8594,868.75 Q119.3438,868.75 118.1406,868.125 Q117.1563,867.625 116.4688,866.5625 Q115.7813,865.4844 115.7813,864.2031 L115.7813,863.0469 Q115.7813,861.7188 116.3906,860.5781 Q117.0156,859.4219 118.1094,858.8125 Q119.2031,858.1875 120.4375,858.1875 Q121.1719,858.1875 121.8125,858.3594 Q122.4688,858.5156 123.0156,858.875 Z " fill="#000000"/><text fill="#000000" font-family="sans-serif" font-size="14" lengthAdjust="spacing" textLength="67" x="140.75" y="867.8535">MapGraph</text><line style="stroke:#181818;stroke-width:0.5;" x1="71" x2="245" y1="879" y2="879"/><line style="stroke:#181818;stroke-width:0.5;" x1="71" x2="245" y1="887" y2="887"/><ellipse cx="81" cy="900.3203" fill="#84BE84" rx="3" ry="3" style="stroke:#038048;stroke-width:1.0;"/><text fill="#000000" font-family="sans-serif" font-size="14" lengthAdjust="spacing" textLength="150" x="90" y="903.6738">edge(pessoa, pessoa1)</text></g><!--MD5=[2473181366ad82bea05d20fd8c7f64f7]
class FindMethods--><g id="elem_FindMethods"><rect codeLine="70" fill="#F1F1F1" height="63.6406" id="FindMethods" rx="2.5" ry="2.5" style="stroke:#181818;stroke-width:0.5;" width="201" x="733.5" y="619.5"/><ellipse cx="788.75" cy="635.5" fill="#ADD1B2" rx="11" ry="11" style="stroke:#181818;stroke-width:1.0;"/><path d="M791.5156,631.375 Q791.6719,631.1563 791.8594,631.0469 Q792.0469,630.9375 792.2656,630.9375 Q792.6406,630.9375 792.875,631.2031 Q793.1094,631.4531 793.1094,632.0625 L793.1094,633.5156 Q793.1094,634.125 792.875,634.3906 Q792.6406,634.6563 792.2656,634.6563 Q791.9219,634.6563 791.7188,634.4531 Q791.5156,634.2656 791.4063,633.75 Q791.3594,633.3906 791.1719,633.2031 Q790.8438,632.8281 790.2344,632.6094 Q789.625,632.3906 789,632.3906 Q788.2344,632.3906 787.5938,632.7188 Q786.9688,633.0469 786.4688,633.7969 Q785.9844,634.5469 785.9844,635.5781 L785.9844,636.6719 Q785.9844,637.9063 786.875,638.7344 Q787.7656,639.5469 789.3594,639.5469 Q790.2969,639.5469 790.9531,639.2969 Q791.3438,639.1406 791.7656,638.7031 Q792.0313,638.4375 792.1719,638.3594 Q792.3281,638.2813 792.5313,638.2813 Q792.8594,638.2813 793.1094,638.5469 Q793.375,638.7969 793.375,639.1406 Q793.375,639.4844 793.0313,639.8906 Q792.5313,640.4688 791.7344,640.7969 Q790.6563,641.25 789.3594,641.25 Q787.8438,641.25 786.6406,640.625 Q785.6563,640.125 784.9688,639.0625 Q784.2813,637.9844 784.2813,636.7031 L784.2813,635.5469 Q784.2813,634.2188 784.8906,633.0781 Q785.5156,631.9219 786.6094,631.3125 Q787.7031,630.6875 788.9375,630.6875 Q789.6719,630.6875 790.3125,630.8594 Q790.9688,631.0156 791.5156,631.375 Z " fill="#000000"/><text fill="#000000" font-family="sans-serif" font-size="14" lengthAdjust="spacing" textLength="82" x="809.25" y="640.3535">FindMethods</text><line style="stroke:#181818;stroke-width:0.5;" x1="734.5" x2="933.5" y1="651.5" y2="651.5"/><line style="stroke:#181818;stroke-width:0.5;" x1="734.5" x2="933.5" y1="659.5" y2="659.5"/><ellipse cx="744.5" cy="672.8203" fill="#84BE84" rx="3" ry="3" style="stroke:#038048;stroke-width:1.0;"/><text fill="#000000" font-family="sans-serif" font-size="14" lengthAdjust="spacing" textLength="175" x="753.5" y="676.1738">findNearestHubEachClient()</text></g><!--MD5=[66db75c6a90eee27ea57be2f28d34b97]
link Main to MenuUI--><g id="link_Main_MenuUI"><path codeLine="76" d="M1174,206.04 C1174,222.94 1174,243.94 1174,261.6 " fill="none" id="Main-to-MenuUI" style="stroke:#181818;stroke-width:1.0;stroke-dasharray:7.0,7.0;"/><polygon fill="#181818" points="1174,266.97,1178,257.97,1174,261.97,1170,257.97,1174,266.97" style="stroke:#181818;stroke-width:1.0;"/></g><!--MD5=[18b2adbec2d4d81fe2abb63fe9732443]
link MenuUI to MainController--><g id="link_MenuUI_MainController"><path codeLine="77" d="M1174,331.04 C1174,358.26 1174,397.86 1174,426.57 " fill="none" id="MenuUI-to-MainController" style="stroke:#181818;stroke-width:1.0;stroke-dasharray:7.0,7.0;"/><polygon fill="#181818" points="1174,431.8,1178,422.8,1174,426.8,1170,422.8,1174,431.8" style="stroke:#181818;stroke-width:1.0;"/></g><!--MD5=[6466c02c70a565c5689553fda203fa28]
link MainController to Company--><g id="link_MainController_Company"><path codeLine="80" d="M1183.71,496.05 C1193.21,526.42 1207.76,572.96 1218.4,607.01 " fill="none" id="MainController-to-Company" style="stroke:#181818;stroke-width:1.0;stroke-dasharray:7.0,7.0;"/><polygon fill="#181818" points="1219.94,611.94,1221.0835,602.1577,1218.4535,607.1661,1213.4452,604.5361,1219.94,611.94" style="stroke:#181818;stroke-width:1.0;"/></g><!--MD5=[469f62d4ea574e5e2eb4e06a0f71e1c5]
link MainController to FindMethods--><g id="link_MainController_FindMethods"><path codeLine="81" d="M1108.56,496.05 C1075.42,512.15 1034.74,532.49 999,552 C961.6,572.42 920.45,596.98 888.6,616.47 " fill="none" id="MainController-to-FindMethods" style="stroke:#181818;stroke-width:1.0;stroke-dasharray:7.0,7.0;"/><polygon fill="#181818" points="883.97,619.31,893.7345,618.0235,888.2346,616.6999,889.5583,611.2,883.97,619.31" style="stroke:#181818;stroke-width:1.0;"/></g><!--MD5=[42e5e3a5f5591e667f24dce403e7d467]
reverse link Company to MapGraphPessoaStore--><g id="link_Company_MapGraphPessoaStore"><path codeLine="83" d="M1187.35,602.88 C1166.54,583.75 1140.17,564 1112,554 C1029.28,524.63 800.27,526.24 717,554 C678.33,566.89 641.89,596.29 617.49,619.46 " fill="none" id="Company-backto-MapGraphPessoaStore" style="stroke:#181818;stroke-width:1.0;"/><polygon fill="#181818" points="1196.8,611.88,1195.2159,604.845,1188.1129,603.6015,1189.6969,610.6365,1196.8,611.88" style="stroke:#181818;stroke-width:1.0;"/><text fill="#000000" font-family="sans-serif" font-size="13" lengthAdjust="spacing" textLength="30" x="806" y="540.7686">owns</text></g><!--MD5=[6dca874cf3a38b9cb94b5c2996eb0087]
link FindMethods to Algorithms--><g id="link_FindMethods_Algorithms"><path codeLine="85" d="M772.41,683.55 C755.21,693.99 737.33,706.67 723,721 C685.61,758.37 656.12,812.79 639.88,846.76 " fill="none" id="FindMethods-Algorithms" style="stroke:#181818;stroke-width:1.0;"/><polygon fill="#000000" points="724.8482,733.1432,732.8314,727.9741,728.2684,724.2689,724.8482,733.1432" style="stroke:#000000;stroke-width:1.0;"/><text fill="#000000" font-family="sans-serif" font-size="13" lengthAdjust="spacing" textLength="28" x="737" y="733.7686">uses</text></g><!--MD5=[cb53682ffc491c53e3f31a908e344b75]
reverse link Pessoa to Empresa--><g id="link_Pessoa_Empresa"><path codeLine="87" d="M1055.77,696.06 C1056.61,743.48 1057.93,817.53 1058.59,854.84 " fill="none" id="Pessoa-backto-Empresa" style="stroke:#181818;stroke-width:1.0;"/><polygon fill="none" points="1048.77,695.9,1055.41,675.78,1062.77,695.66,1048.77,695.9" style="stroke:#181818;stroke-width:1.0;"/><text fill="#000000" font-family="sans-serif" font-size="13" lengthAdjust="spacing" textLength="46" x="1057" y="733.7686">extends</text></g><!--MD5=[702d5b37fca83cae27a0c5ef8ecb95d9]
reverse link Pessoa to Cliente--><g id="link_Pessoa_Cliente"><path codeLine="88" d="M1090.39,690.85 C1098.11,700.3 1105.8,710.67 1112,721 C1138.73,765.55 1159.03,823.3 1169.05,854.87 " fill="none" id="Pessoa-backto-Cliente" style="stroke:#181818;stroke-width:1.0;"/><polygon fill="none" points="1084.96,695.28,1077.24,675.54,1095.58,686.15,1084.96,695.28" style="stroke:#181818;stroke-width:1.0;"/><text fill="#000000" font-family="sans-serif" font-size="13" lengthAdjust="spacing" textLength="46" x="1122" y="733.7686">extends</text></g><!--MD5=[f9f51b0f3e52deb59c69e12ec6fd1ab3]
reverse link Pessoa to Produtor--><g id="link_Pessoa_Produtor"><path codeLine="89" d="M1021.61,691.61 C1014.16,700.99 1006.54,711.15 1000,721 C969.81,766.44 940.96,823.61 925.87,854.9 " fill="none" id="Pessoa-backto-Produtor" style="stroke:#181818;stroke-width:1.0;"/><polygon fill="none" points="1016.47,686.83,1034.56,675.79,1027.31,695.7,1016.47,686.83" style="stroke:#181818;stroke-width:1.0;"/><text fill="#000000" font-family="sans-serif" font-size="13" lengthAdjust="spacing" textLength="46" x="1001" y="733.7686">extends</text></g><!--MD5=[f8596010a7bf3eb0e0448ea4988d2573]
link MapGraph to Graph--><g id="link_MapGraph_Graph"><path codeLine="91" d="M148.85,911.02 C144.7,925.53 139.86,943.09 136,959 C133.33,970 130.71,981.94 128.39,993.07 " fill="none" id="MapGraph-to-Graph" style="stroke:#181818;stroke-width:1.0;stroke-dasharray:7.0,7.0;"/><polygon fill="none" points="135.19,994.78,124.36,1013,121.46,992.01,135.19,994.78" style="stroke:#181818;stroke-width:1.0;"/><text fill="#000000" font-family="sans-serif" font-size="13" lengthAdjust="spacing" textLength="67" x="137" y="971.7686">implements</text></g><!--MD5=[7e7fe92a5523e911c73a9daab762bfae]
link MapGraph to CommonGraph--><g id="link_MapGraph_CommonGraph"><path codeLine="92" d="M178.6,911.36 C187.99,925.8 199.18,943.19 209,959 C214.66,968.11 220.6,977.89 226.27,987.32 " fill="none" id="MapGraph-to-CommonGraph" style="stroke:#181818;stroke-width:1.0;"/><polygon fill="none" points="232.43,983.99,236.67,1004.75,220.41,991.17,232.43,983.99" style="stroke:#181818;stroke-width:1.0;"/><text fill="#000000" font-family="sans-serif" font-size="13" lengthAdjust="spacing" textLength="46" x="219" y="971.7686">extends</text></g><!--MD5=[3637b0d0a232e2ebc04aa56977ebd5fe]
link MapGraphPessoaStore to Edge--><g id="link_MapGraphPessoaStore_Edge"><path codeLine="94" d="M496.82,682.9 C463.08,697.63 426.34,718.07 399,745 C369.9,773.66 350.87,817.4 340.53,846.81 " fill="none" id="MapGraphPessoaStore-Edge" style="stroke:#181818;stroke-width:1.0;"/><polygon fill="#000000" points="425.5496,732.8804,433.9184,728.3623,429.6645,724.3061,425.5496,732.8804" style="stroke:#000000;stroke-width:1.0;"/><text fill="#000000" font-family="sans-serif" font-size="13" lengthAdjust="spacing" textLength="21" x="438" y="733.7686">has</text><text fill="#000000" font-family="sans-serif" font-size="13" lengthAdjust="spacing" textLength="7" x="482.0621" y="682.7257">1</text><text fill="#000000" font-family="sans-serif" font-size="13" lengthAdjust="spacing" textLength="5" x="337.0678" y="836.1023">*</text></g><!--MD5=[01d3e379764c7ee9b515075b6bfb6132]
link MapGraphPessoaStore to Pessoa--><g id="link_MapGraphPessoaStore_Pessoa"><path codeLine="95" d="M617.49,619.46 C641.89,596.29 678.33,566.89 717,554 C766.33,537.56 902.64,534.88 951,554 C988.05,568.65 1019.64,603.44 1037.97,627.24 " fill="none" id="MapGraphPessoaStore-Pessoa" style="stroke:#181818;stroke-width:1.0;"/><polygon fill="#000000" points="872.9991,536.3542,864.01,533.2485,863.9012,539.1253,872.9991,536.3542" style="stroke:#000000;stroke-width:1.0;"/><text fill="#000000" font-family="sans-serif" font-size="13" lengthAdjust="spacing" textLength="21" x="877" y="540.7686">has</text><text fill="#000000" font-family="sans-serif" font-size="13" lengthAdjust="spacing" textLength="7" x="616.3941" y="608.7851">1</text><text fill="#000000" font-family="sans-serif" font-size="13" lengthAdjust="spacing" textLength="5" x="1027.7213" y="616.6778">*</text></g><!--MD5=[bdff71eec9032d6618fea466e75293d7]
link MapGraphPessoaStore to MapGraph--><g id="link_MapGraphPessoaStore_MapGraph"><path codeLine="97" d="M496.78,660.27 C424.44,670.26 323.25,693.06 250,745 C213.35,770.98 186.58,816.44 171.65,846.88 " fill="none" id="MapGraphPessoaStore-MapGraph" style="stroke:#181818;stroke-width:1.0;"/><polygon fill="#000000" points="282.6635,731.7507,291.9713,729.797,289.0453,724.6992,282.6635,731.7507" style="stroke:#000000;stroke-width:1.0;"/><text fill="#000000" font-family="sans-serif" font-size="13" lengthAdjust="spacing" textLength="21" x="296" y="733.7686">has</text><text fill="#000000" font-family="sans-serif" font-size="13" lengthAdjust="spacing" textLength="7" x="482.0188" y="658.2217">1</text><text fill="#000000" font-family="sans-serif" font-size="13" lengthAdjust="spacing" textLength="22" x="150.2297" y="836.1876">0..1</text></g><!--MD5=[920492bf435551232f3e99ca3d19a3f3]
@startuml
'https://plantuml.com/class-diagram
package java <<Folder>>#DDDDDD {
package Company <<Folder>>#DDDDDD {


package Controller <<Folder>>#DDDDDD {
class MainController{
+findNearestHubEachClient()
}

}

package ui <<Folder>>#DDDDDD {
class MenuUI{
+ MainController()
}

class Main{
+ MenuUI()
}

}
package Model <<Folder>>#DDDDDD {

class Company{
+getStoreLists()
+getMapGraphPessoaStore()
}
class Pessoa{
}
class Empresa{
}
class Cliente{
}
}


}
package Store <<Folder>>#DDDDDD {

class MapGraphPessoaStore{
+getMapGraph()
}
}



package Graph <<Folder>>#DDDDDD {
package map <<Folder>>#DDDDDD {
class MapGraph{
+edge(pessoa, pessoa1)
}
}

class Edge{
+getWeight()
}
Interface Graph

class Algorithms{
+minDistGraph(mapGraphPessoa, comparator, binaryOperator)
}

class CommonGraph{
+vertices()
}
}

package Methods <<Folder>>#DDDDDD {
class FindMethods{
+findNearestHubEachClient()
}
}


Main ..> MenuUI
MenuUI ..> MainController


MainController ..> Company
MainController ..> FindMethods

Company *- - MapGraphPessoaStore : owns

FindMethods - - Algorithms : uses >

Pessoa <|- -  Empresa: extends
Pessoa <|- - Cliente: extends
Pessoa <|- - Produtor: extends

MapGraph ..|> Graph : implements
MapGraph - -|> CommonGraph : extends

MapGraphPessoaStore "1" - - "*" Edge: has >
MapGraphPessoaStore "1" - - "*" Pessoa: has >

MapGraphPessoaStore "1" - - "0..1" MapGraph: has >



@enduml

@startuml
package java <<Folder>>#DDDDDD {
package Company <<Folder>>#DDDDDD {


package Controller <<Folder>>#DDDDDD {
class MainController{
+findNearestHubEachClient()
}

}

package ui <<Folder>>#DDDDDD {
class MenuUI{
+ MainController()
}

class Main{
+ MenuUI()
}

}
package Model <<Folder>>#DDDDDD {

class Company{
+getStoreLists()
+getMapGraphPessoaStore()
}
class Pessoa{
}
class Empresa{
}
class Cliente{
}
}


}
package Store <<Folder>>#DDDDDD {

class MapGraphPessoaStore{
+getMapGraph()
}
}



package Graph <<Folder>>#DDDDDD {
package map <<Folder>>#DDDDDD {
class MapGraph{
+edge(pessoa, pessoa1)
}
}

class Edge{
+getWeight()
}
Interface Graph

class Algorithms{
+minDistGraph(mapGraphPessoa, comparator, binaryOperator)
}

class CommonGraph{
+vertices()
}
}

package Methods <<Folder>>#DDDDDD {
class FindMethods{
+findNearestHubEachClient()
}
}


Main ..> MenuUI
MenuUI ..> MainController


MainController ..> Company
MainController ..> FindMethods

Company *- - MapGraphPessoaStore : owns

FindMethods - - Algorithms : uses >

Pessoa <|- -  Empresa: extends
Pessoa <|- - Cliente: extends
Pessoa <|- - Produtor: extends

MapGraph ..|> Graph : implements
MapGraph - -|> CommonGraph : extends

MapGraphPessoaStore "1" - - "*" Edge: has >
MapGraphPessoaStore "1" - - "*" Pessoa: has >

MapGraphPessoaStore "1" - - "0..1" MapGraph: has >



@enduml

PlantUML version 1.2022.12(Sun Oct 23 19:12:26 WEST 2022)
(GPL source distribution)
Java Runtime: OpenJDK Runtime Environment
JVM: OpenJDK 64-Bit Server VM
Default Encoding: Cp1252
Language: pt
Country: PT
--></g></svg>